<?xml version="1.0" encoding="utf-8"?>
<!-- Generator: Adobe Illustrator 19.1.0, SVG Export Plug-In . SVG Version: 6.00 Build 0)  -->
<svg version="1.1" id="Calque_1" xmlns="http://www.w3.org/2000/svg" xmlns:xlink="http://www.w3.org/1999/xlink" x="0px" y="0px"
	 viewBox="-186 172.6 586 217.4" style="enable-background:new -186 172.6 586 217.4;" xml:space="preserve">
<style type="text/css">
	.st0{fill:none;stroke:#2C06E6;stroke-width:2;stroke-miterlimit:10;}
	.st1{fill:none;stroke:#231F20;stroke-width:5;stroke-miterlimit:10;}
	.st2{fill:#3736BC;}
	.st3{fill:#A400E8;}
	.st4{fill:#06FFD9;}
	.st5{fill:none;stroke:#06FFD9;stroke-width:2;stroke-miterlimit:10;}
	.st6{fill:none;stroke:#FA00E8;stroke-width:2;stroke-miterlimit:10;}
</style>
<g>
	<path class="st0" d="M49.2,255.6v11.2h-13v41.8H13.3l0.1-41.8H-0.1v-11.2H49.2z"/>
	<path class="st0" d="M64.7,282.1v26.4H53.3v-26.4H64.7z M107,282.1H95.7c0-3.7-1.2-7.1-3.6-10.1c-2.9-3.4-6.6-5.1-11.2-5.1H59
		v-11.3h21.5c7.3,0,13.5,2.6,18.7,7.7C104.4,268.4,107,274.7,107,282.1z M107,308.6l-27.2-26.4H65.5l27.2,26.4H107z"/>
	<path class="st0" d="M167,282.1c0,7.5-2.5,13.8-7.6,18.9c-5.1,5.1-11.4,7.6-18.9,7.6c-6,0-11.9-2.6-17.8-7.7
		c-5.8-5.1-8.8-11.4-8.8-18.8c0-7.5,2.6-13.7,7.7-18.8c5.1-5.1,11.4-7.6,18.9-7.6c7.3,0,13.5,2.6,18.7,7.7
		C164.4,268.4,167,274.7,167,282.1z M155.6,282.1c0-3.7-1.2-7.1-3.7-10.1c-2.9-3.4-6.6-5.1-11.2-5.1c-4,0-7.5,1.5-10.4,4.5
		c-2.9,3-4.4,6.6-4.4,10.7c0,3.5,1.2,6.8,3.7,9.8c2.9,3.6,6.6,5.4,11.1,5.4c4,0,7.5-1.5,10.5-4.4
		C154.2,289.9,155.6,286.3,155.6,282.1z"/>
	<path class="st0" d="M200.6,282h-16v26.5h-11.2v-53L200.6,282z M201.4,282.1h16v-26.5h11.2v53L201.4,282.1z"/>
</g>
<polyline id="Triangle_1_" class="st1" points="192.1,250.4 397.8,176.5 397.5,387.6 -171.4,387.6 11.3,317.2 "/>
<path class="st2" d="M476.3,157.1c1-1.1,2.1-1.4,3.5-0.9C478.8,157.4,477.5,157,476.3,157.1z"/>
<g>
	<g>
		<path class="st3" d="M207.7,352h9.6v31.8h-6.2v-21.5c0-0.6,0-1.5,0-2.6c0-1.1,0-2,0-2.6l-6,26.7h-6.5l-6-26.7c0,0.6,0,1.5,0,2.6
			c0,1.1,0,2,0,2.6v21.5h-6.2V352h9.7l5.8,25L207.7,352z"/>
		<path class="st3" d="M232.5,352h7.5l11.2,31.8H244l-2.1-6.5h-11.7l-2.2,6.5h-6.9L232.5,352z M232,371.8h8.1l-4-12.5L232,371.8z"/>
		<path class="st3" d="M276.6,370c-1.9,1.6-4.5,2.3-8,2.3H262v11.4h-6.6V352h13.6c3.1,0,5.7,0.8,7.5,2.5c1.9,1.6,2.8,4.2,2.8,7.6
			C279.4,365.8,278.5,368.5,276.6,370z M271.5,358.6c-0.8-0.7-2-1.1-3.5-1.1h-6v9.4h6c1.5,0,2.7-0.4,3.5-1.1s1.3-2,1.3-3.6
			S272.4,359.3,271.5,358.6z"/>
		<path class="st3" d="M306.1,370c-1.9,1.6-4.5,2.3-8,2.3h-6.6v11.4h-6.6V352h13.6c3.1,0,5.7,0.8,7.5,2.5c1.9,1.6,2.8,4.2,2.8,7.6
			C308.8,365.8,307.9,368.5,306.1,370z M301,358.6c-0.8-0.7-2-1.1-3.5-1.1h-6v9.4h6c1.5,0,2.7-0.4,3.5-1.1s1.3-2,1.3-3.6
			S301.8,359.3,301,358.6z"/>
		<path class="st3" d="M320.2,383.8h-6.6V352h6.6V383.8z"/>
		<path class="st3" d="M326.3,352h7l12.6,22.2V352h6.2v31.8h-6.6l-12.9-22.5v22.5h-6.2V352z"/>
		<path class="st3" d="M379.7,361.9c-0.5-2.2-1.7-3.7-3.7-4.5c-1.1-0.5-2.3-0.7-3.6-0.7c-2.6,0-4.7,1-6.3,2.9
			c-1.6,1.9-2.5,4.8-2.5,8.7c0,3.9,0.9,6.7,2.7,8.3c1.8,1.6,3.8,2.4,6.1,2.4c2.2,0,4.1-0.6,5.5-1.9c1.4-1.3,2.3-3,2.6-5h-7.4v-5.3
			h13.2v17h-4.4l-0.7-4c-1.3,1.5-2.4,2.6-3.4,3.2c-1.8,1.1-3.9,1.6-6.5,1.6c-4.2,0-7.7-1.5-10.3-4.4c-2.8-2.9-4.2-6.9-4.2-12
			c0-5.1,1.4-9.3,4.2-12.4c2.8-3.1,6.6-4.7,11.2-4.7c4,0,7.3,1,9.7,3.1c2.5,2,3.9,4.6,4.2,7.7H379.7z"/>
	</g>
	<g>
		<path class="st4" d="M206.2,353h9.6v31.8h-6.2v-21.5c0-0.6,0-1.5,0-2.6c0-1.1,0-2,0-2.6l-6,26.7h-6.5l-6-26.7c0,0.6,0,1.5,0,2.6
			c0,1.1,0,2,0,2.6v21.5H185V353h9.7l5.8,25L206.2,353z"/>
		<path class="st4" d="M230.9,353h7.5l11.2,31.8h-7.2l-2.1-6.5h-11.7l-2.2,6.5h-6.9L230.9,353z M230.5,372.8h8.1l-4-12.5
			L230.5,372.8z"/>
		<path class="st4" d="M275.1,371c-1.9,1.6-4.5,2.3-8,2.3h-6.6v11.4h-6.6V353h13.6c3.1,0,5.7,0.8,7.5,2.5c1.9,1.6,2.8,4.2,2.8,7.6
			C277.9,366.8,276.9,369.5,275.1,371z M270,359.6c-0.8-0.7-2-1.1-3.5-1.1h-6v9.4h6c1.5,0,2.7-0.4,3.5-1.1c0.8-0.8,1.3-2,1.3-3.6
			C271.3,361.5,270.8,360.3,270,359.6z"/>
		<path class="st4" d="M304.5,371c-1.9,1.6-4.5,2.3-8,2.3h-6.6v11.4h-6.6V353H297c3.1,0,5.7,0.8,7.5,2.5c1.9,1.6,2.8,4.2,2.8,7.6
			C307.3,366.8,306.4,369.5,304.5,371z M299.4,359.6c-0.8-0.7-2-1.1-3.5-1.1h-6v9.4h6c1.5,0,2.7-0.4,3.5-1.1s1.3-2,1.3-3.6
			C300.7,361.5,300.3,360.3,299.4,359.6z"/>
		<path class="st4" d="M318.7,384.8h-6.6V353h6.6V384.8z"/>
		<path class="st4" d="M324.8,353h7l12.6,22.2V353h6.2v31.8h-6.6L331,362.2v22.5h-6.2V353z"/>
		<path class="st4" d="M378.1,362.9c-0.5-2.2-1.7-3.7-3.7-4.5c-1.1-0.5-2.3-0.7-3.6-0.7c-2.6,0-4.7,1-6.3,2.9
			c-1.6,1.9-2.5,4.8-2.5,8.7c0,3.9,0.9,6.7,2.7,8.3c1.8,1.6,3.8,2.4,6.1,2.4c2.2,0,4.1-0.6,5.5-1.9c1.4-1.3,2.3-3,2.6-5h-7.4v-5.3
			h13.2v17h-4.4l-0.7-4c-1.3,1.5-2.4,2.6-3.4,3.2c-1.8,1.1-3.9,1.6-6.5,1.6c-4.2,0-7.7-1.5-10.3-4.4c-2.8-2.9-4.2-6.9-4.2-12
			c0-5.1,1.4-9.3,4.2-12.4c2.8-3.1,6.6-4.7,11.2-4.7c4,0,7.3,1,9.7,3.1c2.5,2,3.9,4.6,4.2,7.7H378.1z"/>
	</g>
	<g>
		<path d="M207.1,354h9.6v31.8h-6.2v-21.5c0-0.6,0-1.5,0-2.6c0-1.1,0-2,0-2.6l-6,26.7H198l-6-26.7c0,0.6,0,1.5,0,2.6
			c0,1.1,0,2,0,2.6v21.5h-6.2V354h9.7l5.8,25L207.1,354z"/>
		<path d="M231.9,354h7.5l11.2,31.8h-7.2l-2.1-6.5h-11.7l-2.2,6.5h-6.9L231.9,354z M231.4,373.8h8.1l-4-12.5L231.4,373.8z"/>
		<path d="M276,372c-1.9,1.6-4.5,2.3-8,2.3h-6.6v11.4h-6.6V354h13.6c3.1,0,5.7,0.8,7.5,2.5c1.9,1.6,2.8,4.2,2.8,7.6
			C278.8,367.8,277.9,370.5,276,372z M270.9,360.6c-0.8-0.7-2-1.1-3.5-1.1h-6v9.4h6c1.5,0,2.7-0.4,3.5-1.1s1.3-2,1.3-3.6
			S271.8,361.3,270.9,360.6z"/>
		<path d="M305.5,372c-1.9,1.6-4.5,2.3-8,2.3h-6.6v11.4h-6.6V354h13.6c3.1,0,5.7,0.8,7.5,2.5c1.9,1.6,2.8,4.2,2.8,7.6
			C308.2,367.8,307.3,370.5,305.5,372z M300.4,360.6c-0.8-0.7-2-1.1-3.5-1.1h-6v9.4h6c1.5,0,2.7-0.4,3.5-1.1s1.3-2,1.3-3.6
			S301.2,361.3,300.4,360.6z"/>
		<path d="M319.6,385.8H313V354h6.6V385.8z"/>
		<path d="M325.7,354h7l12.6,22.2V354h6.2v31.8h-6.6l-12.9-22.5v22.5h-6.2V354z"/>
		<path d="M379.1,363.9c-0.5-2.2-1.7-3.7-3.7-4.5c-1.1-0.5-2.3-0.7-3.6-0.7c-2.6,0-4.7,1-6.3,2.9c-1.6,1.9-2.5,4.8-2.5,8.7
			c0,3.9,0.9,6.7,2.7,8.3c1.8,1.6,3.8,2.4,6.1,2.4c2.2,0,4.1-0.6,5.5-1.9c1.4-1.3,2.3-3,2.6-5h-7.4v-5.3h13.2v17h-4.4l-0.7-4
			c-1.3,1.5-2.4,2.6-3.4,3.2c-1.8,1.1-3.9,1.6-6.5,1.6c-4.2,0-7.7-1.5-10.3-4.4c-2.8-2.9-4.2-6.9-4.2-12c0-5.1,1.4-9.3,4.2-12.4
			c2.8-3.1,6.6-4.7,11.2-4.7c4,0,7.3,1,9.7,3.1c2.5,2,3.9,4.6,4.2,7.7H379.1z"/>
	</g>
</g>
<g>
	<path class="st5" d="M52.3,260.2v11.2h-13v41.8H16.4l0.1-41.8H3v-11.2H52.3z"/>
	<path class="st5" d="M67.7,286.6v26.4H56.3v-26.4H67.7z M110,286.6H98.7c0-3.7-1.2-7.1-3.6-10.1c-2.9-3.4-6.6-5.1-11.2-5.1H62
		v-11.3h21.5c7.3,0,13.5,2.6,18.7,7.7C107.5,273,110,279.2,110,286.6z M110,313.1l-27.2-26.4H68.5l27.2,26.4H110z"/>
	<path class="st5" d="M170,286.6c0,7.5-2.5,13.8-7.6,18.9c-5.1,5.1-11.4,7.6-18.9,7.6c-6,0-11.9-2.6-17.8-7.7s-8.8-11.4-8.8-18.8
		c0-7.5,2.6-13.7,7.7-18.8c5.1-5.1,11.4-7.6,18.9-7.6c7.3,0,13.5,2.6,18.7,7.7C167.4,273,170,279.2,170,286.6z M158.6,286.6
		c0-3.7-1.2-7.1-3.7-10.1c-2.9-3.4-6.6-5.1-11.2-5.1c-4,0-7.5,1.5-10.4,4.5c-2.9,3-4.4,6.6-4.4,10.7c0,3.5,1.2,6.8,3.7,9.8
		c2.9,3.6,6.6,5.4,11.1,5.4c4,0,7.5-1.5,10.5-4.4C157.2,294.5,158.6,290.9,158.6,286.6z"/>
	<path class="st5" d="M203.6,286.6h-16v26.5h-11.2v-53L203.6,286.6z M204.5,286.6h16v-26.5h11.2v53L204.5,286.6z"/>
</g>
<g>
	<path class="st6" d="M53.4,256.8V268h-13v41.8H17.5l0.1-41.8H4.1v-11.2H53.4z"/>
	<path class="st6" d="M68.9,283.3v26.4H57.5v-26.4H68.9z M111.2,283.3H99.8c0-3.7-1.2-7.1-3.6-10.1c-2.9-3.4-6.6-5.1-11.2-5.1H63.1
		v-11.3h21.5c7.3,0,13.5,2.6,18.7,7.7C108.6,269.6,111.2,275.9,111.2,283.3z M111.2,309.8L84,283.3H69.7l27.2,26.4H111.2z"/>
	<path class="st6" d="M171.1,283.3c0,7.5-2.5,13.8-7.6,18.9c-5.1,5.1-11.4,7.6-18.9,7.6c-6,0-11.9-2.6-17.8-7.7
		c-5.8-5.1-8.8-11.4-8.8-18.8c0-7.5,2.6-13.7,7.7-18.8c5.1-5.1,11.4-7.6,18.9-7.6c7.3,0,13.5,2.6,18.7,7.7
		C168.5,269.6,171.1,275.9,171.1,283.3z M159.8,283.3c0-3.7-1.2-7.1-3.7-10.1c-2.9-3.4-6.6-5.1-11.2-5.1c-4,0-7.5,1.5-10.4,4.5
		c-2.9,3-4.4,6.6-4.4,10.7c0,3.5,1.2,6.8,3.7,9.8c2.9,3.6,6.6,5.4,11.1,5.4c4,0,7.5-1.5,10.5-4.4
		C158.3,291.1,159.8,287.5,159.8,283.3z"/>
	<path class="st6" d="M204.7,283.2h-16v26.5h-11.2v-53L204.7,283.2z M205.6,283.3h16v-26.5h11.2v53L205.6,283.3z"/>
</g>
</svg>
