<?xml version="1.0" encoding="utf-8"?>
<!-- Generator: Adobe Illustrator 19.1.0, SVG Export Plug-In . SVG Version: 6.00 Build 0)  -->
<svg version="1.1" id="Calque_1" xmlns="http://www.w3.org/2000/svg" xmlns:xlink="http://www.w3.org/1999/xlink" x="0px" y="0px"
	 viewBox="-186 172.6 586 217.4" style="enable-background:new -186 172.6 586 217.4;" xml:space="preserve">
<style type="text/css">
	.st0{fill:#A400E8;}
	.st1{fill:#06FFD9;}
	.st2{fill:none;stroke:#231F20;stroke-width:5;stroke-miterlimit:10;}
	.st3{fill:#3736BC;}
	.st4{fill:none;stroke:#2C06E6;stroke-width:2;stroke-miterlimit:10;}
	.st5{fill:none;stroke:#06FFD9;stroke-width:2;stroke-miterlimit:10;}
	.st6{fill:none;stroke:#FA00E8;stroke-width:2;stroke-miterlimit:10;}
</style>
<g>
	<path class="st0" d="M100.5,353.3h7.8l11.6,32.8h-7.4l-2.2-6.7H98.2l-2.2,6.7h-7.2L100.5,353.3z M100.1,373.7h8.4l-4.1-12.9
		L100.1,373.7z"/>
	<path class="st0" d="M146.1,371.9c-1.9,1.6-4.7,2.4-8.2,2.4H131v11.8h-6.8v-32.8h14.1c3.2,0,5.8,0.8,7.8,2.5
		c1.9,1.7,2.9,4.3,2.9,7.9C149,367.5,148,370.3,146.1,371.9z M140.9,360.1c-0.9-0.7-2.1-1.1-3.6-1.1H131v9.7h6.2
		c1.6,0,2.8-0.4,3.6-1.2s1.3-2,1.3-3.7C142.2,362,141.7,360.8,140.9,360.1z"/>
	<path class="st0" d="M176.5,371.9c-1.9,1.6-4.7,2.4-8.2,2.4h-6.8v11.8h-6.8v-32.8h14.1c3.2,0,5.8,0.8,7.8,2.5
		c1.9,1.7,2.9,4.3,2.9,7.9C179.4,367.5,178.4,370.3,176.5,371.9z M171.3,360.1c-0.9-0.7-2.1-1.1-3.6-1.1h-6.2v9.7h6.2
		c1.6,0,2.8-0.4,3.6-1.2s1.3-2,1.3-3.7C172.6,362,172.1,360.8,171.3,360.1z"/>
	<path class="st0" d="M184.9,353.3h6.9v26.9h16.4v5.9h-23.2V353.3z"/>
	<path class="st0" d="M219,386.1h-6.8v-32.8h6.8V386.1z"/>
	<path class="st0" d="M228.5,356.7c2.6-2.7,6-4.1,10.1-4.1c5.5,0,9.5,1.8,12,5.4c1.4,2,2.1,4.1,2.2,6.1H246c-0.4-1.6-1-2.8-1.7-3.6
		c-1.2-1.4-3-2.1-5.4-2.1c-2.4,0-4.4,1-5.8,3c-1.4,2-2.1,4.9-2.1,8.5c0,3.7,0.7,6.4,2.2,8.3c1.5,1.8,3.4,2.7,5.7,2.7
		c2.4,0,4.1-0.8,5.4-2.4c0.7-0.8,1.2-2.1,1.7-3.8h6.8c-0.6,3.6-2.1,6.5-4.5,8.7c-2.4,2.2-5.5,3.4-9.3,3.4c-4.7,0-8.3-1.5-11-4.5
		c-2.7-3-4-7.2-4-12.5C224,364.2,225.5,359.8,228.5,356.7z"/>
	<path class="st0" d="M267.7,353.3h7.8l11.6,32.8h-7.4l-2.2-6.7h-12.1l-2.2,6.7H256L267.7,353.3z M267.2,373.7h8.4l-4.1-12.9
		L267.2,373.7z"/>
	<path class="st0" d="M311.7,353.3v5.8h-9.8v27H295v-27h-9.9v-5.8H311.7z"/>
	<path class="st0" d="M322,386.1h-6.8v-32.8h6.8V386.1z"/>
	<path class="st0" d="M353.6,383.2c-2.5,2.6-6.1,3.8-10.8,3.8c-4.7,0-8.3-1.3-10.8-3.8c-3.3-3.1-5-7.6-5-13.5c0-6,1.7-10.5,5-13.5
		c2.5-2.6,6.1-3.8,10.8-3.8c4.7,0,8.3,1.3,10.8,3.8c3.3,3,5,7.5,5,13.5C358.6,375.5,357,380,353.6,383.2z M349.4,378.2
		c1.6-2,2.4-4.9,2.4-8.5c0-3.7-0.8-6.5-2.4-8.5c-1.6-2-3.8-3-6.5-3s-4.9,1-6.5,3s-2.4,4.9-2.4,8.5s0.8,6.5,2.4,8.5s3.8,3,6.5,3
		S347.8,380.2,349.4,378.2z"/>
	<path class="st0" d="M363.7,353.3h7.2l13,22.9v-22.9h6.4v32.8h-6.9l-13.4-23.3v23.3h-6.4V353.3z"/>
</g>
<g>
	<path class="st1" d="M97.6,354.3h7.8l11.6,32.8h-7.4l-2.2-6.7H95.3l-2.2,6.7h-7.2L97.6,354.3z M97.2,374.7h8.4l-4.1-12.9
		L97.2,374.7z"/>
	<path class="st1" d="M143.2,372.9c-1.9,1.6-4.7,2.4-8.2,2.4h-6.8v11.8h-6.8v-32.8h14.1c3.2,0,5.8,0.8,7.8,2.5
		c1.9,1.7,2.9,4.3,2.9,7.9C146.1,368.5,145.1,371.3,143.2,372.9z M138,361.1c-0.9-0.7-2.1-1.1-3.6-1.1h-6.2v9.7h6.2
		c1.6,0,2.8-0.4,3.6-1.2s1.3-2,1.3-3.7C139.3,363,138.8,361.8,138,361.1z"/>
	<path class="st1" d="M173.6,372.9c-1.9,1.6-4.7,2.4-8.2,2.4h-6.8v11.8h-6.8v-32.8h14.1c3.2,0,5.8,0.8,7.8,2.5
		c1.9,1.7,2.9,4.3,2.9,7.9C176.5,368.5,175.5,371.3,173.6,372.9z M168.4,361.1c-0.9-0.7-2.1-1.1-3.6-1.1h-6.2v9.7h6.2
		c1.6,0,2.8-0.4,3.6-1.2s1.3-2,1.3-3.7C169.7,363,169.2,361.8,168.4,361.1z"/>
	<path class="st1" d="M182,354.3h6.9v26.9h16.4v5.9H182V354.3z"/>
	<path class="st1" d="M216.1,387.1h-6.8v-32.8h6.8V387.1z"/>
	<path class="st1" d="M225.6,357.7c2.6-2.7,6-4.1,10.1-4.1c5.5,0,9.5,1.8,12,5.4c1.4,2,2.1,4.1,2.2,6.1h-6.9c-0.4-1.6-1-2.8-1.7-3.6
		c-1.2-1.4-3-2.1-5.4-2.1c-2.4,0-4.4,1-5.8,3c-1.4,2-2.1,4.9-2.1,8.5c0,3.7,0.7,6.4,2.2,8.3c1.5,1.8,3.4,2.7,5.7,2.7
		c2.4,0,4.1-0.8,5.4-2.4c0.7-0.8,1.2-2.1,1.7-3.8h6.8c-0.6,3.6-2.1,6.5-4.5,8.7c-2.4,2.2-5.5,3.4-9.3,3.4c-4.7,0-8.3-1.5-11-4.5
		c-2.7-3-4-7.2-4-12.5C221.1,365.2,222.6,360.8,225.6,357.7z"/>
	<path class="st1" d="M264.8,354.3h7.8l11.6,32.8h-7.4l-2.2-6.7h-12.1l-2.2,6.7h-7.2L264.8,354.3z M264.3,374.7h8.4l-4.1-12.9
		L264.3,374.7z"/>
	<path class="st1" d="M308.8,354.3v5.8H299v27h-6.9v-27h-9.9v-5.8H308.8z"/>
	<path class="st1" d="M319.1,387.1h-6.8v-32.8h6.8V387.1z"/>
	<path class="st1" d="M350.7,384.2c-2.5,2.6-6.1,3.8-10.8,3.8c-4.7,0-8.3-1.3-10.8-3.8c-3.3-3.1-5-7.6-5-13.5c0-6,1.7-10.5,5-13.5
		c2.5-2.6,6.1-3.8,10.8-3.8c4.7,0,8.3,1.3,10.8,3.8c3.3,3,5,7.5,5,13.5C355.7,376.5,354.1,381,350.7,384.2z M346.5,379.2
		c1.6-2,2.4-4.9,2.4-8.5c0-3.7-0.8-6.5-2.4-8.5c-1.6-2-3.8-3-6.5-3c-2.7,0-4.9,1-6.5,3s-2.4,4.9-2.4,8.5s0.8,6.5,2.4,8.5
		s3.8,3,6.5,3C342.7,382.2,344.9,381.2,346.5,379.2z"/>
	<path class="st1" d="M360.8,354.3h7.2l13,22.9v-22.9h6.4v32.8h-6.9l-13.4-23.3v23.3h-6.4V354.3z"/>
</g>
<polyline id="Triangle_1_" class="st2" points="194.3,250.6 400,176.7 399.7,387.8 -169.2,387.8 13.5,317.4 "/>
<path class="st3" d="M719.3,98.7c1-1.1,2.1-1.4,3.5-0.9C721.8,99,720.5,98.6,719.3,98.7z"/>
<g>
	<path d="M98.9,353.2h7.8l11.6,32.8h-7.4l-2.2-6.7H96.6l-2.2,6.7h-7.2L98.9,353.2z M98.4,373.6h8.4l-4.1-12.9L98.4,373.6z"/>
	<path d="M144.4,371.8c-1.9,1.6-4.7,2.4-8.2,2.4h-6.8V386h-6.8v-32.8h14.1c3.2,0,5.8,0.8,7.8,2.5c1.9,1.7,2.9,4.3,2.9,7.9
		C147.3,367.5,146.4,370.2,144.4,371.8z M139.2,360c-0.9-0.7-2.1-1.1-3.6-1.1h-6.2v9.7h6.2c1.6,0,2.8-0.4,3.6-1.2s1.3-2,1.3-3.7
		S140.1,360.7,139.2,360z"/>
	<path d="M174.8,371.8c-1.9,1.6-4.7,2.4-8.2,2.4h-6.8V386H153v-32.8h14.1c3.2,0,5.8,0.8,7.8,2.5c1.9,1.7,2.9,4.3,2.9,7.9
		C177.7,367.5,176.8,370.2,174.8,371.8z M169.6,360c-0.9-0.7-2.1-1.1-3.6-1.1h-6.2v9.7h6.2c1.6,0,2.8-0.4,3.6-1.2s1.3-2,1.3-3.7
		S170.5,360.7,169.6,360z"/>
	<path d="M183.2,353.2h6.9v26.9h16.4v5.9h-23.2V353.2z"/>
	<path d="M217.3,386h-6.8v-32.8h6.8V386z"/>
	<path d="M226.9,356.7c2.6-2.7,6-4.1,10.1-4.1c5.5,0,9.5,1.8,12,5.4c1.4,2,2.1,4.1,2.2,6.1h-6.9c-0.4-1.6-1-2.8-1.7-3.6
		c-1.2-1.4-3-2.1-5.4-2.1c-2.4,0-4.4,1-5.8,3c-1.4,2-2.1,4.9-2.1,8.5s0.7,6.4,2.2,8.3s3.4,2.7,5.7,2.7c2.4,0,4.1-0.8,5.4-2.4
		c0.7-0.8,1.2-2.1,1.7-3.8h6.8c-0.6,3.6-2.1,6.5-4.5,8.7c-2.4,2.2-5.5,3.4-9.3,3.4c-4.7,0-8.3-1.5-11-4.5c-2.7-3-4-7.2-4-12.5
		C222.3,364.2,223.8,359.8,226.9,356.7z"/>
	<path d="M266,353.2h7.8l11.6,32.8H278l-2.2-6.7h-12.1l-2.2,6.7h-7.2L266,353.2z M265.6,373.6h8.4l-4.1-12.9L265.6,373.6z"/>
	<path d="M310,353.2v5.8h-9.8v27h-6.9v-27h-9.9v-5.8H310z"/>
	<path d="M320.3,386h-6.8v-32.8h6.8V386z"/>
	<path d="M352,383.1c-2.5,2.6-6.1,3.8-10.8,3.8s-8.3-1.3-10.8-3.8c-3.3-3.1-5-7.6-5-13.5c0-6,1.7-10.5,5-13.5
		c2.5-2.6,6.1-3.8,10.8-3.8s8.3,1.3,10.8,3.8c3.3,3,5,7.5,5,13.5C356.9,375.5,355.3,380,352,383.1z M347.7,378.1
		c1.6-2,2.4-4.9,2.4-8.5c0-3.7-0.8-6.5-2.4-8.5c-1.6-2-3.8-3-6.5-3s-4.9,1-6.5,3c-1.6,2-2.4,4.9-2.4,8.5s0.8,6.5,2.4,8.5
		s3.8,3,6.5,3S346.1,380.1,347.7,378.1z"/>
	<path d="M362.1,353.2h7.2l13,22.9v-22.9h6.4V386h-6.9l-13.4-23.3V386h-6.4V353.2z"/>
</g>
<g>
	<path class="st4" d="M48.1,309.7h-3.7l-5.2-42.9L19.6,311l-19.8-44.2l-5.2,42.9h-3.7l7.1-55.1l21.5,48.7L41,254.5L48.1,309.7z"/>
	<path class="st4" d="M96.6,309.7H93L85.6,291H63.2l-7.4,18.7h-3.7l22.3-55.1L96.6,309.7z M84.3,287.8l-9.9-25.1l-9.9,25.1H84.3z"/>
	<path class="st4" d="M122.5,259.1h-12.9v50.6h-3.4v-50.6H93.3v-3.2h29.3V259.1z"/>
	<path class="st4" d="M167.8,305.6c-2.4,1.5-5.1,2.7-8.1,3.5c-3,0.8-5.9,1.3-8.7,1.3c-8.1,0-14.8-2.6-20-7.7
		c-5.2-5.1-7.8-11.8-7.8-19.9c0-8,2.6-14.5,7.9-19.7c5.3-5.2,11.9-7.8,19.9-7.8c3.3,0,6.3,0.4,9.1,1.3c2.8,0.9,5.3,2.2,7.7,4v3.9
		c-2.6-2.1-5.2-3.6-7.9-4.6c-2.6-1-5.4-1.5-8.4-1.5c-7.3,0-13.3,2.3-17.9,6.8c-4.6,4.5-7,10.4-7,17.6c0,7.2,2.3,13,6.8,17.6
		s10.3,6.8,17.3,6.8c3,0,5.9-0.5,8.8-1.4c2.9-1,5.6-2.3,8.1-4.1V305.6z"/>
	<path class="st4" d="M217,309.7h-3.4v-28.2h-32.1v28.2h-3.4v-53.8h3.4v22.3h32.1v-22.3h3.4V309.7z"/>
</g>
<g>
	<path class="st5" d="M45.1,311.7h-3.7l-5.2-42.9L16.6,313l-19.8-44.2l-5.2,42.9h-3.7l7.1-55.1l21.5,48.7L38,256.5L45.1,311.7z"/>
	<path class="st5" d="M93.6,311.7H90L82.6,293H60.2l-7.4,18.7h-3.7l22.3-55.1L93.6,311.7z M81.3,289.8l-9.9-25.1l-9.9,25.1H81.3z"/>
	<path class="st5" d="M119.5,261.1h-12.9v50.6h-3.4v-50.6H90.3v-3.2h29.3V261.1z"/>
	<path class="st5" d="M164.8,307.6c-2.4,1.5-5.1,2.7-8.1,3.5c-3,0.8-5.9,1.3-8.7,1.3c-8.1,0-14.8-2.6-20-7.7
		c-5.2-5.1-7.8-11.8-7.8-19.9c0-8,2.6-14.5,7.9-19.7c5.3-5.2,11.9-7.8,19.9-7.8c3.3,0,6.3,0.4,9.1,1.3c2.8,0.9,5.3,2.2,7.7,4v3.9
		c-2.6-2.1-5.2-3.6-7.9-4.6c-2.6-1-5.4-1.5-8.4-1.5c-7.3,0-13.3,2.3-17.9,6.8c-4.6,4.5-7,10.4-7,17.6c0,7.2,2.3,13,6.8,17.6
		c4.6,4.6,10.3,6.8,17.3,6.8c3,0,5.9-0.5,8.8-1.4c2.9-1,5.6-2.3,8.1-4.1V307.6z"/>
	<path class="st5" d="M214,311.7h-3.4v-28.2h-32.1v28.2h-3.4v-53.8h3.4v22.3h32.1v-22.3h3.4V311.7z"/>
</g>
<g>
	<path class="st6" d="M42.1,306.7h-3.7l-5.2-42.9L13.6,308l-19.8-44.2l-5.2,42.9h-3.7l7.1-55.1l21.5,48.7L35,251.5L42.1,306.7z"/>
	<path class="st6" d="M90.6,306.7H87L79.6,288H57.2l-7.4,18.7h-3.7l22.3-55.1L90.6,306.7z M78.3,284.8l-9.9-25.1l-9.9,25.1H78.3z"/>
	<path class="st6" d="M116.5,256.1h-12.9v50.6h-3.4v-50.6H87.3v-3.2h29.3V256.1z"/>
	<path class="st6" d="M161.8,302.6c-2.4,1.5-5.1,2.7-8.1,3.5c-3,0.8-5.9,1.3-8.7,1.3c-8.1,0-14.8-2.6-20-7.7
		c-5.2-5.1-7.8-11.8-7.8-19.9c0-8,2.6-14.5,7.9-19.7c5.3-5.2,11.9-7.8,19.9-7.8c3.3,0,6.3,0.4,9.1,1.3c2.8,0.9,5.3,2.2,7.7,4v3.9
		c-2.6-2.1-5.2-3.6-7.9-4.6c-2.6-1-5.4-1.5-8.4-1.5c-7.3,0-13.3,2.3-17.9,6.8c-4.6,4.5-7,10.4-7,17.6c0,7.2,2.3,13,6.8,17.6
		c4.6,4.6,10.3,6.8,17.3,6.8c3,0,5.9-0.5,8.8-1.4c2.9-1,5.6-2.3,8.1-4.1V302.6z"/>
	<path class="st6" d="M211,306.7h-3.4v-28.2h-32.1v28.2h-3.4v-53.8h3.4v22.3h32.1v-22.3h3.4V306.7z"/>
</g>
</svg>
