<?xml version="1.0" encoding="utf-8"?>
<!-- Generator: Adobe Illustrator 19.1.0, SVG Export Plug-In . SVG Version: 6.00 Build 0)  -->
<svg version="1.1" id="Calque_1" xmlns="http://www.w3.org/2000/svg" xmlns:xlink="http://www.w3.org/1999/xlink" x="0px" y="0px"
	 viewBox="-186 172.6 586 217.4" style="enable-background:new -186 172.6 586 217.4;" xml:space="preserve">
<style type="text/css">
	.st0{fill:#A400E8;}
	.st1{fill:#06FFD9;}
	.st2{fill:none;stroke:#231F20;stroke-width:5;stroke-miterlimit:10;}
	.st3{fill:#3736BC;}
	.st4{clip-path:url(#SVGID_2_);}
	.st5{fill:#F7D4F4;}
	.st6{clip-path:url(#SVGID_4_);}
	.st7{fill:none;stroke:#2C06E6;stroke-width:2;stroke-miterlimit:10;}
	.st8{fill:none;stroke:#06FFD9;stroke-width:2;stroke-miterlimit:10;}
	.st9{fill:none;stroke:#FA00E8;stroke-width:2;stroke-miterlimit:10;}
	.st10{clip-path:url(#SVGID_6_);}
	.st11{clip-path:url(#SVGID_8_);}
</style>
<g>
	<path class="st0" d="M-145.6,354h-18.7v7.5h17.1v6.1h-17.1v9.1h19.5v6.3h-26.7v-35.3h25.9V354z"/>
	<path class="st0" d="M-141.6,366.1h13.4v6.5h-13.4V366.1z"/>
	<path class="st0" d="M-119.4,351.5c2.8-2.9,6.5-4.4,10.8-4.4c5.9,0,10.2,1.9,12.9,5.8c1.5,2.2,2.3,4.4,2.4,6.6h-7.4
		c-0.5-1.7-1.1-3-1.8-3.8c-1.3-1.5-3.3-2.3-5.8-2.3c-2.6,0-4.7,1.1-6.2,3.2c-1.5,2.2-2.3,5.2-2.3,9.2s0.8,6.9,2.4,8.9s3.6,3,6.1,3
		c2.5,0,4.5-0.8,5.8-2.5c0.7-0.9,1.3-2.3,1.8-4.1h7.3c-0.6,3.8-2.2,7-4.8,9.4c-2.6,2.4-5.9,3.6-10,3.6c-5,0-9-1.6-11.8-4.9
		c-2.9-3.3-4.3-7.8-4.3-13.4C-124.3,359.5-122.6,354.8-119.4,351.5z"/>
	<path class="st0" d="M-60.2,379.9c-2.7,2.7-6.5,4.1-11.6,4.1c-5,0-8.9-1.4-11.6-4.1c-3.6-3.4-5.4-8.2-5.4-14.5
		c0-6.5,1.8-11.3,5.4-14.5c2.7-2.7,6.5-4.1,11.6-4.1c5,0,8.9,1.4,11.6,4.1c3.6,3.2,5.3,8.1,5.3,14.5
		C-54.8,371.7-56.6,376.5-60.2,379.9z M-64.8,374.5c1.7-2.2,2.6-5.2,2.6-9.2c0-4-0.9-7-2.6-9.2c-1.7-2.2-4-3.2-7-3.2s-5.2,1.1-7,3.2
		c-1.7,2.2-2.6,5.2-2.6,9.2c0,4,0.9,7,2.6,9.2c1.7,2.2,4.1,3.2,7,3.2S-66.5,376.7-64.8,374.5z"/>
	<path class="st0" d="M-25.8,347.8h10.6V383h-6.9v-23.9c0-0.7,0-1.6,0-2.9c0-1.2,0-2.2,0-2.9l-6.7,29.6h-7.2l-6.6-29.6
		c0,0.7,0,1.6,0,2.9c0,1.2,0,2.2,0,2.9V383h-6.9v-35.3h10.7l6.4,27.7L-25.8,347.8z"/>
	<path class="st0" d="M15,347.8h10.6V383h-6.9v-23.9c0-0.7,0-1.6,0-2.9c0-1.2,0-2.2,0-2.9L12.1,383H4.9l-6.6-29.6c0,0.7,0,1.6,0,2.9
		c0,1.2,0,2.2,0,2.9V383h-6.9v-35.3H2.2l6.4,27.7L15,347.8z"/>
	<path class="st0" d="M58.5,354H39.8v7.5H57v6.1H39.8v9.1h19.5v6.3H32.6v-35.3h25.9V354z"/>
	<path class="st0" d="M87.7,348.7c1.3,0.6,2.4,1.4,3.3,2.5c0.7,0.9,1.3,1.9,1.8,3c0.4,1.1,0.7,2.3,0.7,3.7c0,1.7-0.4,3.3-1.3,4.9
		c-0.8,1.6-2.2,2.8-4.2,3.4c1.6,0.7,2.8,1.6,3.5,2.8c0.7,1.2,1,3,1,5.5v2.4c0,1.6,0.1,2.7,0.2,3.3c0.2,0.9,0.6,1.6,1.4,2v0.9h-8.1
		c-0.2-0.8-0.4-1.4-0.5-1.9c-0.2-1-0.3-2-0.3-3l0-3.3c0-2.2-0.4-3.7-1.2-4.5c-0.7-0.7-2.1-1.1-4.2-1.1h-7.2V383h-7.2v-35.3h16.9
		C84.5,347.8,86.4,348.1,87.7,348.7z M72.5,353.9v9.5h7.9c1.6,0,2.8-0.2,3.5-0.6c1.4-0.7,2.1-2,2.1-4c0-2.1-0.7-3.6-2-4.3
		c-0.8-0.4-1.9-0.6-3.4-0.6H72.5z"/>
	<path class="st0" d="M103.9,351.5c2.8-2.9,6.5-4.4,10.8-4.4c5.9,0,10.2,1.9,12.9,5.8c1.5,2.2,2.3,4.4,2.4,6.6h-7.4
		c-0.5-1.7-1.1-3-1.8-3.8c-1.3-1.5-3.3-2.3-5.8-2.3c-2.6,0-4.7,1.1-6.2,3.2c-1.5,2.2-2.3,5.2-2.3,9.2s0.8,6.9,2.4,8.9s3.6,3,6.1,3
		c2.5,0,4.5-0.8,5.8-2.5c0.7-0.9,1.3-2.3,1.8-4.1h7.3c-0.6,3.8-2.2,7-4.8,9.4s-5.9,3.6-10,3.6c-5,0-9-1.6-11.8-4.9
		c-2.9-3.3-4.3-7.8-4.3-13.4C99,359.5,100.6,354.8,103.9,351.5z"/>
	<path class="st0" d="M162,354h-18.7v7.5h17.1v6.1h-17.1v9.1h19.5v6.3h-26.7v-35.3H162V354z"/>
</g>
<g>
	<path class="st1" d="M-143.2,355h-18.7v7.5h17.1v6.1h-17.1v9.1h19.5v6.3H-169v-35.3h25.9V355z"/>
	<path class="st1" d="M-139.2,367.1h13.4v6.5h-13.4V367.1z"/>
	<path class="st1" d="M-116.9,352.5c2.8-2.9,6.5-4.4,10.8-4.4c5.9,0,10.2,1.9,12.9,5.8c1.5,2.2,2.3,4.4,2.4,6.6h-7.4
		c-0.5-1.7-1.1-3-1.8-3.8c-1.3-1.5-3.3-2.3-5.8-2.3c-2.6,0-4.7,1.1-6.2,3.2c-1.5,2.2-2.3,5.2-2.3,9.2s0.8,6.9,2.4,8.9s3.6,3,6.1,3
		c2.5,0,4.5-0.8,5.8-2.5c0.7-0.9,1.3-2.3,1.8-4.1h7.3c-0.6,3.8-2.2,7-4.8,9.4c-2.6,2.4-5.9,3.6-10,3.6c-5,0-9-1.6-11.8-4.9
		c-2.9-3.3-4.3-7.8-4.3-13.4C-121.8,360.5-120.1,355.8-116.9,352.5z"/>
	<path class="st1" d="M-57.7,380.9c-2.7,2.7-6.5,4.1-11.6,4.1c-5,0-8.9-1.4-11.6-4.1c-3.6-3.4-5.4-8.2-5.4-14.5
		c0-6.5,1.8-11.3,5.4-14.5c2.7-2.7,6.5-4.1,11.6-4.1c5,0,8.9,1.4,11.6,4.1c3.6,3.2,5.3,8.1,5.3,14.5
		C-52.4,372.7-54.1,377.5-57.7,380.9z M-62.3,375.5c1.7-2.2,2.6-5.2,2.6-9.2c0-4-0.9-7-2.6-9.2c-1.7-2.2-4-3.2-7-3.2s-5.2,1.1-7,3.2
		c-1.7,2.2-2.6,5.2-2.6,9.2c0,4,0.9,7,2.6,9.2c1.7,2.2,4.1,3.2,7,3.2S-64,377.7-62.3,375.5z"/>
	<path class="st1" d="M-23.3,348.8h10.6V384h-6.9v-23.9c0-0.7,0-1.6,0-2.9c0-1.2,0-2.2,0-2.9l-6.7,29.6h-7.2l-6.6-29.6
		c0,0.7,0,1.6,0,2.9c0,1.2,0,2.2,0,2.9V384h-6.9v-35.3h10.7l6.4,27.7L-23.3,348.8z"/>
	<path class="st1" d="M17.5,348.8h10.6V384h-6.9v-23.9c0-0.7,0-1.6,0-2.9c0-1.2,0-2.2,0-2.9L14.6,384H7.4l-6.6-29.6
		c0,0.7,0,1.6,0,2.9c0,1.2,0,2.2,0,2.9V384H-6v-35.3H4.7l6.4,27.7L17.5,348.8z"/>
	<path class="st1" d="M61,355H42.3v7.5h17.1v6.1H42.3v9.1h19.5v6.3H35.1v-35.3H61V355z"/>
	<path class="st1" d="M90.2,349.7c1.3,0.6,2.4,1.4,3.3,2.5c0.7,0.9,1.3,1.9,1.8,3c0.4,1.1,0.7,2.3,0.7,3.7c0,1.7-0.4,3.3-1.3,4.9
		c-0.8,1.6-2.2,2.8-4.2,3.4c1.6,0.7,2.8,1.6,3.5,2.8c0.7,1.2,1,3,1,5.5v2.4c0,1.6,0.1,2.7,0.2,3.3c0.2,0.9,0.6,1.6,1.4,2v0.9h-8.1
		c-0.2-0.8-0.4-1.4-0.5-1.9c-0.2-1-0.3-2-0.3-3l0-3.3c0-2.2-0.4-3.7-1.2-4.5c-0.7-0.7-2.1-1.1-4.2-1.1h-7.2V384h-7.2v-35.3h16.9
		C87,348.8,88.9,349.1,90.2,349.7z M74.9,354.9v9.5h7.9c1.6,0,2.8-0.2,3.5-0.6c1.4-0.7,2.1-2,2.1-4c0-2.1-0.7-3.6-2-4.3
		c-0.8-0.4-1.9-0.6-3.4-0.6H74.9z"/>
	<path class="st1" d="M106.3,352.5c2.8-2.9,6.5-4.4,10.8-4.4c5.9,0,10.2,1.9,12.9,5.8c1.5,2.2,2.3,4.4,2.4,6.6h-7.4
		c-0.5-1.7-1.1-3-1.8-3.8c-1.3-1.5-3.3-2.3-5.8-2.3c-2.6,0-4.7,1.1-6.2,3.2c-1.5,2.2-2.3,5.2-2.3,9.2s0.8,6.9,2.4,8.9s3.6,3,6.1,3
		c2.5,0,4.5-0.8,5.8-2.5c0.7-0.9,1.3-2.3,1.8-4.1h7.3c-0.6,3.8-2.2,7-4.8,9.4c-2.6,2.4-5.9,3.6-10,3.6c-5,0-9-1.6-11.8-4.9
		c-2.9-3.3-4.3-7.8-4.3-13.4C101.4,360.5,103.1,355.8,106.3,352.5z"/>
	<path class="st1" d="M164.4,355h-18.7v7.5h17.1v6.1h-17.1v9.1h19.5v6.3h-26.7v-35.3h25.9V355z"/>
</g>
<polyline id="Triangle_1_" class="st2" points="202.6,316.5 385.3,386.9 -183.6,386.9 -183.9,175.8 21.8,249.6 "/>
<path class="st3" d="M290.3,329.7c1-1.1,2.1-1.4,3.5-0.9C292.8,330,291.5,329.6,290.3,329.7z"/>
<g>
	<defs>
		<rect id="SVGID_1_" x="-613" y="-2096.4" width="1440" height="4757"/>
	</defs>
	<clipPath id="SVGID_2_">
		<use xlink:href="#SVGID_1_"  style="overflow:visible;"/>
	</clipPath>
	<g class="st4">
		<text transform="matrix(1 0 0 1 -554 -2002.4003)" class="st5" style="font-family:'Menlo-Bold'; font-size:56px;">URBAN</text>
	</g>
	<g class="st4">
		<text transform="matrix(1 0 0 1 -554 -1937.4003)" class="st5" style="font-family:'Menlo-Bold'; font-size:56px;">INC.</text>
	</g>
	<g class="st4">
		<text transform="matrix(1 0 0 1 -552 -2004.4003)" style="font-family:'Menlo-Bold'; font-size:56px;">URBAN</text>
	</g>
	<g class="st4">
		<text transform="matrix(1 0 0 1 -552 -1939.4003)" style="font-family:'Menlo-Bold'; font-size:56px;">INC.</text>
	</g>
</g>
<g>
	<defs>
		<rect id="SVGID_3_" x="-613" y="-2096.4" width="1440" height="4757"/>
	</defs>
	<clipPath id="SVGID_4_">
		<use xlink:href="#SVGID_3_"  style="overflow:visible;"/>
	</clipPath>
	<g class="st6">
		<text transform="matrix(1 0 0 1 -554 -2002.4003)" class="st5" style="font-family:'Menlo-Bold'; font-size:56px;">URBAN</text>
	</g>
	<g class="st6">
		<text transform="matrix(1 0 0 1 -554 -1937.4003)" class="st5" style="font-family:'Menlo-Bold'; font-size:56px;">INC.</text>
	</g>
	<g class="st6">
		<text transform="matrix(1 0 0 1 -552 -2004.4003)" style="font-family:'Menlo-Bold'; font-size:56px;">URBAN</text>
	</g>
	<g class="st6">
		<text transform="matrix(1 0 0 1 -552 -1939.4003)" style="font-family:'Menlo-Bold'; font-size:56px;">INC.</text>
	</g>
</g>
<path class="st7" d="M33.1,243.7v-28.5H42V246c0,2.3,0.6,4,1.7,5.3s2.7,1.9,4.8,1.9c2,0,3.6-0.6,4.8-1.9s1.7-3.1,1.7-5.3v-30.7h8.9
	v28.5c0,6.1-1.2,10.6-3.7,13.4c-2.4,2.8-6.4,4.2-11.8,4.2c-5.4,0-9.3-1.4-11.8-4.2C34.3,254.3,33.1,249.9,33.1,243.7z"/>
<path class="st7" d="M91.6,239.1c0.9,0.2,1.7,0.6,2.3,1.3s1.5,1.9,2.4,3.8l8.2,16.3h-9.8L89.2,249c-0.2-0.3-0.4-0.8-0.6-1.3
	c-1.6-3.4-3.5-5.1-5.6-5.1h-2.8v17.9h-8.9v-45.2h12.9c5.8,0,10,1,12.5,3.1c2.5,2.1,3.8,5.4,3.8,10c0,3.1-0.8,5.6-2.3,7.4
	C96.6,237.6,94.4,238.7,91.6,239.1z M80.1,222.7V235h4.2c2.4,0,4.2-0.5,5.3-1.4c1.1-1,1.6-2.5,1.6-4.7s-0.5-3.8-1.6-4.7
	c-1-0.9-2.8-1.4-5.3-1.4H80.1z"/>
<path class="st7" d="M108.3,215.2h14.6c5,0,8.8,1,11.3,2.9c2.5,1.9,3.8,4.8,3.8,8.5c0,2.9-0.7,5.2-2.2,6.8c-1.5,1.6-3.7,2.6-6.6,2.8
	c3.4,0.3,6,1.5,7.8,3.5s2.6,4.7,2.6,8.3c0,4.4-1.3,7.5-3.9,9.5c-2.6,2-6.9,2.9-12.8,2.9h-14.6V215.2z M116.9,222.3v10.5h5.9
	c2.3,0,3.9-0.4,4.8-1.2c1-0.8,1.4-2.1,1.4-4s-0.5-3.2-1.5-4c-1-0.8-2.6-1.3-4.8-1.3H116.9z M116.9,239.9v13.4h5.9
	c2.8,0,4.8-0.5,6-1.5c1.1-1,1.7-2.7,1.7-5.1c0-2.4-0.6-4.2-1.8-5.3c-1.2-1.1-3.2-1.6-5.9-1.6H116.9z"/>
<path class="st7" d="M155,215.2h10.9l12.2,45.2h-8.9l-2.8-11.2h-12l-2.7,11.2h-8.9L155,215.2z M160.4,223.4l-4.2,18.5h8.4
	L160.4,223.4z"/>
<path class="st7" d="M182.7,215.2h9.6l12.6,32.8v-32.8h7.9v45.2h-9.5l-12.6-32.8v32.8h-7.9V215.2z"/>
<path class="st7" d="M35.1,284.5v-7.9H62v7.9h-9v29.4h9v7.9H35.1v-7.9h9v-29.4H35.1z"/>
<path class="st7" d="M70.8,276.6h9.6L93,309.4v-32.8h7.9v45.2h-9.5l-12.6-32.8v32.8h-7.9V276.6z"/>
<path class="st7" d="M137.2,320.5c-1.4,0.7-2.9,1.3-4.4,1.6c-1.6,0.4-3.2,0.5-4.9,0.5c-6.1,0-10.7-2-14-6c-3.2-4-4.8-9.8-4.8-17.4
	c0-7.6,1.6-13.4,4.8-17.4c3.2-4,7.9-6,14-6c1.7,0,3.4,0.2,4.9,0.5c1.6,0.4,3,0.9,4.4,1.6v9.9c-1.5-1.4-3-2.4-4.5-3.1
	c-1.4-0.7-2.9-1-4.5-1c-3.3,0-5.7,1.3-7.4,3.9s-2.5,6.4-2.5,11.5c0,5.1,0.8,8.9,2.5,11.5s4.1,3.9,7.4,3.9c1.5,0,3-0.3,4.5-1
	c1.4-0.7,2.9-1.7,4.5-3.1V320.5z"/>
<path class="st7" d="M155.4,310.7h10.1v11.1h-10.1V310.7z"/>
<path class="st8" d="M32.9,241.7v-28.5h8.9V244c0,2.3,0.6,4,1.7,5.3s2.7,1.9,4.8,1.9s3.6-0.6,4.8-1.9s1.7-3.1,1.7-5.3v-30.7h8.9
	v28.5c0,6.1-1.2,10.6-3.7,13.4s-6.4,4.2-11.8,4.2c-5.4,0-9.3-1.4-11.8-4.2S32.9,247.9,32.9,241.7z"/>
<path class="st8" d="M91.5,237.1c0.9,0.2,1.7,0.6,2.3,1.3s1.5,1.9,2.4,3.8l8.2,16.3h-9.8L89.1,247c-0.2-0.3-0.4-0.8-0.6-1.3
	c-1.6-3.4-3.5-5.1-5.6-5.1H80v17.9h-8.9v-45.2H84c5.8,0,10,1,12.5,3.1s3.8,5.4,3.8,10c0,3.1-0.8,5.6-2.3,7.4
	C96.5,235.6,94.3,236.7,91.5,237.1z M80,220.7V233h4.2c2.4,0,4.2-0.5,5.3-1.4s1.6-2.5,1.6-4.7s-0.5-3.8-1.6-4.7
	c-1-0.9-2.8-1.4-5.3-1.4H80z"/>
<path class="st8" d="M108.2,213.2h14.6c5,0,8.8,1,11.3,2.9c2.5,1.9,3.8,4.8,3.8,8.5c0,2.9-0.7,5.2-2.2,6.8c-1.5,1.6-3.7,2.6-6.6,2.8
	c3.4,0.3,6,1.5,7.8,3.5s2.6,4.7,2.6,8.3c0,4.4-1.3,7.5-3.9,9.5c-2.6,2-6.9,2.9-12.8,2.9h-14.6V213.2z M116.8,220.3v10.5h5.9
	c2.3,0,3.9-0.4,4.8-1.2c1-0.8,1.4-2.1,1.4-4c0-1.9-0.5-3.2-1.5-4c-1-0.8-2.6-1.3-4.8-1.3H116.8z M116.8,237.9v13.4h5.9
	c2.8,0,4.8-0.5,6-1.5c1.1-1,1.7-2.7,1.7-5.1c0-2.4-0.6-4.2-1.8-5.3c-1.2-1.1-3.2-1.6-5.9-1.6H116.8z"/>
<path class="st8" d="M154.9,213.2h10.9l12.2,45.2h-8.9l-2.8-11.2h-12l-2.7,11.2h-8.9L154.9,213.2z M160.3,221.4l-4.2,18.5h8.4
	L160.3,221.4z"/>
<path class="st8" d="M182.6,213.2h9.6l12.6,32.8v-32.8h7.9v45.2h-9.5l-12.6-32.8v32.8h-7.9V213.2z"/>
<path class="st8" d="M34.9,282.5v-7.9h26.9v7.9h-9v29.4h9v7.9H34.9v-7.9h9v-29.4H34.9z"/>
<path class="st8" d="M70.7,274.6h9.6l12.6,32.8v-32.8h7.9v45.2h-9.5l-12.6-32.8v32.8h-7.9V274.6z"/>
<path class="st8" d="M137.1,318.5c-1.4,0.7-2.9,1.3-4.4,1.6c-1.6,0.4-3.2,0.5-4.9,0.5c-6.1,0-10.7-2-14-6c-3.2-4-4.8-9.8-4.8-17.4
	c0-7.6,1.6-13.4,4.8-17.4s7.9-6,14-6c1.7,0,3.4,0.2,4.9,0.5c1.6,0.4,3,0.9,4.4,1.6v9.9c-1.5-1.4-3-2.4-4.5-3.1c-1.4-0.7-2.9-1-4.5-1
	c-3.3,0-5.7,1.3-7.4,3.9c-1.7,2.6-2.5,6.4-2.5,11.5c0,5.1,0.8,8.9,2.5,11.5c1.7,2.6,4.1,3.9,7.4,3.9c1.5,0,3-0.3,4.5-1
	c1.4-0.7,2.9-1.7,4.5-3.1V318.5z"/>
<path class="st8" d="M155.3,308.7h10.1v11.1h-10.1V308.7z"/>
<path class="st9" d="M35.9,242.4v-28.5h8.9v30.7c0,2.3,0.6,4,1.7,5.3c1.1,1.3,2.7,1.9,4.8,1.9c2,0,3.6-0.6,4.8-1.9
	c1.1-1.3,1.7-3.1,1.7-5.3v-30.7h8.9v28.5c0,6.1-1.2,10.6-3.7,13.4c-2.4,2.8-6.4,4.2-11.8,4.2c-5.4,0-9.3-1.4-11.8-4.2
	S35.9,248.5,35.9,242.4z"/>
<path class="st9" d="M94.4,237.7c0.9,0.2,1.7,0.6,2.3,1.3c0.7,0.7,1.5,1.9,2.4,3.8l8.2,16.3h-9.8L92,247.6c-0.2-0.3-0.4-0.8-0.6-1.3
	c-1.6-3.4-3.5-5.1-5.6-5.1h-2.8v17.9H74v-45.2h12.9c5.8,0,10,1,12.5,3.1c2.5,2.1,3.8,5.4,3.8,10c0,3.1-0.8,5.6-2.3,7.4
	C99.4,236.3,97.2,237.4,94.4,237.7z M82.9,221.4v12.3h4.2c2.4,0,4.2-0.5,5.3-1.4c1.1-1,1.6-2.5,1.6-4.7s-0.5-3.8-1.6-4.7
	c-1-0.9-2.8-1.4-5.3-1.4H82.9z"/>
<path class="st9" d="M111.1,213.8h14.6c5,0,8.8,1,11.3,2.9s3.8,4.8,3.8,8.5c0,2.9-0.7,5.2-2.2,6.8s-3.7,2.6-6.6,2.8
	c3.4,0.3,6,1.5,7.8,3.5c1.7,2,2.6,4.7,2.6,8.3c0,4.4-1.3,7.5-3.9,9.5c-2.6,2-6.9,2.9-12.8,2.9h-14.6V213.8z M119.7,220.9v10.5h5.9
	c2.3,0,3.9-0.4,4.8-1.2c1-0.8,1.4-2.1,1.4-4s-0.5-3.2-1.5-4s-2.6-1.3-4.8-1.3H119.7z M119.7,238.5v13.4h5.9c2.8,0,4.8-0.5,6-1.5
	c1.1-1,1.7-2.7,1.7-5.1c0-2.4-0.6-4.2-1.8-5.3s-3.2-1.6-5.9-1.6H119.7z"/>
<path class="st9" d="M157.8,213.9h10.9l12.2,45.2H172l-2.8-11.2h-12l-2.7,11.2h-8.9L157.8,213.9z M163.2,222l-4.2,18.5h8.4
	L163.2,222z"/>
<path class="st9" d="M185.5,213.9h9.6l12.6,32.8v-32.8h7.9v45.2H206l-12.6-32.8v32.8h-7.9V213.9z"/>
<path class="st9" d="M37.9,283.1v-7.9h26.9v7.9h-9v29.4h9v7.9H37.9v-7.9h9v-29.4H37.9z"/>
<path class="st9" d="M73.6,275.2h9.6l12.6,32.8v-32.8h7.9v45.2h-9.5l-12.6-32.8v32.8h-7.9V275.2z"/>
<path class="st9" d="M140,319.1c-1.4,0.7-2.9,1.3-4.4,1.6c-1.6,0.4-3.2,0.5-4.9,0.5c-6.1,0-10.7-2-14-6c-3.2-4-4.8-9.8-4.8-17.4
	c0-7.6,1.6-13.4,4.8-17.4c3.2-4,7.9-6,14-6c1.7,0,3.4,0.2,4.9,0.5c1.6,0.4,3,0.9,4.4,1.6v9.9c-1.5-1.4-3-2.4-4.5-3.1
	c-1.4-0.7-2.9-1-4.5-1c-3.3,0-5.7,1.3-7.4,3.9c-1.7,2.6-2.5,6.4-2.5,11.5c0,5.1,0.8,8.9,2.5,11.5c1.7,2.6,4.1,3.9,7.4,3.9
	c1.5,0,3-0.3,4.5-1c1.4-0.7,2.9-1.7,4.5-3.1V319.1z"/>
<path class="st9" d="M158.2,309.3h10.1v11.1h-10.1V309.3z"/>
<g>
	<path d="M-144.2,356h-18.7v7.5h17.1v6.1h-17.1v9.1h19.5v6.3h-26.7v-35.3h25.9V356z"/>
	<path d="M-140.2,368.1h13.4v6.5h-13.4V368.1z"/>
	<path d="M-117.9,353.4c2.8-2.9,6.5-4.4,10.8-4.4c5.9,0,10.2,1.9,12.9,5.8c1.5,2.2,2.3,4.4,2.4,6.6h-7.4c-0.5-1.7-1.1-3-1.8-3.8
		c-1.3-1.5-3.3-2.3-5.8-2.3c-2.6,0-4.7,1.1-6.2,3.2c-1.5,2.2-2.3,5.2-2.3,9.2s0.8,6.9,2.4,8.9s3.6,3,6.1,3c2.5,0,4.5-0.8,5.8-2.5
		c0.7-0.9,1.3-2.3,1.8-4.1h7.3c-0.6,3.8-2.2,7-4.8,9.4c-2.6,2.4-5.9,3.6-10,3.6c-5,0-9-1.6-11.8-4.9c-2.9-3.3-4.3-7.8-4.3-13.4
		C-122.8,361.5-121.2,356.8-117.9,353.4z"/>
	<path d="M-58.8,381.9c-2.7,2.7-6.5,4.1-11.6,4.1c-5,0-8.9-1.4-11.6-4.1c-3.6-3.4-5.4-8.2-5.4-14.5c0-6.5,1.8-11.3,5.4-14.5
		c2.7-2.7,6.5-4.1,11.6-4.1c5,0,8.9,1.4,11.6,4.1c3.6,3.2,5.3,8.1,5.3,14.5C-53.4,373.7-55.2,378.5-58.8,381.9z M-63.4,376.5
		c1.7-2.2,2.6-5.2,2.6-9.2c0-4-0.9-7-2.6-9.2c-1.7-2.2-4-3.2-7-3.2s-5.2,1.1-7,3.2c-1.7,2.2-2.6,5.2-2.6,9.2c0,4,0.9,7,2.6,9.2
		c1.7,2.2,4.1,3.2,7,3.2S-65.1,378.7-63.4,376.5z"/>
	<path d="M-24.4,349.8h10.6V385h-6.9v-23.9c0-0.7,0-1.6,0-2.9c0-1.2,0-2.2,0-2.9l-6.7,29.6h-7.2l-6.6-29.6c0,0.7,0,1.6,0,2.9
		c0,1.2,0,2.2,0,2.9V385h-6.9v-35.3h10.7l6.4,27.7L-24.4,349.8z"/>
	<path d="M16.4,349.8H27V385h-6.9v-23.9c0-0.7,0-1.6,0-2.9c0-1.2,0-2.2,0-2.9L13.5,385H6.4l-6.6-29.6c0,0.7,0,1.6,0,2.9
		c0,1.2,0,2.2,0,2.9V385h-6.9v-35.3H3.6l6.4,27.7L16.4,349.8z"/>
	<path d="M59.9,356H41.3v7.5h17.1v6.1H41.3v9.1h19.5v6.3H34.1v-35.3h25.9V356z"/>
	<path d="M89.1,350.7c1.3,0.6,2.4,1.4,3.3,2.5c0.7,0.9,1.3,1.9,1.8,3c0.4,1.1,0.7,2.3,0.7,3.7c0,1.7-0.4,3.3-1.3,4.9
		c-0.8,1.6-2.2,2.8-4.2,3.4c1.6,0.7,2.8,1.6,3.5,2.8c0.7,1.2,1,3,1,5.5v2.4c0,1.6,0.1,2.7,0.2,3.3c0.2,0.9,0.6,1.6,1.4,2v0.9h-8.1
		c-0.2-0.8-0.4-1.4-0.5-1.9c-0.2-1-0.3-2-0.3-3l0-3.3c0-2.2-0.4-3.7-1.2-4.5c-0.7-0.7-2.1-1.1-4.2-1.1h-7.2V385h-7.2v-35.3h16.9
		C86,349.8,87.8,350.1,89.1,350.7z M73.9,355.9v9.5h7.9c1.6,0,2.8-0.2,3.5-0.6c1.4-0.7,2.1-2,2.1-4c0-2.1-0.7-3.6-2-4.3
		c-0.8-0.4-1.9-0.6-3.4-0.6H73.9z"/>
	<path d="M105.3,353.4c2.8-2.9,6.5-4.4,10.8-4.4c5.9,0,10.2,1.9,12.9,5.8c1.5,2.2,2.3,4.4,2.4,6.6H124c-0.5-1.7-1.1-3-1.8-3.8
		c-1.3-1.5-3.3-2.3-5.8-2.3c-2.6,0-4.7,1.1-6.2,3.2c-1.5,2.2-2.3,5.2-2.3,9.2s0.8,6.9,2.4,8.9s3.6,3,6.1,3c2.5,0,4.5-0.8,5.8-2.5
		c0.7-0.9,1.3-2.3,1.8-4.1h7.3c-0.6,3.8-2.2,7-4.8,9.4s-5.9,3.6-10,3.6c-5,0-9-1.6-11.8-4.9c-2.9-3.3-4.3-7.8-4.3-13.4
		C100.4,361.5,102,356.8,105.3,353.4z"/>
	<path d="M163.4,356h-18.7v7.5h17.1v6.1h-17.1v9.1h19.5v6.3h-26.7v-35.3h25.9V356z"/>
</g>
<g>
	<defs>
		<rect id="SVGID_5_" x="-613" y="-2355.8" width="1440" height="4757"/>
	</defs>
	<clipPath id="SVGID_6_">
		<use xlink:href="#SVGID_5_"  style="overflow:visible;"/>
	</clipPath>
	<g class="st10">
		<text transform="matrix(1 0 0 1 -554 -2261.7856)" class="st5" style="font-family:'Menlo-Bold'; font-size:56px;">URBAN</text>
	</g>
	<g class="st10">
		<text transform="matrix(1 0 0 1 -554 -2196.7856)" class="st5" style="font-family:'Menlo-Bold'; font-size:56px;">INC.</text>
	</g>
	<g class="st10">
		<text transform="matrix(1 0 0 1 -552 -2263.7856)" style="font-family:'Menlo-Bold'; font-size:56px;">URBAN</text>
	</g>
	<g class="st10">
		<text transform="matrix(1 0 0 1 -552 -2198.7856)" style="font-family:'Menlo-Bold'; font-size:56px;">INC.</text>
	</g>
</g>
<g>
	<defs>
		<rect id="SVGID_7_" x="-613" y="-2355.8" width="1440" height="4757"/>
	</defs>
	<clipPath id="SVGID_8_">
		<use xlink:href="#SVGID_7_"  style="overflow:visible;"/>
	</clipPath>
	<g class="st11">
		<text transform="matrix(1 0 0 1 -554 -2261.7856)" class="st5" style="font-family:'Menlo-Bold'; font-size:56px;">URBAN</text>
	</g>
	<g class="st11">
		<text transform="matrix(1 0 0 1 -554 -2196.7856)" class="st5" style="font-family:'Menlo-Bold'; font-size:56px;">INC.</text>
	</g>
	<g class="st11">
		<text transform="matrix(1 0 0 1 -552 -2263.7856)" style="font-family:'Menlo-Bold'; font-size:56px;">URBAN</text>
	</g>
	<g class="st11">
		<text transform="matrix(1 0 0 1 -552 -2198.7856)" style="font-family:'Menlo-Bold'; font-size:56px;">INC.</text>
	</g>
</g>
</svg>
