<?xml version="1.0" encoding="utf-8"?>
<!-- Generator: Adobe Illustrator 19.1.0, SVG Export Plug-In . SVG Version: 6.00 Build 0)  -->
<svg version="1.1" id="Calque_1" xmlns="http://www.w3.org/2000/svg" xmlns:xlink="http://www.w3.org/1999/xlink" x="0px" y="0px"
	 viewBox="243 -58.4 586 217.4" style="enable-background:new 243 -58.4 586 217.4;" xml:space="preserve">
<style type="text/css">
	.st0{fill:#A400E8;}
	.st1{fill:#06FFD9;}
	.st2{fill:none;stroke:#231F20;stroke-width:5;stroke-miterlimit:10;}
	.st3{fill:none;stroke:#2C06E6;stroke-width:2;stroke-miterlimit:10;}
	.st4{fill:none;stroke:#06FFD9;stroke-width:2;stroke-miterlimit:10;}
	.st5{fill:none;stroke:#FA00E8;stroke-width:2;stroke-miterlimit:10;}
</style>
<g>
	<path class="st0" d="M530.1,146.2c0.2,1.4,0.6,2.5,1.2,3.2c1.1,1.3,2.9,1.9,5.5,1.9c1.6,0,2.8-0.2,3.8-0.5c1.8-0.6,2.8-1.8,2.8-3.6
		c0-1-0.5-1.8-1.4-2.4c-0.9-0.5-2.3-1-4.3-1.4l-3.4-0.7c-3.3-0.7-5.6-1.5-6.8-2.4c-2.1-1.4-3.1-3.7-3.1-6.7c0-2.8,1-5.1,3.1-6.9
		s5-2.8,9-2.8c3.3,0,6.1,0.9,8.4,2.6s3.6,4.2,3.7,7.5h-6.2c-0.1-1.9-0.9-3.2-2.5-4c-1-0.5-2.3-0.8-3.9-0.8c-1.7,0-3.1,0.3-4.1,1
		c-1,0.7-1.5,1.6-1.5,2.8c0,1.1,0.5,1.9,1.5,2.5c0.6,0.4,2,0.8,4.1,1.3l5.4,1.3c2.4,0.6,4.2,1.3,5.4,2.2c1.8,1.5,2.8,3.6,2.8,6.3
		c0,2.8-1.1,5.2-3.3,7c-2.2,1.9-5.3,2.8-9.3,2.8c-4.1,0-7.3-0.9-9.6-2.8s-3.5-4.4-3.5-7.6H530.1z"/>
	<path class="st0" d="M576.6,124.8v5.5h-9.3v25.5h-6.5v-25.5h-9.3v-5.5H576.6z"/>
	<path class="st0" d="M603.4,153c-2.3,2.4-5.7,3.6-10.1,3.6s-7.8-1.2-10.1-3.6c-3.1-3-4.7-7.2-4.7-12.8c0-5.7,1.6-9.9,4.7-12.8
		c2.3-2.4,5.7-3.6,10.1-3.6s7.8,1.2,10.1,3.6c3.1,2.8,4.7,7.1,4.7,12.8C608.1,145.8,606.6,150.1,603.4,153z M599.4,148.3
		c1.5-1.9,2.3-4.6,2.3-8.1c0-3.5-0.8-6.2-2.3-8.1c-1.5-1.9-3.5-2.8-6.1-2.8s-4.6,0.9-6.1,2.8c-1.5,1.9-2.3,4.6-2.3,8.1
		c0,3.5,0.8,6.2,2.3,8.1c1.5,1.9,3.6,2.8,6.1,2.8S597.9,150.2,599.4,148.3z"/>
	<path class="st0" d="M633.8,142.4c-1.8,1.5-4.4,2.3-7.8,2.3h-6.4v11.1h-6.4v-30.9h13.3c3.1,0,5.5,0.8,7.3,2.4s2.7,4.1,2.7,7.4
		C636.6,138.3,635.7,140.9,633.8,142.4z M628.9,131.2c-0.8-0.7-2-1-3.4-1h-5.8v9.1h5.8c1.5,0,2.6-0.4,3.4-1.1
		c0.8-0.7,1.2-1.9,1.2-3.5C630.1,133.1,629.7,131.9,628.9,131.2z"/>
	<path class="st0" d="M673.5,124.8h9.3v30.9h-6v-20.9c0-0.6,0-1.4,0-2.5c0-1.1,0-1.9,0-2.5l-5.9,26h-6.3l-5.8-26c0,0.6,0,1.4,0,2.5
		c0,1.1,0,1.9,0,2.5v20.9h-6v-30.9h9.4l5.6,24.3L673.5,124.8z"/>
	<path class="st0" d="M712.6,153c-2.3,2.4-5.7,3.6-10.1,3.6s-7.8-1.2-10.1-3.6c-3.1-3-4.7-7.2-4.7-12.8c0-5.7,1.6-9.9,4.7-12.8
		c2.3-2.4,5.7-3.6,10.1-3.6s7.8,1.2,10.1,3.6c3.1,2.8,4.7,7.1,4.7,12.8C717.3,145.8,715.7,150.1,712.6,153z M708.5,148.3
		c1.5-1.9,2.3-4.6,2.3-8.1c0-3.5-0.8-6.2-2.3-8.1c-1.5-1.9-3.5-2.8-6.1-2.8s-4.6,0.9-6.1,2.8c-1.5,1.9-2.3,4.6-2.3,8.1
		c0,3.5,0.8,6.2,2.3,8.1c1.5,1.9,3.6,2.8,6.1,2.8S707,150.2,708.5,148.3z"/>
	<path class="st0" d="M744.7,124.8v5.5h-9.3v25.5h-6.5v-25.5h-9.3v-5.5H744.7z"/>
	<path class="st0" d="M754.4,155.8h-6.4v-30.9h6.4V155.8z"/>
	<path class="st0" d="M784.2,153c-2.3,2.4-5.7,3.6-10.1,3.6s-7.8-1.2-10.1-3.6c-3.1-3-4.7-7.2-4.7-12.8c0-5.7,1.6-9.9,4.7-12.8
		c2.3-2.4,5.7-3.6,10.1-3.6s7.8,1.2,10.1,3.6c3.1,2.8,4.7,7.1,4.7,12.8C788.9,145.8,787.4,150.1,784.2,153z M780.2,148.3
		c1.5-1.9,2.3-4.6,2.3-8.1c0-3.5-0.8-6.2-2.3-8.1c-1.5-1.9-3.5-2.8-6.1-2.8s-4.6,0.9-6.1,2.8c-1.5,1.9-2.3,4.6-2.3,8.1
		c0,3.5,0.8,6.2,2.3,8.1c1.5,1.9,3.6,2.8,6.1,2.8S778.7,150.2,780.2,148.3z"/>
	<path class="st0" d="M793.8,124.8h6.8l12.3,21.6v-21.6h6v30.9h-6.5l-12.6-22v22h-6V124.8z"/>
</g>
<g>
	<path class="st1" d="M533.7,145.2c0.2,1.4,0.6,2.5,1.2,3.2c1.1,1.3,2.9,1.9,5.5,1.9c1.6,0,2.8-0.2,3.8-0.5c1.8-0.6,2.8-1.8,2.8-3.6
		c0-1-0.5-1.8-1.4-2.4c-0.9-0.5-2.3-1-4.3-1.4l-3.4-0.7c-3.3-0.7-5.6-1.5-6.8-2.4c-2.1-1.4-3.1-3.7-3.1-6.7c0-2.8,1-5.1,3.1-6.9
		s5-2.8,9-2.8c3.3,0,6.1,0.9,8.4,2.6s3.6,4.2,3.7,7.5H546c-0.1-1.9-0.9-3.2-2.5-4c-1-0.5-2.3-0.8-3.9-0.8c-1.7,0-3.1,0.3-4.1,1
		c-1,0.7-1.5,1.6-1.5,2.8c0,1.1,0.5,1.9,1.5,2.5c0.6,0.4,2,0.8,4.1,1.3l5.4,1.3c2.4,0.6,4.2,1.3,5.4,2.2c1.8,1.5,2.8,3.6,2.8,6.3
		c0,2.8-1.1,5.2-3.3,7c-2.2,1.9-5.3,2.8-9.3,2.8c-4.1,0-7.3-0.9-9.6-2.8s-3.5-4.4-3.5-7.6H533.7z"/>
	<path class="st1" d="M580.2,123.8v5.5h-9.3v25.5h-6.5v-25.5h-9.3v-5.5H580.2z"/>
	<path class="st1" d="M607,152c-2.3,2.4-5.7,3.6-10.1,3.6s-7.8-1.2-10.1-3.6c-3.1-3-4.7-7.2-4.7-12.8c0-5.7,1.6-9.9,4.7-12.8
		c2.3-2.4,5.7-3.6,10.1-3.6s7.8,1.2,10.1,3.6c3.1,2.8,4.7,7.1,4.7,12.8C611.7,144.8,610.1,149.1,607,152z M603,147.3
		c1.5-1.9,2.3-4.6,2.3-8.1c0-3.5-0.8-6.2-2.3-8.1c-1.5-1.9-3.5-2.8-6.1-2.8s-4.6,0.9-6.1,2.8c-1.5,1.9-2.3,4.6-2.3,8.1
		c0,3.5,0.8,6.2,2.3,8.1c1.5,1.9,3.6,2.8,6.1,2.8S601.5,149.2,603,147.3z"/>
	<path class="st1" d="M637.4,141.4c-1.8,1.5-4.4,2.3-7.8,2.3h-6.4v11.1h-6.4v-30.9h13.3c3.1,0,5.5,0.8,7.3,2.4s2.7,4.1,2.7,7.4
		C640.1,137.3,639.2,139.9,637.4,141.4z M632.5,130.2c-0.8-0.7-2-1-3.4-1h-5.8v9.1h5.8c1.5,0,2.6-0.4,3.4-1.1
		c0.8-0.7,1.2-1.9,1.2-3.5C633.7,132.1,633.3,130.9,632.5,130.2z"/>
	<path class="st1" d="M677,123.8h9.3v30.9h-6v-20.9c0-0.6,0-1.4,0-2.5c0-1.1,0-1.9,0-2.5l-5.9,26h-6.3l-5.8-26c0,0.6,0,1.4,0,2.5
		c0,1.1,0,1.9,0,2.5v20.9h-6v-30.9h9.4l5.6,24.3L677,123.8z"/>
	<path class="st1" d="M716.2,152c-2.3,2.4-5.7,3.6-10.1,3.6s-7.8-1.2-10.1-3.6c-3.1-3-4.7-7.2-4.7-12.8c0-5.7,1.6-9.9,4.7-12.8
		c2.3-2.4,5.7-3.6,10.1-3.6s7.8,1.2,10.1,3.6c3.1,2.8,4.7,7.1,4.7,12.8C720.8,144.8,719.3,149.1,716.2,152z M712.1,147.3
		c1.5-1.9,2.3-4.6,2.3-8.1c0-3.5-0.8-6.2-2.3-8.1c-1.5-1.9-3.5-2.8-6.1-2.8s-4.6,0.9-6.1,2.8c-1.5,1.9-2.3,4.6-2.3,8.1
		c0,3.5,0.8,6.2,2.3,8.1c1.5,1.9,3.6,2.8,6.1,2.8S710.6,149.2,712.1,147.3z"/>
	<path class="st1" d="M748.3,123.8v5.5H739v25.5h-6.5v-25.5h-9.3v-5.5H748.3z"/>
	<path class="st1" d="M757.9,154.8h-6.4v-30.9h6.4V154.8z"/>
	<path class="st1" d="M787.8,152c-2.3,2.4-5.7,3.6-10.1,3.6s-7.8-1.2-10.1-3.6c-3.1-3-4.7-7.2-4.7-12.8c0-5.7,1.6-9.9,4.7-12.8
		c2.3-2.4,5.7-3.6,10.1-3.6s7.8,1.2,10.1,3.6c3.1,2.8,4.7,7.1,4.7,12.8C792.5,144.8,790.9,149.1,787.8,152z M783.8,147.3
		c1.5-1.9,2.3-4.6,2.3-8.1c0-3.5-0.8-6.2-2.3-8.1c-1.5-1.9-3.5-2.8-6.1-2.8s-4.6,0.9-6.1,2.8c-1.5,1.9-2.3,4.6-2.3,8.1
		c0,3.5,0.8,6.2,2.3,8.1c1.5,1.9,3.6,2.8,6.1,2.8S782.3,149.2,783.8,147.3z"/>
	<path class="st1" d="M797.3,123.8h6.8l12.3,21.6v-21.6h6v30.9H816l-12.6-22v22h-6V123.8z"/>
</g>
<polyline id="Triangle_1_" class="st2" points="440.3,86.2 257.6,156.6 826.5,156.6 826.8,-54.5 621,19.4 "/>
<path class="st3" d="M458.5,29.7c0.1-39.2,31.9-70.9,71-70.8c39.1,0.1,70.9,31.9,70.8,71c-0.1,39.1-32,70.9-71,70.8
	C490.2,100.6,458.4,68.8,458.5,29.7z M510.4,29.8c0,9.8,0,19.6,0,29.4c0,0.8,0.1,1.6,0.4,2.3c1.1,2.5,3.7,3.1,6.3,1.5
	c16.2-9.8,32.5-19.6,48.7-29.4c3.3-2,3.3-5.8-0.1-7.8c-16.1-9.7-32.3-19.5-48.4-29.2c-1.5-0.9-3.1-1.4-4.7-0.5
	c-1.7,0.9-2.2,2.5-2.2,4.4C510.4,10.3,510.4,20.1,510.4,29.8z"/>
<path class="st4" d="M454.1,29.7c0.1-39.2,31.9-70.9,71-70.8c39.1,0.1,70.9,31.9,70.8,71c-0.1,39.1-32,70.9-71,70.8
	C485.8,100.6,454,68.8,454.1,29.7z M506,29.8c0,9.8,0,19.6,0,29.4c0,0.8,0.1,1.6,0.4,2.3c1.1,2.5,3.7,3.1,6.3,1.5
	c16.2-9.8,32.5-19.6,48.7-29.4c3.3-2,3.3-5.8-0.1-7.8C545.2,16.2,529,6.4,512.9-3.3c-1.5-0.9-3.1-1.4-4.7-0.5
	c-1.7,0.9-2.2,2.5-2.2,4.4C506,10.3,506,20.1,506,29.8z"/>
<path class="st5" d="M455.8,33.5c0.1-39.2,31.9-70.9,71-70.8c39.1,0.1,70.9,31.9,70.8,71c-0.1,39.1-32,70.9-71,70.8
	C487.5,104.3,455.7,72.5,455.8,33.5z M507.7,33.5c0,9.8,0,19.6,0,29.4c0,0.8,0.1,1.6,0.4,2.3c1.1,2.5,3.7,3.1,6.3,1.5
	c16.2-9.8,32.5-19.6,48.7-29.4c3.3-2,3.3-5.8-0.1-7.8c-16.1-9.7-32.3-19.5-48.4-29.2c-1.5-0.9-3.1-1.4-4.7-0.5
	c-1.7,0.9-2.2,2.5-2.2,4.4C507.7,14,507.7,23.8,507.7,33.5z"/>
<g>
	<path d="M531.7,146.2c0.2,1.4,0.6,2.5,1.2,3.2c1.1,1.3,2.9,1.9,5.5,1.9c1.6,0,2.8-0.2,3.8-0.5c1.8-0.6,2.8-1.8,2.8-3.6
		c0-1-0.5-1.8-1.4-2.4c-0.9-0.5-2.3-1-4.3-1.4l-3.4-0.7c-3.3-0.7-5.6-1.5-6.8-2.4c-2.1-1.4-3.1-3.7-3.1-6.7c0-2.8,1-5.1,3.1-6.9
		s5-2.8,9-2.8c3.3,0,6.1,0.9,8.4,2.6s3.6,4.2,3.7,7.5H544c-0.1-1.9-0.9-3.2-2.5-4c-1-0.5-2.3-0.8-3.9-0.8c-1.7,0-3.1,0.3-4.1,1
		c-1,0.7-1.5,1.6-1.5,2.8c0,1.1,0.5,1.9,1.5,2.5c0.6,0.4,2,0.8,4.1,1.3l5.4,1.3c2.4,0.6,4.2,1.3,5.4,2.2c1.8,1.5,2.8,3.6,2.8,6.3
		c0,2.8-1.1,5.2-3.3,7c-2.2,1.9-5.3,2.8-9.3,2.8c-4.1,0-7.3-0.9-9.6-2.8s-3.5-4.4-3.5-7.6H531.7z"/>
	<path d="M578.2,124.8v5.5h-9.3v25.5h-6.5v-25.5h-9.3v-5.5H578.2z"/>
	<path d="M605,153c-2.3,2.4-5.7,3.6-10.1,3.6s-7.8-1.2-10.1-3.6c-3.1-3-4.7-7.2-4.7-12.8c0-5.7,1.6-9.9,4.7-12.8
		c2.3-2.4,5.7-3.6,10.1-3.6s7.8,1.2,10.1,3.6c3.1,2.8,4.7,7.1,4.7,12.8C609.7,145.8,608.1,150,605,153z M601,148.3
		c1.5-1.9,2.3-4.6,2.3-8.1c0-3.5-0.8-6.2-2.3-8.1c-1.5-1.9-3.5-2.8-6.1-2.8s-4.6,0.9-6.1,2.8c-1.5,1.9-2.3,4.6-2.3,8.1
		c0,3.5,0.8,6.2,2.3,8.1c1.5,1.9,3.6,2.8,6.1,2.8S599.5,150.2,601,148.3z"/>
	<path d="M635.4,142.3c-1.8,1.5-4.4,2.3-7.8,2.3h-6.4v11.1h-6.4v-30.9h13.3c3.1,0,5.5,0.8,7.3,2.4s2.7,4.1,2.7,7.4
		C638.1,138.2,637.2,140.8,635.4,142.3z M630.5,131.2c-0.8-0.7-2-1-3.4-1h-5.8v9.1h5.8c1.5,0,2.6-0.4,3.4-1.1
		c0.8-0.7,1.2-1.9,1.2-3.5C631.7,133,631.3,131.9,630.5,131.2z"/>
	<path d="M675,124.8h9.3v30.9h-6v-20.9c0-0.6,0-1.4,0-2.5c0-1.1,0-1.9,0-2.5l-5.9,26h-6.3l-5.8-26c0,0.6,0,1.4,0,2.5
		c0,1.1,0,1.9,0,2.5v20.9h-6v-30.9h9.4l5.6,24.3L675,124.8z"/>
	<path d="M714.2,153c-2.3,2.4-5.7,3.6-10.1,3.6s-7.8-1.2-10.1-3.6c-3.1-3-4.7-7.2-4.7-12.8c0-5.7,1.6-9.9,4.7-12.8
		c2.3-2.4,5.7-3.6,10.1-3.6s7.8,1.2,10.1,3.6c3.1,2.8,4.7,7.1,4.7,12.8C718.8,145.8,717.3,150,714.2,153z M710.1,148.3
		c1.5-1.9,2.3-4.6,2.3-8.1c0-3.5-0.8-6.2-2.3-8.1c-1.5-1.9-3.5-2.8-6.1-2.8s-4.6,0.9-6.1,2.8c-1.5,1.9-2.3,4.6-2.3,8.1
		c0,3.5,0.8,6.2,2.3,8.1c1.5,1.9,3.6,2.8,6.1,2.8S708.6,150.2,710.1,148.3z"/>
	<path d="M746.3,124.8v5.5H737v25.5h-6.5v-25.5h-9.3v-5.5H746.3z"/>
	<path d="M755.9,155.7h-6.4v-30.9h6.4V155.7z"/>
	<path d="M785.8,153c-2.3,2.4-5.7,3.6-10.1,3.6s-7.8-1.2-10.1-3.6c-3.1-3-4.7-7.2-4.7-12.8c0-5.7,1.6-9.9,4.7-12.8
		c2.3-2.4,5.7-3.6,10.1-3.6s7.8,1.2,10.1,3.6c3.1,2.8,4.7,7.1,4.7,12.8C790.5,145.8,788.9,150,785.8,153z M781.8,148.3
		c1.5-1.9,2.3-4.6,2.3-8.1c0-3.5-0.8-6.2-2.3-8.1c-1.5-1.9-3.5-2.8-6.1-2.8s-4.6,0.9-6.1,2.8c-1.5,1.9-2.3,4.6-2.3,8.1
		c0,3.5,0.8,6.2,2.3,8.1c1.5,1.9,3.6,2.8,6.1,2.8S780.3,150.2,781.8,148.3z"/>
	<path d="M795.3,124.8h6.8l12.3,21.6v-21.6h6v30.9H814l-12.6-22v22h-6V124.8z"/>
</g>
</svg>
