<?xml version="1.0" encoding="utf-8"?>
<!-- Generator: Adobe Illustrator 19.1.0, SVG Export Plug-In . SVG Version: 6.00 Build 0)  -->
<svg version="1.1" id="Calque_1" xmlns="http://www.w3.org/2000/svg" xmlns:xlink="http://www.w3.org/1999/xlink" x="0px" y="0px"
	 viewBox="243 -58.4 586 217.4" style="enable-background:new 243 -58.4 586 217.4;" xml:space="preserve">
<style type="text/css">
	.st0{fill:none;stroke:#231F20;stroke-width:5;stroke-miterlimit:10;}
	.st1{fill:none;stroke:#2C06E6;stroke-width:2;stroke-miterlimit:10;}
	.st2{fill:#2C06E6;}
	.st3{font-family:'Futura-Light';}
	.st4{font-size:44.3676px;}
	.st5{fill:#FA00E8;}
	.st6{fill:none;stroke:#06FFD9;stroke-width:2;stroke-miterlimit:10;}
	.st7{fill:none;stroke:#FA00E8;stroke-width:2;stroke-miterlimit:10;}
	.st8{fill:#06FFD9;}
	.st9{fill:#A400E8;}
</style>
<polyline id="Triangle_1_" class="st0" points="440.3,86.2 257.6,156.6 826.5,156.6 826.8,-54.5 621,19.4 "/>
<rect x="450.4" y="-5.7" class="st1" width="162" height="108.3"/>
<text transform="matrix(1 0 0 1 460.5257 38.7774)" class="st2 st3 st4">URBAN</text>
<text transform="matrix(1 0 0 1 465.0257 91.9774)" class="st2 st3 st4">PONG</text>
<text transform="matrix(1 0 0 1 462.5803 36.084)" class="st5 st3 st4">URBAN</text>
<text transform="matrix(1 0 0 1 467.0803 89.284)" class="st5 st3 st4">PONG</text>
<rect x="446.5" y="-8.3" class="st6" width="162" height="108.3"/>
<rect x="452.5" y="-8.3" class="st7" width="162" height="108.3"/>
<text transform="matrix(1 0 0 1 458.6585 33.3906)" class="st8 st3 st4">URBAN</text>
<text transform="matrix(1 0 0 1 463.1585 86.5906)" class="st8 st3 st4">PONG</text>
<g id="titre_1_">
	<g>
		<path class="st9" d="M538.7,121.2h7.6l11.3,32h-7.3l-2.1-6.6h-11.8l-2.2,6.6h-7L538.7,121.2z M538.2,141.1h8.2l-4-12.6
			L538.2,141.1z"/>
		<path class="st9" d="M583.1,139.3c-1.9,1.6-4.5,2.3-8,2.3h-6.7v11.5h-6.6v-32h13.7c3.2,0,5.7,0.8,7.6,2.5c1.9,1.6,2.8,4.2,2.8,7.7
			C585.9,135.1,585,137.7,583.1,139.3z M578,127.8c-0.8-0.7-2-1.1-3.6-1.1h-6v9.4h6c1.5,0,2.7-0.4,3.6-1.2c0.8-0.8,1.3-2,1.3-3.6
			C579.3,129.7,578.9,128.5,578,127.8z"/>
		<path class="st9" d="M612.8,139.3c-1.9,1.6-4.5,2.3-8,2.3h-6.7v11.5h-6.6v-32h13.7c3.2,0,5.7,0.8,7.6,2.5c1.9,1.6,2.8,4.2,2.8,7.7
			C615.6,135.1,614.6,137.7,612.8,139.3z M607.7,127.8c-0.8-0.7-2-1.1-3.6-1.1h-6v9.4h6c1.5,0,2.7-0.4,3.6-1.2
			c0.8-0.8,1.3-2,1.3-3.6C608.9,129.7,608.5,128.5,607.7,127.8z"/>
		<path class="st9" d="M620.9,121.2h6.7v26.2h16v5.8h-22.7V121.2z"/>
		<path class="st9" d="M654.2,153.1h-6.6v-32h6.6V153.1z"/>
		<path class="st9" d="M663.5,124.5c2.6-2.6,5.9-4,9.8-4c5.3,0,9.2,1.8,11.7,5.3c1.4,2,2.1,4,2.2,6h-6.7c-0.4-1.5-1-2.7-1.6-3.5
			c-1.2-1.4-3-2.1-5.3-2.1c-2.4,0-4.3,1-5.6,2.9c-1.4,2-2.1,4.7-2.1,8.3s0.7,6.3,2.2,8.1c1.4,1.8,3.3,2.7,5.5,2.7
			c2.3,0,4-0.8,5.2-2.3c0.7-0.8,1.2-2.1,1.7-3.7h6.6c-0.6,3.5-2,6.3-4.4,8.5c-2.4,2.2-5.4,3.3-9.1,3.3c-4.6,0-8.1-1.5-10.7-4.4
			c-2.6-3-3.9-7-3.9-12.2C659.1,131.8,660.5,127.5,663.5,124.5z"/>
		<path class="st9" d="M701.7,121.2h7.6l11.3,32h-7.3l-2.1-6.6h-11.8l-2.2,6.6h-7L701.7,121.2z M701.3,141.1h8.2l-4-12.6
			L701.3,141.1z"/>
		<path class="st9" d="M744.6,121.2v5.7H735v26.3h-6.7v-26.3h-9.6v-5.7H744.6z"/>
		<path class="st9" d="M754.6,153.1H748v-32h6.6V153.1z"/>
		<path class="st9" d="M785.5,150.3c-2.4,2.5-5.9,3.7-10.5,3.7s-8.1-1.2-10.5-3.7c-3.2-3.1-4.9-7.5-4.9-13.2
			c0-5.9,1.6-10.3,4.9-13.2c2.4-2.5,5.9-3.7,10.5-3.7s8.1,1.2,10.5,3.7c3.2,2.9,4.8,7.3,4.8,13.2
			C790.4,142.9,788.7,147.2,785.5,150.3z M781.3,145.4c1.6-2,2.3-4.7,2.3-8.3s-0.8-6.4-2.3-8.3s-3.7-2.9-6.3-2.9s-4.8,1-6.3,2.9
			c-1.6,2-2.4,4.7-2.4,8.3s0.8,6.4,2.4,8.3c1.6,2,3.7,2.9,6.3,2.9C777.7,148.4,779.8,147.4,781.3,145.4z"/>
		<path class="st9" d="M795.4,121.2h7l12.7,22.3v-22.3h6.2v32h-6.7l-13-22.7v22.7h-6.2V121.2z"/>
	</g>
	<g>
		<path class="st8" d="M536.8,122.9h7.6l11.3,32h-7.3l-2.1-6.6h-11.8l-2.2,6.6h-7L536.8,122.9z M536.4,142.8h8.2l-4-12.6
			L536.4,142.8z"/>
		<path class="st8" d="M581.3,141.1c-1.9,1.6-4.5,2.3-8,2.3h-6.7v11.5H560v-32h13.7c3.2,0,5.7,0.8,7.6,2.5c1.9,1.6,2.8,4.2,2.8,7.7
			C584.1,136.8,583.2,139.5,581.3,141.1z M576.2,129.5c-0.8-0.7-2-1.1-3.6-1.1h-6v9.4h6c1.5,0,2.7-0.4,3.6-1.2
			c0.8-0.8,1.3-2,1.3-3.6C577.4,131.4,577,130.3,576.2,129.5z"/>
		<path class="st8" d="M610.9,141.1c-1.9,1.6-4.5,2.3-8,2.3h-6.7v11.5h-6.6v-32h13.7c3.2,0,5.7,0.8,7.6,2.5c1.9,1.6,2.8,4.2,2.8,7.7
			C613.7,136.8,612.8,139.5,610.9,141.1z M605.8,129.5c-0.8-0.7-2-1.1-3.6-1.1h-6v9.4h6c1.5,0,2.7-0.4,3.6-1.2
			c0.8-0.8,1.3-2,1.3-3.6C607.1,131.4,606.7,130.3,605.8,129.5z"/>
		<path class="st8" d="M619.1,122.9h6.7v26.2h16v5.8h-22.7V122.9z"/>
		<path class="st8" d="M652.4,154.9h-6.6v-32h6.6V154.9z"/>
		<path class="st8" d="M661.7,126.3c2.6-2.6,5.9-4,9.8-4c5.3,0,9.2,1.8,11.7,5.3c1.4,2,2.1,4,2.2,6h-6.7c-0.4-1.5-1-2.7-1.6-3.5
			c-1.2-1.4-3-2.1-5.3-2.1c-2.4,0-4.3,1-5.6,2.9c-1.4,2-2.1,4.7-2.1,8.3s0.7,6.3,2.2,8.1c1.4,1.8,3.3,2.7,5.5,2.7
			c2.3,0,4-0.8,5.2-2.3c0.7-0.8,1.2-2.1,1.7-3.7h6.6c-0.6,3.5-2,6.3-4.4,8.5c-2.4,2.2-5.4,3.3-9.1,3.3c-4.6,0-8.1-1.5-10.7-4.4
			c-2.6-3-3.9-7-3.9-12.2C657.2,133.6,658.7,129.3,661.7,126.3z"/>
		<path class="st8" d="M699.9,122.9h7.6l11.3,32h-7.3l-2.1-6.6h-11.8l-2.2,6.6h-7L699.9,122.9z M699.4,142.8h8.2l-4-12.6
			L699.4,142.8z"/>
		<path class="st8" d="M742.8,122.9v5.7h-9.6v26.3h-6.7v-26.3h-9.6v-5.7H742.8z"/>
		<path class="st8" d="M752.8,154.9h-6.6v-32h6.6V154.9z"/>
		<path class="st8" d="M783.7,152.1c-2.4,2.5-5.9,3.7-10.5,3.7s-8.1-1.2-10.5-3.7c-3.2-3.1-4.9-7.5-4.9-13.2
			c0-5.9,1.6-10.3,4.9-13.2c2.4-2.5,5.9-3.7,10.5-3.7s8.1,1.2,10.5,3.7c3.2,2.9,4.8,7.3,4.8,13.2C788.5,144.6,786.9,149,783.7,152.1
			z M779.5,147.2c1.6-2,2.3-4.7,2.3-8.3s-0.8-6.4-2.3-8.3c-1.6-2-3.7-2.9-6.3-2.9s-4.8,1-6.3,2.9c-1.6,2-2.4,4.7-2.4,8.3
			s0.8,6.4,2.4,8.3c1.6,2,3.7,2.9,6.3,2.9S777.9,149.2,779.5,147.2z"/>
		<path class="st8" d="M793.5,122.9h7l12.7,22.3v-22.3h6.2v32h-6.7l-13-22.7v22.7h-6.2V122.9z"/>
	</g>
	<g>
		<path d="M538.4,123.1h7.6l11.3,32H550l-2.1-6.6h-11.8l-2.2,6.6h-7L538.4,123.1z M538,143h8.2l-4-12.6L538,143z"/>
		<path d="M582.9,141.3c-1.9,1.6-4.5,2.3-8,2.3h-6.7v11.5h-6.6v-32h13.7c3.2,0,5.7,0.8,7.6,2.5c1.9,1.6,2.8,4.2,2.8,7.7
			C585.7,137,584.7,139.7,582.9,141.3z M577.8,129.7c-0.8-0.7-2-1.1-3.6-1.1h-6v9.4h6c1.5,0,2.7-0.4,3.6-1.2c0.8-0.8,1.3-2,1.3-3.6
			C579,131.6,578.6,130.4,577.8,129.7z"/>
		<path d="M612.5,141.3c-1.9,1.6-4.5,2.3-8,2.3h-6.7v11.5h-6.6v-32h13.7c3.2,0,5.7,0.8,7.6,2.5c1.9,1.6,2.8,4.2,2.8,7.7
			C615.3,137,614.4,139.7,612.5,141.3z M607.4,129.7c-0.8-0.7-2-1.1-3.6-1.1h-6v9.4h6c1.5,0,2.7-0.4,3.6-1.2c0.8-0.8,1.3-2,1.3-3.6
			C608.7,131.6,608.3,130.4,607.4,129.7z"/>
		<path d="M620.7,123.1h6.7v26.2h16v5.8h-22.7V123.1z"/>
		<path d="M653.9,155.1h-6.6v-32h6.6V155.1z"/>
		<path d="M663.2,126.4c2.6-2.6,5.9-4,9.8-4c5.3,0,9.2,1.8,11.7,5.3c1.4,2,2.1,4,2.2,6h-6.7c-0.4-1.5-1-2.7-1.6-3.5
			c-1.2-1.4-3-2.1-5.3-2.1c-2.4,0-4.3,1-5.6,2.9c-1.4,2-2.1,4.7-2.1,8.3s0.7,6.3,2.2,8.1c1.4,1.8,3.3,2.7,5.5,2.7
			c2.3,0,4-0.8,5.2-2.3c0.7-0.8,1.2-2.1,1.7-3.7h6.6c-0.6,3.5-2,6.3-4.4,8.5c-2.4,2.2-5.4,3.3-9.1,3.3c-4.6,0-8.1-1.5-10.7-4.4
			c-2.6-3-3.9-7-3.9-12.2C658.8,133.8,660.3,129.5,663.2,126.4z"/>
		<path d="M701.4,123.1h7.6l11.3,32H713l-2.1-6.6h-11.8l-2.2,6.6h-7L701.4,123.1z M701,143h8.2l-4-12.6L701,143z"/>
		<path d="M744.4,123.1v5.7h-9.6v26.3h-6.7v-26.3h-9.6v-5.7H744.4z"/>
		<path d="M754.4,155.1h-6.6v-32h6.6V155.1z"/>
		<path d="M785.3,152.3c-2.4,2.5-5.9,3.7-10.5,3.7s-8.1-1.2-10.5-3.7c-3.2-3.1-4.9-7.5-4.9-13.2c0-5.9,1.6-10.3,4.9-13.2
			c2.4-2.5,5.9-3.7,10.5-3.7s8.1,1.2,10.5,3.7c3.2,2.9,4.8,7.3,4.8,13.2C790.1,144.8,788.5,149.2,785.3,152.3z M781.1,147.4
			c1.6-2,2.3-4.7,2.3-8.3s-0.8-6.4-2.3-8.3c-1.6-2-3.7-2.9-6.3-2.9s-4.8,1-6.3,2.9c-1.6,2-2.4,4.7-2.4,8.3s0.8,6.4,2.4,8.3
			c1.6,2,3.7,2.9,6.3,2.9C777.4,150.3,779.5,149.3,781.1,147.4z"/>
		<path d="M795.1,123.1h7l12.7,22.3v-22.3h6.2v32h-6.7l-13-22.7v22.7h-6.2V123.1z"/>
	</g>
</g>
</svg>
