<?xml version="1.0" encoding="utf-8"?>
<!-- Generator: Adobe Illustrator 19.1.0, SVG Export Plug-In . SVG Version: 6.00 Build 0)  -->
<svg version="1.1" id="Calque_1" xmlns="http://www.w3.org/2000/svg" xmlns:xlink="http://www.w3.org/1999/xlink" x="0px" y="0px"
	 viewBox="-186 172.6 586 217.4" style="enable-background:new -186 172.6 586 217.4;" xml:space="preserve">
<style type="text/css">
	.st0{fill:none;stroke:#231F20;stroke-width:5;stroke-miterlimit:10;}
	.st1{fill:none;stroke:#FA00E8;stroke-width:2;stroke-miterlimit:10;}
	.st2{fill:none;stroke:#2C06E6;}
	.st3{fill:none;stroke:#06FFD9;stroke-miterlimit:10;}
	.st4{fill:#06FFD9;}
	.st5{fill:#A400E8;}
</style>
<polyline id="Triangle_1_" class="st0" points="11.3,317.2 -171.4,387.6 397.5,387.6 397.8,176.5 192,250.4 "/>
<g>
	<path class="st1" d="M-55.4,260.2h10.8l19.6,34.4v-34.4h9.6v49.3h-10.3l-20.1-35v35h-9.6V260.2z"/>
	<path class="st1" d="M30.7,269H4.6v10.5h23.9v8.6H4.6v12.7h27.3v8.9H-5.5v-49.3h36.1V269z M24.2,246.3l-10.2,10H7.2l6.4-10H24.2z"
		/>
	<path class="st1" d="M77.8,305.1c-3.7,3.8-9.1,5.7-16.1,5.7s-12.4-1.9-16.1-5.7c-5-4.7-7.5-11.5-7.5-20.3c0-9,2.5-15.8,7.5-20.3
		c3.7-3.8,9.1-5.7,16.1-5.7s12.4,1.9,16.1,5.7c5,4.5,7.5,11.3,7.5,20.3C85.3,293.6,82.8,300.4,77.8,305.1z M71.4,297.6
		c2.4-3,3.6-7.3,3.6-12.8c0-5.5-1.2-9.8-3.6-12.8c-2.4-3-5.6-4.5-9.7-4.5c-4.1,0-7.3,1.5-9.8,4.5c-2.4,3-3.6,7.3-3.6,12.8
		c0,5.5,1.2,9.8,3.6,12.8c2.4,3,5.7,4.5,9.8,4.5C65.7,302.1,69,300.6,71.4,297.6z"/>
	<path class="st1" d="M99.1,290.8v1.1c0.1,3.8,0.5,6.5,1.2,8c0.7,1.5,2.2,2.3,4.5,2.3c2.3,0,3.8-0.8,4.5-2.5c0.4-1,0.7-2.7,0.7-5.1
		v-34.5h10.3v34.3c0,4.2-0.7,7.5-2.1,10c-2.4,4.1-6.7,6.2-13,6.2c-6.3,0-10.4-1.7-12.6-5c-2.1-3.4-3.2-7.9-3.2-13.7v-1.1H99.1z"/>
	<path class="st1" d="M131.2,260.2h10.5v30.3c0,3.4,0.4,5.9,1.2,7.4c1.2,2.8,4,4.1,8.1,4.1c4.2,0,6.8-1.4,8.1-4.1
		c0.8-1.6,1.2-4,1.2-7.4v-30.3h10.5v30.3c0,5.2-0.8,9.3-2.4,12.2c-3,5.3-8.8,8-17.3,8s-14.3-2.7-17.4-8c-1.6-2.9-2.4-7-2.4-12.2
		V260.2z"/>
	<path class="st1" d="M190,309.5h-10.2v-49.3H190V309.5z"/>
	<path class="st1" d="M204.3,265.4c4-4.1,9-6.1,15.1-6.1c8.2,0,14.2,2.7,18,8.2c2.1,3.1,3.2,6.1,3.4,9.2h-10.3
		c-0.7-2.4-1.5-4.1-2.5-5.3c-1.8-2.1-4.6-3.2-8.2-3.2c-3.7,0-6.6,1.5-8.7,4.5c-2.1,3-3.2,7.3-3.2,12.8c0,5.5,1.1,9.7,3.4,12.4
		c2.2,2.8,5.1,4.1,8.5,4.1c3.5,0,6.2-1.2,8.1-3.5c1-1.3,1.9-3.2,2.6-5.7h10.2c-0.9,5.4-3.1,9.7-6.8,13.1c-3.6,3.4-8.3,5-13.9,5
		c-7,0-12.5-2.3-16.5-6.8c-4-4.6-6-10.8-6-18.8C197.5,276.7,199.8,270,204.3,265.4z"/>
	<path class="st1" d="M285.5,269h-26.1v10.5h23.9v8.6h-23.9v12.7h27.3v8.9h-37.3v-49.3h36.1V269z"/>
</g>
<g>
	<path class="st2" d="M-58.1,260h10.8l19.6,34.4V260h9.6v49.3h-10.3l-20.1-35v35h-9.6V260z"/>
	<path class="st2" d="M27.9,268.7H1.8v10.5h23.9v8.6H1.8v12.7h27.3v8.9H-8.2V260h36.1V268.7z M21.5,246l-10.2,10H4.4l6.4-10H21.5z"
		/>
	<path class="st2" d="M75,304.9c-3.7,3.8-9.1,5.7-16.1,5.7s-12.4-1.9-16.1-5.7c-5-4.7-7.5-11.5-7.5-20.3c0-9,2.5-15.8,7.5-20.3
		c3.7-3.8,9.1-5.7,16.1-5.7s12.4,1.9,16.1,5.7c5,4.5,7.5,11.3,7.5,20.3C82.5,293.4,80,300.2,75,304.9z M68.6,297.4
		c2.4-3,3.6-7.3,3.6-12.8c0-5.5-1.2-9.8-3.6-12.8c-2.4-3-5.6-4.5-9.7-4.5c-4.1,0-7.3,1.5-9.8,4.5c-2.4,3-3.6,7.3-3.6,12.8
		c0,5.5,1.2,9.8,3.6,12.8c2.4,3,5.7,4.5,9.8,4.5C63,301.9,66.2,300.4,68.6,297.4z"/>
	<path class="st2" d="M96.4,290.6v1.1c0.1,3.8,0.5,6.5,1.2,8c0.7,1.5,2.2,2.3,4.5,2.3c2.3,0,3.8-0.8,4.5-2.5c0.4-1,0.7-2.7,0.7-5.1
		V260h10.3v34.3c0,4.2-0.7,7.5-2.1,10c-2.4,4.1-6.7,6.2-13,6.2c-6.3,0-10.4-1.7-12.6-5c-2.1-3.4-3.2-7.9-3.2-13.7v-1.1H96.4z"/>
	<path class="st2" d="M128.4,260h10.5v30.3c0,3.4,0.4,5.9,1.2,7.4c1.2,2.8,4,4.1,8.1,4.1c4.2,0,6.8-1.4,8.1-4.1
		c0.8-1.6,1.2-4,1.2-7.4V260H168v30.3c0,5.2-0.8,9.3-2.4,12.2c-3,5.3-8.8,8-17.3,8s-14.3-2.7-17.4-8c-1.6-2.9-2.4-7-2.4-12.2V260z"
		/>
	<path class="st2" d="M187.2,309.2H177V260h10.2V309.2z"/>
	<path class="st2" d="M201.6,265.1c4-4.1,9-6.1,15.1-6.1c8.2,0,14.2,2.7,18,8.2c2.1,3.1,3.2,6.1,3.4,9.2h-10.3
		c-0.7-2.4-1.5-4.1-2.5-5.3c-1.8-2.1-4.6-3.2-8.2-3.2c-3.7,0-6.6,1.5-8.7,4.5c-2.1,3-3.2,7.3-3.2,12.8c0,5.5,1.1,9.7,3.4,12.4
		c2.2,2.8,5.1,4.1,8.5,4.1c3.5,0,6.2-1.2,8.1-3.5c1-1.3,1.9-3.2,2.6-5.7H238c-0.9,5.4-3.1,9.7-6.8,13.1c-3.6,3.4-8.3,5-13.9,5
		c-7,0-12.5-2.3-16.5-6.8c-4-4.6-6-10.8-6-18.8C194.7,276.4,197,269.8,201.6,265.1z"/>
	<path class="st2" d="M282.7,268.7h-26.1v10.5h23.9v8.6h-23.9v12.7h27.3v8.9h-37.3V260h36.1V268.7z"/>
</g>
<g>
	<path class="st3" d="M-59.9,260h10.8l19.6,34.4V260h9.6v49.3h-10.3l-20.1-35v35h-9.6V260z"/>
	<path class="st3" d="M26.1,268.7H0.1v10.5H24v8.6H0.1v12.7h27.3v8.9H-10V260h36.1V268.7z M19.7,246L9.6,256H2.7l6.4-10H19.7z"/>
	<path class="st3" d="M73.3,304.9c-3.7,3.8-9.1,5.7-16.1,5.7s-12.4-1.9-16.1-5.7c-5-4.7-7.5-11.5-7.5-20.3c0-9,2.5-15.8,7.5-20.3
		c3.7-3.8,9.1-5.7,16.1-5.7s12.4,1.9,16.1,5.7c5,4.5,7.5,11.3,7.5,20.3C80.7,293.4,78.3,300.2,73.3,304.9z M66.9,297.4
		c2.4-3,3.6-7.3,3.6-12.8c0-5.5-1.2-9.8-3.6-12.8c-2.4-3-5.6-4.5-9.7-4.5c-4.1,0-7.3,1.5-9.8,4.5c-2.4,3-3.6,7.3-3.6,12.8
		c0,5.5,1.2,9.8,3.6,12.8c2.4,3,5.7,4.5,9.8,4.5C61.2,301.9,64.5,300.4,66.9,297.4z"/>
	<path class="st3" d="M94.6,290.6v1.1c0.1,3.8,0.5,6.5,1.2,8c0.7,1.5,2.2,2.3,4.5,2.3c2.3,0,3.8-0.8,4.5-2.5c0.4-1,0.7-2.7,0.7-5.1
		V260h10.3v34.3c0,4.2-0.7,7.5-2.1,10c-2.4,4.1-6.7,6.2-13,6.2c-6.3,0-10.4-1.7-12.6-5c-2.1-3.4-3.2-7.9-3.2-13.7v-1.1H94.6z"/>
	<path class="st3" d="M126.7,260h10.5v30.3c0,3.4,0.4,5.9,1.2,7.4c1.2,2.8,4,4.1,8.1,4.1c4.2,0,6.8-1.4,8.1-4.1
		c0.8-1.6,1.2-4,1.2-7.4V260h10.5v30.3c0,5.2-0.8,9.3-2.4,12.2c-3,5.3-8.8,8-17.3,8s-14.3-2.7-17.4-8c-1.6-2.9-2.4-7-2.4-12.2V260z"
		/>
	<path class="st3" d="M185.5,309.2h-10.2V260h10.2V309.2z"/>
	<path class="st3" d="M199.8,265.1c4-4.1,9-6.1,15.1-6.1c8.2,0,14.2,2.7,18,8.2c2.1,3.1,3.2,6.1,3.4,9.2H226
		c-0.7-2.4-1.5-4.1-2.5-5.3c-1.8-2.1-4.6-3.2-8.2-3.2c-3.7,0-6.6,1.5-8.7,4.5c-2.1,3-3.2,7.3-3.2,12.8c0,5.5,1.1,9.7,3.4,12.4
		c2.2,2.8,5.1,4.1,8.5,4.1c3.5,0,6.2-1.2,8.1-3.5c1-1.3,1.9-3.2,2.6-5.7h10.2c-0.9,5.4-3.1,9.7-6.8,13.1c-3.6,3.4-8.3,5-13.9,5
		c-7,0-12.5-2.3-16.5-6.8c-4-4.6-6-10.8-6-18.8C193,276.4,195.3,269.8,199.8,265.1z"/>
	<path class="st3" d="M281,268.7h-26.1v10.5h23.9v8.6h-23.9v12.7h27.3v8.9h-37.3V260H281V268.7z"/>
</g>
<g>
	<path class="st4" d="M134,356h-19v7.6h17.5v6.2h-17.5v9.3h19.9v6.5h-27.3v-36H134V356z"/>
	<path class="st4" d="M146.4,385.6h-8.7l11.6-18.3l-11-17.7h9l6.4,11.7l6.6-11.7h8.7l-11,17.4l11.7,18.6h-9.1l-6.8-12.3L146.4,385.6
		z"/>
	<path class="st4" d="M174,385.6v-36h7.5v13.7h14v-13.7h7.5v36h-7.5v-16.1h-14v16.1H174z"/>
	<path class="st4" d="M217,385.6h-7.5v-36h7.5V385.6z"/>
	<path class="st4" d="M250.9,353.4c1.1,1.5,1.7,3.4,1.7,5.5c0,2.2-0.6,4-1.7,5.3c-0.6,0.7-1.5,1.4-2.7,2.1c1.8,0.7,3.2,1.7,4.2,3.2
		c0.9,1.4,1.4,3.2,1.4,5.3c0,2.1-0.5,4-1.6,5.7c-0.7,1.1-1.5,2.1-2.5,2.8c-1.1,0.9-2.5,1.5-4.1,1.8c-1.6,0.3-3.3,0.5-5.1,0.5h-16.2
		v-36h17.4C245.9,349.7,249.1,351,250.9,353.4z M231.3,355.9v7.9h8.7c1.6,0,2.8-0.3,3.8-0.9c1-0.6,1.5-1.6,1.5-3.2
		c0-1.7-0.6-2.8-1.9-3.3c-1.1-0.4-2.5-0.6-4.3-0.6H231.3z M231.3,369.8v9.6h8.7c1.6,0,2.8-0.2,3.6-0.6c1.6-0.8,2.4-2.3,2.4-4.5
		c0-1.9-0.8-3.2-2.3-3.9c-0.9-0.4-2.1-0.6-3.6-0.6H231.3z"/>
	<path class="st4" d="M267,385.6h-7.5v-36h7.5V385.6z"/>
	<path class="st4" d="M300.2,349.6v6.4h-10.8v29.6h-7.6V356H271v-6.4H300.2z"/>
	<path class="st4" d="M311.4,385.6H304v-36h7.5V385.6z"/>
	<path class="st4" d="M346.2,382.4c-2.7,2.8-6.6,4.2-11.8,4.2c-5.1,0-9.1-1.4-11.8-4.2c-3.6-3.4-5.5-8.4-5.5-14.8
		c0-6.6,1.8-11.5,5.5-14.8c2.7-2.8,6.6-4.2,11.8-4.2c5.1,0,9.1,1.4,11.8,4.2c3.6,3.3,5.4,8.3,5.4,14.8
		C351.6,374,349.8,379,346.2,382.4z M341.5,376.9c1.8-2.2,2.6-5.3,2.6-9.4c0-4-0.9-7.2-2.6-9.4c-1.7-2.2-4.1-3.3-7.1-3.3
		s-5.4,1.1-7.1,3.3c-1.8,2.2-2.7,5.3-2.7,9.4s0.9,7.2,2.7,9.4c1.8,2.2,4.2,3.3,7.1,3.3S339.7,379.1,341.5,376.9z"/>
	<path class="st4" d="M357.2,349.6h7.9l14.3,25.1v-25.1h7v36h-7.5l-14.7-25.5v25.5h-7V349.6z"/>
</g>
<g>
	<path class="st5" d="M138.7,356.1h-19v7.6h17.5v6.2h-17.5v9.3h19.9v6.5h-27.3v-36h26.4V356.1z"/>
	<path class="st5" d="M151.2,385.7h-8.7l11.6-18.3l-11-17.7h9l6.4,11.7l6.6-11.7h8.7l-11,17.4l11.7,18.6h-9.1l-6.8-12.3L151.2,385.7
		z"/>
	<path class="st5" d="M178.7,385.7v-36h7.5v13.7h14v-13.7h7.5v36h-7.5v-16.1h-14v16.1H178.7z"/>
	<path class="st5" d="M221.7,385.7h-7.5v-36h7.5V385.7z"/>
	<path class="st5" d="M255.6,353.5c1.1,1.5,1.7,3.4,1.7,5.5c0,2.2-0.6,4-1.7,5.3c-0.6,0.7-1.5,1.4-2.7,2.1c1.8,0.7,3.2,1.7,4.2,3.2
		c0.9,1.4,1.4,3.2,1.4,5.3c0,2.1-0.5,4-1.6,5.7c-0.7,1.1-1.5,2.1-2.5,2.8c-1.1,0.9-2.5,1.5-4.1,1.8c-1.6,0.3-3.3,0.5-5.1,0.5h-16.2
		v-36h17.4C250.7,349.8,253.8,351.1,255.6,353.5z M236.1,356v7.9h8.7c1.6,0,2.8-0.3,3.8-0.9c1-0.6,1.5-1.6,1.5-3.2
		c0-1.7-0.6-2.8-1.9-3.3c-1.1-0.4-2.5-0.6-4.3-0.6H236.1z M236.1,369.9v9.6h8.7c1.6,0,2.8-0.2,3.6-0.6c1.6-0.8,2.4-2.3,2.4-4.5
		c0-1.9-0.8-3.2-2.3-3.9c-0.9-0.4-2.1-0.6-3.6-0.6H236.1z"/>
	<path class="st5" d="M271.7,385.7h-7.5v-36h7.5V385.7z"/>
	<path class="st5" d="M304.9,349.7v6.4h-10.8v29.6h-7.6v-29.6h-10.8v-6.4H304.9z"/>
	<path class="st5" d="M316.2,385.7h-7.5v-36h7.5V385.7z"/>
	<path class="st5" d="M350.9,382.5c-2.7,2.8-6.6,4.2-11.8,4.2c-5.1,0-9.1-1.4-11.8-4.2c-3.6-3.4-5.5-8.4-5.5-14.8
		c0-6.6,1.8-11.5,5.5-14.8c2.7-2.8,6.6-4.2,11.8-4.2c5.1,0,9.1,1.4,11.8,4.2c3.6,3.3,5.4,8.3,5.4,14.8
		C356.4,374.1,354.6,379.1,350.9,382.5z M346.2,377c1.8-2.2,2.6-5.3,2.6-9.4c0-4-0.9-7.2-2.6-9.4c-1.7-2.2-4.1-3.3-7.1-3.3
		s-5.4,1.1-7.1,3.3c-1.8,2.2-2.7,5.3-2.7,9.4s0.9,7.2,2.7,9.4c1.8,2.2,4.2,3.3,7.1,3.3S344.5,379.2,346.2,377z"/>
	<path class="st5" d="M362,349.7h7.9l14.3,25.1v-25.1h7v36h-7.5L369,360.2v25.5h-7V349.7z"/>
</g>
<g>
	<path d="M136.6,356h-19v7.6H135v6.2h-17.5v9.3h19.9v6.5h-27.3v-36h26.4V356z"/>
	<path d="M149.1,385.6h-8.7l11.6-18.3l-11-17.7h9l6.4,11.7l6.6-11.7h8.7l-11,17.4l11.7,18.6h-9.1l-6.8-12.3L149.1,385.6z"/>
	<path d="M176.6,385.6v-36h7.5v13.7h14v-13.7h7.5v36h-7.5v-16.1h-14v16.1H176.6z"/>
	<path d="M219.7,385.6h-7.5v-36h7.5V385.6z"/>
	<path d="M253.5,353.5c1.1,1.5,1.7,3.4,1.7,5.5c0,2.2-0.6,4-1.7,5.3c-0.6,0.7-1.5,1.4-2.7,2.1c1.8,0.7,3.2,1.7,4.2,3.2
		c0.9,1.4,1.4,3.2,1.4,5.3c0,2.1-0.5,4-1.6,5.7c-0.7,1.1-1.5,2.1-2.5,2.8c-1.1,0.9-2.5,1.5-4.1,1.8c-1.6,0.3-3.3,0.5-5.1,0.5h-16.2
		v-36h17.4C248.6,349.7,251.7,351,253.5,353.5z M234,355.9v7.9h8.7c1.6,0,2.8-0.3,3.8-0.9c1-0.6,1.5-1.6,1.5-3.2
		c0-1.7-0.6-2.8-1.9-3.3c-1.1-0.4-2.5-0.6-4.3-0.6H234z M234,369.8v9.6h8.7c1.6,0,2.8-0.2,3.6-0.6c1.6-0.8,2.4-2.3,2.4-4.5
		c0-1.9-0.8-3.2-2.3-3.9c-0.9-0.4-2.1-0.6-3.6-0.6H234z"/>
	<path d="M269.7,385.6h-7.5v-36h7.5V385.6z"/>
	<path d="M302.8,349.7v6.4h-10.8v29.6h-7.6V356h-10.8v-6.4H302.8z"/>
	<path d="M314.1,385.6h-7.5v-36h7.5V385.6z"/>
	<path d="M348.8,382.4c-2.7,2.8-6.6,4.2-11.8,4.2c-5.1,0-9.1-1.4-11.8-4.2c-3.6-3.4-5.5-8.4-5.5-14.8c0-6.6,1.8-11.5,5.5-14.8
		c2.7-2.8,6.6-4.2,11.8-4.2c5.1,0,9.1,1.4,11.8,4.2c3.6,3.3,5.4,8.3,5.4,14.8C354.3,374.1,352.5,379,348.8,382.4z M344.1,377
		c1.8-2.2,2.6-5.3,2.6-9.4c0-4-0.9-7.2-2.6-9.4c-1.7-2.2-4.1-3.3-7.1-3.3s-5.4,1.1-7.1,3.3c-1.8,2.2-2.7,5.3-2.7,9.4
		s0.9,7.2,2.7,9.4c1.8,2.2,4.2,3.3,7.1,3.3S342.4,379.2,344.1,377z"/>
	<path d="M359.9,349.7h7.9l14.3,25.1v-25.1h7v36h-7.5l-14.7-25.5v25.5h-7V349.7z"/>
</g>
</svg>
