<?xml version="1.0" encoding="utf-8"?>
<!-- Generator: Adobe Illustrator 19.1.0, SVG Export Plug-In . SVG Version: 6.00 Build 0)  -->
<svg version="1.1" id="Calque_1" xmlns="http://www.w3.org/2000/svg" xmlns:xlink="http://www.w3.org/1999/xlink" x="0px" y="0px"
	 viewBox="0 0 586 217.4" style="enable-background:new 0 0 586 217.4;" xml:space="preserve">
<style type="text/css">
	.st0{fill:#FFFFFF;}
	.st1{fill:none;stroke:#06F4C6;stroke-width:1.5;stroke-miterlimit:10;}
	.st2{fill:none;stroke:#FC41D5;stroke-width:1.5;stroke-miterlimit:10;}
	.st3{fill:none;stroke:#280CF4;stroke-width:1.5;stroke-miterlimit:10;}
	.st4{fill:none;stroke:#231F20;stroke-width:5;stroke-miterlimit:10;}
	.st5{fill:#A400E8;}
	.st6{fill:#06FFD9;}
</style>
<polygon class="st0" points="197.6,133.7 205.9,118.9 209.5,117 215.7,57.4 218.6,51.6 228.2,54.7 236.7,70.9 256.7,78.5 
	278.8,69.8 284.2,61.8 284.4,46.5 291.7,38.6 294.5,32 300,33.7 319.2,48.5 388.1,91 396.9,96.2 441.2,106.5 460,116.3 461,127.3 
	457.6,133.9 416.8,150.3 251.3,150.9 216.2,147.4 "/>
<polygon class="st1" points="218.6,52 228.2,55.1 236.7,71.3 209.5,116.5 214.3,70.6 215.7,57.8 "/>
<polygon class="st2" points="218.6,48.7 228.2,51.9 236.7,68.1 209.5,113.2 214.3,67.4 215.7,54.6 "/>
<polygon class="st3" points="218.6,53.5 228.2,56.6 236.7,72.8 209.5,118 214.3,72.1 215.7,59.3 "/>
<polyline class="st1" points="232.5,63.6 209.5,116.5 227.6,55.3 "/>
<line class="st1" x1="218.6" y1="52" x2="209.5" y2="116.5"/>
<polyline class="st2" points="232.5,60.4 209.5,113.2 227.6,52 "/>
<line class="st2" x1="218.6" y1="48.7" x2="209.5" y2="113.2"/>
<polyline class="st3" points="232.5,65.1 209.5,118 227.6,56.8 "/>
<line class="st3" x1="218.6" y1="53.5" x2="209.5" y2="118"/>
<polygon class="st1" points="298.2,122 214.3,70.6 209.5,116.5 "/>
<polygon class="st2" points="298.2,118.7 214.3,67.4 209.5,113.2 "/>
<polygon class="st3" points="298.2,123.5 214.3,72.1 209.5,118 "/>
<polyline class="st1" points="213.3,82.2 298.2,122 211,101.6 "/>
<polyline class="st2" points="213.3,79 298.2,118.7 211,98.4 "/>
<polyline class="st3" points="213.3,83.7 298.2,123.5 211,103.1 "/>
<polygon class="st1" points="209.9,117.2 205.9,119.4 197.6,134.1 216.2,147.8 251.3,151.4 416.8,150.8 456.2,134.7 432.2,137.9 
	370.8,134.3 300.8,122.4 "/>
<polygon class="st2" points="209.9,114 205.9,116.1 197.6,130.8 216.2,144.6 251.3,148.1 416.8,147.5 456.2,131.4 432.2,134.7 
	370.8,131 300.8,119.1 "/>
<polygon class="st3" points="212.3,120.9 208.3,123 200,137.7 218.6,151.5 253.7,155 419.2,154.4 458.6,138.4 434.6,141.6 
	373.2,137.9 303.2,126 "/>
<polygon class="st1" points="230.9,81.3 236.7,71.3 256.7,79 278.8,70.2 298.2,70.6 312.2,66.9 279.5,88.3 "/>
<polygon class="st2" points="230.9,78.1 236.7,68.1 256.7,75.7 278.8,67 298.2,67.4 312.2,63.6 279.5,85.1 "/>
<polygon class="st3" points="230.9,82.8 236.7,72.8 256.7,80.5 278.8,71.7 298.2,72.1 312.2,68.4 279.5,89.8 "/>
<polyline class="st1" points="230.9,81.3 256.7,79 279.5,88.3 278.8,70.2 312.2,66.9 "/>
<line class="st1" x1="298.2" y1="70.6" x2="279.5" y2="88.3"/>
<polyline class="st2" points="230.9,78.1 256.7,75.7 279.5,85.1 278.8,67 312.2,63.6 "/>
<line class="st2" x1="298.2" y1="67.4" x2="279.5" y2="85.1"/>
<polyline class="st3" points="230.9,82.8 256.7,80.5 279.5,89.8 278.8,71.7 312.2,68.4 "/>
<line class="st3" x1="298.2" y1="72.1" x2="279.5" y2="89.8"/>
<polygon class="st1" points="250.3,84.6 275,100.9 316.9,116 331.8,114.9 338.7,106.2 334.2,94 323.5,85.5 323.5,95.4 315.9,100.6 
	"/>
<polygon class="st2" points="250.3,81.4 275,97.7 316.9,112.7 331.8,111.7 338.7,103 334.2,90.8 323.5,82.3 323.5,92.1 315.9,97.3 
	"/>
<polygon class="st3" points="250.3,86.1 275,102.4 316.9,117.4 331.8,116.4 338.7,107.7 334.2,95.5 323.5,87 323.5,96.9 
	315.9,102.1 "/>
<line class="st1" x1="275" y1="101.2" x2="338.7" y2="106.2"/>
<polyline class="st1" points="334.2,94 316,100.3 296.8,102.9 "/>
<polyline class="st1" points="323.5,95.4 316.9,116 251,85.2 "/>
<line class="st1" x1="323.5" y1="85.5" x2="331.8" y2="114.9"/>
<line class="st1" x1="316.9" y1="116" x2="282.7" y2="92.5"/>
<line class="st2" x1="275" y1="97.9" x2="338.7" y2="103"/>
<polyline class="st2" points="334.2,90.8 316,97 296.8,99.7 "/>
<polyline class="st2" points="323.5,92.1 316.9,112.7 251,81.9 "/>
<line class="st2" x1="323.5" y1="82.3" x2="331.8" y2="111.7"/>
<line class="st2" x1="316.9" y1="112.7" x2="282.7" y2="89.2"/>
<line class="st3" x1="275" y1="102.7" x2="338.7" y2="107.7"/>
<polyline class="st3" points="334.2,95.5 316,101.8 296.8,104.4 "/>
<polyline class="st3" points="323.5,96.9 316.9,117.4 251,86.7 "/>
<line class="st3" x1="323.5" y1="87" x2="331.8" y2="116.4"/>
<line class="st3" x1="316.9" y1="117.4" x2="282.7" y2="94"/>
<polygon class="st1" points="278.8,70.2 290.1,60.6 303.4,52.4 310.9,54.4 318.6,59.1 313.5,66 "/>
<polygon class="st2" points="278.8,67 290.1,57.4 303.4,49.2 310.9,51.2 318.6,55.9 313.5,62.7 "/>
<polygon class="st3" points="278.8,71.7 290.1,62.1 303.4,53.9 310.9,55.9 318.6,60.6 313.5,67.5 "/>
<line class="st1" x1="278.8" y1="70.2" x2="318.7" y2="59.1"/>
<polyline class="st1" points="290.1,60.6 313.5,66 303.4,52.4 "/>
<line class="st2" x1="278.8" y1="67" x2="318.7" y2="55.9"/>
<polyline class="st2" points="290.1,57.4 313.5,62.7 303.4,49.2 "/>
<line class="st3" x1="278.8" y1="71.7" x2="318.7" y2="60.6"/>
<polyline class="st3" points="290.1,62.1 313.5,67.5 303.4,53.9 "/>
<polygon class="st1" points="395.6,96.3 380.5,97.9 363.7,117.2 370.5,125.1 378.9,125.2 395.2,114.6 412.5,121.5 420.7,136.8 
	432.2,137.9 456.2,133.7 461,127.7 460,116.7 441.2,107 "/>
<polygon class="st2" points="395.6,93 380.5,94.6 363.7,113.9 370.5,121.9 378.9,122 395.2,111.4 412.5,118.3 420.7,133.6 
	432.2,134.7 456.2,130.5 461,124.5 460,113.5 441.2,103.7 "/>
<polygon class="st3" points="395.6,97.8 380.5,99.4 363.7,118.7 370.5,126.6 378.9,126.7 395.2,116.1 412.5,123 420.7,138.3 
	432.2,139.4 456.2,135.2 461,129.2 460,118.2 441.2,108.5 "/>
<path class="st1" d="M363.7,117.2l31.4-2.5c0.1,0,0.1-0.1,0.1-0.1l0.4-17.8c0-0.1,0.2-0.2,0.3-0.1l16.6,24.7c0,0.1,0.1,0.1,0.2,0
	l28.5-14.5c0.1,0,0.2,0,0.2,0.1l14.7,26.3c0.1,0.1-0.1,0.3-0.2,0.2l-74.1-35.1c-0.2-0.1-0.1-0.3,0.1-0.3l77.8,18.4
	c0.1,0,0.1,0.2,0,0.3l-38.9,19.9"/>
<path class="st2" d="M363.7,113.9l31.4-2.5c0.1,0,0.1-0.1,0.1-0.1l0.4-17.8c0-0.1,0.2-0.2,0.3-0.1l16.6,24.7c0,0.1,0.1,0.1,0.2,0
	l28.5-14.5c0.1,0,0.2,0,0.2,0.1l14.7,26.3c0.1,0.1-0.1,0.3-0.2,0.2l-74.1-35.1c-0.2-0.1-0.1-0.3,0.1-0.3l77.8,18.4
	c0.1,0,0.1,0.2,0,0.3l-38.9,19.9"/>
<path class="st3" d="M363.7,118.7l31.4-2.5c0.1,0,0.1-0.1,0.1-0.1l0.4-17.8c0-0.1,0.2-0.2,0.3-0.1l16.6,24.7c0,0.1,0.1,0.1,0.2,0
	l28.5-14.5c0.1,0,0.2,0,0.2,0.1l14.7,26.3c0.1,0.1-0.1,0.3-0.2,0.2L381.7,100c-0.2-0.1-0.1-0.3,0.1-0.3l77.8,18.4
	c0.1,0,0.1,0.2,0,0.3l-38.9,19.9"/>
<polygon class="st1" points="279.6,69.1 284.2,62.2 284.4,47 291.7,39.1 294.5,32.4 300,34.2 319.2,48.9 310.9,54.4 303.4,52.4 
	290.1,60.6 "/>
<polygon class="st2" points="279.6,65.8 284.2,58.9 284.4,43.7 291.7,35.8 294.5,29.1 300,30.9 319.2,45.7 310.9,51.2 303.4,49.2 
	290.1,57.4 "/>
<polygon class="st3" points="279.6,70.6 284.2,63.7 284.4,48.4 291.7,40.6 294.5,33.9 300,35.7 319.2,50.4 310.9,55.9 303.4,53.9 
	290.1,62.1 "/>
<path class="st1" d="M284.2,62.2l15.6-27.7c0.1-0.1,0.2-0.1,0.2,0l3.4,17.9l-18.7-5.4c0,0,0-0.1,0-0.1l33.7,1.9c0.1,0,0.2-0.2,0-0.2
	l-26.8-9.6L284.2,62.2z"/>
<path class="st2" d="M284.2,58.9l15.6-27.7c0.1-0.1,0.2-0.1,0.2,0l3.4,17.9l-18.7-5.4c0,0,0-0.1,0-0.1l33.7,1.9c0.1,0,0.2-0.2,0-0.2
	l-26.8-9.6L284.2,58.9z"/>
<path class="st3" d="M284.2,63.7L299.8,36c0.1-0.1,0.2-0.1,0.2,0l3.4,17.9l-18.7-5.4c0,0,0-0.1,0-0.1l33.7,1.9c0.1,0,0.2-0.2,0-0.2
	l-26.8-9.6L284.2,63.7z"/>
<line class="st1" x1="303.4" y1="52.4" x2="284.2" y2="62.2"/>
<line class="st2" x1="303.4" y1="49.2" x2="284.2" y2="58.9"/>
<line class="st3" x1="303.4" y1="53.9" x2="284.2" y2="63.7"/>
<polygon class="st1" points="318.6,59.1 356.2,77.8 388.1,91.4 350.8,69.5 319.2,48.9 311.2,54.2 "/>
<polygon class="st2" points="318.6,55.9 356.2,74.5 388.1,88.2 350.8,66.2 319.2,45.7 311.2,51 "/>
<polygon class="st3" points="318.6,60.6 356.2,79.3 388.1,92.9 350.8,70.9 319.2,50.4 311.2,55.7 "/>
<polyline class="st1" points="319.2,48.9 320.3,60 330.6,56.3 333.5,66.5 342.2,63.8 344.5,72 352.1,70.2 356.2,77.8 363.3,76.8 
	367,82 373.5,82.8 376.3,86.4 383.3,88.6 "/>
<polyline class="st2" points="319.2,45.7 320.3,56.7 330.6,53.1 333.5,63.3 342.2,60.6 344.5,68.8 352.1,66.9 356.2,74.5 
	363.3,73.6 367,78.8 373.5,79.6 376.3,83.2 383.3,85.3 "/>
<polyline class="st3" points="319.2,50.4 320.3,61.5 330.6,57.8 333.5,68 342.2,65.3 344.5,73.5 352.1,71.7 356.2,79.3 363.3,78.3 
	367,83.5 373.5,84.3 376.3,87.9 383.3,90.1 "/>
<polyline id="Triangle_1_" class="st4" points="197.3,144.6 14.6,215 583.5,215 583.8,3.9 378,77.8 "/>
<g id="Titre_5_">
	<g>
		<path class="st5" d="M218.3,215.6h-7.1v-34.2h7.1V215.6z"/>
		<path class="st5" d="M225,181.3h7.2v28.1h17.1v6.2H225V181.3z"/>
		<path class="st5" d="M254,181.3h7.2v28.1h17.1v6.2H254V181.3z"/>
		<path class="st5" d="M283.1,181.3h7.3v21c0,2.4,0.3,4.1,0.8,5.2c0.9,1.9,2.7,2.9,5.6,2.9c2.9,0,4.8-1,5.6-2.9
			c0.6-1.1,0.8-2.8,0.8-5.2v-21h7.3v21c0,3.6-0.6,6.5-1.7,8.5c-2.1,3.7-6.1,5.6-12,5.6c-5.9,0-9.9-1.9-12.1-5.6
			c-1.1-2-1.7-4.9-1.7-8.5V181.3z"/>
		<path class="st5" d="M322.6,205c0.2,1.6,0.7,2.7,1.3,3.5c1.2,1.4,3.2,2.1,6.1,2.1c1.7,0,3.1-0.2,4.2-0.6c2-0.7,3.1-2,3.1-4
			c0-1.1-0.5-2-1.5-2.6c-1-0.6-2.6-1.1-4.8-1.6l-3.7-0.8c-3.6-0.8-6.1-1.7-7.5-2.6c-2.3-1.6-3.5-4-3.5-7.4c0-3.1,1.1-5.6,3.4-7.6
			c2.3-2,5.6-3,9.9-3c3.7,0,6.8,1,9.3,2.9c2.6,1.9,3.9,4.7,4.1,8.3h-6.9c-0.1-2.1-1-3.5-2.8-4.4c-1.1-0.6-2.6-0.9-4.3-0.9
			c-1.9,0-3.4,0.4-4.5,1.1c-1.1,0.7-1.7,1.8-1.7,3.1c0,1.2,0.6,2.1,1.7,2.7c0.7,0.4,2.2,0.9,4.5,1.4l6,1.4c2.6,0.6,4.6,1.4,5.9,2.5
			c2,1.6,3.1,3.9,3.1,7c0,3.1-1.2,5.7-3.6,7.8c-2.4,2.1-5.8,3.1-10.2,3.1c-4.5,0-8.1-1-10.6-3.1c-2.6-2-3.9-4.8-3.9-8.4H322.6z"/>
		<path class="st5" d="M374.1,181.3v6.1h-10.2v28.2h-7.2v-28.2h-10.3v-6.1H374.1z"/>
		<path class="st5" d="M400.2,182.2c1.3,0.5,2.3,1.3,3.2,2.4c0.7,0.9,1.3,1.8,1.7,2.9c0.4,1.1,0.6,2.3,0.6,3.6
			c0,1.6-0.4,3.2-1.2,4.8c-0.8,1.6-2.2,2.7-4.1,3.3c1.6,0.6,2.7,1.5,3.4,2.7c0.7,1.2,1,3,1,5.4v2.3c0,1.6,0.1,2.6,0.2,3.2
			c0.2,0.9,0.6,1.5,1.3,2v0.9h-7.9c-0.2-0.8-0.4-1.4-0.5-1.8c-0.2-1-0.3-1.9-0.3-3l0-3.2c0-2.2-0.4-3.6-1.1-4.4
			c-0.7-0.7-2.1-1.1-4.1-1.1h-7v13.4h-7v-34.2h16.4C397.1,181.4,398.9,181.7,400.2,182.2z M385.4,187.3v9.2h7.7
			c1.5,0,2.7-0.2,3.4-0.6c1.4-0.7,2-1.9,2-3.9c0-2.1-0.7-3.5-2-4.2c-0.7-0.4-1.8-0.6-3.3-0.6H385.4z"/>
		<path class="st5" d="M422.4,181.3h8.1l12.1,34.2h-7.8l-2.3-7H420l-2.3,7h-7.5L422.4,181.3z M421.9,202.6h8.8l-4.3-13.5
			L421.9,202.6z"/>
		<path class="st5" d="M468.3,181.3v6.1h-10.2v28.2h-7.2v-28.2h-10.3v-6.1H468.3z"/>
		<path class="st5" d="M479,215.6h-7.1v-34.2h7.1V215.6z"/>
		<path class="st5" d="M512.1,212.5c-2.6,2.7-6.3,4-11.2,4s-8.6-1.3-11.2-4c-3.5-3.3-5.2-8-5.2-14.1c0-6.3,1.7-11,5.2-14.1
			c2.6-2.7,6.3-4,11.2-4s8.6,1.3,11.2,4c3.5,3.1,5.2,7.9,5.2,14.1C517.3,204.5,515.5,209.2,512.1,212.5z M507.6,207.3
			c1.7-2.1,2.5-5.1,2.5-8.9c0-3.8-0.8-6.8-2.5-8.9c-1.7-2.1-3.9-3.1-6.7-3.1s-5.1,1-6.8,3.1c-1.7,2.1-2.5,5.1-2.5,8.9
			c0,3.9,0.8,6.8,2.5,8.9c1.7,2.1,3.9,3.1,6.8,3.1S506,209.4,507.6,207.3z"/>
		<path class="st5" d="M522.6,181.3h7.5l13.6,23.9v-23.9h6.7v34.2h-7.2l-13.9-24.3v24.3h-6.7V181.3z"/>
		<path class="st5" d="M562.2,205c0.2,1.6,0.7,2.7,1.3,3.5c1.2,1.4,3.2,2.1,6.1,2.1c1.7,0,3.1-0.2,4.2-0.6c2-0.7,3.1-2,3.1-4
			c0-1.1-0.5-2-1.5-2.6c-1-0.6-2.6-1.1-4.8-1.6l-3.7-0.8c-3.6-0.8-6.1-1.7-7.5-2.6c-2.3-1.6-3.5-4-3.5-7.4c0-3.1,1.1-5.6,3.4-7.6
			c2.3-2,5.6-3,9.9-3c3.7,0,6.8,1,9.3,2.9c2.6,1.9,3.9,4.7,4.1,8.3h-6.9c-0.1-2.1-1-3.5-2.8-4.4c-1.1-0.6-2.6-0.9-4.3-0.9
			c-1.9,0-3.4,0.4-4.5,1.1c-1.1,0.7-1.7,1.8-1.7,3.1c0,1.2,0.6,2.1,1.7,2.7c0.7,0.4,2.2,0.9,4.5,1.4l6,1.4c2.6,0.6,4.6,1.4,5.9,2.5
			c2,1.6,3.1,3.9,3.1,7c0,3.1-1.2,5.7-3.6,7.8c-2.4,2.1-5.8,3.1-10.2,3.1c-4.5,0-8.1-1-10.6-3.1c-2.6-2-3.9-4.8-3.9-8.4H562.2z"/>
	</g>
	<g>
		<path class="st6" d="M215.5,215.6h-7.1v-34.2h7.1V215.6z"/>
		<path class="st6" d="M222.2,181.4h7.2v28.1h17.1v6.2h-24.3V181.4z"/>
		<path class="st6" d="M251.3,181.4h7.2v28.1h17.1v6.2h-24.3V181.4z"/>
		<path class="st6" d="M280.3,181.4h7.3v21c0,2.4,0.3,4.1,0.8,5.2c0.9,1.9,2.7,2.9,5.6,2.9c2.9,0,4.8-1,5.6-2.9
			c0.6-1.1,0.8-2.8,0.8-5.2v-21h7.3v21c0,3.6-0.6,6.5-1.7,8.5c-2.1,3.7-6.1,5.6-12,5.6s-9.9-1.9-12.1-5.6c-1.1-2-1.7-4.9-1.7-8.5
			V181.4z"/>
		<path class="st6" d="M319.8,205c0.2,1.6,0.7,2.7,1.3,3.5c1.2,1.4,3.2,2.1,6.1,2.1c1.7,0,3.1-0.2,4.2-0.6c2-0.7,3.1-2,3.1-4
			c0-1.1-0.5-2-1.5-2.6c-1-0.6-2.6-1.1-4.8-1.6l-3.7-0.8c-3.6-0.8-6.1-1.7-7.5-2.6c-2.3-1.6-3.5-4-3.5-7.4c0-3.1,1.1-5.6,3.4-7.6
			c2.3-2,5.6-3,9.9-3c3.7,0,6.8,1,9.3,2.9c2.6,1.9,3.9,4.7,4.1,8.3h-6.9c-0.1-2.1-1-3.5-2.8-4.4c-1.1-0.6-2.6-0.9-4.3-0.9
			c-1.9,0-3.4,0.4-4.5,1.1c-1.1,0.7-1.7,1.8-1.7,3.1c0,1.2,0.6,2.1,1.7,2.7c0.7,0.4,2.2,0.9,4.5,1.4l6,1.4c2.6,0.6,4.6,1.4,5.9,2.5
			c2,1.6,3.1,3.9,3.1,7c0,3.1-1.2,5.7-3.6,7.8c-2.4,2.1-5.8,3.1-10.2,3.1c-4.5,0-8.1-1-10.6-3.1c-2.6-2-3.9-4.8-3.9-8.4H319.8z"/>
		<path class="st6" d="M371.3,181.4v6.1H361v28.2h-7.2v-28.2h-10.3v-6.1H371.3z"/>
		<path class="st6" d="M397.4,182.2c1.3,0.5,2.3,1.3,3.2,2.4c0.7,0.9,1.3,1.8,1.7,2.9c0.4,1.1,0.6,2.3,0.6,3.6
			c0,1.6-0.4,3.2-1.2,4.8c-0.8,1.6-2.2,2.7-4.1,3.3c1.6,0.6,2.7,1.5,3.4,2.7c0.7,1.2,1,3,1,5.4v2.3c0,1.6,0.1,2.6,0.2,3.2
			c0.2,0.9,0.6,1.5,1.3,2v0.9h-7.9c-0.2-0.8-0.4-1.4-0.5-1.8c-0.2-1-0.3-1.9-0.3-3l0-3.2c0-2.2-0.4-3.6-1.1-4.4
			c-0.7-0.7-2.1-1.1-4.1-1.1h-7v13.4h-7v-34.2H392C394.4,181.4,396.2,181.7,397.4,182.2z M382.6,187.3v9.2h7.7
			c1.5,0,2.7-0.2,3.4-0.6c1.4-0.7,2-1.9,2-3.9c0-2.1-0.7-3.5-2-4.2c-0.7-0.4-1.8-0.6-3.3-0.6H382.6z"/>
		<path class="st6" d="M419.6,181.4h8.1l12.1,34.2h-7.8l-2.3-7h-12.6l-2.3,7h-7.5L419.6,181.4z M419.1,202.7h8.8l-4.3-13.5
			L419.1,202.7z"/>
		<path class="st6" d="M465.6,181.4v6.1h-10.2v28.2h-7.2v-28.2h-10.3v-6.1H465.6z"/>
		<path class="st6" d="M476.3,215.6h-7.1v-34.2h7.1V215.6z"/>
		<path class="st6" d="M509.3,212.6c-2.6,2.7-6.3,4-11.2,4c-4.9,0-8.6-1.3-11.2-4c-3.5-3.3-5.2-8-5.2-14.1c0-6.3,1.7-11,5.2-14.1
			c2.6-2.7,6.3-4,11.2-4c4.9,0,8.6,1.3,11.2,4c3.5,3.1,5.2,7.9,5.2,14.1C514.5,204.6,512.8,209.3,509.3,212.6z M504.8,207.4
			c1.7-2.1,2.5-5.1,2.5-8.9c0-3.8-0.8-6.8-2.5-8.9c-1.7-2.1-3.9-3.1-6.7-3.1c-2.8,0-5.1,1-6.8,3.1c-1.7,2.1-2.5,5.1-2.5,8.9
			c0,3.9,0.8,6.8,2.5,8.9c1.7,2.1,3.9,3.1,6.8,3.1C500.9,210.5,503.2,209.4,504.8,207.4z"/>
		<path class="st6" d="M519.8,181.4h7.5l13.6,23.9v-23.9h6.7v34.2h-7.2l-13.9-24.3v24.3h-6.7V181.4z"/>
		<path class="st6" d="M559.5,205c0.2,1.6,0.7,2.7,1.3,3.5c1.2,1.4,3.2,2.1,6.1,2.1c1.7,0,3.1-0.2,4.2-0.6c2-0.7,3.1-2,3.1-4
			c0-1.1-0.5-2-1.5-2.6c-1-0.6-2.6-1.1-4.8-1.6l-3.7-0.8c-3.6-0.8-6.1-1.7-7.5-2.6c-2.3-1.6-3.5-4-3.5-7.4c0-3.1,1.1-5.6,3.4-7.6
			c2.3-2,5.6-3,9.9-3c3.7,0,6.8,1,9.3,2.9c2.6,1.9,3.9,4.7,4.1,8.3h-6.9c-0.1-2.1-1-3.5-2.8-4.4c-1.1-0.6-2.6-0.9-4.3-0.9
			c-1.9,0-3.4,0.4-4.5,1.1c-1.1,0.7-1.7,1.8-1.7,3.1c0,1.2,0.6,2.1,1.7,2.7c0.7,0.4,2.2,0.9,4.5,1.4l6,1.4c2.6,0.6,4.6,1.4,5.9,2.5
			c2,1.6,3.1,3.9,3.1,7c0,3.1-1.2,5.7-3.6,7.8c-2.4,2.1-5.8,3.1-10.2,3.1c-4.5,0-8.1-1-10.6-3.1c-2.6-2-3.9-4.8-3.9-8.4H559.5z"/>
	</g>
	<g>
		<path d="M217.2,216.5h-7.1v-34.2h7.1V216.5z"/>
		<path d="M223.9,182.3h7.2v28.1h17.1v6.2h-24.3V182.3z"/>
		<path d="M252.9,182.3h7.2v28.1h17.1v6.2h-24.3V182.3z"/>
		<path d="M282,182.3h7.3v21c0,2.4,0.3,4.1,0.8,5.2c0.9,1.9,2.7,2.9,5.6,2.9c2.9,0,4.8-1,5.6-2.9c0.6-1.1,0.8-2.8,0.8-5.2v-21h7.3
			v21c0,3.6-0.6,6.5-1.7,8.5c-2.1,3.7-6.1,5.6-12,5.6s-9.9-1.9-12.1-5.6c-1.1-2-1.7-4.9-1.7-8.5V182.3z"/>
		<path d="M321.5,205.9c0.2,1.6,0.7,2.7,1.3,3.5c1.2,1.4,3.2,2.1,6.1,2.1c1.7,0,3.1-0.2,4.2-0.6c2-0.7,3.1-2,3.1-4
			c0-1.1-0.5-2-1.5-2.6c-1-0.6-2.6-1.1-4.8-1.6l-3.7-0.8c-3.6-0.8-6.1-1.7-7.5-2.6c-2.3-1.6-3.5-4-3.5-7.4c0-3.1,1.1-5.6,3.4-7.6
			c2.3-2,5.6-3,9.9-3c3.7,0,6.8,1,9.3,2.9c2.6,1.9,3.9,4.7,4.1,8.3h-6.9c-0.1-2.1-1-3.5-2.8-4.4c-1.1-0.6-2.6-0.9-4.3-0.9
			c-1.9,0-3.4,0.4-4.5,1.1c-1.1,0.7-1.7,1.8-1.7,3.1c0,1.2,0.6,2.1,1.7,2.7c0.7,0.4,2.2,0.9,4.5,1.4l6,1.4c2.6,0.6,4.6,1.4,5.9,2.5
			c2,1.6,3.1,3.9,3.1,7c0,3.1-1.2,5.7-3.6,7.8c-2.4,2.1-5.8,3.1-10.2,3.1c-4.5,0-8.1-1-10.6-3.1c-2.6-2-3.9-4.8-3.9-8.4H321.5z"/>
		<path d="M373,182.3v6.1h-10.2v28.2h-7.2v-28.2h-10.3v-6.1H373z"/>
		<path d="M399.1,183.2c1.3,0.5,2.3,1.3,3.2,2.4c0.7,0.9,1.3,1.8,1.7,2.9c0.4,1.1,0.6,2.3,0.6,3.6c0,1.6-0.4,3.2-1.2,4.8
			c-0.8,1.6-2.2,2.7-4.1,3.3c1.6,0.6,2.7,1.5,3.4,2.7c0.7,1.2,1,3,1,5.4v2.3c0,1.6,0.1,2.6,0.2,3.2c0.2,0.9,0.6,1.5,1.3,2v0.9h-7.9
			c-0.2-0.8-0.4-1.4-0.5-1.8c-0.2-1-0.3-1.9-0.3-3l0-3.2c0-2.2-0.4-3.6-1.1-4.4c-0.7-0.7-2.1-1.1-4.1-1.1h-7v13.4h-7v-34.2h16.4
			C396,182.3,397.8,182.6,399.1,183.2z M384.3,188.2v9.2h7.7c1.5,0,2.7-0.2,3.4-0.6c1.4-0.7,2-1.9,2-3.9c0-2.1-0.7-3.5-2-4.2
			c-0.7-0.4-1.8-0.6-3.3-0.6H384.3z"/>
		<path d="M421.3,182.3h8.1l12.1,34.2h-7.8l-2.3-7h-12.6l-2.3,7h-7.5L421.3,182.3z M420.8,203.6h8.8l-4.3-13.5L420.8,203.6z"/>
		<path d="M467.2,182.3v6.1H457v28.2h-7.2v-28.2h-10.3v-6.1H467.2z"/>
		<path d="M478,216.5h-7.1v-34.2h7.1V216.5z"/>
		<path d="M511,213.5c-2.6,2.7-6.3,4-11.2,4s-8.6-1.3-11.2-4c-3.5-3.3-5.2-8-5.2-14.1c0-6.3,1.7-11,5.2-14.1c2.6-2.7,6.3-4,11.2-4
			s8.6,1.3,11.2,4c3.5,3.1,5.2,7.9,5.2,14.1C516.2,205.5,514.5,210.2,511,213.5z M506.5,208.3c1.7-2.1,2.5-5.1,2.5-8.9
			c0-3.8-0.8-6.8-2.5-8.9c-1.7-2.1-3.9-3.1-6.7-3.1s-5.1,1-6.8,3.1c-1.7,2.1-2.5,5.1-2.5,8.9c0,3.9,0.8,6.8,2.5,8.9
			c1.7,2.1,3.9,3.1,6.8,3.1S504.9,210.4,506.5,208.3z"/>
		<path d="M521.5,182.3h7.5l13.6,23.9v-23.9h6.7v34.2h-7.2l-13.9-24.3v24.3h-6.7V182.3z"/>
		<path d="M561.2,205.9c0.2,1.6,0.7,2.7,1.3,3.5c1.2,1.4,3.2,2.1,6.1,2.1c1.7,0,3.1-0.2,4.2-0.6c2-0.7,3.1-2,3.1-4
			c0-1.1-0.5-2-1.5-2.6c-1-0.6-2.6-1.1-4.8-1.6l-3.7-0.8c-3.6-0.8-6.1-1.7-7.5-2.6c-2.3-1.6-3.5-4-3.5-7.4c0-3.1,1.1-5.6,3.4-7.6
			c2.3-2,5.6-3,9.9-3c3.7,0,6.8,1,9.3,2.9c2.6,1.9,3.9,4.7,4.1,8.3h-6.9c-0.1-2.1-1-3.5-2.8-4.4c-1.1-0.6-2.6-0.9-4.3-0.9
			c-1.9,0-3.4,0.4-4.5,1.1c-1.1,0.7-1.7,1.8-1.7,3.1c0,1.2,0.6,2.1,1.7,2.7c0.7,0.4,2.2,0.9,4.5,1.4l6,1.4c2.6,0.6,4.6,1.4,5.9,2.5
			c2,1.6,3.1,3.9,3.1,7c0,3.1-1.2,5.7-3.6,7.8c-2.4,2.1-5.8,3.1-10.2,3.1c-4.5,0-8.1-1-10.6-3.1c-2.6-2-3.9-4.8-3.9-8.4H561.2z"/>
	</g>
</g>
</svg>
