<?xml version="1.0" encoding="utf-8"?>
<!-- Generator: Adobe Illustrator 19.1.0, SVG Export Plug-In . SVG Version: 6.00 Build 0)  -->
<svg version="1.1" id="Calque_1" xmlns="http://www.w3.org/2000/svg" xmlns:xlink="http://www.w3.org/1999/xlink" x="0px" y="0px"
	 viewBox="243 -58.4 586 217.4" style="enable-background:new 243 -58.4 586 217.4;" xml:space="preserve">
<style type="text/css">
	.st0{fill:#A400E8;}
	.st1{fill:#06FFD9;}
	.st2{fill:none;stroke:#231F20;stroke-width:5;stroke-miterlimit:10;}
	.st3{fill:none;stroke:#2C06E6;stroke-width:2;stroke-miterlimit:10;}
	.st4{fill:none;stroke:#06FFD9;stroke-width:2;stroke-miterlimit:10;}
	.st5{fill:none;stroke:#FA00E8;stroke-width:2;stroke-miterlimit:10;}
</style>
<g>
	<path class="st0" d="M258.8,146.2c0.2,1.4,0.6,2.5,1.2,3.2c1.1,1.3,2.9,1.9,5.5,1.9c1.6,0,2.8-0.2,3.8-0.5c1.8-0.6,2.8-1.8,2.8-3.6
		c0-1-0.5-1.8-1.4-2.4c-0.9-0.5-2.3-1-4.3-1.4l-3.4-0.7c-3.3-0.7-5.6-1.5-6.8-2.4c-2.1-1.4-3.1-3.7-3.1-6.7c0-2.8,1-5.1,3.1-6.9
		s5-2.8,9-2.8c3.3,0,6.1,0.9,8.4,2.6s3.6,4.2,3.7,7.5h-6.2c-0.1-1.9-0.9-3.2-2.5-4c-1-0.5-2.3-0.8-3.9-0.8c-1.7,0-3.1,0.3-4.1,1
		c-1,0.7-1.5,1.6-1.5,2.8c0,1.1,0.5,1.9,1.5,2.5c0.6,0.4,2,0.8,4.1,1.3l5.4,1.3c2.4,0.6,4.2,1.3,5.4,2.2c1.8,1.5,2.8,3.6,2.8,6.3
		c0,2.8-1.1,5.2-3.3,7c-2.2,1.9-5.3,2.8-9.3,2.8c-4.1,0-7.3-0.9-9.6-2.8s-3.5-4.4-3.5-7.6H258.8z"/>
	<path class="st0" d="M305.3,124.8v5.5h-9.3v25.5h-6.5v-25.5h-9.3v-5.5H305.3z"/>
	<path class="st0" d="M332.2,153c-2.3,2.4-5.7,3.6-10.1,3.6s-7.8-1.2-10.1-3.6c-3.1-3-4.7-7.2-4.7-12.8c0-5.7,1.6-9.9,4.7-12.8
		c2.3-2.4,5.7-3.6,10.1-3.6s7.8,1.2,10.1,3.6c3.1,2.8,4.7,7.1,4.7,12.8C336.9,145.8,335.3,150.1,332.2,153z M328.1,148.3
		c1.5-1.9,2.3-4.6,2.3-8.1c0-3.5-0.8-6.2-2.3-8.1c-1.5-1.9-3.5-2.8-6.1-2.8s-4.6,0.9-6.1,2.8c-1.5,1.9-2.3,4.6-2.3,8.1
		c0,3.5,0.8,6.2,2.3,8.1c1.5,1.9,3.6,2.8,6.1,2.8S326.6,150.2,328.1,148.3z"/>
	<path class="st0" d="M362.6,142.4c-1.8,1.5-4.4,2.3-7.8,2.3h-6.4v11.1h-6.4v-30.9h13.3c3.1,0,5.5,0.8,7.3,2.4s2.7,4.1,2.7,7.4
		C365.3,138.3,364.4,140.9,362.6,142.4z M357.6,131.2c-0.8-0.7-2-1-3.4-1h-5.8v9.1h5.8c1.5,0,2.6-0.4,3.4-1.1
		c0.8-0.7,1.2-1.9,1.2-3.5C358.9,133.1,358.5,131.9,357.6,131.2z"/>
	<path class="st0" d="M402.2,124.8h9.3v30.9h-6v-20.9c0-0.6,0-1.4,0-2.5c0-1.1,0-1.9,0-2.5l-5.9,26h-6.3l-5.8-26c0,0.6,0,1.4,0,2.5
		c0,1.1,0,1.9,0,2.5v20.9h-6v-30.9h9.4l5.6,24.3L402.2,124.8z"/>
	<path class="st0" d="M441.3,153c-2.3,2.4-5.7,3.6-10.1,3.6s-7.8-1.2-10.1-3.6c-3.1-3-4.7-7.2-4.7-12.8c0-5.7,1.6-9.9,4.7-12.8
		c2.3-2.4,5.7-3.6,10.1-3.6s7.8,1.2,10.1,3.6c3.1,2.8,4.7,7.1,4.7,12.8C446,145.8,444.4,150.1,441.3,153z M437.3,148.3
		c1.5-1.9,2.3-4.6,2.3-8.1c0-3.5-0.8-6.2-2.3-8.1c-1.5-1.9-3.5-2.8-6.1-2.8s-4.6,0.9-6.1,2.8c-1.5,1.9-2.3,4.6-2.3,8.1
		c0,3.5,0.8,6.2,2.3,8.1c1.5,1.9,3.6,2.8,6.1,2.8S435.8,150.2,437.3,148.3z"/>
	<path class="st0" d="M473.4,124.8v5.5h-9.3v25.5h-6.5v-25.5h-9.3v-5.5H473.4z"/>
	<path class="st0" d="M483.1,155.8h-6.4v-30.9h6.4V155.8z"/>
	<path class="st0" d="M513,153c-2.3,2.4-5.7,3.6-10.1,3.6s-7.8-1.2-10.1-3.6c-3.1-3-4.7-7.2-4.7-12.8c0-5.7,1.6-9.9,4.7-12.8
		c2.3-2.4,5.7-3.6,10.1-3.6s7.8,1.2,10.1,3.6c3.1,2.8,4.7,7.1,4.7,12.8C517.7,145.8,516.1,150.1,513,153z M508.9,148.3
		c1.5-1.9,2.3-4.6,2.3-8.1c0-3.5-0.8-6.2-2.3-8.1c-1.5-1.9-3.5-2.8-6.1-2.8s-4.6,0.9-6.1,2.8c-1.5,1.9-2.3,4.6-2.3,8.1
		c0,3.5,0.8,6.2,2.3,8.1c1.5,1.9,3.6,2.8,6.1,2.8S507.4,150.2,508.9,148.3z"/>
	<path class="st0" d="M522.5,124.8h6.8l12.3,21.6v-21.6h6v30.9h-6.5l-12.6-22v22h-6V124.8z"/>
</g>
<g>
	<path class="st1" d="M262.4,145.2c0.2,1.4,0.6,2.5,1.2,3.2c1.1,1.3,2.9,1.9,5.5,1.9c1.6,0,2.8-0.2,3.8-0.5c1.8-0.6,2.8-1.8,2.8-3.6
		c0-1-0.5-1.8-1.4-2.4c-0.9-0.5-2.3-1-4.3-1.4l-3.4-0.7c-3.3-0.7-5.6-1.5-6.8-2.4c-2.1-1.4-3.1-3.7-3.1-6.7c0-2.8,1-5.1,3.1-6.9
		s5-2.8,9-2.8c3.3,0,6.1,0.9,8.4,2.6s3.6,4.2,3.7,7.5h-6.2c-0.1-1.9-0.9-3.2-2.5-4c-1-0.5-2.3-0.8-3.9-0.8c-1.7,0-3.1,0.3-4.1,1
		c-1,0.7-1.5,1.6-1.5,2.8c0,1.1,0.5,1.9,1.5,2.5c0.6,0.4,2,0.8,4.1,1.3l5.4,1.3c2.4,0.6,4.2,1.3,5.4,2.2c1.8,1.5,2.8,3.6,2.8,6.3
		c0,2.8-1.1,5.2-3.3,7c-2.2,1.9-5.3,2.8-9.3,2.8c-4.1,0-7.3-0.9-9.6-2.8s-3.5-4.4-3.5-7.6H262.4z"/>
	<path class="st1" d="M308.9,123.8v5.5h-9.3v25.5h-6.5v-25.5h-9.3v-5.5H308.9z"/>
	<path class="st1" d="M335.8,152c-2.3,2.4-5.7,3.6-10.1,3.6s-7.8-1.2-10.1-3.6c-3.1-3-4.7-7.2-4.7-12.8c0-5.7,1.6-9.9,4.7-12.8
		c2.3-2.4,5.7-3.6,10.1-3.6s7.8,1.2,10.1,3.6c3.1,2.8,4.7,7.1,4.7,12.8C340.4,144.8,338.9,149.1,335.8,152z M331.7,147.3
		c1.5-1.9,2.3-4.6,2.3-8.1c0-3.5-0.8-6.2-2.3-8.1c-1.5-1.9-3.5-2.8-6.1-2.8s-4.6,0.9-6.1,2.8c-1.5,1.9-2.3,4.6-2.3,8.1
		c0,3.5,0.8,6.2,2.3,8.1c1.5,1.9,3.6,2.8,6.1,2.8S330.2,149.2,331.7,147.3z"/>
	<path class="st1" d="M366.1,141.4c-1.8,1.5-4.4,2.3-7.8,2.3h-6.4v11.1h-6.4v-30.9h13.3c3.1,0,5.5,0.8,7.3,2.4s2.7,4.1,2.7,7.4
		C368.9,137.3,368,139.9,366.1,141.4z M361.2,130.2c-0.8-0.7-2-1-3.4-1h-5.8v9.1h5.8c1.5,0,2.6-0.4,3.4-1.1c0.8-0.7,1.2-1.9,1.2-3.5
		C362.4,132.1,362,130.9,361.2,130.2z"/>
	<path class="st1" d="M405.8,123.8h9.3v30.9h-6v-20.9c0-0.6,0-1.4,0-2.5c0-1.1,0-1.9,0-2.5l-5.9,26h-6.3l-5.8-26c0,0.6,0,1.4,0,2.5
		c0,1.1,0,1.9,0,2.5v20.9h-6v-30.9h9.4l5.6,24.3L405.8,123.8z"/>
	<path class="st1" d="M444.9,152c-2.3,2.4-5.7,3.6-10.1,3.6s-7.8-1.2-10.1-3.6c-3.1-3-4.7-7.2-4.7-12.8c0-5.7,1.6-9.9,4.7-12.8
		c2.3-2.4,5.7-3.6,10.1-3.6s7.8,1.2,10.1,3.6c3.1,2.8,4.7,7.1,4.7,12.8C449.6,144.8,448,149.1,444.9,152z M440.8,147.3
		c1.5-1.9,2.3-4.6,2.3-8.1c0-3.5-0.8-6.2-2.3-8.1c-1.5-1.9-3.5-2.8-6.1-2.8s-4.6,0.9-6.1,2.8c-1.5,1.9-2.3,4.6-2.3,8.1
		c0,3.5,0.8,6.2,2.3,8.1c1.5,1.9,3.6,2.8,6.1,2.8S439.3,149.2,440.8,147.3z"/>
	<path class="st1" d="M477,123.8v5.5h-9.3v25.5h-6.5v-25.5h-9.3v-5.5H477z"/>
	<path class="st1" d="M486.7,154.8h-6.4v-30.9h6.4V154.8z"/>
	<path class="st1" d="M516.5,152c-2.3,2.4-5.7,3.6-10.1,3.6s-7.8-1.2-10.1-3.6c-3.1-3-4.7-7.2-4.7-12.8c0-5.7,1.6-9.9,4.7-12.8
		c2.3-2.4,5.7-3.6,10.1-3.6s7.8,1.2,10.1,3.6c3.1,2.8,4.7,7.1,4.7,12.8C521.2,144.8,519.7,149.1,516.5,152z M512.5,147.3
		c1.5-1.9,2.3-4.6,2.3-8.1c0-3.5-0.8-6.2-2.3-8.1c-1.5-1.9-3.5-2.8-6.1-2.8s-4.6,0.9-6.1,2.8c-1.5,1.9-2.3,4.6-2.3,8.1
		c0,3.5,0.8,6.2,2.3,8.1c1.5,1.9,3.6,2.8,6.1,2.8S511,149.2,512.5,147.3z"/>
	<path class="st1" d="M526.1,123.8h6.8l12.3,21.6v-21.6h6v30.9h-6.5l-12.6-22v22h-6V123.8z"/>
</g>
<polyline id="Triangle_1_" class="st2" points="450.8,19.8 245,-54.1 245.3,157 814.2,157 631.5,86.6 "/>
<path class="st3" d="M469.5,29.7c0.1-39.2,31.9-70.9,71-70.8c39.1,0.1,70.9,31.9,70.8,71c-0.1,39.1-32,70.9-71,70.8
	C501.2,100.6,469.4,68.8,469.5,29.7z M521.4,29.8c0,9.8,0,19.6,0,29.4c0,0.8,0.1,1.6,0.4,2.3c1.1,2.5,3.7,3.1,6.3,1.5
	c16.2-9.8,32.5-19.6,48.7-29.4c3.3-2,3.3-5.8-0.1-7.8c-16.1-9.7-32.3-19.5-48.4-29.2c-1.5-0.9-3.1-1.4-4.7-0.5
	c-1.7,0.9-2.2,2.5-2.2,4.4C521.4,10.3,521.4,20.1,521.4,29.8z"/>
<path class="st4" d="M465.1,29.7c0.1-39.2,31.9-70.9,71-70.8c39.1,0.1,70.9,31.9,70.8,71c-0.1,39.1-32,70.9-71,70.8
	C496.8,100.6,465,68.8,465.1,29.7z M517,29.8c0,9.8,0,19.6,0,29.4c0,0.8,0.1,1.6,0.4,2.3c1.1,2.5,3.7,3.1,6.3,1.5
	c16.2-9.8,32.5-19.6,48.7-29.4c3.3-2,3.3-5.8-0.1-7.8C556.2,16.2,540,6.4,523.9-3.3c-1.5-0.9-3.1-1.4-4.7-0.5
	c-1.7,0.9-2.2,2.5-2.2,4.4C517,10.3,517,20.1,517,29.8z"/>
<path class="st5" d="M466.8,33.5c0.1-39.2,31.9-70.9,71-70.8c39.1,0.1,70.9,31.9,70.8,71c-0.1,39.1-32,70.9-71,70.8
	C498.5,104.3,466.7,72.5,466.8,33.5z M518.7,33.5c0,9.8,0,19.6,0,29.4c0,0.8,0.1,1.6,0.4,2.3c1.1,2.5,3.7,3.1,6.3,1.5
	c16.2-9.8,32.5-19.6,48.7-29.4c3.3-2,3.3-5.8-0.1-7.8c-16.1-9.7-32.3-19.5-48.4-29.2c-1.5-0.9-3.1-1.4-4.7-0.5
	c-1.7,0.9-2.2,2.5-2.2,4.4C518.7,14,518.7,23.8,518.7,33.5z"/>
<g>
	<path d="M260.4,146.2c0.2,1.4,0.6,2.5,1.2,3.2c1.1,1.3,2.9,1.9,5.5,1.9c1.6,0,2.8-0.2,3.8-0.5c1.8-0.6,2.8-1.8,2.8-3.6
		c0-1-0.5-1.8-1.4-2.4c-0.9-0.5-2.3-1-4.3-1.4l-3.4-0.7c-3.3-0.7-5.6-1.5-6.8-2.4c-2.1-1.4-3.1-3.7-3.1-6.7c0-2.8,1-5.1,3.1-6.9
		s5-2.8,9-2.8c3.3,0,6.1,0.9,8.4,2.6s3.6,4.2,3.7,7.5h-6.2c-0.1-1.9-0.9-3.2-2.5-4c-1-0.5-2.3-0.8-3.9-0.8c-1.7,0-3.1,0.3-4.1,1
		c-1,0.7-1.5,1.6-1.5,2.8c0,1.1,0.5,1.9,1.5,2.5c0.6,0.4,2,0.8,4.1,1.3l5.4,1.3c2.4,0.6,4.2,1.3,5.4,2.2c1.8,1.5,2.8,3.6,2.8,6.3
		c0,2.8-1.1,5.2-3.3,7c-2.2,1.9-5.3,2.8-9.3,2.8c-4.1,0-7.3-0.9-9.6-2.8s-3.5-4.4-3.5-7.6H260.4z"/>
	<path d="M306.9,124.8v5.5h-9.3v25.5h-6.5v-25.5h-9.3v-5.5H306.9z"/>
	<path d="M333.8,153c-2.3,2.4-5.7,3.6-10.1,3.6s-7.8-1.2-10.1-3.6c-3.1-3-4.7-7.2-4.7-12.8c0-5.7,1.6-9.9,4.7-12.8
		c2.3-2.4,5.7-3.6,10.1-3.6s7.8,1.2,10.1,3.6c3.1,2.8,4.7,7.1,4.7,12.8C338.4,145.8,336.9,150,333.8,153z M329.7,148.3
		c1.5-1.9,2.3-4.6,2.3-8.1c0-3.5-0.8-6.2-2.3-8.1c-1.5-1.9-3.5-2.8-6.1-2.8s-4.6,0.9-6.1,2.8c-1.5,1.9-2.3,4.6-2.3,8.1
		c0,3.5,0.8,6.2,2.3,8.1c1.5,1.9,3.6,2.8,6.1,2.8S328.2,150.2,329.7,148.3z"/>
	<path d="M364.1,142.3c-1.8,1.5-4.4,2.3-7.8,2.3h-6.4v11.1h-6.4v-30.9h13.3c3.1,0,5.5,0.8,7.3,2.4s2.7,4.1,2.7,7.4
		C366.9,138.2,366,140.8,364.1,142.3z M359.2,131.2c-0.8-0.7-2-1-3.4-1h-5.8v9.1h5.8c1.5,0,2.6-0.4,3.4-1.1c0.8-0.7,1.2-1.9,1.2-3.5
		C360.4,133,360,131.9,359.2,131.2z"/>
	<path d="M403.8,124.8h9.3v30.9h-6v-20.9c0-0.6,0-1.4,0-2.5c0-1.1,0-1.9,0-2.5l-5.9,26h-6.3l-5.8-26c0,0.6,0,1.4,0,2.5
		c0,1.1,0,1.9,0,2.5v20.9h-6v-30.9h9.4l5.6,24.3L403.8,124.8z"/>
	<path d="M442.9,153c-2.3,2.4-5.7,3.6-10.1,3.6s-7.8-1.2-10.1-3.6c-3.1-3-4.7-7.2-4.7-12.8c0-5.7,1.6-9.9,4.7-12.8
		c2.3-2.4,5.7-3.6,10.1-3.6s7.8,1.2,10.1,3.6c3.1,2.8,4.7,7.1,4.7,12.8C447.6,145.8,446,150,442.9,153z M438.8,148.3
		c1.5-1.9,2.3-4.6,2.3-8.1c0-3.5-0.8-6.2-2.3-8.1c-1.5-1.9-3.5-2.8-6.1-2.8s-4.6,0.9-6.1,2.8c-1.5,1.9-2.3,4.6-2.3,8.1
		c0,3.5,0.8,6.2,2.3,8.1c1.5,1.9,3.6,2.8,6.1,2.8S437.3,150.2,438.8,148.3z"/>
	<path d="M475,124.8v5.5h-9.3v25.5h-6.5v-25.5h-9.3v-5.5H475z"/>
	<path d="M484.7,155.7h-6.4v-30.9h6.4V155.7z"/>
	<path d="M514.5,153c-2.3,2.4-5.7,3.6-10.1,3.6s-7.8-1.2-10.1-3.6c-3.1-3-4.7-7.2-4.7-12.8c0-5.7,1.6-9.9,4.7-12.8
		c2.3-2.4,5.7-3.6,10.1-3.6s7.8,1.2,10.1,3.6c3.1,2.8,4.7,7.1,4.7,12.8C519.2,145.8,517.7,150,514.5,153z M510.5,148.3
		c1.5-1.9,2.3-4.6,2.3-8.1c0-3.5-0.8-6.2-2.3-8.1c-1.5-1.9-3.5-2.8-6.1-2.8s-4.6,0.9-6.1,2.8c-1.5,1.9-2.3,4.6-2.3,8.1
		c0,3.5,0.8,6.2,2.3,8.1c1.5,1.9,3.6,2.8,6.1,2.8S509,150.2,510.5,148.3z"/>
	<path d="M524.1,124.8h6.8l12.3,21.6v-21.6h6v30.9h-6.5l-12.6-22v22h-6V124.8z"/>
</g>
</svg>
