<?xml version="1.0" encoding="utf-8"?>
<!-- Generator: Adobe Illustrator 19.1.0, SVG Export Plug-In . SVG Version: 6.00 Build 0)  -->
<svg version="1.1" id="Calque_1" xmlns="http://www.w3.org/2000/svg" xmlns:xlink="http://www.w3.org/1999/xlink" x="0px" y="0px"
	 viewBox="243 -58.4 586 217.4" style="enable-background:new 243 -58.4 586 217.4;" xml:space="preserve">
<style type="text/css">
	.st0{fill:#A400E8;}
	.st1{fill:#06FFD9;}
	.st2{fill:none;stroke:#2C06E6;stroke-width:2;stroke-miterlimit:10;}
	.st3{fill:none;stroke:#231F20;stroke-width:5;stroke-miterlimit:10;}
	.st4{fill:none;stroke:#06FFD9;stroke-width:2;stroke-miterlimit:10;}
	.st5{fill:#3736BC;}
	.st6{fill:none;stroke:#FA00E8;stroke-width:2;stroke-miterlimit:10;}
</style>
<g>
	<path class="st0" d="M614.1,125.5c2.6-2.6,5.8-3.9,9.8-3.9c5.3,0,9.2,1.8,11.7,5.3c1.4,2,2.1,4,2.2,6h-6.7c-0.4-1.5-1-2.7-1.6-3.5
		c-1.2-1.4-3-2.1-5.3-2.1c-2.4,0-4.3,1-5.6,2.9c-1.4,2-2.1,4.7-2.1,8.3s0.7,6.3,2.2,8c1.4,1.8,3.3,2.7,5.5,2.7c2.3,0,4-0.8,5.2-2.3
		c0.7-0.8,1.2-2.1,1.7-3.7h6.6c-0.6,3.5-2,6.3-4.4,8.5c-2.4,2.2-5.4,3.3-9,3.3c-4.5,0-8.1-1.5-10.7-4.4c-2.6-3-3.9-7-3.9-12.2
		C609.7,132.8,611.2,128.5,614.1,125.5z"/>
	<path class="st0" d="M667.7,151.2c-2.4,2.5-5.9,3.7-10.5,3.7s-8.1-1.2-10.5-3.7c-3.2-3-4.9-7.4-4.9-13.2s1.6-10.2,4.9-13.2
		c2.4-2.5,5.9-3.7,10.5-3.7s8.1,1.2,10.5,3.7c3.2,2.9,4.8,7.3,4.8,13.2C672.5,143.8,670.9,148.2,667.7,151.2z M663.5,146.4
		c1.6-2,2.3-4.7,2.3-8.3s-0.8-6.4-2.3-8.3s-3.7-2.9-6.3-2.9s-4.8,1-6.3,2.9c-1.6,1.9-2.4,4.7-2.4,8.3s0.8,6.4,2.4,8.3
		c1.6,1.9,3.7,2.9,6.3,2.9C659.9,149.3,662,148.3,663.5,146.4z"/>
	<path class="st0" d="M677.5,122.1h7l12.7,22.3v-22.3h6.2V154h-6.7l-13-22.7V154h-6.2V122.1z"/>
	<path class="st0" d="M732.9,122.1v5.7h-9.6v26.3h-6.7v-26.3H707v-5.7H732.9z"/>
	<path class="st0" d="M760.4,127.8h-16.9v6.8H759v5.5h-15.5v8.2h17.7v5.7H737v-31.9h23.4V127.8z"/>
	<path class="st0" d="M771.2,144.2c0.2,1.5,0.6,2.5,1.2,3.3c1.1,1.3,3,2,5.7,2c1.6,0,2.9-0.2,3.9-0.5c1.9-0.7,2.9-1.9,2.9-3.7
		c0-1.1-0.5-1.9-1.4-2.4c-0.9-0.6-2.4-1.1-4.4-1.5l-3.5-0.8c-3.4-0.8-5.7-1.6-7-2.4c-2.2-1.5-3.2-3.8-3.2-6.9c0-2.9,1.1-5.2,3.2-7.1
		c2.1-1.9,5.2-2.8,9.3-2.8c3.4,0,6.3,0.9,8.7,2.7c2.4,1.8,3.7,4.4,3.8,7.8H784c-0.1-1.9-1-3.3-2.6-4.1c-1.1-0.5-2.4-0.8-4-0.8
		c-1.8,0-3.2,0.3-4.2,1c-1.1,0.7-1.6,1.7-1.6,2.9c0,1.1,0.5,2,1.6,2.6c0.7,0.4,2.1,0.8,4.2,1.3l5.6,1.3c2.5,0.6,4.3,1.4,5.5,2.3
		c1.9,1.5,2.9,3.7,2.9,6.5c0,2.9-1.1,5.3-3.4,7.3c-2.3,1.9-5.4,2.9-9.6,2.9s-7.5-0.9-9.9-2.8c-2.4-1.9-3.6-4.5-3.6-7.8h6.3V144.2z"
		/>
	<path class="st0" d="M819.2,122.1v5.7h-9.6v26.3h-6.7v-26.3h-9.6v-5.7H819.2z"/>
</g>
<g>
	<path class="st1" d="M611.5,126.3c2.6-2.6,5.8-3.9,9.8-3.9c5.3,0,9.2,1.8,11.7,5.3c1.4,2,2.1,4,2.2,6h-6.7c-0.4-1.5-1-2.7-1.6-3.5
		c-1.2-1.4-3-2.1-5.3-2.1c-2.4,0-4.3,1-5.6,2.9c-1.4,2-2.1,4.7-2.1,8.3s0.7,6.3,2.2,8c1.4,1.8,3.3,2.7,5.5,2.7c2.3,0,4-0.8,5.2-2.3
		c0.7-0.8,1.2-2.1,1.7-3.7h6.6c-0.6,3.5-2,6.3-4.4,8.5s-5.4,3.3-9,3.3c-4.5,0-8.1-1.5-10.7-4.4c-2.6-3-3.9-7-3.9-12.2
		C607.1,133.6,608.6,129.3,611.5,126.3z"/>
	<path class="st1" d="M665.1,152.1c-2.4,2.5-5.9,3.7-10.5,3.7c-4.6,0-8.1-1.2-10.5-3.7c-3.2-3-4.9-7.4-4.9-13.2s1.6-10.2,4.9-13.2
		c2.4-2.5,5.9-3.7,10.5-3.7c4.6,0,8.1,1.2,10.5,3.7c3.2,2.9,4.8,7.3,4.8,13.2C669.9,144.6,668.3,149,665.1,152.1z M660.9,147.2
		c1.6-2,2.3-4.7,2.3-8.3s-0.8-6.4-2.3-8.3s-3.7-2.9-6.3-2.9c-2.6,0-4.8,1-6.3,2.9c-1.6,1.9-2.4,4.7-2.4,8.3s0.8,6.4,2.4,8.3
		c1.6,1.9,3.7,2.9,6.3,2.9C657.3,150.1,659.4,149.2,660.9,147.2z"/>
	<path class="st1" d="M674.9,123h7l12.7,22.3V123h6.2v31.9h-6.7l-13-22.7v22.7h-6.2V123z"/>
	<path class="st1" d="M730.3,123v5.7h-9.6V155H714v-26.4h-9.6v-5.7L730.3,123L730.3,123z"/>
	<path class="st1" d="M757.8,128.6h-16.9v6.8h15.5v5.5h-15.5v8.2h17.7v5.7h-24.2v-31.9h23.4V128.6z"/>
	<path class="st1" d="M768.6,145c0.2,1.5,0.6,2.5,1.2,3.3c1.1,1.3,3,2,5.7,2c1.6,0,2.9-0.2,3.9-0.5c1.9-0.7,2.9-1.9,2.9-3.7
		c0-1.1-0.5-1.9-1.4-2.4c-0.9-0.6-2.4-1.1-4.4-1.5l-3.5-0.8c-3.4-0.8-5.7-1.6-7-2.4c-2.2-1.5-3.2-3.8-3.2-6.9c0-2.9,1.1-5.2,3.2-7.1
		c2.1-1.9,5.2-2.8,9.3-2.8c3.4,0,6.3,0.9,8.7,2.7c2.4,1.8,3.7,4.4,3.8,7.8h-6.4c-0.1-1.9-1-3.3-2.6-4.1c-1.1-0.5-2.4-0.8-4-0.8
		c-1.8,0-3.2,0.3-4.2,1c-1.1,0.7-1.6,1.7-1.6,2.9c0,1.1,0.5,2,1.6,2.6c0.7,0.4,2.1,0.8,4.2,1.3l5.6,1.3c2.5,0.6,4.3,1.4,5.5,2.3
		c1.9,1.5,2.9,3.7,2.9,6.5c0,2.9-1.1,5.3-3.4,7.3c-2.3,1.9-5.4,2.9-9.6,2.9c-4.2,0-7.5-0.9-9.9-2.8c-2.4-1.9-3.6-4.5-3.6-7.8h6.3
		V145z"/>
	<path class="st1" d="M816.6,123v5.7H807V155h-6.7v-26.4h-9.6v-5.7L816.6,123L816.6,123z"/>
</g>
<g>
	<path class="st2" d="M546.3,78.1c-0.6,0.2-1.1,0.3-1.7,0.3c-7.4,0-14.8,0-22.2,0c-2.6,0-4.5-2.1-4.5-4.9c0-12.5,0.1-24.9,0.1-37.4
		c0-0.3,0-0.8-0.1-1.1c-0.3-2.7,0.6-4.8,3.2-6.2h24c0.1,0.6,0.7,0.4,1,0.5c9.3,2.6,13.4,12.4,8.7,20.8c-0.2,0.3-0.3,0.7-0.4,1
		c-2.3,2.6-4.9,4.8-8.4,5.6c-0.9,0.2-2-0.3-2.8,0.5c-0.2,0-0.5,0-0.7,0c-0.2-0.1-0.3-0.3-0.5-0.3c-2.6-0.7-3.6-2.2-3.6-4.7
		c0-2.1,1.5-3.1,2.9-4.1c0.7-0.3,1.4-0.2,2.2-0.3c2.4-0.1,4.3-2.1,4.4-4.5c0.1-2.5-1.7-4.9-4-5c-5.2-0.3-10.5-0.1-15.8-0.2
		c-0.6,0-0.9,0.2-0.9,0.8c0.1,3-0.2,6.1,0.1,9.1c-0.2,3.1-0.2,6.1,0,9.2c-0.3,3.8-0.1,7.5-0.1,11.3c0,1.1,0.8,0.8,1.4,0.8
		c5.6,0,11.1,0,16.7,0c3.2,0.6,4.6,2.3,4.4,5.3c-0.1,1.7-0.3,1.4-1.3,2.4l-1.2,1.1C546.7,78.1,546.5,78.1,546.3,78.1z"/>
	<path class="st2" d="M626.4,29c1.7,0.7,3,1.7,3.5,3.6c0.1,1.7-0.6,3.1-1.3,4.6c-1.1,2.2-2.5,4.4-3.2,6.8c-3,5-5.4,10.4-8.1,15.6
		c-0.5,1,0.4,0.9,0.9,0.9c2.4,0,4.7,0,7.1,0c2.8,0,5.5,0.2,8.3-0.1c0.6,0.6,1.4,0.3,2.1,0.3c2.9,0.2,5.9-0.6,8.8,0.8l0,0
		c-0.1,0.3,0.1,0.5,0.3,0.6c0.5,0.4,0.7,1,0.9,1.6c0,0.4-0.1,0.8-0.1,1.3c0,3-1.5,4.5-4.5,4.6c-0.9,0-1.9-0.3-2.7,0.3
		c-7.7,0-15.5,0.1-23.2-0.1c-2.3-0.1-3.7,0.6-4.5,2.8c-0.4,1.2-1.1,2.3-1.7,3.4c-1.4,2.6-4,3.5-6.3,2.2c-2.3-1.2-3-3.8-1.7-6.4
		c4.5-9,9.1-17.9,13.7-26.9c2.2-4.3,4.3-8.5,6.4-12.8c0.7-1.4,1.9-2.2,3.2-2.8C624.9,29,625.6,29,626.4,29z"/>
	<path class="st2" d="M494.9,60.9c0,4.3-0.1,8.5,0,12.8c0.1,2.9-2.3,4.8-4.5,4.8c-2.6,0-4.6-2-4.7-4.7c-0.1-3.9,0-7.8,0-11.7
		c0-1.1-0.3-1.9-0.9-2.7c-5.2-7.1-10.5-14.3-15.7-21.5c-3.1-4.2-2.8-6,1.4-8.9c0.7,0,1.5,0,2.2,0c2,0.9,3.1,2.7,4.3,4.3
		c3.1,4.2,6.1,8.5,9.3,12.7c1.3,1.8,2.5,3.8,4.1,5.3c0.4,1,1.2,1.8,1.8,2.7C493.8,56.1,495.5,58.1,494.9,60.9z"/>
	<path class="st2" d="M564.3,72.7c0-13,0-26,0-38.9c0-2.5,1.5-3.8,3.5-4.8c0.7,0,1.5,0,2.2,0c2.7,1.1,3.6,3,3.5,5.9
		c-0.1,11.5,0,22.9,0,34.4c-1.1,0.3-2.2,0.3-3.3,0.1C567.3,69,565.4,70.2,564.3,72.7z"/>
	<path class="st2" d="M430.3,49.1c7.7,0,15.5,0,23.2,0c0.9,0,1.9,0.2,2.8,0.1c2.8-0.3,4.9,0.5,6.4,3c0,1,0,2.1,0,3.1
		c-1.4,2.2-3.3,3.3-6.1,3c-1-0.1-2.1-0.2-3.1,0.1c-7.7,0-15.5,0-23.2,0c-1.2-0.3-2.4-0.1-3.6-0.1c-1,0-2.1,0-3.1-0.4
		c-1.3-0.6-1.8-1.9-2.6-3c0-0.7,0-1.5,0-2.2c1.2-2.6,3.2-3.8,6.1-3.4C428.2,49.3,429.2,49.4,430.3,49.1z"/>
	<path class="st2" d="M490.4,51.3c4.7-6.4,9.4-12.9,14.1-19.3c1-1.3,2-2.5,3.6-3c0.7,0,1.5,0,2.2,0c3,1.8,3.8,3.3,3.2,5.9
		c-0.2,0.9-0.7,1.5-1.2,2.2c-5.8,8-11.6,15.9-17.4,23.9c0.5-2.8-1.2-4.8-2.7-6.9C491.6,53.2,490.8,52.4,490.4,51.3z"/>
	<path class="st2" d="M654.5,34.8c-0.5-2.8,0.9-4.5,3.1-5.8c7.8,0,15.6,0,23.3,0c0,0.4,0.1,0.6,0.4,0.7c1.8,1.1,2.6,2.7,2.2,4.8
		c-0.4,2.2-1.9,3.4-4.1,3.7c-0.6,0-1.3-0.1-1.9-0.1c-4.7-0.1-9.3-0.2-14,0.1c-1-0.3-2.1-0.2-3.1-0.1
		C657.7,38.5,655.7,37.4,654.5,34.8z"/>
	<path class="st2" d="M421,54.8c0.8,1.1,1.3,2.3,2.6,3c1,0.5,2,0.4,3.1,0.4c1.2,0,2.4-0.2,3.6,0.1c0,5,0,10,0,15
		c0,2.8-1.1,4.4-3.4,5c-2.2,0.6-4-0.3-5.4-2.5c-0.1-0.2-0.3-0.3-0.4-0.4C421,68.5,421,61.7,421,54.8z"/>
	<path class="st2" d="M430.3,49.1c-1,0.3-2.1,0.2-3.1,0.1c-2.9-0.4-4.9,0.8-6.1,3.4c0-6.8,0-13.7,0-20.5c0.9-1.4,2-2.5,3.5-3.2
		c0.7,0,1.5,0,2.2,0c2.7,1,3.6,3,3.5,5.9C430.1,39.6,430.2,44.3,430.3,49.1z"/>
	<path class="st2" d="M462.7,52.2c-1.5-2.4-3.6-3.3-6.4-3c-0.9,0.1-1.9-0.1-2.8-0.1c0-4.7,0.2-9.4,0-14.1c-0.1-2.9,0.9-4.9,3.5-6.1
		c0.7,0,1.5,0,2.2,0c2.7,1.1,3.6,3,3.5,5.9C462.6,40.6,462.7,46.4,462.7,52.2z"/>
	<path class="st2" d="M679.5,38.2c2.2-0.3,3.7-1.6,4.1-3.7c0.4-2-0.4-3.7-2.2-4.8c-0.3-0.2-0.5-0.4-0.4-0.7c0.2,0,0.4,0,0.6,0
		c0.1,0.1,0.2,0.3,0.3,0.3c9.8,1.9,14.7,13.3,8.9,21.9c-2.3-1.3-4.5-2.7-7.2-2.9c-1.8-0.1-3.6,0.1-5.5-0.3c1.1-0.3,2.2,0,3.2-0.6
		c1.7-0.9,2.9-2.9,2.6-4.8C683.8,40.3,682.3,38.8,679.5,38.2z"/>
	<path class="st2" d="M424.5,29c-1.5,0.7-2.6,1.8-3.5,3.2c0-1.1-0.4-2.5,0.1-3s2-0.1,3-0.1C424.3,29,424.4,29,424.5,29z"/>
	<path class="st2" d="M678.2,48c1.8,0.4,3.6,0.1,5.5,0.3c2.7,0.2,4.9,1.6,7.2,2.9c6.9,5.7,7.5,14.8,3,21c-3.1,4.2-7.2,6.3-12.4,6.3
		c-7.4-0.1-14.7-0.1-22.1,0c-3.3,0.1-5-2-4.9-5.8c1.2-2.5,3.2-3.6,6.1-3.3c1,0.1,2.1-0.1,3.1-0.1c5.6,0.2,11.1,0.2,16.7,0
		c0.8,0,1.7-0.1,2.5-0.3c2.8-0.6,4.8-3.3,4.7-6.1c-0.2-3-2.5-5.6-5.4-5.6c-6.1-0.1-12.3,0-18.4,0c-1-0.3-2-0.2-2.9-0.1
		c-2.9,0.2-5.1-0.7-6.3-3.5c0-0.7,0-1.5,0-2.2c1.1-2.7,3.2-3.6,6-3.3c1.1,0.1,2.2,0.2,3.2-0.2C668.5,48.1,673.4,48.2,678.2,48z"/>
	<path class="st2" d="M564.3,72.7c1.2-2.5,3.1-3.7,5.9-3.4c1.1,0.1,2.2,0.2,3.3-0.1c6.3,0,12.6,0.1,18.9,0c3-0.1,4.9,2.2,5,4.5
		c0,2.7-2,4.7-5,4.7c-7.8,0-15.5,0-23.3,0C565.8,78.5,564.1,76.4,564.3,72.7z"/>
	<path class="st2" d="M625.3,43.9c0.8-2.4,2.1-4.5,3.2-6.8c0.7-1.5,1.4-2.9,1.3-4.6c4.5,8.9,9.1,17.7,13.6,26.6
		c0.4,0.7,0.9,1.3,0.9,2.1c-2.8-1.3-5.8-0.5-8.8-0.8c-0.7-0.1-1.5,0.2-2.1-0.3C630.8,54.8,628,49.3,625.3,43.9z"/>
	<path class="st2" d="M543,57.3c0.8-0.8,1.9-0.3,2.8-0.5c3.5-0.8,6.1-3,8.4-5.6c4.9,4,6.8,9.2,5.5,15.4c-1.3,6-5.3,9.7-11.2,11.4
		c-0.5,0.2-1.1,0.3-1.7,0.1c1-1.1,2.3-1.9,2.4-3.6c0.3-3-1.1-4.7-4.4-5.3c0.3-0.1,0.6-0.1,0.9-0.2c2.8-0.5,4.9-2.8,5-5.7
		c0.1-2.7-1.8-5.3-4.5-6C545.3,57.2,544.1,57.4,543,57.3z"/>
	<path class="st2" d="M453.5,58.3c1-0.3,2.1-0.2,3.1-0.1c2.7,0.3,4.6-0.7,6.1-3c0,6.2,0,12.4,0,18.6c0,2.6-1.9,4.6-4.5,4.6
		s-4.6-1.9-4.6-4.5C453.5,68.7,453.5,63.5,453.5,58.3z"/>
	<path class="st2" d="M654.5,53.7c1.2,2.8,3.4,3.6,6.3,3.5c1-0.1,2-0.2,2.9,0.1c0,4,0,8,0,12c-1,0-2.1,0.2-3.1,0.1
		c-2.8-0.3-4.8,0.7-6.1,3.3C654.5,66.3,654.5,60,654.5,53.7z"/>
	<path class="st2" d="M663.7,48c-1.1,0.4-2.2,0.3-3.2,0.2c-2.8-0.3-4.9,0.6-6,3.3c0-5.6,0-11.2,0-16.7c1.2,2.6,3.2,3.7,6.1,3.3
		c1-0.1,2.1-0.2,3.1,0.1C663.6,41.5,663.6,44.8,663.7,48z"/>
	<path class="st2" d="M638.3,69.6c0.9-0.6,1.8-0.2,2.7-0.3c3-0.1,4.5-1.5,4.5-4.6c0-0.4,0-0.8,0.1-1.3c1.4,2.7,2.8,5.4,4.1,8.1
		c1.2,2.5,0.4,5.2-1.9,6.3c-2.4,1.2-5,0.3-6.4-2.2C640.4,73.7,639.4,71.6,638.3,69.6z"/>
	<path class="st2" d="M644.7,61.9c-0.2-0.1-0.4-0.3-0.3-0.6C644.6,61.4,644.7,61.6,644.7,61.9z"/>
	<path class="st2" d="M543,57.3c1.2,0,2.3-0.2,3.4,0.1c2.7,0.7,4.6,3.3,4.5,6c-0.1,2.8-2.2,5.2-5,5.7c-0.3,0.1-0.6,0.1-0.9,0.2
		c-5.6,0-11.1,0-16.7,0c-0.6,0-1.4,0.3-1.4-0.8c0.1-3.8-0.2-7.5,0.1-11.3c5.1,0,10.1,0.1,15.2,0.1C542.5,57.3,542.8,57.3,543,57.3z"
		/>
	<path class="st2" d="M527.1,48.1c-0.3-3-0.1-6.1-0.1-9.1c0-0.6,0.3-0.8,0.9-0.8c5.3,0.1,10.5-0.2,15.8,0.2c2.3,0.2,4.1,2.5,4,5
		c-0.1,2.4-2,4.4-4.4,4.5c-0.7,0-1.5,0-2.2,0.3C536.4,48.1,531.8,48.1,527.1,48.1z"/>
	<path class="st2" d="M527.1,48.1c4.7,0,9.3,0.1,14,0.1c-1.5,1-2.9,2-2.9,4.1c0,2.6,1.1,4,3.6,4.7c0.2,0.1,0.3,0.2,0.5,0.3
		c-5.1,0-10.1-0.1-15.2-0.1C526.9,54.2,526.9,51.1,527.1,48.1z"/>
	<path class="st2" d="M625.3,43.9c2.7,5.4,5.5,10.9,8.2,16.3c-2.8,0.3-5.5,0.1-8.3,0.1c-2.4,0-4.7,0-7.1,0c-0.5,0-1.4,0.1-0.9-0.9
		C619.9,54.3,622.3,48.9,625.3,43.9z"/>
	<path class="st2" d="M663.7,48c0-3.3,0-6.6,0-9.8c4.7-0.3,9.3-0.1,14-0.1c0.6,0,1.3,0.1,1.9,0.1c2.8,0.6,4.3,2.1,4.6,4.5
		c0.2,1.9-0.9,3.9-2.6,4.8c-1,0.6-2.2,0.3-3.2,0.6C673.4,48.2,668.5,48.1,663.7,48z"/>
	<path class="st2" d="M663.6,69.3c0-4,0-8,0-12c6.1,0,12.3,0,18.4,0c2.9,0,5.2,2.6,5.4,5.6c0.2,2.8-1.9,5.5-4.7,6.1
		c-0.8,0.2-1.7,0.3-2.5,0.3C674.7,69.4,669.2,69.5,663.6,69.3z"/>
</g>
<polyline id="Triangle_1_" class="st3" points="621.1,19.4 826.8,-54.5 826.5,156.6 257.6,156.6 440.3,86.2 "/>
<path class="st4" d="M553,78.9c-0.6,0.2-1.1,0.3-1.7,0.3c-7.4,0-14.8,0-22.2,0c-2.6,0-4.5-2.1-4.5-4.9c0-12.5,0.1-24.9,0.1-37.4
	c0-0.3,0-0.8-0.1-1.1c-0.3-2.7,0.6-4.8,3.2-6.2h24c0.1,0.6,0.7,0.4,1,0.5c9.3,2.6,13.4,12.4,8.7,20.8c-0.2,0.3-0.3,0.7-0.4,1
	c-2.3,2.6-4.9,4.8-8.4,5.6c-0.9,0.2-2-0.3-2.8,0.5c-0.2,0-0.5,0-0.7,0c-0.2-0.1-0.3-0.3-0.5-0.3c-2.6-0.7-3.6-2.2-3.6-4.7
	c0-2.1,1.5-3.1,2.9-4.1c0.7-0.3,1.4-0.2,2.2-0.3c2.4-0.1,4.3-2.1,4.4-4.5c0.1-2.5-1.7-4.9-4-5c-5.2-0.3-10.5-0.1-15.8-0.2
	c-0.6,0-0.9,0.2-0.9,0.8c0.1,3-0.2,6.1,0.1,9.1c-0.2,3.1-0.2,6.1,0,9.2c-0.3,3.8-0.1,7.5-0.1,11.3c0,1.1,0.8,0.8,1.4,0.8
	c5.6,0,11.1,0,16.7,0c3.2,0.6,4.6,2.3,4.4,5.3c-0.1,1.7-0.3,1.4-1.3,2.4l-1.2,1.1C553.4,78.9,553.2,78.9,553,78.9z"/>
<path class="st4" d="M633.1,29.7c1.7,0.7,3,1.7,3.5,3.6c0.1,1.7-0.6,3.1-1.3,4.6c-1.1,2.2-2.5,4.4-3.2,6.8c-3,5-5.4,10.4-8.1,15.6
	c-0.5,1,0.4,0.9,0.9,0.9c2.4,0,4.7,0,7.1,0c2.8,0,5.5,0.2,8.3-0.1c0.6,0.6,1.4,0.3,2.1,0.3c2.9,0.2,5.9-0.6,8.8,0.8l0,0
	c-0.1,0.3,0.1,0.5,0.3,0.6c0.5,0.4,0.7,1,0.9,1.6c0,0.4-0.1,0.8-0.1,1.3c0,3-1.5,4.5-4.5,4.6c-0.9,0-1.9-0.3-2.7,0.3
	c-7.7,0-15.5,0.1-23.2-0.1c-2.3-0.1-3.7,0.6-4.5,2.8c-0.4,1.2-1.1,2.3-1.7,3.4c-1.4,2.6-4,3.5-6.3,2.2c-2.3-1.2-3-3.8-1.7-6.4
	c4.5-9,9.1-17.9,13.7-26.9c2.2-4.3,4.3-8.5,6.4-12.8c0.7-1.4,1.9-2.2,3.2-2.8C631.6,29.7,632.4,29.7,633.1,29.7z"/>
<path class="st4" d="M501.7,61.7c0,4.3-0.1,8.5,0,12.8c0.1,2.9-2.3,4.8-4.5,4.8c-2.6,0-4.6-2-4.7-4.7c-0.1-3.9,0-7.8,0-11.7
	c0-1.1-0.3-1.9-0.9-2.7c-5.2-7.1-10.5-14.3-15.7-21.5c-3.1-4.2-2.8-6,1.4-8.9c0.7,0,1.5,0,2.2,0c2,0.9,3.1,2.7,4.3,4.3
	c3.1,4.2,6.1,8.5,9.3,12.7c1.3,1.8,2.5,3.8,4.1,5.3c0.4,1,1.2,1.8,1.8,2.7C500.5,56.9,502.2,58.8,501.7,61.7z"/>
<path class="st4" d="M571,73.5c0-13,0-26,0-38.9c0-2.5,1.5-3.8,3.5-4.8c0.7,0,1.5,0,2.2,0c2.7,1.1,3.6,3,3.5,5.9
	c-0.1,11.5,0,22.9,0,34.4c-1.1,0.3-2.2,0.3-3.3,0.1C574,69.8,572.1,70.9,571,73.5z"/>
<path class="st4" d="M437,49.9c7.7,0,15.5,0,23.2,0c0.9,0,1.9,0.2,2.8,0.1c2.8-0.3,4.9,0.5,6.4,3c0,1,0,2.1,0,3.1
	c-1.4,2.2-3.3,3.3-6.1,3c-1-0.1-2.1-0.2-3.1,0.1c-7.7,0-15.5,0-23.2,0c-1.2-0.3-2.4-0.1-3.6-0.1c-1,0-2.1,0-3.1-0.4
	c-1.3-0.6-1.8-1.9-2.6-3c0-0.7,0-1.5,0-2.2c1.2-2.6,3.2-3.8,6.1-3.4C434.9,50.1,435.9,50.1,437,49.9z"/>
<path class="st4" d="M497.1,52.1c4.7-6.4,9.4-12.9,14.1-19.3c1-1.3,2-2.5,3.6-3c0.7,0,1.5,0,2.2,0c3,1.8,3.8,3.3,3.2,5.9
	c-0.2,0.9-0.7,1.5-1.2,2.2c-5.8,8-11.6,15.9-17.4,23.9c0.5-2.8-1.2-4.8-2.7-6.9C498.3,53.9,497.5,53.1,497.1,52.1z"/>
<path class="st4" d="M661.2,35.6c-0.5-2.8,0.9-4.5,3.1-5.8c7.8,0,15.6,0,23.3,0c0,0.4,0.1,0.6,0.4,0.7c1.8,1.1,2.6,2.7,2.2,4.8
	c-0.4,2.2-1.9,3.4-4.1,3.7c-0.6,0-1.3-0.1-1.9-0.1c-4.7-0.1-9.3-0.2-14,0.1c-1-0.3-2.1-0.2-3.1-0.1
	C664.4,39.2,662.4,38.1,661.2,35.6z"/>
<path class="st4" d="M427.8,55.6c0.8,1.1,1.3,2.3,2.6,3c1,0.5,2,0.4,3.1,0.4c1.2,0,2.4-0.2,3.6,0.1c0,5,0,10,0,15
	c0,2.8-1.1,4.4-3.4,5c-2.2,0.6-4-0.3-5.4-2.5c-0.1-0.2-0.3-0.3-0.4-0.4C427.8,69.3,427.8,62.4,427.8,55.6z"/>
<path class="st4" d="M437,49.9c-1,0.3-2.1,0.2-3.1,0.1c-2.9-0.4-4.9,0.8-6.1,3.4c0-6.8,0-13.7,0-20.5c0.9-1.4,2-2.5,3.5-3.2
	c0.7,0,1.5,0,2.2,0c2.7,1,3.6,3,3.5,5.9C436.8,40.3,437,45.1,437,49.9z"/>
<path class="st4" d="M469.4,52.9c-1.5-2.4-3.6-3.3-6.4-3c-0.9,0.1-1.9-0.1-2.8-0.1c0-4.7,0.2-9.4,0-14.1c-0.1-2.9,0.9-4.9,3.5-6.1
	c0.7,0,1.5,0,2.2,0c2.7,1.1,3.6,3,3.5,5.9C469.3,41.4,469.4,47.2,469.4,52.9z"/>
<path class="st4" d="M686.2,39c2.2-0.3,3.7-1.6,4.1-3.7c0.4-2-0.4-3.7-2.2-4.8c-0.3-0.2-0.5-0.4-0.4-0.7c0.2,0,0.4,0,0.6,0
	c0.1,0.1,0.2,0.3,0.3,0.3c9.8,1.9,14.7,13.3,8.9,21.9c-2.3-1.3-4.5-2.7-7.2-2.9c-1.8-0.1-3.6,0.1-5.5-0.3c1.1-0.3,2.2,0,3.2-0.6
	c1.7-0.9,2.9-2.9,2.6-4.8C690.5,41.1,689,39.6,686.2,39z"/>
<path class="st4" d="M431.2,29.7c-1.5,0.7-2.6,1.8-3.5,3.2c0-1.1-0.4-2.5,0.1-3s2-0.1,3-0.1C431,29.7,431.1,29.7,431.2,29.7z"/>
<path class="st4" d="M684.9,48.8c1.8,0.4,3.6,0.1,5.5,0.3c2.7,0.2,4.9,1.6,7.2,2.9c6.9,5.7,7.5,14.8,3,21c-3.1,4.2-7.2,6.3-12.4,6.3
	c-7.4-0.1-14.7-0.1-22.1,0c-3.3,0.1-5-2-4.9-5.8c1.2-2.5,3.2-3.6,6.1-3.3c1,0.1,2.1-0.1,3.1-0.1c5.6,0.2,11.1,0.2,16.7,0
	c0.8,0,1.7-0.1,2.5-0.3c2.8-0.6,4.8-3.3,4.7-6.1c-0.2-3-2.5-5.6-5.4-5.6c-6.1-0.1-12.3,0-18.4,0c-1-0.3-2-0.2-2.9-0.1
	c-2.9,0.2-5.1-0.7-6.3-3.5c0-0.7,0-1.5,0-2.2c1.1-2.7,3.2-3.6,6-3.3c1.1,0.1,2.2,0.2,3.2-0.2C675.2,48.9,680.1,48.9,684.9,48.8z"/>
<path class="st4" d="M571,73.5c1.2-2.5,3.1-3.7,5.9-3.4c1.1,0.1,2.2,0.2,3.3-0.1c6.3,0,12.6,0.1,18.9,0c3-0.1,4.9,2.2,5,4.5
	c0,2.7-2,4.7-5,4.7c-7.8,0-15.5,0-23.3,0C572.5,79.3,570.8,77.2,571,73.5z"/>
<path class="st4" d="M632,44.7c0.8-2.4,2.1-4.5,3.2-6.8c0.7-1.5,1.4-2.9,1.3-4.6c4.5,8.9,9.1,17.7,13.6,26.6
	c0.4,0.7,0.9,1.3,0.9,2.1c-2.8-1.3-5.8-0.5-8.8-0.8c-0.7-0.1-1.5,0.2-2.1-0.3C637.5,55.5,634.7,50.1,632,44.7z"/>
<path class="st4" d="M549.7,58.1c0.8-0.8,1.9-0.3,2.8-0.5c3.5-0.8,6.1-3,8.4-5.6c4.9,4,6.8,9.2,5.5,15.4c-1.3,6-5.3,9.7-11.2,11.4
	c-0.5,0.2-1.1,0.3-1.7,0.1c1-1.1,2.3-1.9,2.4-3.6c0.3-3-1.1-4.7-4.4-5.3c0.3-0.1,0.6-0.1,0.9-0.2c2.8-0.5,4.9-2.8,5-5.7
	c0.1-2.7-1.8-5.3-4.5-6C552,57.9,550.9,58.1,549.7,58.1z"/>
<path class="st4" d="M460.2,59.1c1-0.3,2.1-0.2,3.1-0.1c2.7,0.3,4.6-0.7,6.1-3c0,6.2,0,12.4,0,18.6c0,2.6-1.9,4.6-4.5,4.6
	c-2.6,0-4.6-1.9-4.6-4.5C460.2,69.5,460.2,64.3,460.2,59.1z"/>
<path class="st4" d="M661.2,54.5c1.2,2.8,3.4,3.6,6.3,3.5c1-0.1,2-0.2,2.9,0.1c0,4,0,8,0,12c-1,0-2.1,0.2-3.1,0.1
	c-2.8-0.3-4.8,0.7-6.1,3.3C661.2,67.1,661.2,60.8,661.2,54.5z"/>
<path class="st4" d="M670.4,48.8c-1.1,0.4-2.2,0.3-3.2,0.2c-2.8-0.3-4.9,0.6-6,3.3c0-5.6,0-11.2,0-16.7c1.2,2.6,3.2,3.7,6.1,3.3
	c1-0.1,2.1-0.2,3.1,0.1C670.3,42.2,670.4,45.5,670.4,48.8z"/>
<path class="st4" d="M645,70.3c0.9-0.6,1.8-0.2,2.7-0.3c3-0.1,4.5-1.5,4.5-4.6c0-0.4,0-0.8,0.1-1.3c1.4,2.7,2.8,5.4,4.1,8.1
	c1.2,2.5,0.4,5.2-1.9,6.3c-2.4,1.2-5,0.3-6.4-2.2C647.1,74.4,646.1,72.4,645,70.3z"/>
<path class="st5" d="M905.3-73.9c1-1.1,2.1-1.4,3.5-0.9C907.8-73.6,906.5-74,905.3-73.9z"/>
<path class="st4" d="M651.4,62.7c-0.2-0.1-0.4-0.3-0.3-0.6C651.4,62.2,651.4,62.4,651.4,62.7z"/>
<path class="st4" d="M549.7,58.1c1.2,0,2.3-0.2,3.4,0.1c2.7,0.7,4.6,3.3,4.5,6c-0.1,2.8-2.2,5.2-5,5.7c-0.3,0.1-0.6,0.1-0.9,0.2
	c-5.6,0-11.1,0-16.7,0c-0.6,0-1.4,0.3-1.4-0.8c0.1-3.8-0.2-7.5,0.1-11.3c5.1,0,10.1,0.1,15.2,0.1C549.2,58.1,549.5,58.1,549.7,58.1z
	"/>
<path class="st4" d="M533.8,48.9c-0.3-3-0.1-6.1-0.1-9.1c0-0.6,0.3-0.8,0.9-0.8c5.3,0.1,10.5-0.2,15.8,0.2c2.3,0.2,4.1,2.5,4,5
	c-0.1,2.4-2,4.4-4.4,4.5c-0.7,0-1.5,0-2.2,0.3C543.1,48.9,538.5,48.9,533.8,48.9z"/>
<path class="st4" d="M533.8,48.9c4.7,0,9.3,0.1,14,0.1c-1.5,1-2.9,2-2.9,4.1c0,2.6,1.1,4,3.6,4.7c0.2,0.1,0.3,0.2,0.5,0.3
	c-5.1,0-10.1-0.1-15.2-0.1C533.6,55,533.6,51.9,533.8,48.9z"/>
<path class="st4" d="M632,44.7c2.7,5.4,5.5,10.9,8.2,16.3c-2.8,0.3-5.5,0.1-8.3,0.1c-2.4,0-4.7,0-7.1,0c-0.5,0-1.4,0.1-0.9-0.9
	C626.6,55.1,629,49.7,632,44.7z"/>
<path class="st4" d="M670.4,48.8c0-3.3,0-6.6,0-9.8c4.7-0.3,9.3-0.1,14-0.1c0.6,0,1.3,0.1,1.9,0.1c2.8,0.6,4.3,2.1,4.6,4.5
	c0.2,1.9-0.9,3.9-2.6,4.8c-1,0.6-2.2,0.3-3.2,0.6C680.1,48.9,675.2,48.9,670.4,48.8z"/>
<path class="st4" d="M670.3,70c0-4,0-8,0-12c6.1,0,12.3,0,18.4,0c2.9,0,5.2,2.6,5.4,5.6c0.2,2.8-1.9,5.5-4.7,6.1
	c-0.8,0.2-1.7,0.3-2.5,0.3C681.4,70.2,675.9,70.3,670.3,70z"/>
<path class="st6" d="M549.6,74.4c-0.6,0.2-1.1,0.3-1.7,0.3c-7.4,0-14.8,0-22.2,0c-2.6,0-4.5-2.1-4.5-4.9c0-12.5,0.1-24.9,0.1-37.4
	c0-0.3,0-0.8-0.1-1.1c-0.3-2.7,0.6-4.8,3.2-6.2h24c0.1,0.6,0.7,0.4,1,0.5c9.3,2.6,13.4,12.4,8.7,20.8c-0.2,0.3-0.3,0.7-0.4,1
	c-2.3,2.6-4.9,4.8-8.4,5.6c-0.9,0.2-2-0.3-2.8,0.5c-0.2,0-0.5,0-0.7,0c-0.2-0.1-0.3-0.3-0.5-0.3c-2.6-0.7-3.6-2.2-3.6-4.7
	c0-2.1,1.5-3.1,2.9-4.1c0.7-0.3,1.4-0.2,2.2-0.3c2.4-0.1,4.3-2.1,4.4-4.5c0.1-2.5-1.7-4.9-4-5c-5.2-0.3-10.5-0.1-15.8-0.2
	c-0.6,0-0.9,0.2-0.9,0.8c0.1,3-0.2,6.1,0.1,9.1c-0.2,3.1-0.2,6.1,0,9.2c-0.3,3.8-0.1,7.5-0.1,11.3c0,1.1,0.8,0.8,1.4,0.8
	c5.6,0,11.1,0,16.7,0c3.2,0.6,4.6,2.3,4.4,5.3c-0.1,1.7-0.3,1.4-1.3,2.4l-1.2,1.1C550,74.3,549.8,74.3,549.6,74.4z"/>
<path class="st6" d="M629.7,25.2c1.7,0.7,3,1.7,3.5,3.6c0.1,1.7-0.6,3.1-1.3,4.6c-1.1,2.2-2.5,4.4-3.2,6.8c-3,5-5.4,10.4-8.1,15.6
	c-0.5,1,0.4,0.9,0.9,0.9c2.4,0,4.7,0,7.1,0c2.8,0,5.5,0.2,8.3-0.1c0.6,0.6,1.4,0.3,2.1,0.3c2.9,0.2,5.9-0.6,8.8,0.8l0,0
	c-0.1,0.3,0.1,0.5,0.3,0.6c0.5,0.4,0.7,1,0.9,1.6c0,0.4-0.1,0.8-0.1,1.3c0,3-1.5,4.5-4.5,4.6c-0.9,0-1.9-0.3-2.7,0.3
	c-7.7,0-15.5,0.1-23.2-0.1c-2.3-0.1-3.7,0.6-4.5,2.8c-0.4,1.2-1.1,2.3-1.7,3.4c-1.4,2.6-4,3.5-6.3,2.2c-2.3-1.2-3-3.8-1.7-6.4
	c4.5-9,9.1-17.9,13.7-26.9c2.2-4.3,4.3-8.5,6.4-12.8c0.7-1.4,1.9-2.2,3.2-2.8C628.2,25.2,628.9,25.2,629.7,25.2z"/>
<path class="st6" d="M498.2,57.1c0,4.3-0.1,8.5,0,12.8c0.1,2.9-2.3,4.8-4.5,4.8c-2.6,0-4.6-2-4.7-4.7c-0.1-3.9,0-7.8,0-11.7
	c0-1.1-0.3-1.9-0.9-2.7c-5.2-7.1-10.5-14.3-15.7-21.5c-3.1-4.2-2.8-6,1.4-8.9c0.7,0,1.5,0,2.2,0c2,0.9,3.1,2.7,4.3,4.3
	c3.1,4.2,6.1,8.5,9.3,12.7c1.3,1.8,2.5,3.8,4.1,5.3c0.4,1,1.2,1.8,1.8,2.7C497.1,52.3,498.7,54.3,498.2,57.1z"/>
<path class="st6" d="M567.5,68.9c0-13,0-26,0-38.9c0-2.5,1.5-3.8,3.5-4.8c0.7,0,1.5,0,2.2,0c2.7,1.1,3.6,3,3.5,5.9
	c-0.1,11.5,0,22.9,0,34.4c-1.1,0.3-2.2,0.3-3.3,0.1C570.6,65.2,568.7,66.4,567.5,68.9z"/>
<path class="st6" d="M433.6,45.3c7.7,0,15.5,0,23.2,0c0.9,0,1.9,0.2,2.8,0.1c2.8-0.3,4.9,0.5,6.4,3c0,1,0,2.1,0,3.1
	c-1.4,2.2-3.3,3.3-6.1,3c-1-0.1-2.1-0.2-3.1,0.1c-7.7,0-15.5,0-23.2,0c-1.2-0.3-2.4-0.1-3.6-0.1c-1,0-2.1,0-3.1-0.4
	c-1.3-0.6-1.8-1.9-2.6-3c0-0.7,0-1.5,0-2.2c1.2-2.6,3.2-3.8,6.1-3.4C431.5,45.5,432.5,45.6,433.6,45.3z"/>
<path class="st6" d="M493.7,47.5c4.7-6.4,9.4-12.9,14.1-19.3c1-1.3,2-2.5,3.6-3c0.7,0,1.5,0,2.2,0c3,1.8,3.8,3.3,3.2,5.9
	c-0.2,0.9-0.7,1.5-1.2,2.2c-5.8,8-11.6,15.9-17.4,23.9c0.5-2.8-1.2-4.8-2.7-6.9C494.9,49.4,494.1,48.6,493.7,47.5z"/>
<path class="st6" d="M657.8,31c-0.5-2.8,0.9-4.5,3.1-5.8c7.8,0,15.6,0,23.3,0c0,0.4,0.1,0.6,0.4,0.7c1.8,1.1,2.6,2.7,2.2,4.8
	c-0.4,2.2-1.9,3.4-4.1,3.7c-0.6,0-1.3-0.1-1.9-0.1c-4.7-0.1-9.3-0.2-14,0.1c-1-0.3-2.1-0.2-3.1-0.1C660.9,34.7,659,33.6,657.8,31z"
	/>
<path class="st6" d="M424.3,51c0.8,1.1,1.3,2.3,2.6,3c1,0.5,2,0.4,3.1,0.4c1.2,0,2.4-0.2,3.6,0.1c0,5,0,10,0,15c0,2.8-1.1,4.4-3.4,5
	c-2.2,0.6-4-0.3-5.4-2.5c-0.1-0.2-0.3-0.3-0.4-0.4C424.3,64.7,424.3,57.9,424.3,51z"/>
<path class="st6" d="M433.6,45.3c-1,0.3-2.1,0.2-3.1,0.1c-2.9-0.4-4.9,0.8-6.1,3.4c0-6.8,0-13.7,0-20.5c0.9-1.4,2-2.5,3.5-3.2
	c0.7,0,1.5,0,2.2,0c2.7,1,3.6,3,3.5,5.9C433.4,35.8,433.5,40.6,433.6,45.3z"/>
<path class="st6" d="M466,48.4c-1.5-2.4-3.6-3.3-6.4-3c-0.9,0.1-1.9-0.1-2.8-0.1c0-4.7,0.2-9.4,0-14.1c-0.1-2.9,0.9-4.9,3.5-6.1
	c0.7,0,1.5,0,2.2,0c2.7,1.1,3.6,3,3.5,5.9C465.9,36.8,466,42.6,466,48.4z"/>
<path class="st6" d="M682.8,34.4c2.2-0.3,3.7-1.6,4.1-3.7c0.4-2-0.4-3.7-2.2-4.8c-0.3-0.2-0.5-0.4-0.4-0.7c0.2,0,0.4,0,0.6,0
	c0.1,0.1,0.2,0.3,0.3,0.3c9.8,1.9,14.7,13.3,8.9,21.9c-2.3-1.3-4.5-2.7-7.2-2.9c-1.8-0.1-3.6,0.1-5.5-0.3c1.1-0.3,2.2,0,3.2-0.6
	c1.7-0.9,2.9-2.9,2.6-4.8C687.1,36.5,685.6,35,682.8,34.4z"/>
<path class="st6" d="M427.8,25.2c-1.5,0.7-2.6,1.8-3.5,3.2c0-1.1-0.4-2.5,0.1-3s2-0.1,3-0.1C427.6,25.2,427.7,25.2,427.8,25.2z"/>
<path class="st6" d="M681.5,44.2c1.8,0.4,3.6,0.1,5.5,0.3c2.7,0.2,4.9,1.6,7.2,2.9c6.9,5.7,7.5,14.8,3,21c-3.1,4.2-7.2,6.3-12.4,6.3
	c-7.4-0.1-14.7-0.1-22.1,0c-3.3,0.1-5-2-4.9-5.8c1.2-2.5,3.2-3.6,6.1-3.3c1,0.1,2.1-0.1,3.1-0.1c5.6,0.2,11.1,0.2,16.7,0
	c0.8,0,1.7-0.1,2.5-0.3c2.8-0.6,4.8-3.3,4.7-6.1c-0.2-3-2.5-5.6-5.4-5.6c-6.1-0.1-12.3,0-18.4,0c-1-0.3-2-0.2-2.9-0.1
	c-2.9,0.2-5.1-0.7-6.3-3.5c0-0.7,0-1.5,0-2.2c1.1-2.7,3.2-3.6,6-3.3c1.1,0.1,2.2,0.2,3.2-0.2C671.8,44.3,676.6,44.4,681.5,44.2z"/>
<path class="st6" d="M567.5,68.9c1.2-2.5,3.1-3.7,5.9-3.4c1.1,0.1,2.2,0.2,3.3-0.1c6.3,0,12.6,0.1,18.9,0c3-0.1,4.9,2.2,5,4.5
	c0,2.7-2,4.7-5,4.7c-7.8,0-15.5,0-23.3,0C569.1,74.7,567.4,72.7,567.5,68.9z"/>
<path class="st6" d="M628.6,40.1c0.8-2.4,2.1-4.5,3.2-6.8c0.7-1.5,1.4-2.9,1.3-4.6c4.5,8.9,9.1,17.7,13.6,26.6
	c0.4,0.7,0.9,1.3,0.9,2.1c-2.8-1.3-5.8-0.5-8.8-0.8c-0.7-0.1-1.5,0.2-2.1-0.3C634,51,631.3,45.6,628.6,40.1z"/>
<path class="st6" d="M546.3,53.6c0.8-0.8,1.9-0.3,2.8-0.5c3.5-0.8,6.1-3,8.4-5.6c4.9,4,6.8,9.2,5.5,15.4c-1.3,6-5.3,9.7-11.2,11.4
	c-0.5,0.2-1.1,0.3-1.7,0.1c1-1.1,2.3-1.9,2.4-3.6c0.3-3-1.1-4.7-4.4-5.3c0.3-0.1,0.6-0.1,0.9-0.2c2.8-0.5,4.9-2.8,5-5.7
	c0.1-2.7-1.8-5.3-4.5-6C548.6,53.4,547.4,53.6,546.3,53.6z"/>
<path class="st6" d="M456.8,54.6c1-0.3,2.1-0.2,3.1-0.1c2.7,0.3,4.6-0.7,6.1-3c0,6.2,0,12.4,0,18.6c0,2.6-1.9,4.6-4.5,4.6
	c-2.6,0-4.6-1.9-4.6-4.5C456.8,64.9,456.8,59.7,456.8,54.6z"/>
<path class="st6" d="M657.7,49.9c1.2,2.8,3.4,3.6,6.3,3.5c1-0.1,2-0.2,2.9,0.1c0,4,0,8,0,12c-1,0-2.1,0.2-3.1,0.1
	c-2.8-0.3-4.8,0.7-6.1,3.3C657.7,62.6,657.7,56.2,657.7,49.9z"/>
<path class="st6" d="M666.9,44.3c-1.1,0.4-2.2,0.3-3.2,0.2c-2.8-0.3-4.9,0.6-6,3.3c0-5.6,0-11.2,0-16.7c1.2,2.6,3.2,3.7,6.1,3.3
	c1-0.1,2.1-0.2,3.1,0.1C666.9,37.7,666.9,41,666.9,44.3z"/>
<path class="st6" d="M641.6,65.8c0.9-0.6,1.8-0.2,2.7-0.3c3-0.1,4.5-1.5,4.5-4.6c0-0.4,0-0.8,0.1-1.3c1.4,2.7,2.8,5.4,4.1,8.1
	c1.2,2.5,0.4,5.2-1.9,6.3c-2.4,1.2-5,0.3-6.4-2.2C643.7,69.9,642.6,67.8,641.6,65.8z"/>
<path class="st6" d="M648,58.1c-0.2-0.1-0.4-0.3-0.3-0.6C647.9,57.6,648,57.8,648,58.1z"/>
<path class="st6" d="M546.3,53.6c1.2,0,2.3-0.2,3.4,0.1c2.7,0.7,4.6,3.3,4.5,6c-0.1,2.8-2.2,5.2-5,5.7c-0.3,0.1-0.6,0.1-0.9,0.2
	c-5.6,0-11.1,0-16.7,0c-0.6,0-1.4,0.3-1.4-0.8c0.1-3.8-0.2-7.5,0.1-11.3c5.1,0,10.1,0.1,15.2,0.1C545.8,53.6,546,53.6,546.3,53.6z"
	/>
<path class="st6" d="M530.4,44.3c-0.3-3-0.1-6.1-0.1-9.1c0-0.6,0.3-0.8,0.9-0.8c5.3,0.1,10.5-0.2,15.8,0.2c2.3,0.2,4.1,2.5,4,5
	c-0.1,2.4-2,4.4-4.4,4.5c-0.7,0-1.5,0-2.2,0.3C539.7,44.4,535,44.3,530.4,44.3z"/>
<path class="st6" d="M530.4,44.3c4.7,0,9.3,0.1,14,0.1c-1.5,1-2.9,2-2.9,4.1c0,2.6,1.1,4,3.6,4.7c0.2,0.1,0.3,0.2,0.5,0.3
	c-5.1,0-10.1-0.1-15.2-0.1C530.2,50.4,530.2,47.4,530.4,44.3z"/>
<path class="st6" d="M628.6,40.1c2.7,5.4,5.5,10.9,8.2,16.3c-2.8,0.3-5.5,0.1-8.3,0.1c-2.4,0-4.7,0-7.1,0c-0.5,0-1.4,0.1-0.9-0.9
	C623.2,50.5,625.6,45.2,628.6,40.1z"/>
<path class="st6" d="M666.9,44.3c0-3.3,0-6.6,0-9.8c4.7-0.3,9.3-0.1,14-0.1c0.6,0,1.3,0.1,1.9,0.1c2.8,0.6,4.3,2.1,4.6,4.5
	c0.2,1.9-0.9,3.9-2.6,4.8c-1,0.6-2.2,0.3-3.2,0.6C676.6,44.4,671.8,44.3,666.9,44.3z"/>
<path class="st6" d="M666.9,65.5c0-4,0-8,0-12c6.1,0,12.3,0,18.4,0c2.9,0,5.2,2.6,5.4,5.6c0.2,2.8-1.9,5.5-4.7,6.1
	c-0.8,0.2-1.7,0.3-2.5,0.3C678,65.6,672.5,65.7,666.9,65.5z"/>
<g>
	<path d="M612.9,127.1c2.6-2.6,5.8-3.9,9.8-3.9c5.3,0,9.2,1.8,11.7,5.3c1.4,2,2.1,4,2.2,6h-6.7c-0.4-1.5-1-2.7-1.6-3.5
		c-1.2-1.4-3-2.1-5.3-2.1c-2.4,0-4.3,1-5.6,2.9c-1.4,2-2.1,4.7-2.1,8.3s0.7,6.3,2.2,8c1.4,1.8,3.3,2.7,5.5,2.7c2.3,0,4-0.8,5.2-2.3
		c0.7-0.8,1.2-2.1,1.7-3.7h6.6c-0.6,3.5-2,6.3-4.4,8.5c-2.4,2.2-5.4,3.3-9,3.3c-4.5,0-8.1-1.5-10.7-4.4c-2.6-3-3.9-7-3.9-12.2
		C608.5,134.4,610,130.1,612.9,127.1z"/>
	<path d="M666.5,152.9c-2.4,2.5-5.9,3.7-10.5,3.7c-4.6,0-8.1-1.2-10.5-3.7c-3.2-3-4.9-7.4-4.9-13.2s1.6-10.2,4.9-13.2
		c2.4-2.5,5.9-3.7,10.5-3.7c4.6,0,8.1,1.2,10.5,3.7c3.2,2.9,4.8,7.3,4.8,13.2C671.3,145.4,669.7,149.8,666.5,152.9z M662.3,148
		c1.6-2,2.3-4.7,2.3-8.3s-0.8-6.4-2.3-8.3s-3.7-2.9-6.3-2.9c-2.6,0-4.8,1-6.3,2.9c-1.6,1.9-2.4,4.7-2.4,8.3s0.8,6.4,2.4,8.3
		c1.6,1.9,3.7,2.9,6.3,2.9C658.7,150.9,660.8,150,662.3,148z"/>
	<path d="M676.3,123.8h7l12.7,22.3v-22.3h6.2v31.9h-6.7l-13-22.7v22.7h-6.2V123.8z"/>
	<path d="M731.7,123.8v5.7h-9.6v26.3h-6.7v-26.3h-9.6v-5.7H731.7z"/>
	<path d="M759.2,129.4h-16.9v6.8h15.5v5.5h-15.5v8.2H760v5.7h-24.2v-31.9h23.4V129.4z"/>
	<path d="M770,145.9c0.2,1.5,0.6,2.5,1.2,3.3c1.1,1.3,3,2,5.7,2c1.6,0,2.9-0.2,3.9-0.5c1.9-0.7,2.9-1.9,2.9-3.7
		c0-1.1-0.5-1.9-1.4-2.4c-0.9-0.6-2.4-1.1-4.4-1.5l-3.5-0.8c-3.4-0.8-5.7-1.6-7-2.4c-2.2-1.5-3.2-3.8-3.2-6.9c0-2.9,1.1-5.2,3.2-7.1
		c2.1-1.9,5.2-2.8,9.3-2.8c3.4,0,6.3,0.9,8.7,2.7c2.4,1.8,3.7,4.4,3.8,7.8h-6.4c-0.1-1.9-1-3.3-2.6-4.1c-1.1-0.5-2.4-0.8-4-0.8
		c-1.8,0-3.2,0.3-4.2,1c-1.1,0.7-1.6,1.7-1.6,2.9c0,1.1,0.5,2,1.6,2.6c0.7,0.4,2.1,0.8,4.2,1.3l5.6,1.3c2.5,0.6,4.3,1.4,5.5,2.3
		c1.9,1.5,2.9,3.7,2.9,6.5c0,2.9-1.1,5.3-3.4,7.3c-2.3,1.9-5.4,2.9-9.6,2.9s-7.5-0.9-9.9-2.8c-2.4-1.9-3.6-4.5-3.6-7.8h6.3V145.9z"
		/>
	<path d="M818,123.8v5.7h-9.6v26.3h-6.7v-26.3h-9.6v-5.7H818z"/>
</g>
</svg>
