<?xml version="1.0" encoding="utf-8"?>
<!-- Generator: Adobe Illustrator 19.1.0, SVG Export Plug-In . SVG Version: 6.00 Build 0)  -->
<svg version="1.1" id="Calque_1" xmlns="http://www.w3.org/2000/svg" xmlns:xlink="http://www.w3.org/1999/xlink" x="0px" y="0px"
	 viewBox="-186 172.6 586 217.4" style="enable-background:new -186 172.6 586 217.4;" xml:space="preserve">
<style type="text/css">
	.st0{fill:none;stroke:#2C06E6;stroke-width:2;stroke-miterlimit:10;}
	.st1{fill:none;stroke:#231F20;stroke-width:5;stroke-miterlimit:10;}
	.st2{fill:#3736BC;}
	.st3{fill:#A400E8;}
	.st4{fill:#06FFD9;}
	.st5{fill:none;stroke:#06FFD9;stroke-width:2;stroke-miterlimit:10;}
	.st6{fill:none;stroke:#FA00E8;stroke-width:2;stroke-miterlimit:10;}
</style>
<g>
	<path class="st0" d="M47.2,257.6v11.2h-13v41.8H11.3l0.1-41.8H-2.1v-11.2H47.2z"/>
	<path class="st0" d="M62.7,284.1v26.4H51.3v-26.4H62.7z M105,284.1H93.7c0-3.7-1.2-7.1-3.6-10.1c-2.9-3.4-6.6-5.1-11.2-5.1H57
		v-11.3h21.5c7.3,0,13.5,2.6,18.7,7.7C102.4,270.4,105,276.7,105,284.1z M105,310.6l-27.2-26.4H63.5l27.2,26.4H105z"/>
	<path class="st0" d="M165,284.1c0,7.5-2.5,13.8-7.6,18.9c-5.1,5.1-11.4,7.6-18.9,7.6c-6,0-11.9-2.6-17.8-7.7
		c-5.8-5.1-8.8-11.4-8.8-18.8c0-7.5,2.6-13.7,7.7-18.8c5.1-5.1,11.4-7.6,18.9-7.6c7.3,0,13.5,2.6,18.7,7.7
		C162.4,270.4,165,276.7,165,284.1z M153.6,284.1c0-3.7-1.2-7.1-3.7-10.1c-2.9-3.4-6.6-5.1-11.2-5.1c-4,0-7.5,1.5-10.4,4.5
		c-2.9,3-4.4,6.6-4.4,10.7c0,3.5,1.2,6.8,3.7,9.8c2.9,3.6,6.6,5.4,11.1,5.4c4,0,7.5-1.5,10.5-4.4
		C152.2,291.9,153.6,288.3,153.6,284.1z"/>
	<path class="st0" d="M198.6,284h-16v26.5h-11.2v-53L198.6,284z M199.4,284.1h16v-26.5h11.2v53L199.4,284.1z"/>
</g>
<polyline id="Triangle_1_" class="st1" points="203.1,317.2 385.8,387.6 -183.1,387.6 -183.4,176.5 22.3,250.4 "/>
<path class="st2" d="M476.3,157.1c1-1.1,2.1-1.4,3.5-0.9C478.8,157.4,477.5,157,476.3,157.1z"/>
<g>
	<g>
		<path class="st3" d="M-140.7,350.5h10v33.2h-6.5v-22.4c0-0.6,0-1.5,0-2.7c0-1.2,0-2.1,0-2.7l-6.3,27.8h-6.7l-6.2-27.8
			c0,0.6,0,1.5,0,2.7c0,1.2,0,2.1,0,2.7v22.4h-6.5v-33.2h10.1l6,26.1L-140.7,350.5z"/>
		<path class="st3" d="M-114.8,350.5h7.8l11.7,33.2h-7.5l-2.2-6.8h-12.2l-2.2,6.8h-7.2L-114.8,350.5z M-115.3,371.1h8.5l-4.2-13
			L-115.3,371.1z"/>
		<path class="st3" d="M-68.8,369.3c-1.9,1.6-4.7,2.4-8.3,2.4H-84v11.9h-6.9v-33.2h14.2c3.3,0,5.9,0.9,7.8,2.6
			c2,1.7,2.9,4.4,2.9,7.9C-65.9,364.9-66.8,367.7-68.8,369.3z M-74.1,357.4c-0.9-0.7-2.1-1.1-3.7-1.1H-84v9.8h6.2
			c1.6,0,2.8-0.4,3.7-1.2s1.3-2.1,1.3-3.8S-73.2,358.1-74.1,357.4z"/>
		<path class="st3" d="M-38.1,369.3c-1.9,1.6-4.7,2.4-8.3,2.4h-6.9v11.9h-6.9v-33.2h14.2c3.3,0,5.9,0.9,7.8,2.6
			c2,1.7,2.9,4.4,2.9,7.9C-35.1,364.9-36.1,367.7-38.1,369.3z M-43.3,357.4c-0.9-0.7-2.1-1.1-3.7-1.1h-6.2v9.8h6.2
			c1.6,0,2.8-0.4,3.7-1.2s1.3-2.1,1.3-3.8S-42.5,358.1-43.3,357.4z"/>
		<path class="st3" d="M-23.3,383.7h-6.9v-33.2h6.9V383.7z"/>
		<path class="st3" d="M-16.9,350.5h7.3l13.2,23.1v-23.1H10v33.2H3l-13.5-23.5v23.5h-6.5V350.5z"/>
		<path class="st3" d="M38.8,360.9c-0.5-2.3-1.8-3.8-3.8-4.7c-1.1-0.5-2.4-0.7-3.8-0.7c-2.7,0-4.9,1-6.6,3c-1.7,2-2.6,5-2.6,9.1
			c0,4.1,0.9,6.9,2.8,8.6c1.9,1.7,4,2.5,6.3,2.5c2.3,0,4.2-0.7,5.7-2c1.5-1.3,2.4-3.1,2.7-5.2h-7.7v-5.5h13.8v17.8h-4.6l-0.7-4.1
			c-1.3,1.6-2.5,2.7-3.6,3.3c-1.8,1.1-4.1,1.7-6.7,1.7c-4.4,0-8-1.5-10.8-4.6c-2.9-3.1-4.4-7.2-4.4-12.5c0-5.4,1.5-9.7,4.4-12.9
			c3-3.2,6.9-4.9,11.7-4.9c4.2,0,7.6,1.1,10.2,3.2s4,4.8,4.4,8H38.8z"/>
	</g>
	<g>
		<path class="st4" d="M-142.3,351.5h10v33.2h-6.5v-22.4c0-0.6,0-1.5,0-2.7c0-1.2,0-2.1,0-2.7l-6.3,27.8h-6.7l-6.2-27.8
			c0,0.6,0,1.5,0,2.7s0,2.1,0,2.7v22.4h-6.5v-33.2h10.1l6,26.1L-142.3,351.5z"/>
		<path class="st4" d="M-116.4,351.5h7.8l11.7,33.2h-7.5l-2.2-6.8h-12.2l-2.2,6.8h-7.2L-116.4,351.5z M-116.9,372.2h8.5l-4.2-13
			L-116.9,372.2z"/>
		<path class="st4" d="M-70.4,370.3c-1.9,1.6-4.7,2.4-8.3,2.4h-6.9v11.9h-6.9v-33.2h14.2c3.3,0,5.9,0.9,7.8,2.6
			c2,1.7,2.9,4.4,2.9,7.9C-67.5,366-68.5,368.7-70.4,370.3z M-75.7,358.4c-0.9-0.7-2.1-1.1-3.7-1.1h-6.2v9.8h6.2
			c1.6,0,2.8-0.4,3.7-1.2c0.9-0.8,1.3-2.1,1.3-3.8S-74.8,359.1-75.7,358.4z"/>
		<path class="st4" d="M-39.7,370.3c-1.9,1.6-4.7,2.4-8.3,2.4h-6.9v11.9h-6.9v-33.2h14.2c3.3,0,5.9,0.9,7.8,2.6
			c2,1.7,2.9,4.4,2.9,7.9C-36.8,366-37.7,368.7-39.7,370.3z M-45,358.4c-0.9-0.7-2.1-1.1-3.7-1.1h-6.2v9.8h6.2
			c1.6,0,2.8-0.4,3.7-1.2c0.9-0.8,1.3-2.1,1.3-3.8S-44.1,359.1-45,358.4z"/>
		<path class="st4" d="M-24.9,384.7h-6.9v-33.2h6.9V384.7z"/>
		<path class="st4" d="M-18.5,351.5h7.3l13.2,23.1v-23.1h6.5v33.2H1.4l-13.5-23.5v23.5h-6.5V351.5z"/>
		<path class="st4" d="M37.1,361.9c-0.5-2.3-1.8-3.8-3.8-4.7c-1.1-0.5-2.4-0.7-3.8-0.7c-2.7,0-4.9,1-6.6,3c-1.7,2-2.6,5-2.6,9.1
			c0,4.1,0.9,6.9,2.8,8.6c1.9,1.7,4,2.5,6.3,2.5c2.3,0,4.2-0.7,5.7-2c1.5-1.3,2.4-3.1,2.7-5.2h-7.7v-5.5h13.8v17.8h-4.6l-0.7-4.1
			c-1.3,1.6-2.5,2.7-3.6,3.3c-1.8,1.1-4.1,1.7-6.7,1.7c-4.4,0-8-1.5-10.8-4.6c-2.9-3.1-4.4-7.2-4.4-12.5c0-5.4,1.5-9.7,4.4-12.9
			c3-3.2,6.9-4.9,11.7-4.9c4.2,0,7.6,1.1,10.2,3.2c2.6,2.1,4,4.8,4.4,8H37.1z"/>
	</g>
	<g>
		<path d="M-141.3,352.6h10v33.2h-6.5v-22.4c0-0.6,0-1.5,0-2.7c0-1.2,0-2.1,0-2.7l-6.3,27.8h-6.7l-6.2-27.8c0,0.6,0,1.5,0,2.7
			c0,1.2,0,2.1,0,2.7v22.4h-6.5v-33.2h10.1l6,26.1L-141.3,352.6z"/>
		<path d="M-115.4,352.6h7.8l11.7,33.2h-7.5l-2.2-6.8h-12.2l-2.2,6.8h-7.2L-115.4,352.6z M-115.9,373.2h8.5l-4.2-13L-115.9,373.2z"
			/>
		<path d="M-69.4,371.4c-1.9,1.6-4.7,2.4-8.3,2.4h-6.9v11.9h-6.9v-33.2h14.2c3.3,0,5.9,0.9,7.8,2.6c2,1.7,2.9,4.4,2.9,7.9
			C-66.5,367-67.5,369.8-69.4,371.4z M-74.7,359.5c-0.9-0.7-2.1-1.1-3.7-1.1h-6.2v9.8h6.2c1.6,0,2.8-0.4,3.7-1.2s1.3-2.1,1.3-3.8
			S-73.8,360.2-74.7,359.5z"/>
		<path d="M-38.7,371.4c-1.9,1.6-4.7,2.4-8.3,2.4h-6.9v11.9h-6.9v-33.2h14.2c3.3,0,5.9,0.9,7.8,2.6c2,1.7,2.9,4.4,2.9,7.9
			C-35.8,367-36.7,369.8-38.7,371.4z M-44,359.5c-0.9-0.7-2.1-1.1-3.7-1.1h-6.2v9.8h6.2c1.6,0,2.8-0.4,3.7-1.2s1.3-2.1,1.3-3.8
			S-43.1,360.2-44,359.5z"/>
		<path d="M-23.9,385.7h-6.9v-33.2h6.9V385.7z"/>
		<path d="M-17.5,352.6h7.3l13.2,23.1v-23.1h6.5v33.2H2.4l-13.5-23.5v23.5h-6.5V352.6z"/>
		<path d="M38.1,362.9c-0.5-2.3-1.8-3.8-3.8-4.7c-1.1-0.5-2.4-0.7-3.8-0.7c-2.7,0-4.9,1-6.6,3c-1.7,2-2.6,5-2.6,9.1
			c0,4.1,0.9,6.9,2.8,8.6c1.9,1.7,4,2.5,6.3,2.5c2.3,0,4.2-0.7,5.7-2c1.5-1.3,2.4-3.1,2.7-5.2h-7.7V368h13.8v17.8h-4.6l-0.7-4.1
			c-1.3,1.6-2.5,2.7-3.6,3.3c-1.8,1.1-4.1,1.7-6.7,1.7c-4.4,0-8-1.5-10.8-4.6c-2.9-3.1-4.4-7.2-4.4-12.5c0-5.4,1.5-9.7,4.4-12.9
			c3-3.2,6.9-4.9,11.7-4.9c4.2,0,7.6,1.1,10.2,3.2c2.6,2.1,4,4.8,4.4,8H38.1z"/>
	</g>
</g>
<g>
	<path class="st5" d="M50.3,262.2v11.2h-13v41.8H14.4l0.1-41.8H1v-11.2H50.3z"/>
	<path class="st5" d="M65.7,288.6v26.4H54.3v-26.4H65.7z M108,288.6H96.7c0-3.7-1.2-7.1-3.6-10.1c-2.9-3.4-6.6-5.1-11.2-5.1H60
		v-11.3h21.5c7.3,0,13.5,2.6,18.7,7.7C105.5,275,108,281.2,108,288.6z M108,315.1l-27.2-26.4H66.5l27.2,26.4H108z"/>
	<path class="st5" d="M168,288.6c0,7.5-2.5,13.8-7.6,18.9c-5.1,5.1-11.4,7.6-18.9,7.6c-6,0-11.9-2.6-17.8-7.7s-8.8-11.4-8.8-18.8
		c0-7.5,2.6-13.7,7.7-18.8c5.1-5.1,11.4-7.6,18.9-7.6c7.3,0,13.5,2.6,18.7,7.7C165.4,275,168,281.2,168,288.6z M156.6,288.6
		c0-3.7-1.2-7.1-3.7-10.1c-2.9-3.4-6.6-5.1-11.2-5.1c-4,0-7.5,1.5-10.4,4.5c-2.9,3-4.4,6.6-4.4,10.7c0,3.5,1.2,6.8,3.7,9.8
		c2.9,3.6,6.6,5.4,11.1,5.4c4,0,7.5-1.5,10.5-4.4C155.2,296.5,156.6,292.9,156.6,288.6z"/>
	<path class="st5" d="M201.6,288.6h-16v26.5h-11.2v-53L201.6,288.6z M202.5,288.6h16v-26.5h11.2v53L202.5,288.6z"/>
</g>
<g>
	<path class="st6" d="M51.4,258.8V270h-13v41.8H15.5l0.1-41.8H2.1v-11.2H51.4z"/>
	<path class="st6" d="M66.9,285.3v26.4H55.5v-26.4H66.9z M109.2,285.3H97.8c0-3.7-1.2-7.1-3.6-10.1c-2.9-3.4-6.6-5.1-11.2-5.1H61.1
		v-11.3h21.5c7.3,0,13.5,2.6,18.7,7.7C106.6,271.6,109.2,277.9,109.2,285.3z M109.2,311.8L82,285.3H67.7l27.2,26.4H109.2z"/>
	<path class="st6" d="M169.1,285.3c0,7.5-2.5,13.8-7.6,18.9c-5.1,5.1-11.4,7.6-18.9,7.6c-6,0-11.9-2.6-17.8-7.7
		c-5.8-5.1-8.8-11.4-8.8-18.8c0-7.5,2.6-13.7,7.7-18.8c5.1-5.1,11.4-7.6,18.9-7.6c7.3,0,13.5,2.6,18.7,7.7
		C166.5,271.6,169.1,277.9,169.1,285.3z M157.8,285.3c0-3.7-1.2-7.1-3.7-10.1c-2.9-3.4-6.6-5.1-11.2-5.1c-4,0-7.5,1.5-10.4,4.5
		c-2.9,3-4.4,6.6-4.4,10.7c0,3.5,1.2,6.8,3.7,9.8c2.9,3.6,6.6,5.4,11.1,5.4c4,0,7.5-1.5,10.5-4.4
		C156.3,293.1,157.8,289.5,157.8,285.3z"/>
	<path class="st6" d="M202.7,285.2h-16v26.5h-11.2v-53L202.7,285.2z M203.6,285.3h16v-26.5h11.2v53L203.6,285.3z"/>
</g>
</svg>
