<?xml version="1.0" encoding="utf-8"?>
<!-- Generator: Adobe Illustrator 19.1.0, SVG Export Plug-In . SVG Version: 6.00 Build 0)  -->
<svg version="1.1" id="Calque_1" xmlns="http://www.w3.org/2000/svg" xmlns:xlink="http://www.w3.org/1999/xlink" x="0px" y="0px"
	 viewBox="0 0 586 217.4" style="enable-background:new 0 0 586 217.4;" xml:space="preserve">
<style type="text/css">
	.st0{fill:#A400E8;}
	.st1{fill:#06FFD9;}
	.st2{fill:none;stroke:#2C06E6;stroke-width:2;stroke-miterlimit:10;}
	.st3{fill:none;stroke:#231F20;stroke-width:5;stroke-miterlimit:10;}
	.st4{fill:none;stroke:#06FFD9;stroke-width:2;stroke-miterlimit:10;}
	.st5{fill:#3736BC;}
	.st6{fill:none;stroke:#FA00E8;stroke-width:2;stroke-miterlimit:10;}
</style>
<g>
	<path class="st0" d="M20.3,183.9c2.6-2.6,5.8-3.9,9.8-3.9c5.3,0,9.2,1.8,11.7,5.3c1.4,2,2.1,4,2.2,6h-6.7c-0.4-1.5-1-2.7-1.6-3.5
		c-1.2-1.4-3-2.1-5.3-2.1c-2.4,0-4.3,1-5.6,2.9c-1.4,2-2.1,4.7-2.1,8.3s0.7,6.3,2.2,8c1.4,1.8,3.3,2.7,5.5,2.7c2.3,0,4-0.8,5.2-2.3
		c0.7-0.8,1.2-2.1,1.7-3.7h6.6c-0.6,3.5-2,6.3-4.4,8.5c-2.4,2.2-5.4,3.3-9,3.3c-4.5,0-8.1-1.5-10.7-4.4c-2.6-3-3.9-7-3.9-12.2
		C15.9,191.2,17.4,186.9,20.3,183.9z"/>
	<path class="st0" d="M73.9,209.6c-2.4,2.5-5.9,3.7-10.5,3.7c-4.6,0-8.1-1.2-10.5-3.7c-3.2-3-4.9-7.4-4.9-13.2
		c0-5.8,1.6-10.2,4.9-13.2c2.4-2.5,5.9-3.7,10.5-3.7c4.6,0,8.1,1.2,10.5,3.7c3.2,2.9,4.8,7.3,4.8,13.2
		C78.7,202.2,77.1,206.6,73.9,209.6z M69.7,204.8c1.6-2,2.3-4.7,2.3-8.3c0-3.6-0.8-6.4-2.3-8.3s-3.7-2.9-6.3-2.9
		c-2.6,0-4.8,1-6.3,2.9c-1.6,1.9-2.4,4.7-2.4,8.3c0,3.6,0.8,6.4,2.4,8.3c1.6,1.9,3.7,2.9,6.3,2.9C66.1,207.7,68.2,206.7,69.7,204.8z
		"/>
	<path class="st0" d="M83.7,180.5h7l12.7,22.3v-22.3h6.2v31.9h-6.7l-13-22.7v22.7h-6.2V180.5z"/>
	<path class="st0" d="M139.1,180.5v5.7h-9.6v26.3h-6.7v-26.3h-9.6v-5.7H139.1z"/>
	<path class="st0" d="M166.6,186.2h-16.9v6.8h15.5v5.5h-15.5v8.2h17.7v5.7h-24.2v-31.9h23.4V186.2z"/>
	<path class="st0" d="M177.4,202.6c0.2,1.5,0.6,2.5,1.2,3.3c1.1,1.3,3,2,5.7,2c1.6,0,2.9-0.2,3.9-0.5c1.9-0.7,2.9-1.9,2.9-3.7
		c0-1.1-0.5-1.9-1.4-2.4c-0.9-0.6-2.4-1.1-4.4-1.5l-3.5-0.8c-3.4-0.8-5.7-1.6-7-2.4c-2.2-1.5-3.2-3.8-3.2-6.9c0-2.9,1.1-5.2,3.2-7.1
		c2.1-1.9,5.2-2.8,9.3-2.8c3.4,0,6.3,0.9,8.7,2.7c2.4,1.8,3.7,4.4,3.8,7.8h-6.4c-0.1-1.9-1-3.3-2.6-4.1c-1.1-0.5-2.4-0.8-4-0.8
		c-1.8,0-3.2,0.3-4.2,1c-1.1,0.7-1.6,1.7-1.6,2.9c0,1.1,0.5,2,1.6,2.6c0.7,0.4,2.1,0.8,4.2,1.3l5.6,1.3c2.5,0.6,4.3,1.4,5.5,2.3
		c1.9,1.5,2.9,3.7,2.9,6.5c0,2.9-1.1,5.3-3.4,7.3c-2.3,1.9-5.4,2.9-9.6,2.9c-4.2,0-7.5-0.9-9.9-2.8c-2.4-1.9-3.6-4.5-3.6-7.8H177.4z
		"/>
	<path class="st0" d="M225.4,180.5v5.7h-9.6v26.3h-6.7v-26.3h-9.6v-5.7H225.4z"/>
</g>
<g>
	<path class="st1" d="M17.7,184.7c2.6-2.6,5.8-3.9,9.8-3.9c5.3,0,9.2,1.8,11.7,5.3c1.4,2,2.1,4,2.2,6h-6.7c-0.4-1.5-1-2.7-1.6-3.5
		c-1.2-1.4-3-2.1-5.3-2.1c-2.4,0-4.3,1-5.6,2.9c-1.4,2-2.1,4.7-2.1,8.3s0.7,6.3,2.2,8c1.4,1.8,3.3,2.7,5.5,2.7c2.3,0,4-0.8,5.2-2.3
		c0.7-0.8,1.2-2.1,1.7-3.7h6.6c-0.6,3.5-2,6.3-4.4,8.5c-2.4,2.2-5.4,3.3-9,3.3c-4.5,0-8.1-1.5-10.7-4.4c-2.6-3-3.9-7-3.9-12.2
		C13.3,192,14.8,187.7,17.7,184.7z"/>
	<path class="st1" d="M71.3,210.5c-2.4,2.5-5.9,3.7-10.5,3.7c-4.6,0-8.1-1.2-10.5-3.7c-3.2-3-4.9-7.4-4.9-13.2
		c0-5.8,1.6-10.2,4.9-13.2c2.4-2.5,5.9-3.7,10.5-3.7c4.6,0,8.1,1.2,10.5,3.7c3.2,2.9,4.8,7.3,4.8,13.2
		C76.1,203,74.5,207.4,71.3,210.5z M67.1,205.6c1.6-2,2.3-4.7,2.3-8.3c0-3.6-0.8-6.4-2.3-8.3s-3.7-2.9-6.3-2.9c-2.6,0-4.8,1-6.3,2.9
		c-1.6,1.9-2.4,4.7-2.4,8.3c0,3.6,0.8,6.4,2.4,8.3c1.6,1.9,3.7,2.9,6.3,2.9C63.5,208.5,65.6,207.6,67.1,205.6z"/>
	<path class="st1" d="M81.1,181.4h7l12.7,22.3v-22.3h6.2v31.9h-6.7l-13-22.7v22.7h-6.2V181.4z"/>
	<path class="st1" d="M136.5,181.4v5.7h-9.6v26.3h-6.7V187h-9.6v-5.7H136.5z"/>
	<path class="st1" d="M164,187h-16.9v6.8h15.5v5.5h-15.5v8.2h17.7v5.7h-24.2v-31.9H164V187z"/>
	<path class="st1" d="M174.8,203.4c0.2,1.5,0.6,2.5,1.2,3.3c1.1,1.3,3,2,5.7,2c1.6,0,2.9-0.2,3.9-0.5c1.9-0.7,2.9-1.9,2.9-3.7
		c0-1.1-0.5-1.9-1.4-2.4c-0.9-0.6-2.4-1.1-4.4-1.5l-3.5-0.8c-3.4-0.8-5.7-1.6-7-2.4c-2.2-1.5-3.2-3.8-3.2-6.9c0-2.9,1.1-5.2,3.2-7.1
		c2.1-1.9,5.2-2.8,9.3-2.8c3.4,0,6.3,0.9,8.7,2.7c2.4,1.8,3.7,4.4,3.8,7.8h-6.4c-0.1-1.9-1-3.3-2.6-4.1c-1.1-0.5-2.4-0.8-4-0.8
		c-1.8,0-3.2,0.3-4.2,1c-1.1,0.7-1.6,1.7-1.6,2.9c0,1.1,0.5,2,1.6,2.6c0.7,0.4,2.1,0.8,4.2,1.3l5.6,1.3c2.5,0.6,4.3,1.4,5.5,2.3
		c1.9,1.5,2.9,3.7,2.9,6.5c0,2.9-1.1,5.3-3.4,7.3c-2.3,1.9-5.4,2.9-9.6,2.9c-4.2,0-7.5-0.9-9.9-2.8c-2.4-1.9-3.6-4.5-3.6-7.8H174.8z
		"/>
	<path class="st1" d="M222.8,181.4v5.7h-9.6v26.3h-6.7V187h-9.6v-5.7H222.8z"/>
</g>
<g>
	<path class="st2" d="M303.3,136.5c-0.6,0.2-1.1,0.3-1.7,0.3c-7.4,0-14.8,0-22.2,0c-2.6,0-4.5-2.1-4.5-4.9c0-12.5,0.1-24.9,0.1-37.4
		c0-0.3,0-0.8-0.1-1.1c-0.3-2.7,0.6-4.8,3.2-6.2h24c0.1,0.6,0.7,0.4,1,0.5c9.3,2.6,13.4,12.4,8.7,20.8c-0.2,0.3-0.3,0.7-0.4,1
		c-2.3,2.6-4.9,4.8-8.4,5.6c-0.9,0.2-2-0.3-2.8,0.5c-0.2,0-0.5,0-0.7,0c-0.2-0.1-0.3-0.3-0.5-0.3c-2.6-0.7-3.6-2.2-3.6-4.7
		c0-2.1,1.5-3.1,2.9-4.1c0.7-0.3,1.4-0.2,2.2-0.3c2.4-0.1,4.3-2.1,4.4-4.5c0.1-2.5-1.7-4.9-4-5c-5.2-0.3-10.5-0.1-15.8-0.2
		c-0.6,0-0.9,0.2-0.9,0.8c0.1,3-0.2,6.1,0.1,9.1c-0.2,3.1-0.2,6.1,0,9.2c-0.3,3.8-0.1,7.5-0.1,11.3c0,1.1,0.8,0.8,1.4,0.8
		c5.6,0,11.1,0,16.7,0c3.2,0.6,4.6,2.3,4.4,5.3c-0.1,1.7-0.3,1.4-1.3,2.4l-1.2,1.1C303.7,136.5,303.5,136.5,303.3,136.5z"/>
	<path class="st2" d="M383.4,87.4c1.7,0.7,3,1.7,3.5,3.6c0.1,1.7-0.6,3.1-1.3,4.6c-1.1,2.2-2.5,4.4-3.2,6.8c-3,5-5.4,10.4-8.1,15.6
		c-0.5,1,0.4,0.9,0.9,0.9c2.4,0,4.7,0,7.1,0c2.8,0,5.5,0.2,8.3-0.1c0.6,0.6,1.4,0.3,2.1,0.3c2.9,0.2,5.9-0.6,8.8,0.8c0,0,0,0,0,0
		c-0.1,0.3,0.1,0.5,0.3,0.6c0.5,0.4,0.7,1,0.9,1.6c0,0.4-0.1,0.8-0.1,1.3c0,3-1.5,4.5-4.5,4.6c-0.9,0-1.9-0.3-2.7,0.3
		c-7.7,0-15.5,0.1-23.2-0.1c-2.3-0.1-3.7,0.6-4.5,2.8c-0.4,1.2-1.1,2.3-1.7,3.4c-1.4,2.6-4,3.5-6.3,2.2c-2.3-1.2-3-3.8-1.7-6.4
		c4.5-9,9.1-17.9,13.7-26.9c2.2-4.3,4.3-8.5,6.4-12.8c0.7-1.4,1.9-2.2,3.2-2.8C381.9,87.4,382.6,87.4,383.4,87.4z"/>
	<path class="st2" d="M251.9,119.3c0,4.3-0.1,8.5,0,12.8c0.1,2.9-2.3,4.8-4.5,4.8c-2.6,0-4.6-2-4.7-4.7c-0.1-3.9,0-7.8,0-11.7
		c0-1.1-0.3-1.9-0.9-2.7c-5.2-7.1-10.5-14.3-15.7-21.5c-3.1-4.2-2.8-6,1.4-8.9c0.7,0,1.5,0,2.2,0c2,0.9,3.1,2.7,4.3,4.3
		c3.1,4.2,6.1,8.5,9.3,12.7c1.3,1.8,2.5,3.8,4.1,5.3c0.4,1,1.2,1.8,1.8,2.7C250.8,114.5,252.5,116.5,251.9,119.3z"/>
	<path class="st2" d="M321.3,131.1c0-13,0-26,0-38.9c0-2.5,1.5-3.8,3.5-4.8c0.7,0,1.5,0,2.2,0c2.7,1.1,3.6,3,3.5,5.9
		c-0.1,11.5,0,22.9,0,34.4c-1.1,0.3-2.2,0.3-3.3,0.1C324.3,127.4,322.4,128.6,321.3,131.1z"/>
	<path class="st2" d="M187.3,107.5c7.7,0,15.5,0,23.2,0c0.9,0,1.9,0.2,2.8,0.1c2.8-0.3,4.9,0.5,6.4,3c0,1,0,2.1,0,3.1
		c-1.4,2.2-3.3,3.3-6.1,3c-1-0.1-2.1-0.2-3.1,0.1c-7.7,0-15.5,0-23.2,0c-1.2-0.3-2.4-0.1-3.6-0.1c-1,0-2.1,0-3.1-0.4
		c-1.3-0.6-1.8-1.9-2.6-3c0-0.7,0-1.5,0-2.2c1.2-2.6,3.2-3.8,6.1-3.4C185.2,107.7,186.2,107.8,187.3,107.5z"/>
	<path class="st2" d="M247.4,109.7c4.7-6.4,9.4-12.9,14.1-19.3c1-1.3,2-2.5,3.6-3c0.7,0,1.5,0,2.2,0c3,1.8,3.8,3.3,3.2,5.9
		c-0.2,0.9-0.7,1.5-1.2,2.2c-5.8,8-11.6,15.9-17.4,23.9c0.5-2.8-1.2-4.8-2.7-6.9C248.6,111.6,247.8,110.8,247.4,109.7z"/>
	<path class="st2" d="M411.5,93.2c-0.5-2.8,0.9-4.5,3.1-5.8c7.8,0,15.6,0,23.3,0c0,0.4,0.1,0.6,0.4,0.7c1.8,1.1,2.6,2.7,2.2,4.8
		c-0.4,2.2-1.9,3.4-4.1,3.7c-0.6,0-1.3-0.1-1.9-0.1c-4.7-0.1-9.3-0.2-14,0.1c-1-0.3-2.1-0.2-3.1-0.1
		C414.7,96.9,412.7,95.8,411.5,93.2z"/>
	<path class="st2" d="M178,113.2c0.8,1.1,1.3,2.3,2.6,3c1,0.5,2,0.4,3.1,0.4c1.2,0,2.4-0.2,3.6,0.1c0,5,0,10,0,15
		c0,2.8-1.1,4.4-3.4,5c-2.2,0.6-4-0.3-5.4-2.5c-0.1-0.2-0.3-0.3-0.4-0.4C178,126.9,178,120.1,178,113.2z"/>
	<path class="st2" d="M187.3,107.5c-1,0.3-2.1,0.2-3.1,0.1c-2.9-0.4-4.9,0.8-6.1,3.4c0-6.8,0-13.7,0-20.5c0.9-1.4,2-2.5,3.5-3.2
		c0.7,0,1.5,0,2.2,0c2.7,1,3.6,3,3.5,5.9C187.1,98,187.2,102.7,187.3,107.5z"/>
	<path class="st2" d="M219.7,110.6c-1.5-2.4-3.6-3.3-6.4-3c-0.9,0.1-1.9-0.1-2.8-0.1c0-4.7,0.2-9.4,0-14.1c-0.1-2.9,0.9-4.9,3.5-6.1
		c0.7,0,1.5,0,2.2,0c2.7,1.1,3.6,3,3.5,5.9C219.6,99,219.7,104.8,219.7,110.6z"/>
	<path class="st2" d="M436.5,96.6c2.2-0.3,3.7-1.6,4.1-3.7c0.4-2-0.4-3.7-2.2-4.8c-0.3-0.2-0.5-0.4-0.4-0.7c0.2,0,0.4,0,0.6,0
		c0.1,0.1,0.2,0.3,0.3,0.3c9.8,1.9,14.7,13.3,8.9,21.9c-2.3-1.3-4.5-2.7-7.2-2.9c-1.8-0.1-3.6,0.1-5.5-0.3c1.1-0.3,2.2,0,3.2-0.6
		c1.7-0.9,2.9-2.9,2.6-4.8C440.8,98.7,439.3,97.2,436.5,96.6z"/>
	<path class="st2" d="M181.5,87.4c-1.5,0.7-2.6,1.8-3.5,3.2c0-1.1-0.4-2.5,0.1-3c0.5-0.5,2-0.1,3-0.1
		C181.3,87.4,181.4,87.4,181.5,87.4z"/>
	<path class="st2" d="M435.2,106.4c1.8,0.4,3.6,0.1,5.5,0.3c2.7,0.2,4.9,1.6,7.2,2.9c6.9,5.7,7.5,14.8,3,21
		c-3.1,4.2-7.2,6.3-12.4,6.3c-7.4-0.1-14.7-0.1-22.1,0c-3.3,0.1-5-2-4.9-5.8c1.2-2.5,3.2-3.6,6.1-3.3c1,0.1,2.1-0.1,3.1-0.1
		c5.6,0.2,11.1,0.2,16.7,0c0.8,0,1.7-0.1,2.5-0.3c2.8-0.6,4.8-3.3,4.7-6.1c-0.2-3-2.5-5.6-5.4-5.6c-6.1-0.1-12.3,0-18.4,0
		c-1-0.3-2-0.2-2.9-0.1c-2.9,0.2-5.1-0.7-6.3-3.5c0-0.7,0-1.5,0-2.2c1.1-2.7,3.2-3.6,6-3.3c1.1,0.1,2.2,0.2,3.2-0.2
		C425.5,106.5,430.4,106.6,435.2,106.4z"/>
	<path class="st2" d="M321.3,131.1c1.2-2.5,3.1-3.7,5.9-3.4c1.1,0.1,2.2,0.2,3.3-0.1c6.3,0,12.6,0.1,18.9,0c3-0.1,4.9,2.2,5,4.5
		c0,2.7-2,4.7-5,4.7c-7.8,0-15.5,0-23.3,0C322.8,136.9,321.1,134.8,321.3,131.1z"/>
	<path class="st2" d="M382.3,102.3c0.8-2.4,2.1-4.5,3.2-6.8c0.7-1.5,1.4-2.9,1.3-4.6c4.5,8.9,9.1,17.7,13.6,26.6
		c0.4,0.7,0.9,1.3,0.9,2.1c-2.8-1.3-5.8-0.5-8.8-0.8c-0.7-0.1-1.5,0.2-2.1-0.3C387.8,113.2,385,107.7,382.3,102.3z"/>
	<path class="st2" d="M300,115.7c0.8-0.8,1.9-0.3,2.8-0.5c3.5-0.8,6.1-3,8.4-5.6c4.9,4,6.8,9.2,5.5,15.4c-1.3,6-5.3,9.7-11.2,11.4
		c-0.5,0.2-1.1,0.3-1.7,0.1c1-1.1,2.3-1.9,2.4-3.6c0.3-3-1.1-4.7-4.4-5.3c0.3-0.1,0.6-0.1,0.9-0.2c2.8-0.5,4.9-2.8,5-5.7
		c0.1-2.7-1.8-5.3-4.5-6C302.3,115.6,301.1,115.8,300,115.7z"/>
	<path class="st2" d="M210.5,116.7c1-0.3,2.1-0.2,3.1-0.1c2.7,0.3,4.6-0.7,6.1-3c0,6.2,0,12.4,0,18.6c0,2.6-1.9,4.6-4.5,4.6
		c-2.6,0-4.6-1.9-4.6-4.5C210.5,127.1,210.5,121.9,210.5,116.7z"/>
	<path class="st2" d="M411.5,112.1c1.2,2.8,3.4,3.6,6.3,3.5c1-0.1,2-0.2,2.9,0.1c0,4,0,8,0,12c-1,0-2.1,0.2-3.1,0.1
		c-2.8-0.3-4.8,0.7-6.1,3.3C411.5,124.7,411.5,118.4,411.5,112.1z"/>
	<path class="st2" d="M420.7,106.4c-1.1,0.4-2.2,0.3-3.2,0.2c-2.8-0.3-4.9,0.6-6,3.3c0-5.6,0-11.2,0-16.7c1.2,2.6,3.2,3.7,6.1,3.3
		c1-0.1,2.1-0.2,3.1,0.1C420.6,99.9,420.6,103.2,420.7,106.4z"/>
	<path class="st2" d="M395.3,128c0.9-0.6,1.8-0.2,2.7-0.3c3-0.1,4.5-1.5,4.5-4.6c0-0.4,0-0.8,0.1-1.3c1.4,2.7,2.8,5.4,4.1,8.1
		c1.2,2.5,0.4,5.2-1.9,6.3c-2.4,1.2-5,0.3-6.4-2.2C397.4,132.1,396.4,130,395.3,128z"/>
	<path class="st2" d="M401.7,120.3c-0.2-0.1-0.4-0.3-0.3-0.6C401.6,119.8,401.7,120,401.7,120.3z"/>
	<path class="st2" d="M300,115.7c1.2,0,2.3-0.2,3.4,0.1c2.7,0.7,4.6,3.3,4.5,6c-0.1,2.8-2.2,5.2-5,5.7c-0.3,0.1-0.6,0.1-0.9,0.2
		c-5.6,0-11.1,0-16.7,0c-0.6,0-1.4,0.3-1.4-0.8c0.1-3.8-0.2-7.5,0.1-11.3c5.1,0,10.1,0.1,15.2,0.1
		C299.5,115.7,299.8,115.7,300,115.7z"/>
	<path class="st2" d="M284.1,106.5c-0.3-3-0.1-6.1-0.1-9.1c0-0.6,0.3-0.8,0.9-0.8c5.3,0.1,10.5-0.2,15.8,0.2c2.3,0.2,4.1,2.5,4,5
		c-0.1,2.4-2,4.4-4.4,4.5c-0.7,0-1.5,0-2.2,0.3C293.4,106.5,288.8,106.5,284.1,106.5z"/>
	<path class="st2" d="M284.1,106.5c4.7,0,9.3,0.1,14,0.1c-1.5,1-2.9,2-2.9,4.1c0,2.6,1.1,4,3.6,4.7c0.2,0.1,0.3,0.2,0.5,0.3
		c-5.1,0-10.1-0.1-15.2-0.1C283.9,112.6,283.9,109.5,284.1,106.5z"/>
	<path class="st2" d="M382.3,102.3c2.7,5.4,5.5,10.9,8.2,16.3c-2.8,0.3-5.5,0.1-8.3,0.1c-2.4,0-4.7,0-7.1,0c-0.5,0-1.4,0.1-0.9-0.9
		C376.9,112.7,379.3,107.3,382.3,102.3z"/>
	<path class="st2" d="M420.7,106.4c0-3.3,0-6.6,0-9.8c4.7-0.3,9.3-0.1,14-0.1c0.6,0,1.3,0.1,1.9,0.1c2.8,0.6,4.3,2.1,4.6,4.5
		c0.2,1.9-0.9,3.9-2.6,4.8c-1,0.6-2.2,0.3-3.2,0.6C430.4,106.6,425.5,106.5,420.7,106.4z"/>
	<path class="st2" d="M420.6,127.7c0-4,0-8,0-12c6.1,0,12.3,0,18.4,0c2.9,0,5.2,2.6,5.4,5.6c0.2,2.8-1.9,5.5-4.7,6.1
		c-0.8,0.2-1.7,0.3-2.5,0.3C431.7,127.8,426.2,127.9,420.6,127.7z"/>
</g>
<polyline id="Triangle_1_" class="st3" points="389.1,144.6 571.8,215 2.9,215 2.6,3.9 208.3,77.8 "/>
<path class="st4" d="M310,137.3c-0.6,0.2-1.1,0.3-1.7,0.3c-7.4,0-14.8,0-22.2,0c-2.6,0-4.5-2.1-4.5-4.9c0-12.5,0.1-24.9,0.1-37.4
	c0-0.3,0-0.8-0.1-1.1c-0.3-2.7,0.6-4.8,3.2-6.2h24c0.1,0.6,0.7,0.4,1,0.5c9.3,2.6,13.4,12.4,8.7,20.8c-0.2,0.3-0.3,0.7-0.4,1
	c-2.3,2.6-4.9,4.8-8.4,5.6c-0.9,0.2-2-0.3-2.8,0.5c-0.2,0-0.5,0-0.7,0c-0.2-0.1-0.3-0.3-0.5-0.3c-2.6-0.7-3.6-2.2-3.6-4.7
	c0-2.1,1.5-3.1,2.9-4.1c0.7-0.3,1.4-0.2,2.2-0.3c2.4-0.1,4.3-2.1,4.4-4.5c0.1-2.5-1.7-4.9-4-5c-5.2-0.3-10.5-0.1-15.8-0.2
	c-0.6,0-0.9,0.2-0.9,0.8c0.1,3-0.2,6.1,0.1,9.1c-0.2,3.1-0.2,6.1,0,9.2c-0.3,3.8-0.1,7.5-0.1,11.3c0,1.1,0.8,0.8,1.4,0.8
	c5.6,0,11.1,0,16.7,0c3.2,0.6,4.6,2.3,4.4,5.3c-0.1,1.7-0.3,1.4-1.3,2.4l-1.2,1.1C310.4,137.3,310.2,137.3,310,137.3z"/>
<path class="st4" d="M390.1,88.1c1.7,0.7,3,1.7,3.5,3.6c0.1,1.7-0.6,3.1-1.3,4.6c-1.1,2.2-2.5,4.4-3.2,6.8c-3,5-5.4,10.4-8.1,15.6
	c-0.5,1,0.4,0.9,0.9,0.9c2.4,0,4.7,0,7.1,0c2.8,0,5.5,0.2,8.3-0.1c0.6,0.6,1.4,0.3,2.1,0.3c2.9,0.2,5.9-0.6,8.8,0.8c0,0,0,0,0,0
	c-0.1,0.3,0.1,0.5,0.3,0.6c0.5,0.4,0.7,1,0.9,1.6c0,0.4-0.1,0.8-0.1,1.3c0,3-1.5,4.5-4.5,4.6c-0.9,0-1.9-0.3-2.7,0.3
	c-7.7,0-15.5,0.1-23.2-0.1c-2.3-0.1-3.7,0.6-4.5,2.8c-0.4,1.2-1.1,2.3-1.7,3.4c-1.4,2.6-4,3.5-6.3,2.2c-2.3-1.2-3-3.8-1.7-6.4
	c4.5-9,9.1-17.9,13.7-26.9c2.2-4.3,4.3-8.5,6.4-12.8c0.7-1.4,1.9-2.2,3.2-2.8C388.6,88.1,389.4,88.1,390.1,88.1z"/>
<path class="st4" d="M258.7,120.1c0,4.3-0.1,8.5,0,12.8c0.1,2.9-2.3,4.8-4.5,4.8c-2.6,0-4.6-2-4.7-4.7c-0.1-3.9,0-7.8,0-11.7
	c0-1.1-0.3-1.9-0.9-2.7c-5.2-7.1-10.5-14.3-15.7-21.5c-3.1-4.2-2.8-6,1.4-8.9c0.7,0,1.5,0,2.2,0c2,0.9,3.1,2.7,4.3,4.3
	c3.1,4.2,6.1,8.5,9.3,12.7c1.3,1.8,2.5,3.8,4.1,5.3c0.4,1,1.2,1.8,1.8,2.7C257.5,115.3,259.2,117.2,258.7,120.1z"/>
<path class="st4" d="M328,131.9c0-13,0-26,0-38.9c0-2.5,1.5-3.8,3.5-4.8c0.7,0,1.5,0,2.2,0c2.7,1.1,3.6,3,3.5,5.9
	c-0.1,11.5,0,22.9,0,34.4c-1.1,0.3-2.2,0.3-3.3,0.1C331,128.2,329.1,129.3,328,131.9z"/>
<path class="st4" d="M194,108.3c7.7,0,15.5,0,23.2,0c0.9,0,1.9,0.2,2.8,0.1c2.8-0.3,4.9,0.5,6.4,3c0,1,0,2.1,0,3.1
	c-1.4,2.2-3.3,3.3-6.1,3c-1-0.1-2.1-0.2-3.1,0.1c-7.7,0-15.5,0-23.2,0c-1.2-0.3-2.4-0.1-3.6-0.1c-1,0-2.1,0-3.1-0.4
	c-1.3-0.6-1.8-1.9-2.6-3c0-0.7,0-1.5,0-2.2c1.2-2.6,3.2-3.8,6.1-3.4C191.9,108.5,192.9,108.5,194,108.3z"/>
<path class="st4" d="M254.1,110.5c4.7-6.4,9.4-12.9,14.1-19.3c1-1.3,2-2.5,3.6-3c0.7,0,1.5,0,2.2,0c3,1.8,3.8,3.3,3.2,5.9
	c-0.2,0.9-0.7,1.5-1.2,2.2c-5.8,8-11.6,15.9-17.4,23.9c0.5-2.8-1.2-4.8-2.7-6.9C255.3,112.3,254.5,111.5,254.1,110.5z"/>
<path class="st4" d="M418.2,94c-0.5-2.8,0.9-4.5,3.1-5.8c7.8,0,15.6,0,23.3,0c0,0.4,0.1,0.6,0.4,0.7c1.8,1.1,2.6,2.7,2.2,4.8
	c-0.4,2.2-1.9,3.4-4.1,3.7c-0.6,0-1.3-0.1-1.9-0.1c-4.7-0.1-9.3-0.2-14,0.1c-1-0.3-2.1-0.2-3.1-0.1C421.4,97.6,419.4,96.5,418.2,94z
	"/>
<path class="st4" d="M184.8,114c0.8,1.1,1.3,2.3,2.6,3c1,0.5,2,0.4,3.1,0.4c1.2,0,2.4-0.2,3.6,0.1c0,5,0,10,0,15
	c0,2.8-1.1,4.4-3.4,5c-2.2,0.6-4-0.3-5.4-2.5c-0.1-0.2-0.3-0.3-0.4-0.4C184.8,127.7,184.8,120.8,184.8,114z"/>
<path class="st4" d="M194,108.3c-1,0.3-2.1,0.2-3.1,0.1c-2.9-0.4-4.9,0.8-6.1,3.4c0-6.8,0-13.7,0-20.5c0.9-1.4,2-2.5,3.5-3.2
	c0.7,0,1.5,0,2.2,0c2.7,1,3.6,3,3.5,5.9C193.8,98.7,194,103.5,194,108.3z"/>
<path class="st4" d="M226.4,111.3c-1.5-2.4-3.6-3.3-6.4-3c-0.9,0.1-1.9-0.1-2.8-0.1c0-4.7,0.2-9.4,0-14.1c-0.1-2.9,0.9-4.9,3.5-6.1
	c0.7,0,1.5,0,2.2,0c2.7,1.1,3.6,3,3.5,5.9C226.3,99.8,226.4,105.6,226.4,111.3z"/>
<path class="st4" d="M443.2,97.4c2.2-0.3,3.7-1.6,4.1-3.7c0.4-2-0.4-3.7-2.2-4.8c-0.3-0.2-0.5-0.4-0.4-0.7c0.2,0,0.4,0,0.6,0
	c0.1,0.1,0.2,0.3,0.3,0.3c9.8,1.9,14.7,13.3,8.9,21.9c-2.3-1.3-4.5-2.7-7.2-2.9c-1.8-0.1-3.6,0.1-5.5-0.3c1.1-0.3,2.2,0,3.2-0.6
	c1.7-0.9,2.9-2.9,2.6-4.8C447.5,99.5,446,98,443.2,97.4z"/>
<path class="st4" d="M188.2,88.1c-1.5,0.7-2.6,1.8-3.5,3.2c0-1.1-0.4-2.5,0.1-3c0.5-0.5,2-0.1,3-0.1C188,88.1,188.1,88.1,188.2,88.1
	z"/>
<path class="st4" d="M441.9,107.2c1.8,0.4,3.6,0.1,5.5,0.3c2.7,0.2,4.9,1.6,7.2,2.9c6.9,5.7,7.5,14.8,3,21
	c-3.1,4.2-7.2,6.3-12.4,6.3c-7.4-0.1-14.7-0.1-22.1,0c-3.3,0.1-5-2-4.9-5.8c1.2-2.5,3.2-3.6,6.1-3.3c1,0.1,2.1-0.1,3.1-0.1
	c5.6,0.2,11.1,0.2,16.7,0c0.8,0,1.7-0.1,2.5-0.3c2.8-0.6,4.8-3.3,4.7-6.1c-0.2-3-2.5-5.6-5.4-5.6c-6.1-0.1-12.3,0-18.4,0
	c-1-0.3-2-0.2-2.9-0.1c-2.9,0.2-5.1-0.7-6.3-3.5c0-0.7,0-1.5,0-2.2c1.1-2.7,3.2-3.6,6-3.3c1.1,0.1,2.2,0.2,3.2-0.2
	C432.2,107.3,437.1,107.3,441.9,107.2z"/>
<path class="st4" d="M328,131.9c1.2-2.5,3.1-3.7,5.9-3.4c1.1,0.1,2.2,0.2,3.3-0.1c6.3,0,12.6,0.1,18.9,0c3-0.1,4.9,2.2,5,4.5
	c0,2.7-2,4.7-5,4.7c-7.8,0-15.5,0-23.3,0C329.5,137.7,327.8,135.6,328,131.9z"/>
<path class="st4" d="M389,103.1c0.8-2.4,2.1-4.5,3.2-6.8c0.7-1.5,1.4-2.9,1.3-4.6c4.5,8.9,9.1,17.7,13.6,26.6
	c0.4,0.7,0.9,1.3,0.9,2.1c-2.8-1.3-5.8-0.5-8.8-0.8c-0.7-0.1-1.5,0.2-2.1-0.3C394.5,113.9,391.7,108.5,389,103.1z"/>
<path class="st4" d="M306.7,116.5c0.8-0.8,1.9-0.3,2.8-0.5c3.5-0.8,6.1-3,8.4-5.6c4.9,4,6.8,9.2,5.5,15.4c-1.3,6-5.3,9.7-11.2,11.4
	c-0.5,0.2-1.1,0.3-1.7,0.1c1-1.1,2.3-1.9,2.4-3.6c0.3-3-1.1-4.7-4.4-5.3c0.3-0.1,0.6-0.1,0.9-0.2c2.8-0.5,4.9-2.8,5-5.7
	c0.1-2.7-1.8-5.3-4.5-6C309,116.3,307.9,116.5,306.7,116.5z"/>
<path class="st4" d="M217.2,117.5c1-0.3,2.1-0.2,3.1-0.1c2.7,0.3,4.6-0.7,6.1-3c0,6.2,0,12.4,0,18.6c0,2.6-1.9,4.6-4.5,4.6
	c-2.6,0-4.6-1.9-4.6-4.5C217.2,127.9,217.2,122.7,217.2,117.5z"/>
<path class="st4" d="M418.2,112.9c1.2,2.8,3.4,3.6,6.3,3.5c1-0.1,2-0.2,2.9,0.1c0,4,0,8,0,12c-1,0-2.1,0.2-3.1,0.1
	c-2.8-0.3-4.8,0.7-6.1,3.3C418.2,125.5,418.2,119.2,418.2,112.9z"/>
<path class="st4" d="M427.4,107.2c-1.1,0.4-2.2,0.3-3.2,0.2c-2.8-0.3-4.9,0.6-6,3.3c0-5.6,0-11.2,0-16.7c1.2,2.6,3.2,3.7,6.1,3.3
	c1-0.1,2.1-0.2,3.1,0.1C427.3,100.6,427.4,103.9,427.4,107.2z"/>
<path class="st4" d="M402,128.7c0.9-0.6,1.8-0.2,2.7-0.3c3-0.1,4.5-1.5,4.5-4.6c0-0.4,0-0.8,0.1-1.3c1.4,2.7,2.8,5.4,4.1,8.1
	c1.2,2.5,0.4,5.2-1.9,6.3c-2.4,1.2-5,0.3-6.4-2.2C404.1,132.8,403.1,130.8,402,128.7z"/>
<path class="st5" d="M662.3-15.5c1-1.1,2.1-1.4,3.5-0.9C664.8-15.2,663.5-15.6,662.3-15.5z"/>
<path class="st4" d="M408.4,121.1c-0.2-0.1-0.4-0.3-0.3-0.6C408.4,120.6,408.4,120.8,408.4,121.1z"/>
<path class="st4" d="M306.7,116.5c1.2,0,2.3-0.2,3.4,0.1c2.7,0.7,4.6,3.3,4.5,6c-0.1,2.8-2.2,5.2-5,5.7c-0.3,0.1-0.6,0.1-0.9,0.2
	c-5.6,0-11.1,0-16.7,0c-0.6,0-1.4,0.3-1.4-0.8c0.1-3.8-0.2-7.5,0.1-11.3c5.1,0,10.1,0.1,15.2,0.1
	C306.2,116.5,306.5,116.5,306.7,116.5z"/>
<path class="st4" d="M290.8,107.3c-0.3-3-0.1-6.1-0.1-9.1c0-0.6,0.3-0.8,0.9-0.8c5.3,0.1,10.5-0.2,15.8,0.2c2.3,0.2,4.1,2.5,4,5
	c-0.1,2.4-2,4.4-4.4,4.5c-0.7,0-1.5,0-2.2,0.3C300.1,107.3,295.5,107.3,290.8,107.3z"/>
<path class="st4" d="M290.8,107.3c4.7,0,9.3,0.1,14,0.1c-1.5,1-2.9,2-2.9,4.1c0,2.6,1.1,4,3.6,4.7c0.2,0.1,0.3,0.2,0.5,0.3
	c-5.1,0-10.1-0.1-15.2-0.1C290.6,113.4,290.6,110.3,290.8,107.3z"/>
<path class="st4" d="M389,103.1c2.7,5.4,5.5,10.9,8.2,16.3c-2.8,0.3-5.5,0.1-8.3,0.1c-2.4,0-4.7,0-7.1,0c-0.5,0-1.4,0.1-0.9-0.9
	C383.6,113.5,386,108.1,389,103.1z"/>
<path class="st4" d="M427.4,107.2c0-3.3,0-6.6,0-9.8c4.7-0.3,9.3-0.1,14-0.1c0.6,0,1.3,0.1,1.9,0.1c2.8,0.6,4.3,2.1,4.6,4.5
	c0.2,1.9-0.9,3.9-2.6,4.8c-1,0.6-2.2,0.3-3.2,0.6C437.1,107.3,432.2,107.3,427.4,107.2z"/>
<path class="st4" d="M427.3,128.4c0-4,0-8,0-12c6.1,0,12.3,0,18.4,0c2.9,0,5.2,2.6,5.4,5.6c0.2,2.8-1.9,5.5-4.7,6.1
	c-0.8,0.2-1.7,0.3-2.5,0.3C438.4,128.6,432.9,128.7,427.3,128.4z"/>
<path class="st6" d="M306.6,132.8c-0.6,0.2-1.1,0.3-1.7,0.3c-7.4,0-14.8,0-22.2,0c-2.6,0-4.5-2.1-4.5-4.9c0-12.5,0.1-24.9,0.1-37.4
	c0-0.3,0-0.8-0.1-1.1c-0.3-2.7,0.6-4.8,3.2-6.2h24c0.1,0.6,0.7,0.4,1,0.5c9.3,2.6,13.4,12.4,8.7,20.8c-0.2,0.3-0.3,0.7-0.4,1
	c-2.3,2.6-4.9,4.8-8.4,5.6c-0.9,0.2-2-0.3-2.8,0.5c-0.2,0-0.5,0-0.7,0c-0.2-0.1-0.3-0.3-0.5-0.3c-2.6-0.7-3.6-2.2-3.6-4.7
	c0-2.1,1.5-3.1,2.9-4.1c0.7-0.3,1.4-0.2,2.2-0.3c2.4-0.1,4.3-2.1,4.4-4.5c0.1-2.5-1.7-4.9-4-5c-5.2-0.3-10.5-0.1-15.8-0.2
	c-0.6,0-0.9,0.2-0.9,0.8c0.1,3-0.2,6.1,0.1,9.1c-0.2,3.1-0.2,6.1,0,9.2c-0.3,3.8-0.1,7.5-0.1,11.3c0,1.1,0.8,0.8,1.4,0.8
	c5.6,0,11.1,0,16.7,0c3.2,0.6,4.6,2.3,4.4,5.3c-0.1,1.7-0.3,1.4-1.3,2.4l-1.2,1.1C307,132.7,306.8,132.7,306.6,132.8z"/>
<path class="st6" d="M386.7,83.6c1.7,0.7,3,1.7,3.5,3.6c0.1,1.7-0.6,3.1-1.3,4.6c-1.1,2.2-2.5,4.4-3.2,6.8c-3,5-5.4,10.4-8.1,15.6
	c-0.5,1,0.4,0.9,0.9,0.9c2.4,0,4.7,0,7.1,0c2.8,0,5.5,0.2,8.3-0.1c0.6,0.6,1.4,0.3,2.1,0.3c2.9,0.2,5.9-0.6,8.8,0.8c0,0,0,0,0,0
	c-0.1,0.3,0.1,0.5,0.3,0.6c0.5,0.4,0.7,1,0.9,1.6c0,0.4-0.1,0.8-0.1,1.3c0,3-1.5,4.5-4.5,4.6c-0.9,0-1.9-0.3-2.7,0.3
	c-7.7,0-15.5,0.1-23.2-0.1c-2.3-0.1-3.7,0.6-4.5,2.8c-0.4,1.2-1.1,2.3-1.7,3.4c-1.4,2.6-4,3.5-6.3,2.2c-2.3-1.2-3-3.8-1.7-6.4
	c4.5-9,9.1-17.9,13.7-26.9c2.2-4.3,4.3-8.5,6.4-12.8c0.7-1.4,1.9-2.2,3.2-2.8C385.2,83.6,385.9,83.6,386.7,83.6z"/>
<path class="st6" d="M255.2,115.5c0,4.3-0.1,8.5,0,12.8c0.1,2.9-2.3,4.8-4.5,4.8c-2.6,0-4.6-2-4.7-4.7c-0.1-3.9,0-7.8,0-11.7
	c0-1.1-0.3-1.9-0.9-2.7c-5.2-7.1-10.5-14.3-15.7-21.5c-3.1-4.2-2.8-6,1.4-8.9c0.7,0,1.5,0,2.2,0c2,0.9,3.1,2.7,4.3,4.3
	c3.1,4.2,6.1,8.5,9.3,12.7c1.3,1.8,2.5,3.8,4.1,5.3c0.4,1,1.2,1.8,1.8,2.7C254.1,110.7,255.7,112.7,255.2,115.5z"/>
<path class="st6" d="M324.5,127.3c0-13,0-26,0-38.9c0-2.5,1.5-3.8,3.5-4.8c0.7,0,1.5,0,2.2,0c2.7,1.1,3.6,3,3.5,5.9
	c-0.1,11.5,0,22.9,0,34.4c-1.1,0.3-2.2,0.3-3.3,0.1C327.6,123.6,325.7,124.8,324.5,127.3z"/>
<path class="st6" d="M190.6,103.7c7.7,0,15.5,0,23.2,0c0.9,0,1.9,0.2,2.8,0.1c2.8-0.3,4.9,0.5,6.4,3c0,1,0,2.1,0,3.1
	c-1.4,2.2-3.3,3.3-6.1,3c-1-0.1-2.1-0.2-3.1,0.1c-7.7,0-15.5,0-23.2,0c-1.2-0.3-2.4-0.1-3.6-0.1c-1,0-2.1,0-3.1-0.4
	c-1.3-0.6-1.8-1.9-2.6-3c0-0.7,0-1.5,0-2.2c1.2-2.6,3.2-3.8,6.1-3.4C188.5,103.9,189.5,104,190.6,103.7z"/>
<path class="st6" d="M250.7,105.9c4.7-6.4,9.4-12.9,14.1-19.3c1-1.3,2-2.5,3.6-3c0.7,0,1.5,0,2.2,0c3,1.8,3.8,3.3,3.2,5.9
	c-0.2,0.9-0.7,1.5-1.2,2.2c-5.8,8-11.6,15.9-17.4,23.9c0.5-2.8-1.2-4.8-2.7-6.9C251.9,107.8,251.1,107,250.7,105.9z"/>
<path class="st6" d="M414.8,89.4c-0.5-2.8,0.9-4.5,3.1-5.8c7.8,0,15.6,0,23.3,0c0,0.4,0.1,0.6,0.4,0.7c1.8,1.1,2.6,2.7,2.2,4.8
	c-0.4,2.2-1.9,3.4-4.1,3.7c-0.6,0-1.3-0.1-1.9-0.1c-4.7-0.1-9.3-0.2-14,0.1c-1-0.3-2.1-0.2-3.1-0.1C417.9,93.1,416,92,414.8,89.4z"
	/>
<path class="st6" d="M181.3,109.4c0.8,1.1,1.3,2.3,2.6,3c1,0.5,2,0.4,3.1,0.4c1.2,0,2.4-0.2,3.6,0.1c0,5,0,10,0,15
	c0,2.8-1.1,4.4-3.4,5c-2.2,0.6-4-0.3-5.4-2.5c-0.1-0.2-0.3-0.3-0.4-0.4C181.3,123.1,181.3,116.3,181.3,109.4z"/>
<path class="st6" d="M190.6,103.7c-1,0.3-2.1,0.2-3.1,0.1c-2.9-0.4-4.9,0.8-6.1,3.4c0-6.8,0-13.7,0-20.5c0.9-1.4,2-2.5,3.5-3.2
	c0.7,0,1.5,0,2.2,0c2.7,1,3.6,3,3.5,5.9C190.4,94.2,190.5,99,190.6,103.7z"/>
<path class="st6" d="M223,106.8c-1.5-2.4-3.6-3.3-6.4-3c-0.9,0.1-1.9-0.1-2.8-0.1c0-4.7,0.2-9.4,0-14.1c-0.1-2.9,0.9-4.9,3.5-6.1
	c0.7,0,1.5,0,2.2,0c2.7,1.1,3.6,3,3.5,5.9C222.9,95.2,223,101,223,106.8z"/>
<path class="st6" d="M439.8,92.8c2.2-0.3,3.7-1.6,4.1-3.7c0.4-2-0.4-3.7-2.2-4.8c-0.3-0.2-0.5-0.4-0.4-0.7c0.2,0,0.4,0,0.6,0
	c0.1,0.1,0.2,0.3,0.3,0.3c9.8,1.9,14.7,13.3,8.9,21.9c-2.3-1.3-4.5-2.7-7.2-2.9c-1.8-0.1-3.6,0.1-5.5-0.3c1.1-0.3,2.2,0,3.2-0.6
	c1.7-0.9,2.9-2.9,2.6-4.8C444.1,94.9,442.6,93.4,439.8,92.8z"/>
<path class="st6" d="M184.8,83.6c-1.5,0.7-2.6,1.8-3.5,3.2c0-1.1-0.4-2.5,0.1-3c0.5-0.5,2-0.1,3-0.1
	C184.6,83.6,184.7,83.6,184.8,83.6z"/>
<path class="st6" d="M438.5,102.6c1.8,0.4,3.6,0.1,5.5,0.3c2.7,0.2,4.9,1.6,7.2,2.9c6.9,5.7,7.5,14.8,3,21
	c-3.1,4.2-7.2,6.3-12.4,6.3c-7.4-0.1-14.7-0.1-22.1,0c-3.3,0.1-5-2-4.9-5.8c1.2-2.5,3.2-3.6,6.1-3.3c1,0.1,2.1-0.1,3.1-0.1
	c5.6,0.2,11.1,0.2,16.7,0c0.8,0,1.7-0.1,2.5-0.3c2.8-0.6,4.8-3.3,4.7-6.1c-0.2-3-2.5-5.6-5.4-5.6c-6.1-0.1-12.3,0-18.4,0
	c-1-0.3-2-0.2-2.9-0.1c-2.9,0.2-5.1-0.7-6.3-3.5c0-0.7,0-1.5,0-2.2c1.1-2.7,3.2-3.6,6-3.3c1.1,0.1,2.2,0.2,3.2-0.2
	C428.8,102.7,433.6,102.8,438.5,102.6z"/>
<path class="st6" d="M324.5,127.3c1.2-2.5,3.1-3.7,5.9-3.4c1.1,0.1,2.2,0.2,3.3-0.1c6.3,0,12.6,0.1,18.9,0c3-0.1,4.9,2.2,5,4.5
	c0,2.7-2,4.7-5,4.7c-7.8,0-15.5,0-23.3,0C326.1,133.1,324.4,131.1,324.5,127.3z"/>
<path class="st6" d="M385.6,98.5c0.8-2.4,2.1-4.5,3.2-6.8c0.7-1.5,1.4-2.9,1.3-4.6c4.5,8.9,9.1,17.7,13.6,26.6
	c0.4,0.7,0.9,1.3,0.9,2.1c-2.8-1.3-5.8-0.5-8.8-0.8c-0.7-0.1-1.5,0.2-2.1-0.3C391,109.4,388.3,104,385.6,98.5z"/>
<path class="st6" d="M303.3,112c0.8-0.8,1.9-0.3,2.8-0.5c3.5-0.8,6.1-3,8.4-5.6c4.9,4,6.8,9.2,5.5,15.4c-1.3,6-5.3,9.7-11.2,11.4
	c-0.5,0.2-1.1,0.3-1.7,0.1c1-1.1,2.3-1.9,2.4-3.6c0.3-3-1.1-4.7-4.4-5.3c0.3-0.1,0.6-0.1,0.9-0.2c2.8-0.5,4.9-2.8,5-5.7
	c0.1-2.7-1.8-5.3-4.5-6C305.6,111.8,304.4,112,303.3,112z"/>
<path class="st6" d="M213.8,113c1-0.3,2.1-0.2,3.1-0.1c2.7,0.3,4.6-0.7,6.1-3c0,6.2,0,12.4,0,18.6c0,2.6-1.9,4.6-4.5,4.6
	c-2.6,0-4.6-1.9-4.6-4.5C213.8,123.3,213.8,118.1,213.8,113z"/>
<path class="st6" d="M414.7,108.3c1.2,2.8,3.4,3.6,6.3,3.5c1-0.1,2-0.2,2.9,0.1c0,4,0,8,0,12c-1,0-2.1,0.2-3.1,0.1
	c-2.8-0.3-4.8,0.7-6.1,3.3C414.7,121,414.7,114.6,414.7,108.3z"/>
<path class="st6" d="M423.9,102.7c-1.1,0.4-2.2,0.3-3.2,0.2c-2.8-0.3-4.9,0.6-6,3.3c0-5.6,0-11.2,0-16.7c1.2,2.6,3.2,3.7,6.1,3.3
	c1-0.1,2.1-0.2,3.1,0.1C423.9,96.1,423.9,99.4,423.9,102.7z"/>
<path class="st6" d="M398.6,124.2c0.9-0.6,1.8-0.2,2.7-0.3c3-0.1,4.5-1.5,4.5-4.6c0-0.4,0-0.8,0.1-1.3c1.4,2.7,2.8,5.4,4.1,8.1
	c1.2,2.5,0.4,5.2-1.9,6.3c-2.4,1.2-5,0.3-6.4-2.2C400.7,128.3,399.6,126.2,398.6,124.2z"/>
<path class="st6" d="M405,116.5c-0.2-0.1-0.4-0.3-0.3-0.6C404.9,116,405,116.2,405,116.5z"/>
<path class="st6" d="M303.3,112c1.2,0,2.3-0.2,3.4,0.1c2.7,0.7,4.6,3.3,4.5,6c-0.1,2.8-2.2,5.2-5,5.7c-0.3,0.1-0.6,0.1-0.9,0.2
	c-5.6,0-11.1,0-16.7,0c-0.6,0-1.4,0.3-1.4-0.8c0.1-3.8-0.2-7.5,0.1-11.3c5.1,0,10.1,0.1,15.2,0.1C302.8,112,303,112,303.3,112z"/>
<path class="st6" d="M287.4,102.7c-0.3-3-0.1-6.1-0.1-9.1c0-0.6,0.3-0.8,0.9-0.8c5.3,0.1,10.5-0.2,15.8,0.2c2.3,0.2,4.1,2.5,4,5
	c-0.1,2.4-2,4.4-4.4,4.5c-0.7,0-1.5,0-2.2,0.3C296.7,102.8,292,102.7,287.4,102.7z"/>
<path class="st6" d="M287.4,102.7c4.7,0,9.3,0.1,14,0.1c-1.5,1-2.9,2-2.9,4.1c0,2.6,1.1,4,3.6,4.7c0.2,0.1,0.3,0.2,0.5,0.3
	c-5.1,0-10.1-0.1-15.2-0.1C287.2,108.8,287.2,105.8,287.4,102.7z"/>
<path class="st6" d="M385.6,98.5c2.7,5.4,5.5,10.9,8.2,16.3c-2.8,0.3-5.5,0.1-8.3,0.1c-2.4,0-4.7,0-7.1,0c-0.5,0-1.4,0.1-0.9-0.9
	C380.2,108.9,382.6,103.6,385.6,98.5z"/>
<path class="st6" d="M423.9,102.7c0-3.3,0-6.6,0-9.8c4.7-0.3,9.3-0.1,14-0.1c0.6,0,1.3,0.1,1.9,0.1c2.8,0.6,4.3,2.1,4.6,4.5
	c0.2,1.9-0.9,3.9-2.6,4.8c-1,0.6-2.2,0.3-3.2,0.6C433.6,102.8,428.8,102.7,423.9,102.7z"/>
<path class="st6" d="M423.9,123.9c0-4,0-8,0-12c6.1,0,12.3,0,18.4,0c2.9,0,5.2,2.6,5.4,5.6c0.2,2.8-1.9,5.5-4.7,6.1
	c-0.8,0.2-1.7,0.3-2.5,0.3C435,124,429.5,124.1,423.9,123.9z"/>
<g>
	<path d="M19.1,185.5c2.6-2.6,5.8-3.9,9.8-3.9c5.3,0,9.2,1.8,11.7,5.3c1.4,2,2.1,4,2.2,6h-6.7c-0.4-1.5-1-2.7-1.6-3.5
		c-1.2-1.4-3-2.1-5.3-2.1c-2.4,0-4.3,1-5.6,2.9c-1.4,2-2.1,4.7-2.1,8.3s0.7,6.3,2.2,8c1.4,1.8,3.3,2.7,5.5,2.7c2.3,0,4-0.8,5.2-2.3
		c0.7-0.8,1.2-2.1,1.7-3.7h6.6c-0.6,3.5-2,6.3-4.4,8.5c-2.4,2.2-5.4,3.3-9,3.3c-4.5,0-8.1-1.5-10.7-4.4c-2.6-3-3.9-7-3.9-12.2
		C14.7,192.8,16.2,188.5,19.1,185.5z"/>
	<path d="M72.7,211.3c-2.4,2.5-5.9,3.7-10.5,3.7c-4.6,0-8.1-1.2-10.5-3.7c-3.2-3-4.9-7.4-4.9-13.2c0-5.8,1.6-10.2,4.9-13.2
		c2.4-2.5,5.9-3.7,10.5-3.7c4.6,0,8.1,1.2,10.5,3.7c3.2,2.9,4.8,7.3,4.8,13.2C77.5,203.8,75.9,208.2,72.7,211.3z M68.5,206.4
		c1.6-2,2.3-4.7,2.3-8.3c0-3.6-0.8-6.4-2.3-8.3s-3.7-2.9-6.3-2.9c-2.6,0-4.8,1-6.3,2.9c-1.6,1.9-2.4,4.7-2.4,8.3
		c0,3.6,0.8,6.4,2.4,8.3c1.6,1.9,3.7,2.9,6.3,2.9C64.9,209.3,67,208.4,68.5,206.4z"/>
	<path d="M82.5,182.2h7l12.7,22.3v-22.3h6.2v31.9h-6.7l-13-22.7v22.7h-6.2V182.2z"/>
	<path d="M137.9,182.2v5.7h-9.6v26.3h-6.7v-26.3H112v-5.7H137.9z"/>
	<path d="M165.4,187.8h-16.9v6.8H164v5.5h-15.5v8.2h17.7v5.7H142v-31.9h23.4V187.8z"/>
	<path d="M176.2,204.3c0.2,1.5,0.6,2.5,1.2,3.3c1.1,1.3,3,2,5.7,2c1.6,0,2.9-0.2,3.9-0.5c1.9-0.7,2.9-1.9,2.9-3.7
		c0-1.1-0.5-1.9-1.4-2.4c-0.9-0.6-2.4-1.1-4.4-1.5l-3.5-0.8c-3.4-0.8-5.7-1.6-7-2.4c-2.2-1.5-3.2-3.8-3.2-6.9c0-2.9,1.1-5.2,3.2-7.1
		c2.1-1.9,5.2-2.8,9.3-2.8c3.4,0,6.3,0.9,8.7,2.7c2.4,1.8,3.7,4.4,3.8,7.8h-6.4c-0.1-1.9-1-3.3-2.6-4.1c-1.1-0.5-2.4-0.8-4-0.8
		c-1.8,0-3.2,0.3-4.2,1c-1.1,0.7-1.6,1.7-1.6,2.9c0,1.1,0.5,2,1.6,2.6c0.7,0.4,2.1,0.8,4.2,1.3l5.6,1.3c2.5,0.6,4.3,1.4,5.5,2.3
		c1.9,1.5,2.9,3.7,2.9,6.5c0,2.9-1.1,5.3-3.4,7.3c-2.3,1.9-5.4,2.9-9.6,2.9c-4.2,0-7.5-0.9-9.9-2.8c-2.4-1.9-3.6-4.5-3.6-7.8H176.2z
		"/>
	<path d="M224.2,182.2v5.7h-9.6v26.3h-6.7v-26.3h-9.6v-5.7H224.2z"/>
</g>
</svg>
