<?xml version="1.0" encoding="utf-8"?>
<!-- Generator: Adobe Illustrator 19.1.0, SVG Export Plug-In . SVG Version: 6.00 Build 0)  -->
<svg version="1.1" id="Calque_1" xmlns="http://www.w3.org/2000/svg" xmlns:xlink="http://www.w3.org/1999/xlink" x="0px" y="0px"
	 viewBox="-186 172.6 586 217.4" style="enable-background:new -186 172.6 586 217.4;" xml:space="preserve">
<style type="text/css">
	.st0{fill:none;stroke:#231F20;stroke-width:5;stroke-miterlimit:10;}
	.st1{fill:#A400E8;}
	.st2{fill:#06FFD9;}
</style>
<polyline id="Triangle_1_" class="st0" points="-67.1,347.4 -171.4,387.6 397.5,387.6 397.8,176.5 305.6,209.6 "/>
<g id="Titre_5_">
	<g>
		<path class="st1" d="M32.3,388.2h-7.1V354h7.1V388.2z"/>
		<path class="st1" d="M39,353.9h7.2V382h17.1v6.2H39V353.9z"/>
		<path class="st1" d="M68,353.9h7.2V382h17.1v6.2H68V353.9z"/>
		<path class="st1" d="M97.1,353.9h7.3v21c0,2.4,0.3,4.1,0.8,5.2c0.9,1.9,2.7,2.9,5.6,2.9s4.8-1,5.6-2.9c0.6-1.1,0.8-2.8,0.8-5.2
			v-21h7.3v21c0,3.6-0.6,6.5-1.7,8.5c-2.1,3.7-6.1,5.6-12,5.6s-9.9-1.9-12.1-5.6c-1.1-2-1.7-4.9-1.7-8.5v-21H97.1z"/>
		<path class="st1" d="M136.6,377.6c0.2,1.6,0.7,2.7,1.3,3.5c1.2,1.4,3.2,2.1,6.1,2.1c1.7,0,3.1-0.2,4.2-0.6c2-0.7,3.1-2,3.1-4
			c0-1.1-0.5-2-1.5-2.6s-2.6-1.1-4.8-1.6l-3.7-0.8c-3.6-0.8-6.1-1.7-7.5-2.6c-2.3-1.6-3.5-4-3.5-7.4c0-3.1,1.1-5.6,3.4-7.6
			s5.6-3,9.9-3c3.7,0,6.8,1,9.3,2.9c2.6,1.9,3.9,4.7,4.1,8.3h-6.9c-0.1-2.1-1-3.5-2.8-4.4c-1.1-0.6-2.6-0.9-4.3-0.9
			c-1.9,0-3.4,0.4-4.5,1.1s-1.7,1.8-1.7,3.1c0,1.2,0.6,2.1,1.7,2.7c0.7,0.4,2.2,0.9,4.5,1.4l6,1.4c2.6,0.6,4.6,1.4,5.9,2.5
			c2,1.6,3.1,3.9,3.1,7c0,3.1-1.2,5.7-3.6,7.8s-5.8,3.1-10.2,3.1c-4.5,0-8.1-1-10.6-3.1c-2.6-2-3.9-4.8-3.9-8.4h6.9V377.6z"/>
		<path class="st1" d="M188.1,353.9v6.1h-10.2v28.2h-7.2V360h-10.3v-6.1H188.1z"/>
		<path class="st1" d="M214.2,354.8c1.3,0.5,2.3,1.3,3.2,2.4c0.7,0.9,1.3,1.8,1.7,2.9c0.4,1.1,0.6,2.3,0.6,3.6
			c0,1.6-0.4,3.2-1.2,4.8c-0.8,1.6-2.2,2.7-4.1,3.3c1.6,0.6,2.7,1.5,3.4,2.7c0.7,1.2,1,3,1,5.4v2.3c0,1.6,0.1,2.6,0.2,3.2
			c0.2,0.9,0.6,1.5,1.3,2v0.9h-7.9c-0.2-0.8-0.4-1.4-0.5-1.8c-0.2-1-0.3-1.9-0.3-3v-3.2c0-2.2-0.4-3.6-1.1-4.4
			c-0.7-0.7-2.1-1.1-4.1-1.1h-7v13.4h-7V354h16.4C211.1,354,212.9,354.3,214.2,354.8z M199.4,359.9v9.2h7.7c1.5,0,2.7-0.2,3.4-0.6
			c1.4-0.7,2-1.9,2-3.9c0-2.1-0.7-3.5-2-4.2c-0.7-0.4-1.8-0.6-3.3-0.6h-7.8V359.9z"/>
		<path class="st1" d="M236.4,353.9h8.1l12.1,34.2h-7.8l-2.3-7H234l-2.3,7h-7.5L236.4,353.9z M235.9,375.2h8.8l-4.3-13.5
			L235.9,375.2z"/>
		<path class="st1" d="M282.3,353.9v6.1h-10.2v28.2h-7.2V360h-10.3v-6.1H282.3z"/>
		<path class="st1" d="M293,388.2h-7.1V354h7.1V388.2z"/>
		<path class="st1" d="M326.1,385.1c-2.6,2.7-6.3,4-11.2,4s-8.6-1.3-11.2-4c-3.5-3.3-5.2-8-5.2-14.1c0-6.3,1.7-11,5.2-14.1
			c2.6-2.7,6.3-4,11.2-4s8.6,1.3,11.2,4c3.5,3.1,5.2,7.9,5.2,14.1C331.3,377.1,329.5,381.8,326.1,385.1z M321.6,379.9
			c1.7-2.1,2.5-5.1,2.5-8.9s-0.8-6.8-2.5-8.9c-1.7-2.1-3.9-3.1-6.7-3.1s-5.1,1-6.8,3.1c-1.7,2.1-2.5,5.1-2.5,8.9
			c0,3.9,0.8,6.8,2.5,8.9c1.7,2.1,3.9,3.1,6.8,3.1S320,382,321.6,379.9z"/>
		<path class="st1" d="M336.6,353.9h7.5l13.6,23.9v-23.9h6.7v34.2h-7.2l-13.9-24.3v24.3h-6.7L336.6,353.9L336.6,353.9z"/>
		<path class="st1" d="M376.2,377.6c0.2,1.6,0.7,2.7,1.3,3.5c1.2,1.4,3.2,2.1,6.1,2.1c1.7,0,3.1-0.2,4.2-0.6c2-0.7,3.1-2,3.1-4
			c0-1.1-0.5-2-1.5-2.6s-2.6-1.1-4.8-1.6l-3.7-0.8c-3.6-0.8-6.1-1.7-7.5-2.6c-2.3-1.6-3.5-4-3.5-7.4c0-3.1,1.1-5.6,3.4-7.6
			c2.3-2,5.6-3,9.9-3c3.7,0,6.8,1,9.3,2.9c2.6,1.9,3.9,4.7,4.1,8.3h-6.9c-0.1-2.1-1-3.5-2.8-4.4c-1.1-0.6-2.6-0.9-4.3-0.9
			c-1.9,0-3.4,0.4-4.5,1.1s-1.7,1.8-1.7,3.1c0,1.2,0.6,2.1,1.7,2.7c0.7,0.4,2.2,0.9,4.5,1.4l6,1.4c2.6,0.6,4.6,1.4,5.9,2.5
			c2,1.6,3.1,3.9,3.1,7c0,3.1-1.2,5.7-3.6,7.8c-2.4,2.1-5.8,3.1-10.2,3.1c-4.5,0-8.1-1-10.6-3.1c-2.6-2-3.9-4.8-3.9-8.4h6.9V377.6z"
			/>
	</g>
	<g>
		<path class="st2" d="M29.5,388.2h-7.1V354h7.1V388.2z"/>
		<path class="st2" d="M36.2,354h7.2v28.1h17.1v6.2H36.2V354z"/>
		<path class="st2" d="M65.3,354h7.2v28.1h17.1v6.2H65.3V354z"/>
		<path class="st2" d="M94.3,354h7.3v21c0,2.4,0.3,4.1,0.8,5.2c0.9,1.9,2.7,2.9,5.6,2.9s4.8-1,5.6-2.9c0.6-1.1,0.8-2.8,0.8-5.2v-21
			h7.3v21c0,3.6-0.6,6.5-1.7,8.5c-2.1,3.7-6.1,5.6-12,5.6s-9.9-1.9-12.1-5.6c-1.1-2-1.7-4.9-1.7-8.5v-21H94.3z"/>
		<path class="st2" d="M133.8,377.6c0.2,1.6,0.7,2.7,1.3,3.5c1.2,1.4,3.2,2.1,6.1,2.1c1.7,0,3.1-0.2,4.2-0.6c2-0.7,3.1-2,3.1-4
			c0-1.1-0.5-2-1.5-2.6s-2.6-1.1-4.8-1.6l-3.7-0.8c-3.6-0.8-6.1-1.7-7.5-2.6c-2.3-1.6-3.5-4-3.5-7.4c0-3.1,1.1-5.6,3.4-7.6
			s5.6-3,9.9-3c3.7,0,6.8,1,9.3,2.9c2.6,1.9,3.9,4.7,4.1,8.3h-6.9c-0.1-2.1-1-3.5-2.8-4.4c-1.1-0.6-2.6-0.9-4.3-0.9
			c-1.9,0-3.4,0.4-4.5,1.1s-1.7,1.8-1.7,3.1c0,1.2,0.6,2.1,1.7,2.7c0.7,0.4,2.2,0.9,4.5,1.4l6,1.4c2.6,0.6,4.6,1.4,5.9,2.5
			c2,1.6,3.1,3.9,3.1,7c0,3.1-1.2,5.7-3.6,7.8s-5.8,3.1-10.2,3.1c-4.5,0-8.1-1-10.6-3.1c-2.6-2-3.9-4.8-3.9-8.4h6.9V377.6z"/>
		<path class="st2" d="M185.3,354v6.1H175v28.2h-7.2v-28.2h-10.3V354H185.3z"/>
		<path class="st2" d="M211.4,354.8c1.3,0.5,2.3,1.3,3.2,2.4c0.7,0.9,1.3,1.8,1.7,2.9c0.4,1.1,0.6,2.3,0.6,3.6
			c0,1.6-0.4,3.2-1.2,4.8c-0.8,1.6-2.2,2.7-4.1,3.3c1.6,0.6,2.7,1.5,3.4,2.7c0.7,1.2,1,3,1,5.4v2.3c0,1.6,0.1,2.6,0.2,3.2
			c0.2,0.9,0.6,1.5,1.3,2v0.9h-7.9c-0.2-0.8-0.4-1.4-0.5-1.8c-0.2-1-0.3-1.9-0.3-3v-3.2c0-2.2-0.4-3.6-1.1-4.4
			c-0.7-0.7-2.1-1.1-4.1-1.1h-7v13.4h-7V354H206C208.4,354,210.2,354.3,211.4,354.8z M196.6,359.9v9.2h7.7c1.5,0,2.7-0.2,3.4-0.6
			c1.4-0.7,2-1.9,2-3.9c0-2.1-0.7-3.5-2-4.2c-0.7-0.4-1.8-0.6-3.3-0.6h-7.8V359.9z"/>
		<path class="st2" d="M233.6,354h8.1l12.1,34.2H246l-2.3-7h-12.6l-2.3,7h-7.5L233.6,354z M233.1,375.3h8.8l-4.3-13.5L233.1,375.3z"
			/>
		<path class="st2" d="M279.6,354v6.1h-10.2v28.2h-7.2v-28.2h-10.3V354H279.6z"/>
		<path class="st2" d="M290.3,388.2h-7.1V354h7.1V388.2z"/>
		<path class="st2" d="M323.3,385.2c-2.6,2.7-6.3,4-11.2,4c-4.9,0-8.6-1.3-11.2-4c-3.5-3.3-5.2-8-5.2-14.1c0-6.3,1.7-11,5.2-14.1
			c2.6-2.7,6.3-4,11.2-4c4.9,0,8.6,1.3,11.2,4c3.5,3.1,5.2,7.9,5.2,14.1C328.5,377.2,326.8,381.9,323.3,385.2z M318.8,380
			c1.7-2.1,2.5-5.1,2.5-8.9c0-3.8-0.8-6.8-2.5-8.9c-1.7-2.1-3.9-3.1-6.7-3.1c-2.8,0-5.1,1-6.8,3.1c-1.7,2.1-2.5,5.1-2.5,8.9
			c0,3.9,0.8,6.8,2.5,8.9c1.7,2.1,3.9,3.1,6.8,3.1C314.9,383.1,317.2,382,318.8,380z"/>
		<path class="st2" d="M333.8,354h7.5l13.6,23.9V354h6.7v34.2h-7.2l-13.9-24.3v24.3h-6.7L333.8,354L333.8,354z"/>
		<path class="st2" d="M373.5,377.6c0.2,1.6,0.7,2.7,1.3,3.5c1.2,1.4,3.2,2.1,6.1,2.1c1.7,0,3.1-0.2,4.2-0.6c2-0.7,3.1-2,3.1-4
			c0-1.1-0.5-2-1.5-2.6s-2.6-1.1-4.8-1.6l-3.7-0.8c-3.6-0.8-6.1-1.7-7.5-2.6c-2.3-1.6-3.5-4-3.5-7.4c0-3.1,1.1-5.6,3.4-7.6
			c2.3-2,5.6-3,9.9-3c3.7,0,6.8,1,9.3,2.9c2.6,1.9,3.9,4.7,4.1,8.3H387c-0.1-2.1-1-3.5-2.8-4.4c-1.1-0.6-2.6-0.9-4.3-0.9
			c-1.9,0-3.4,0.4-4.5,1.1s-1.7,1.8-1.7,3.1c0,1.2,0.6,2.1,1.7,2.7c0.7,0.4,2.2,0.9,4.5,1.4l6,1.4c2.6,0.6,4.6,1.4,5.9,2.5
			c2,1.6,3.1,3.9,3.1,7c0,3.1-1.2,5.7-3.6,7.8c-2.4,2.1-5.8,3.1-10.2,3.1c-4.5,0-8.1-1-10.6-3.1c-2.6-2-3.9-4.8-3.9-8.4h6.9V377.6z"
			/>
	</g>
	<g>
		<path d="M31.2,389.1h-7.1v-34.2h7.1V389.1z"/>
		<path d="M37.9,354.9h7.2V383h17.1v6.2H37.9V354.9z"/>
		<path d="M66.9,354.9h7.2V383h17.1v6.2H66.9L66.9,354.9L66.9,354.9z"/>
		<path d="M96,354.9h7.3v21c0,2.4,0.3,4.1,0.8,5.2c0.9,1.9,2.7,2.9,5.6,2.9s4.8-1,5.6-2.9c0.6-1.1,0.8-2.8,0.8-5.2v-21h7.3v21
			c0,3.6-0.6,6.5-1.7,8.5c-2.1,3.7-6.1,5.6-12,5.6s-9.9-1.9-12.1-5.6c-1.1-2-1.7-4.9-1.7-8.5v-21H96z"/>
		<path d="M135.5,378.5c0.2,1.6,0.7,2.7,1.3,3.5c1.2,1.4,3.2,2.1,6.1,2.1c1.7,0,3.1-0.2,4.2-0.6c2-0.7,3.1-2,3.1-4
			c0-1.1-0.5-2-1.5-2.6s-2.6-1.1-4.8-1.6l-3.7-0.8c-3.6-0.8-6.1-1.7-7.5-2.6c-2.3-1.6-3.5-4-3.5-7.4c0-3.1,1.1-5.6,3.4-7.6
			s5.6-3,9.9-3c3.7,0,6.8,1,9.3,2.9c2.6,1.9,3.9,4.7,4.1,8.3H149c-0.1-2.1-1-3.5-2.8-4.4c-1.1-0.6-2.6-0.9-4.3-0.9
			c-1.9,0-3.4,0.4-4.5,1.1c-1.1,0.7-1.7,1.8-1.7,3.1c0,1.2,0.6,2.1,1.7,2.7c0.7,0.4,2.2,0.9,4.5,1.4l6,1.4c2.6,0.6,4.6,1.4,5.9,2.5
			c2,1.6,3.1,3.9,3.1,7c0,3.1-1.2,5.7-3.6,7.8s-5.8,3.1-10.2,3.1c-4.5,0-8.1-1-10.6-3.1c-2.6-2-3.9-4.8-3.9-8.4h6.9V378.5z"/>
		<path d="M187,354.9v6.1h-10.2v28.2h-7.2V361h-10.3v-6.1H187z"/>
		<path d="M213.1,355.8c1.3,0.5,2.3,1.3,3.2,2.4c0.7,0.9,1.3,1.8,1.7,2.9c0.4,1.1,0.6,2.3,0.6,3.6c0,1.6-0.4,3.2-1.2,4.8
			c-0.8,1.6-2.2,2.7-4.1,3.3c1.6,0.6,2.7,1.5,3.4,2.7c0.7,1.2,1,3,1,5.4v2.3c0,1.6,0.1,2.6,0.2,3.2c0.2,0.9,0.6,1.5,1.3,2v0.9h-7.9
			c-0.2-0.8-0.4-1.4-0.5-1.8c-0.2-1-0.3-1.9-0.3-3v-3.2c0-2.2-0.4-3.6-1.1-4.4c-0.7-0.7-2.1-1.1-4.1-1.1h-7v13.4h-7V355h16.4
			C210,354.9,211.8,355.2,213.1,355.8z M198.3,360.8v9.2h7.7c1.5,0,2.7-0.2,3.4-0.6c1.4-0.7,2-1.9,2-3.9c0-2.1-0.7-3.5-2-4.2
			c-0.7-0.4-1.8-0.6-3.3-0.6L198.3,360.8L198.3,360.8z"/>
		<path d="M235.3,354.9h8.1l12.1,34.2h-7.8l-2.3-7h-12.6l-2.3,7H223L235.3,354.9z M234.8,376.2h8.8l-4.3-13.5L234.8,376.2z"/>
		<path d="M281.2,354.9v6.1H271v28.2h-7.2V361h-10.3v-6.1H281.2z"/>
		<path d="M292,389.1h-7.1v-34.2h7.1V389.1z"/>
		<path d="M325,386.1c-2.6,2.7-6.3,4-11.2,4s-8.6-1.3-11.2-4c-3.5-3.3-5.2-8-5.2-14.1c0-6.3,1.7-11,5.2-14.1c2.6-2.7,6.3-4,11.2-4
			s8.6,1.3,11.2,4c3.5,3.1,5.2,7.9,5.2,14.1C330.2,378.1,328.5,382.8,325,386.1z M320.5,380.9c1.7-2.1,2.5-5.1,2.5-8.9
			s-0.8-6.8-2.5-8.9c-1.7-2.1-3.9-3.1-6.7-3.1s-5.1,1-6.8,3.1c-1.7,2.1-2.5,5.1-2.5,8.9c0,3.9,0.8,6.8,2.5,8.9
			c1.7,2.1,3.9,3.1,6.8,3.1S318.9,383,320.5,380.9z"/>
		<path d="M335.5,354.9h7.5l13.6,23.9v-23.9h6.7v34.2h-7.2l-13.9-24.3v24.3h-6.7L335.5,354.9L335.5,354.9z"/>
		<path d="M375.2,378.5c0.2,1.6,0.7,2.7,1.3,3.5c1.2,1.4,3.2,2.1,6.1,2.1c1.7,0,3.1-0.2,4.2-0.6c2-0.7,3.1-2,3.1-4
			c0-1.1-0.5-2-1.5-2.6s-2.6-1.1-4.8-1.6l-3.7-0.8c-3.6-0.8-6.1-1.7-7.5-2.6c-2.3-1.6-3.5-4-3.5-7.4c0-3.1,1.1-5.6,3.4-7.6
			c2.3-2,5.6-3,9.9-3c3.7,0,6.8,1,9.3,2.9c2.6,1.9,3.9,4.7,4.1,8.3h-6.9c-0.1-2.1-1-3.5-2.8-4.4c-1.1-0.6-2.6-0.9-4.3-0.9
			c-1.9,0-3.4,0.4-4.5,1.1c-1.1,0.7-1.7,1.8-1.7,3.1c0,1.2,0.6,2.1,1.7,2.7c0.7,0.4,2.2,0.9,4.5,1.4l6,1.4c2.6,0.6,4.6,1.4,5.9,2.5
			c2,1.6,3.1,3.9,3.1,7c0,3.1-1.2,5.7-3.6,7.8c-2.4,2.1-5.8,3.1-10.2,3.1c-4.5,0-8.1-1-10.6-3.1c-2.6-2-3.9-4.8-3.9-8.4h6.9V378.5z"
			/>
	</g>
</g>
</svg>
