<?xml version="1.0" encoding="utf-8"?>
<!-- Generator: Adobe Illustrator 19.1.0, SVG Export Plug-In . SVG Version: 6.00 Build 0)  -->
<svg version="1.1" id="Calque_1" xmlns="http://www.w3.org/2000/svg" xmlns:xlink="http://www.w3.org/1999/xlink" x="0px" y="0px"
	 viewBox="0 0 628 74" style="enable-background:new 0 0 628 74;" xml:space="preserve">
<style type="text/css">
	.st0{fill:#A400E8;}
	.st1{fill:#06FFD9;}
</style>
<g id="Titre_5_">
	<g>
		<path class="st0" d="M23.8,65.4H12.2v-56h11.6V65.4z"/>
		<path class="st0" d="M34.7,9.4h11.7v45.9h27.9v10.1H34.7V9.4z"/>
		<path class="st0" d="M82.2,9.4h11.7v45.9h27.9v10.1H82.2V9.4z"/>
		<path class="st0" d="M129.7,9.4h11.9v34.4c0,3.8,0.5,6.7,1.4,8.4c1.4,3.1,4.5,4.7,9.2,4.7c4.7,0,7.8-1.6,9.2-4.7
			c0.9-1.8,1.4-4.6,1.4-8.4V9.4h11.9v34.4c0,5.9-0.9,10.6-2.8,13.9c-3.4,6.1-10,9.1-19.7,9.1s-16.3-3-19.7-9.1
			c-1.8-3.3-2.8-7.9-2.8-13.9V9.4z"/>
		<path class="st0" d="M194.3,48.1c0.4,2.6,1.1,4.5,2.1,5.7c1.9,2.3,5.3,3.5,10,3.5c2.8,0,5.1-0.3,6.9-0.9c3.3-1.2,5-3.3,5-6.5
			c0-1.8-0.8-3.3-2.5-4.3c-1.6-1-4.2-1.9-7.8-2.6l-6.1-1.3c-6-1.3-10-2.7-12.3-4.3c-3.8-2.6-5.7-6.6-5.7-12.1c0-5,1.8-9.2,5.5-12.5
			c3.7-3.3,9.1-5,16.3-5c6,0,11.1,1.6,15.3,4.7c4.2,3.1,6.4,7.7,6.6,13.6h-11.2c-0.2-3.4-1.7-5.8-4.5-7.2c-1.9-0.9-4.2-1.4-7-1.4
			c-3.1,0-5.6,0.6-7.4,1.8c-1.8,1.2-2.8,2.9-2.8,5.1c0,2,0.9,3.5,2.7,4.5c1.2,0.7,3.6,1.4,7.4,2.3l9.8,2.3c4.3,1,7.5,2.4,9.7,4.1
			c3.3,2.6,5,6.4,5,11.4c0,5.1-2,9.4-5.9,12.7c-4,3.4-9.5,5.1-16.8,5.1c-7.4,0-13.2-1.7-17.4-5c-4.2-3.3-6.3-7.9-6.3-13.7H194.3z"/>
		<path class="st0" d="M278.4,9.4v9.9h-16.7v46.1h-11.8V19.3h-16.8V9.4H278.4z"/>
		<path class="st0" d="M321.1,10.8c2.1,0.9,3.8,2.2,5.2,3.9c1.2,1.4,2.1,3,2.8,4.7c0.7,1.7,1,3.7,1,5.9c0,2.7-0.7,5.3-2,7.8
			c-1.3,2.6-3.6,4.4-6.6,5.5c2.6,1,4.4,2.5,5.5,4.4c1.1,1.9,1.6,4.8,1.6,8.8v3.8c0,2.6,0.1,4.3,0.3,5.2c0.3,1.4,1,2.5,2.2,3.2v1.4
			h-12.9c-0.4-1.2-0.6-2.2-0.8-3c-0.3-1.6-0.5-3.2-0.5-4.8l-0.1-5.2c0-3.6-0.7-6-1.9-7.1c-1.2-1.2-3.4-1.8-6.7-1.8h-11.4v21.9h-11.4
			v-56h26.8C316.1,9.5,319.1,9.9,321.1,10.8z M296.9,19.1v15h12.6c2.5,0,4.4-0.3,5.6-0.9c2.2-1.1,3.3-3.2,3.3-6.3
			c0-3.4-1.1-5.7-3.2-6.8c-1.2-0.7-3-1-5.4-1H296.9z"/>
		<path class="st0" d="M357.4,9.4h13.2l19.8,56h-12.7l-3.7-11.5h-20.6l-3.8,11.5h-12.2L357.4,9.4z M356.6,44.2H371l-7.1-22
			L356.6,44.2z"/>
		<path class="st0" d="M432.5,9.4v9.9h-16.7v46.1H404V19.3h-16.8V9.4H432.5z"/>
		<path class="st0" d="M450,65.4h-11.6v-56H450V65.4z"/>
		<path class="st0" d="M504,60.4c-4.2,4.4-10.3,6.5-18.3,6.5s-14.1-2.2-18.3-6.5c-5.7-5.3-8.5-13-8.5-23.1c0-10.3,2.8-17.9,8.5-23.1
			c4.2-4.4,10.3-6.5,18.3-6.5s14.1,2.2,18.3,6.5c5.6,5.1,8.5,12.8,8.5,23.1C512.5,47.3,509.7,55,504,60.4z M496.7,51.9
			c2.7-3.4,4.1-8.3,4.1-14.6c0-6.3-1.4-11.1-4.1-14.6c-2.7-3.4-6.4-5.1-11-5.1s-8.3,1.7-11.1,5.1c-2.8,3.4-4.1,8.3-4.1,14.6
			c0,6.3,1.4,11.2,4.1,14.6c2.8,3.4,6.5,5.1,11.1,5.1S494,55.3,496.7,51.9z"/>
		<path class="st0" d="M521.2,9.4h12.3l22.2,39v-39h10.9v56h-11.7l-22.8-39.7v39.7h-10.9V9.4z"/>
		<path class="st0" d="M586,48.1c0.4,2.6,1.1,4.5,2.1,5.7c1.9,2.3,5.3,3.5,10,3.5c2.8,0,5.1-0.3,6.9-0.9c3.3-1.2,5-3.3,5-6.5
			c0-1.8-0.8-3.3-2.5-4.3c-1.6-1-4.2-1.9-7.8-2.6l-6.1-1.3c-6-1.3-10-2.7-12.3-4.3c-3.8-2.6-5.7-6.6-5.7-12.1c0-5,1.8-9.2,5.5-12.5
			c3.7-3.3,9.1-5,16.3-5c6,0,11.1,1.6,15.3,4.7c4.2,3.1,6.4,7.7,6.6,13.6h-11.2c-0.2-3.4-1.7-5.8-4.5-7.2c-1.9-0.9-4.2-1.4-7-1.4
			c-3.1,0-5.6,0.6-7.4,1.8c-1.8,1.2-2.8,2.9-2.8,5.1c0,2,0.9,3.5,2.7,4.5c1.2,0.7,3.6,1.4,7.4,2.3l9.8,2.3c4.3,1,7.5,2.4,9.7,4.1
			c3.3,2.6,5,6.4,5,11.4c0,5.1-2,9.4-5.9,12.7c-4,3.4-9.5,5.1-16.8,5.1c-7.4,0-13.2-1.7-17.4-5c-4.2-3.3-6.3-7.9-6.3-13.7H586z"/>
	</g>
	<g>
		<path class="st1" d="M19.3,65.4H7.6v-56h11.6V65.4z"/>
		<path class="st1" d="M30.2,9.5h11.7v45.9h27.9v10.1H30.2V9.5z"/>
		<path class="st1" d="M77.7,9.5h11.7v45.9h27.9v10.1H77.7V9.5z"/>
		<path class="st1" d="M125.2,9.5h11.9v34.4c0,3.8,0.5,6.7,1.4,8.4c1.4,3.1,4.5,4.7,9.2,4.7c4.7,0,7.8-1.6,9.2-4.7
			c0.9-1.8,1.4-4.6,1.4-8.4V9.5h11.9v34.4c0,5.9-0.9,10.6-2.8,13.9c-3.4,6.1-10,9.1-19.7,9.1s-16.3-3-19.7-9.1
			c-1.8-3.3-2.8-7.9-2.8-13.9V9.5z"/>
		<path class="st1" d="M189.8,48.1c0.4,2.6,1.1,4.5,2.1,5.7c1.9,2.3,5.3,3.5,10,3.5c2.8,0,5.1-0.3,6.9-0.9c3.3-1.2,5-3.3,5-6.5
			c0-1.8-0.8-3.3-2.5-4.3c-1.6-1-4.2-1.9-7.8-2.6l-6.1-1.3c-6-1.3-10-2.7-12.3-4.3c-3.8-2.6-5.7-6.6-5.7-12.1c0-5,1.8-9.2,5.5-12.5
			c3.7-3.3,9.1-5,16.3-5c6,0,11.1,1.6,15.3,4.7c4.2,3.1,6.4,7.7,6.6,13.6H212c-0.2-3.4-1.7-5.8-4.5-7.2c-1.9-0.9-4.2-1.4-7-1.4
			c-3.1,0-5.6,0.6-7.4,1.8c-1.8,1.2-2.8,2.9-2.8,5.1c0,2,0.9,3.5,2.7,4.5c1.2,0.7,3.6,1.4,7.4,2.3l9.8,2.3c4.3,1,7.5,2.4,9.7,4.1
			c3.3,2.6,5,6.4,5,11.4c0,5.1-2,9.4-5.9,12.7c-4,3.4-9.5,5.1-16.8,5.1c-7.4,0-13.2-1.7-17.4-5c-4.2-3.3-6.3-7.9-6.3-13.7H189.8z"/>
		<path class="st1" d="M273.9,9.5v9.9h-16.7v46.1h-11.8V19.4h-16.8V9.5H273.9z"/>
		<path class="st1" d="M316.6,10.9c2.1,0.9,3.8,2.2,5.2,3.9c1.2,1.4,2.1,3,2.8,4.7c0.7,1.7,1,3.7,1,5.9c0,2.7-0.7,5.3-2,7.8
			c-1.3,2.6-3.6,4.4-6.6,5.5c2.6,1,4.4,2.5,5.5,4.4c1.1,1.9,1.6,4.8,1.6,8.8v3.8c0,2.6,0.1,4.3,0.3,5.2c0.3,1.4,1,2.5,2.2,3.2v1.4
			h-12.9c-0.4-1.2-0.6-2.2-0.8-3c-0.3-1.6-0.5-3.2-0.5-4.8l-0.1-5.2c0-3.6-0.7-6-1.9-7.1c-1.2-1.2-3.4-1.8-6.7-1.8h-11.4v21.9H281
			v-56h26.8C311.6,9.5,314.5,10,316.6,10.9z M292.4,19.2v15H305c2.5,0,4.4-0.3,5.6-0.9c2.2-1.1,3.3-3.2,3.3-6.3
			c0-3.4-1.1-5.7-3.2-6.8c-1.2-0.7-3-1-5.4-1H292.4z"/>
		<path class="st1" d="M352.9,9.5h13.2l19.8,56h-12.7l-3.7-11.5h-20.6l-3.8,11.5h-12.2L352.9,9.5z M352.1,44.3h14.3l-7.1-22
			L352.1,44.3z"/>
		<path class="st1" d="M428,9.5v9.9h-16.7v46.1h-11.8V19.4h-16.8V9.5H428z"/>
		<path class="st1" d="M445.5,65.4h-11.6v-56h11.6V65.4z"/>
		<path class="st1" d="M499.5,60.5c-4.2,4.4-10.3,6.5-18.3,6.5c-8,0-14.1-2.2-18.3-6.5c-5.7-5.3-8.5-13-8.5-23.1
			c0-10.3,2.8-17.9,8.5-23.1c4.2-4.4,10.3-6.5,18.3-6.5c8,0,14.1,2.2,18.3,6.5c5.6,5.1,8.5,12.8,8.5,23.1
			C508,47.4,505.2,55.1,499.5,60.5z M492.2,51.9c2.7-3.4,4.1-8.3,4.1-14.6c0-6.3-1.4-11.1-4.1-14.6c-2.7-3.4-6.4-5.1-11-5.1
			c-4.6,0-8.3,1.7-11.1,5.1c-2.8,3.4-4.1,8.3-4.1,14.6c0,6.3,1.4,11.2,4.1,14.6c2.8,3.4,6.5,5.1,11.1,5.1
			C485.8,57.1,489.5,55.4,492.2,51.9z"/>
		<path class="st1" d="M516.7,9.5H529l22.2,39v-39h10.9v56h-11.7l-22.8-39.7v39.7h-10.9V9.5z"/>
		<path class="st1" d="M581.5,48.1c0.4,2.6,1.1,4.5,2.1,5.7c1.9,2.3,5.3,3.5,10,3.5c2.8,0,5.1-0.3,6.9-0.9c3.3-1.2,5-3.3,5-6.5
			c0-1.8-0.8-3.3-2.5-4.3c-1.6-1-4.2-1.9-7.8-2.6l-6.1-1.3c-6-1.3-10-2.7-12.3-4.3c-3.8-2.6-5.7-6.6-5.7-12.1c0-5,1.8-9.2,5.5-12.5
			c3.7-3.3,9.1-5,16.3-5c6,0,11.1,1.6,15.3,4.7c4.2,3.1,6.4,7.7,6.6,13.6h-11.2c-0.2-3.4-1.7-5.8-4.5-7.2c-1.9-0.9-4.2-1.4-7-1.4
			c-3.1,0-5.6,0.6-7.4,1.8c-1.8,1.2-2.8,2.9-2.8,5.1c0,2,0.9,3.5,2.7,4.5c1.2,0.7,3.6,1.4,7.4,2.3l9.8,2.3c4.3,1,7.5,2.4,9.7,4.1
			c3.3,2.6,5,6.4,5,11.4c0,5.1-2,9.4-5.9,12.7c-4,3.4-9.5,5.1-16.8,5.1c-7.4,0-13.2-1.7-17.4-5c-4.2-3.3-6.3-7.9-6.3-13.7H581.5z"/>
	</g>
	<g>
		<path d="M22,66.9H10.4v-56H22V66.9z"/>
		<path d="M32.9,10.9h11.7v45.9h27.9v10.1H32.9V10.9z"/>
		<path d="M80.4,10.9h11.7v45.9h27.9v10.1H80.4V10.9z"/>
		<path d="M128,10.9h11.9v34.4c0,3.8,0.5,6.7,1.4,8.4c1.4,3.1,4.5,4.7,9.2,4.7c4.7,0,7.8-1.6,9.2-4.7c0.9-1.8,1.4-4.6,1.4-8.4V10.9
			h11.9v34.4c0,5.9-0.9,10.6-2.8,13.9c-3.4,6.1-10,9.1-19.7,9.1c-9.7,0-16.3-3-19.7-9.1c-1.8-3.3-2.8-7.9-2.8-13.9V10.9z"/>
		<path d="M192.5,49.6c0.4,2.6,1.1,4.5,2.1,5.7c1.9,2.3,5.3,3.5,10,3.5c2.8,0,5.1-0.3,6.9-0.9c3.3-1.2,5-3.3,5-6.5
			c0-1.8-0.8-3.3-2.5-4.3c-1.6-1-4.2-1.9-7.8-2.6l-6.1-1.3c-6-1.3-10-2.7-12.3-4.3c-3.8-2.6-5.7-6.6-5.7-12.1c0-5,1.8-9.2,5.5-12.5
			c3.7-3.3,9.1-5,16.3-5c6,0,11.1,1.6,15.3,4.7c4.2,3.1,6.4,7.7,6.6,13.6h-11.2c-0.2-3.4-1.7-5.8-4.5-7.2c-1.9-0.9-4.2-1.4-7-1.4
			c-3.1,0-5.6,0.6-7.4,1.8c-1.8,1.2-2.8,2.9-2.8,5.1c0,2,0.9,3.5,2.7,4.5c1.2,0.7,3.6,1.4,7.4,2.3l9.8,2.3c4.3,1,7.5,2.4,9.7,4.1
			c3.3,2.6,5,6.4,5,11.4c0,5.1-2,9.4-5.9,12.7c-4,3.4-9.5,5.1-16.8,5.1c-7.4,0-13.2-1.7-17.4-5c-4.2-3.3-6.3-7.9-6.3-13.7H192.5z"/>
		<path d="M276.6,10.9v9.9h-16.7v46.1h-11.8V20.8h-16.8v-9.9H276.6z"/>
		<path d="M319.4,12.4c2.1,0.9,3.8,2.2,5.2,3.9c1.2,1.4,2.1,3,2.8,4.7c0.7,1.7,1,3.7,1,5.9c0,2.7-0.7,5.3-2,7.8
			c-1.3,2.6-3.6,4.4-6.6,5.5c2.6,1,4.4,2.5,5.5,4.4c1.1,1.9,1.6,4.8,1.6,8.8v3.8c0,2.6,0.1,4.3,0.3,5.2c0.3,1.4,1,2.5,2.2,3.2v1.4
			h-12.9c-0.4-1.2-0.6-2.2-0.8-3c-0.3-1.6-0.5-3.2-0.5-4.8l-0.1-5.2c0-3.6-0.7-6-1.9-7.1c-1.2-1.2-3.4-1.8-6.7-1.8h-11.4v21.9h-11.4
			v-56h26.8C314.3,11,317.3,11.5,319.4,12.4z M295.2,20.7v15h12.6c2.5,0,4.4-0.3,5.6-0.9c2.2-1.1,3.3-3.2,3.3-6.3
			c0-3.4-1.1-5.7-3.2-6.8c-1.2-0.7-3-1-5.4-1H295.2z"/>
		<path d="M355.6,10.9h13.2l19.8,56H376l-3.7-11.5h-20.6l-3.8,11.5h-12.2L355.6,10.9z M354.9,45.8h14.3l-7.1-22L354.9,45.8z"/>
		<path d="M430.7,10.9v9.9H414v46.1h-11.8V20.8h-16.8v-9.9H430.7z"/>
		<path d="M448.2,66.9h-11.6v-56h11.6V66.9z"/>
		<path d="M502.3,61.9c-4.2,4.4-10.3,6.5-18.3,6.5c-8,0-14.1-2.2-18.3-6.5c-5.7-5.3-8.5-13-8.5-23.1c0-10.3,2.8-17.9,8.5-23.1
			c4.2-4.4,10.3-6.5,18.3-6.5c8,0,14.1,2.2,18.3,6.5c5.6,5.1,8.5,12.8,8.5,23.1C510.7,48.9,507.9,56.6,502.3,61.9z M495,53.4
			c2.7-3.4,4.1-8.3,4.1-14.6c0-6.3-1.4-11.1-4.1-14.6c-2.7-3.4-6.4-5.1-11-5.1s-8.3,1.7-11.1,5.1c-2.8,3.4-4.1,8.3-4.1,14.6
			c0,6.3,1.4,11.2,4.1,14.6c2.8,3.4,6.5,5.1,11.1,5.1S492.2,56.8,495,53.4z"/>
		<path d="M519.5,10.9h12.3L554,50v-39h10.9v56h-11.7l-22.8-39.7v39.7h-10.9V10.9z"/>
		<path d="M584.3,49.6c0.4,2.6,1.1,4.5,2.1,5.7c1.9,2.3,5.3,3.5,10,3.5c2.8,0,5.1-0.3,6.9-0.9c3.3-1.2,5-3.3,5-6.5
			c0-1.8-0.8-3.3-2.5-4.3c-1.6-1-4.2-1.9-7.8-2.6l-6.1-1.3c-6-1.3-10-2.7-12.3-4.3c-3.8-2.6-5.7-6.6-5.7-12.1c0-5,1.8-9.2,5.5-12.5
			c3.7-3.3,9.1-5,16.3-5c6,0,11.1,1.6,15.3,4.7c4.2,3.1,6.4,7.7,6.6,13.6h-11.2c-0.2-3.4-1.7-5.8-4.5-7.2c-1.9-0.9-4.2-1.4-7-1.4
			c-3.1,0-5.6,0.6-7.4,1.8c-1.8,1.2-2.8,2.9-2.8,5.1c0,2,0.9,3.5,2.7,4.5c1.2,0.7,3.6,1.4,7.4,2.3l9.8,2.3c4.3,1,7.5,2.4,9.7,4.1
			c3.3,2.6,5,6.4,5,11.4c0,5.1-2,9.4-5.9,12.7c-4,3.4-9.5,5.1-16.8,5.1c-7.4,0-13.2-1.7-17.4-5c-4.2-3.3-6.3-7.9-6.3-13.7H584.3z"/>
	</g>
</g>
</svg>
