<?xml version="1.0" encoding="utf-8"?>
<!-- Generator: Adobe Illustrator 19.1.0, SVG Export Plug-In . SVG Version: 6.00 Build 0)  -->
<svg version="1.1" id="Calque_1" xmlns="http://www.w3.org/2000/svg" xmlns:xlink="http://www.w3.org/1999/xlink" x="0px" y="0px"
	 viewBox="-545 1093.9 592 196" style="enable-background:new -545 1093.9 592 196;" xml:space="preserve">
<style type="text/css">
	.st0{fill:#06FFD9;}
	.st1{fill:#A400E8;}
	.st2{fill:#10FCFF;}
	.st3{fill:none;}
	.st4{fill:#1CFF26;}
	.st5{fill:#FF2E7E;}
</style>
<path class="st0" d="M-72.5,1150.4h-12c0,0.7,0,1.3,0,1.9h12C-72.5,1151.7-72.5,1151.1-72.5,1150.4z"/>
<path class="st0" d="M-71.1,1140.6h-12.4c-0.4,1.7-0.7,3.5-0.8,5.4h12C-72,1144-71.6,1142.2-71.1,1140.6z"/>
<path class="st0" d="M-68.3,1135.4c2.8-3.5,6.6-5.3,11.4-5.3h-22c-1.4,1.9-2.5,4-3.4,6.4h13.2C-68.8,1136.2-68.6,1135.8-68.3,1135.4
	z"/>
<path class="st0" d="M-71.3,1165.4c-1-1.2-1.8-2.6-2.4-4.2h-12.5c0.7,2.5,1.6,4.8,2.7,6.9h15C-69.4,1167.4-70.4,1166.5-71.3,1165.4z
	"/>
<path class="st0" d="M-49.7,1165.4c-0.8,1.1-1.8,1.9-2.8,2.7h15c1.2-2.1,2.1-4.4,2.7-6.9h-12.6
	C-47.9,1162.8-48.7,1164.2-49.7,1165.4z"/>
<path class="st0" d="M-41.6,1146h12.1c-0.2-1.9-0.4-3.7-0.8-5.4h-12.5C-42.2,1142.2-41.8,1144-41.6,1146z"/>
<path class="st0" d="M-51.6,1130.2c4.8,0,8.5,1.8,11.3,5.3c0.3,0.4,0.5,0.7,0.8,1.1h13.3c-0.9-2.4-2-4.5-3.4-6.4H-51.6z"/>
<path class="st0" d="M-41.4,1152.4h12c0-0.6,0-1.3,0-1.9h-12C-41.3,1151.1-41.3,1151.7-41.4,1152.4z"/>
<path class="st0" d="M-72.7,1174.2c4.3,4.5,10.6,6.7,18.9,6.7c8.2,0,14.5-2.2,18.9-6.7c0.5-0.5,1.1-1.1,1.6-1.6h-40.8
	C-73.8,1173.1-73.3,1173.7-72.7,1174.2z"/>
<path class="st0" d="M-56.5,1120c-7.9,0-13.9,2.1-18.3,6.2h36.5C-42.5,1122-48.6,1120-56.5,1120z"/>
<path class="st0" d="M-34.9,1130.2c-0.9-1.3-2-2.4-3.1-3.5c-0.2-0.2-0.4-0.4-0.6-0.6h-36.5c-0.2,0.2-0.4,0.4-0.6,0.6
	c-1.2,1.1-2.2,2.2-3.1,3.5h22H-34.9z"/>
<path class="st0" d="M-38.5,1140.6h12.5c-0.3-1.4-0.7-2.8-1.2-4h-13.3C-39.7,1137.8-39.1,1139.1-38.5,1140.6z"/>
<path class="st0" d="M-74.4,1136.6h-13.2c-0.5,1.3-0.9,2.6-1.2,4h12.4C-75.8,1139.1-75.2,1137.8-74.4,1136.6z"/>
<path class="st0" d="M-72.5,1152.4h-12c0.1,3.2,0.5,6.2,1.3,8.9h12.5C-71.7,1158.7-72.3,1155.8-72.5,1152.4z"/>
<path class="st0" d="M-43.1,1161.2h12.6c0.7-2.7,1.1-5.7,1.2-8.9h-12C-41.5,1155.8-42.1,1158.7-43.1,1161.2z"/>
<path class="st0" d="M-58.3,1170.7c-3.3,0-6.2-0.9-8.6-2.6h-15c0.9,1.6,2,3.1,3.2,4.4h40.8c1.2-1.4,2.3-2.8,3.1-4.4h-15
	C-52.1,1169.8-54.9,1170.7-58.3,1170.7z"/>
<path class="st0" d="M-39.3,1150.4h12c0-1.5-0.1-3-0.2-4.4h-12.1C-39.4,1147.4-39.3,1148.9-39.3,1150.4z"/>
<path class="st0" d="M-78.2,1146h-12c-0.1,1.4-0.2,2.9-0.2,4.4h12C-78.4,1148.9-78.4,1147.4-78.2,1146z"/>
<path class="st1" d="M-73.8,1147.5h-12c0,0.7,0,1.3,0,1.9h12C-73.8,1148.7-73.8,1148.1-73.8,1147.5z"/>
<path class="st1" d="M-72.3,1137.6h-12.4c-0.4,1.7-0.7,3.5-0.8,5.4h12C-73.3,1141-72.9,1139.3-72.3,1137.6z"/>
<path class="st1" d="M-69.5,1132.5c2.8-3.5,6.6-5.3,11.4-5.3h-22c-1.4,1.9-2.5,4-3.4,6.4h13.2C-70.1,1133.2-69.8,1132.8-69.5,1132.5
	z"/>
<path class="st1" d="M-72.5,1162.5c-1-1.2-1.8-2.6-2.4-4.2h-12.5c0.7,2.5,1.6,4.8,2.7,6.9h15C-70.7,1164.4-71.7,1163.5-72.5,1162.5z
	"/>
<path class="st1" d="M-51,1162.5c-0.8,1.1-1.8,1.9-2.8,2.7h15c1.2-2.1,2.1-4.4,2.7-6.9h-12.6C-49.2,1159.8-50,1161.2-51,1162.5z"/>
<path class="st1" d="M-42.8,1143h12.1c-0.2-1.9-0.4-3.7-0.8-5.4H-44C-43.5,1139.3-43.1,1141-42.8,1143z"/>
<path class="st1" d="M-52.9,1127.2c4.8,0,8.5,1.8,11.3,5.3c0.3,0.4,0.5,0.7,0.8,1.1h13.3c-0.9-2.4-2-4.5-3.4-6.4H-52.9z"/>
<path class="st1" d="M-42.6,1149.4h12c0-0.6,0-1.3,0-1.9h-12C-42.6,1148.1-42.6,1148.7-42.6,1149.4z"/>
<path class="st1" d="M-74,1171.2c4.3,4.5,10.6,6.7,18.9,6.7c8.2,0,14.5-2.2,18.9-6.7c0.5-0.5,1.1-1.1,1.6-1.6h-40.8
	C-75.1,1170.1-74.6,1170.7-74,1171.2z"/>
<path class="st1" d="M-57.7,1117c-7.9,0-13.9,2.1-18.3,6.2h36.5C-43.8,1119.1-49.9,1117-57.7,1117z"/>
<path class="st1" d="M-36.2,1127.2c-0.9-1.3-2-2.4-3.1-3.5c-0.2-0.2-0.4-0.4-0.6-0.6h-36.5c-0.2,0.2-0.4,0.4-0.6,0.6
	c-1.2,1.1-2.2,2.2-3.1,3.5h22H-36.2z"/>
<path class="st1" d="M-35.8,1137.6h12.5c-0.3-1.4-0.7-2.8-1.2-4h-13.3C-37,1134.8-36.3,1136.1-35.8,1137.6z"/>
<path class="st1" d="M-75.6,1133.6h-13.2c-0.5,1.3-0.9,2.6-1.2,4h12.4C-77.1,1136.1-76.4,1134.8-75.6,1133.6z"/>
<path class="st1" d="M-73.7,1149.4h-12c0.1,3.2,0.5,6.2,1.3,8.9H-72C-73,1155.8-73.6,1152.8-73.7,1149.4z"/>
<path class="st1" d="M-44.4,1158.3h12.6c0.7-2.7,1.1-5.7,1.2-8.9h-12C-42.8,1152.8-43.4,1155.8-44.4,1158.3z"/>
<path class="st1" d="M-59.5,1167.7c-3.3,0-6.2-0.9-8.6-2.6h-15c0.9,1.6,2,3.1,3.2,4.4h40.8c1.2-1.4,2.3-2.8,3.1-4.4h-15
	C-53.4,1166.8-56.2,1167.7-59.5,1167.7z"/>
<path class="st1" d="M-40.5,1147.5h12c0-1.5-0.1-3-0.2-4.4h-12.1C-40.6,1144.4-40.5,1145.9-40.5,1147.5z"/>
<path class="st1" d="M-79.5,1143h-12c-0.1,1.4-0.2,2.9-0.2,4.4h12C-79.7,1145.9-79.6,1144.4-79.5,1143z"/>
<g id="Designer_1_">
	<polygon class="st1" points="-151,1257 -151,1256.1 -151.5,1256.1 	"/>
	<path class="st1" d="M-39.5,1251.9H-53l0,0h17.7C-36.5,1251.9-37.9,1251.9-39.5,1251.9z"/>
	<polygon class="st1" points="-178,1230.8 -178,1236.9 -174.7,1236.9 	"/>
	<polygon class="st1" points="-157.4,1245.9 -154,1251.9 -150,1251.9 -150,1245.9 	"/>
	<path class="st1" d="M-419.5,1264.8c1.5-2.5,2.6-5.9,3.4-7.9h-14.1c-2.5,5-6.9,9-13.2,9H-456v-9h-12v11h46
		C-421.1,1266.9-420.3,1266.1-419.5,1264.8z"/>
	<path class="st1" d="M-468,1276.9h26.9c6.8,0,12.4-3,16.8-6H-468V1276.9z"/>
	<path class="st1" d="M-431.2,1213.1c-2.7-0.9-6-1.2-10-1.2H-468v7h46.1C-424.4,1216.9-427.5,1214.3-431.2,1213.1z"/>
	<rect x="-468" y="1245.9" class="st1" width="12" height="6"/>
	<path class="st1" d="M-456,1222.9h12.6c6.1,0,10.2,2,12.3,5.5c1.3,2.2,2.1,4.5,2.6,8.5h13.7c-0.2-1-0.5-3.3-0.8-4.8
		c-0.8-3.6-2.2-6.2-4.3-10.2H-468v15h12V1222.9z"/>
	<path class="st1" d="M-428.1,1245.9c-0.1,2-0.3,5-0.7,6h13.8c0.3-3,0.5-4,0.6-6H-428.1z"/>
	<rect x="-403" y="1211.9" class="st1" width="46" height="7"/>
	<polygon class="st1" points="-391,1265.9 -391,1256.9 -403,1256.9 -403,1267.9 -354,1267.9 -354,1265.9 	"/>
	<rect x="-403" y="1270.9" class="st1" width="49" height="6"/>
	<polygon class="st1" points="-391,1236.9 -391,1222.9 -357,1222.9 -357,1221.9 -403,1221.9 -403,1236.9 	"/>
	<polygon class="st1" points="-391,1247.9 -359,1247.9 -359,1245.9 -403,1245.9 -403,1251.9 -391,1251.9 	"/>
	<path class="st1" d="M-294.4,1256.9h-13.5c0.4,0,0.6,1.2,0.6,2.2c0,3.6-1.9,5.9-5.8,7.3c-2,0.7-4.7,1-7.9,1
		c-5.4,0-9.2-1.2-11.5-3.9c-1.2-1.5-2-4.5-2.5-6.5h-12.8c0,4,1.1,7,3.2,11h47.2c2-2,3-6,3-9.9
		C-294.4,1257.5-294.4,1256.9-294.4,1256.9z"/>
	<path class="st1" d="M-298.8,1245.9h-38.8c2.7,1,6.5,2.3,11.5,3.4l7,1.6c1.4,0.3,2.6,1,3.8,1h20.1
		C-295.9,1248.9-297.1,1247.9-298.8,1245.9z"/>
	<path class="st1" d="M-309.3,1231.9h12.9c-0.1-4-0.8-8-2.2-10H-317c0.9,1,1.7,0.9,2.5,1.3C-311.3,1224.9-309.6,1227.9-309.3,1231.9
		z"/>
	<path class="st1" d="M-304,1215.3c-4.9-3.6-10.7-5.2-17.6-5.2c-8.2,0-14.5,1.7-18.7,5.5c-1.2,1.1-2.3,2.4-3.1,3.4h43.3
		C-301.2,1217.9-302.5,1216.4-304,1215.3z"/>
	<path class="st1" d="M-345.8,1236.9h21.4c-3.3-1-5.6-1.7-6.7-2.3c-2.1-1.1-3.1-2.9-3.1-5.2c0-2.5,1.1-4.6,3.2-6
		c0.9-0.6,2-0.5,3.2-1.5H-345c-1.2,2-1.7,5.4-1.7,8.4C-346.7,1232.7-346.4,1235.9-345.8,1236.9z"/>
	<path class="st1" d="M-340.5,1272.6c4.9,3.8,11.5,5.7,20,5.7c8.3,0,14.7-1.8,19.3-5.7c0.7-0.6,1.3-0.6,1.8-1.6h-43.1
		C-341.9,1271.9-341.2,1272-340.5,1272.6z"/>
	<rect x="-285" y="1270.9" class="st1" width="12" height="6"/>
	<rect x="-285" y="1211.9" class="st1" width="12" height="7"/>
	<rect x="-285" y="1221.9" class="st1" width="12" height="15"/>
	<rect x="-285" y="1256.9" class="st1" width="12" height="11"/>
	<rect x="-285" y="1245.9" class="st1" width="12" height="6"/>
	<path class="st1" d="M-212.1,1216.4c-5-4.2-11.5-6.4-19.7-6.4c-9.3,0-16.7,2.9-22.4,8.9h45.1C-210,1218.9-211,1217.3-212.1,1216.4z
		"/>
	<path class="st1" d="M-216.8,1231.9h13.2c-0.4-4-1.7-6-3.6-10h-19.7c0.9,1,1.8,0.5,2.7,0.8
		C-220.3,1224.5-217.8,1227.9-216.8,1231.9z"/>
	<path class="st1" d="M-248.6,1236.9c0.8-4,2.2-7.1,4.2-9.5c2.3-2.7,5.1-4.5,8.3-5.5h-20.3c-3.1,5-5.1,10-6.1,15H-248.6z"/>
	<path class="st1" d="M-263.1,1245.9c0,2,0.2,3,0.4,6h13.8c-0.3-1-0.5-4-0.5-6H-263.1z"/>
	<rect x="-230" y="1245.9" class="st1" width="27" height="6"/>
	<path class="st1" d="M-233.7,1278.3c5.2,0,9.6-1,13.1-3.2c1.6-0.9,3.3-2.2,5.1-4.2h-37.9C-248.1,1275.9-241.5,1278.3-233.7,1278.3z
		"/>
	<polygon class="st1" points="-212.2,1276.9 -203,1276.9 -203,1270.9 -213.2,1270.9 	"/>
	<path class="st1" d="M-216.1,1256.9c-0.9,2-2.4,4.5-4.5,6.4c-2.9,2.6-6.6,3.7-11.1,3.7c-4.6,0-8.7-1.4-12.3-4.6
		c-1.6-1.4-2.8-4.4-3.7-5.4h-14.1c1.2,4,3.2,7,6,11h52.8v-11h-13.1V1256.9z"/>
	<rect x="-150" y="1211.9" class="st1" width="12" height="7"/>
	<rect x="-150" y="1245.9" class="st1" width="12" height="6"/>
	<polygon class="st1" points="-176.6,1211.9 -190,1211.9 -190,1218.9 -172.3,1218.9 	"/>
	<rect x="-190" y="1270.9" class="st1" width="12" height="6"/>
	<rect x="-150" y="1221.9" class="st1" width="12" height="15"/>
	<rect x="-190" y="1256.9" class="st1" width="12" height="11"/>
	<rect x="-190" y="1245.9" class="st1" width="12" height="6"/>
	<polygon class="st1" points="-150,1256.9 -150,1257 -151.5,1256.9 -163.6,1256.9 -156.8,1267.9 -138,1267.9 -138,1256.9 	"/>
	<polygon class="st1" points="-151.9,1276.9 -138,1276.9 -138,1270.9 -155.3,1270.9 	"/>
	<polygon class="st1" points="-169.6,1245.9 -166.2,1251.9 -154,1251.9 -157.4,1245.9 	"/>
	<polygon class="st1" points="-178,1236.9 -178,1230.8 -174.7,1236.9 -162.5,1236.9 -170.9,1221.9 -190,1221.9 -190,1236.9 	"/>
	<polygon class="st1" points="-111,1265.9 -111,1256.9 -125,1256.9 -125,1267.9 -76,1267.9 -76,1265.9 	"/>
	<polygon class="st1" points="-111,1236.9 -111,1222.9 -78,1222.9 -78,1221.9 -125,1221.9 -125,1236.9 	"/>
	<rect x="-125" y="1211.9" class="st1" width="47" height="7"/>
	<polygon class="st1" points="-125,1251.9 -111,1251.9 -111,1247.9 -80,1247.9 -80,1245.9 -125,1245.9 	"/>
	<rect x="-125" y="1270.9" class="st1" width="49" height="6"/>
	<path class="st1" d="M-65,1236.9h12v-14h15.2c2.8,0,4.8,0.6,6.2,1.3c2.5,1.3,3.7,4.1,3.7,8c0,1.8-0.3,3.6-0.9,4.6h13.3
		c0.7-3,1.1-4.2,1.1-6.4c0-2.5-0.4-4.9-1.2-6.9c-0.2-0.5-0.5-0.7-0.7-1.7H-65V1236.9z"/>
	<rect x="-65" y="1256.9" class="st1" width="12" height="11"/>
	<path class="st1" d="M-18.8,1217.9c-1.6-2-3.7-3.4-6-4.4c-2.4-1-5.8-1.6-10.2-1.6h-30v7h47.1C-18.2,1218.9-18.5,1218.4-18.8,1217.9
		z"/>
	<path class="st1" d="M-29.1,1273.4c0.2,0.9,0.5,2.5,0.9,3.5H-13v-2c-1-0.8-2.3-1.8-2.7-3.5c0-0.2-0.3-0.5-0.3-0.5h-13.5
		C-29.4,1271.9-29.3,1272.6-29.1,1273.4z"/>
	<path class="st1" d="M-29.8,1261.9l0.1,5.7c0,0.2,0,0.3,0,0.3h13.5c0-1,0.2-1.6,0.2-2.7v-4.3c0-1.8-0.3-3-0.5-4h-13.9
		C-30,1257.9-29.8,1259.7-29.8,1261.9z"/>
	<path class="st1" d="M-65,1251.9h12l0,0h13.4c1.7,0,3.1,0,4.3,0h17.6c-0.1,0-0.3-0.7-0.4-0.9c-1.2-2.2-3.3-3.8-6.3-5h0.1H-65
		V1251.9z"/>
	<rect x="-65" y="1270.9" class="st1" width="12" height="6"/>
	<path class="st1" d="M-215.5,1270.9h2.2l-0.4-2.1C-214.2,1269.6-214.8,1269.9-215.5,1270.9z"/>
	<path class="st1" d="M-427,1267.9h-46v3h43.6C-428.5,1268.9-427.7,1268.9-427,1267.9z"/>
	<rect x="-408" y="1267.9" class="st1" width="49" height="3"/>
	<path class="st1" d="M-349.6,1267.9c0.6,1,1.3,1,2.1,3h43.1c0.8-2,1.4-2,2-3H-349.6z"/>
	<rect x="-290" y="1267.9" class="st1" width="12" height="3"/>
	<path class="st1" d="M-260.8,1267.9c0.4,0,0.7,1.1,1.1,1.5c0.4,0.5,0.9,1.5,1.3,1.5h37.9c0.6,0,1.2-1.3,1.9-2.1l0.4,2.1h10.2v-3
		H-260.8z"/>
	<polygon class="st1" points="-161.8,1267.9 -160.3,1270.9 -143,1270.9 -143,1267.9 	"/>
	<rect x="-195" y="1267.9" class="st1" width="12" height="3"/>
	<rect x="-130" y="1267.9" class="st1" width="49" height="3"/>
	<rect x="-70" y="1267.9" class="st1" width="12" height="3"/>
	<path class="st1" d="M-34.6,1267.9c0,1,0.1,1,0.2,3H-21c-0.1,0-0.2-2-0.2-3H-34.6z"/>
	<path class="st1" d="M-231.6,1221.3c-1.6,0-3.1,0.6-4.5,0.6h9.2C-228.4,1221.9-229.9,1221.3-231.6,1221.3z"/>
	<path class="st1" d="M-427.7,1221.2c-0.5-0.8-1.1-0.3-1.7-2.3H-476v3h48.6C-427.5,1221.9-427.6,1221.4-427.7,1221.2z"/>
	<rect x="-411" y="1218.9" class="st1" width="47" height="3"/>
	<path class="st1" d="M-335.4,1221.9c1.6,0,3.3-0.7,5.3-0.7c2.1,0,3.9,0.7,5.5,0.7h18.5c-0.5,0-1-1-1.6-3H-351c-0.6,2-1.1,3-1.5,3
		H-335.4z"/>
	<rect x="-293" y="1218.9" class="st1" width="13" height="3"/>
	<path class="st1" d="M-263.9,1221.9h20.3c1.4,0,2.9-0.6,4.5-0.6c1.7,0,3.2,0.6,4.7,0.6h19.7c-0.6,0-1.3-1-2-3h-45.1
		c-0.1,0-0.2,0.4-0.3,0.6C-262.7,1220.2-263.3,1221.9-263.9,1221.9z"/>
	<polygon class="st1" points="-178.4,1221.9 -179.8,1218.9 -198,1218.9 -198,1221.9 	"/>
	<rect x="-158" y="1218.9" class="st1" width="13" height="3"/>
	<rect x="-133" y="1218.9" class="st1" width="48" height="3"/>
	<path class="st1" d="M-23.8,1221.9c-0.5,0-1-1-1.5-3H-73v3H-23.8z"/>
	<polygon class="st1" points="-155,1245.9 -155,1236.9 -167.5,1236.9 -162.4,1245.9 	"/>
	<path class="st1" d="M-438.1,1245.9h13.7c0-2,0.1-2,0.1-3c0-1.9-0.2-4-0.4-6h-13.7c0.3,2,0.5,4.4,0.5,6.9
		C-438.1,1244.5-438.1,1245.9-438.1,1245.9z"/>
	<rect x="-473" y="1236.9" class="st1" width="12" height="9"/>
	<polygon class="st1" points="-364,1236.9 -395.9,1236.9 -395.9,1236.9 -408,1236.9 -408,1245.9 -364,1245.9 	"/>
	<path class="st1" d="M-345.2,1244.4c0.7,0.5,1.6,1.5,2.6,1.5h38.8c-0.4,0-0.8-0.9-1.3-1.3c-2.5-2-6.2-3.6-11.1-4.7l-11.3-2.6
		c-0.7-0.2-1.3-0.4-1.9-0.4h-21.4C-349.8,1240.9-347.9,1242.6-345.2,1244.4z"/>
	<rect x="-290" y="1236.9" class="st1" width="12" height="9"/>
	<path class="st1" d="M-268.1,1245.9h13.8c0,0,0-0.4,0-0.7c0-3.1,0.3-6.3,0.8-8.3h-13.9c-0.4,2-0.7,5.3-0.7,8.2
		C-268.2,1245.4-268.1,1245.9-268.1,1245.9z"/>
	<rect x="-235" y="1241.9" class="st1" width="27" height="4"/>
	<rect x="-155" y="1236.9" class="st1" width="12" height="9"/>
	<polygon class="st1" points="-162.4,1245.9 -167.5,1236.9 -179.7,1236.9 -174.6,1245.9 	"/>
	<rect x="-195" y="1236.9" class="st1" width="12" height="9"/>
	<polygon class="st1" points="-85,1245.9 -85,1236.9 -116.8,1236.9 -116.8,1236.9 -130,1236.9 -130,1245.9 	"/>
	<path class="st1" d="M-36.7,1239.8c-1.4,0.7-3.6,1.1-6.5,1.1H-58v-4h-12v9h40.8c3.5-2,6-3.3,7.5-6.2c0.5-0.9,0.9-1.8,1.2-2.8h-13.3
		C-34.5,1237.9-35.4,1239.2-36.7,1239.8z"/>
	<path class="st1" d="M-22.9,1256.9c-0.4-1-0.8-2.5-1.5-3.1c-0.8-0.8-1.9-1.9-3.4-1.9H-45v5H-22.9z"/>
	<rect x="-461" y="1251.9" class="st1" width="13" height="5"/>
	<path class="st1" d="M-421.4,1251.9c-0.3,1-0.7,3.2-1.2,4.5c0,0.1-0.1-0.5-0.1,0.5h14.1c0.4-3,0.7-4,1-5H-421.4z"/>
	<rect x="-396" y="1251.9" class="st1" width="13" height="5"/>
	<path class="st1" d="M-307.8,1251.9c2.2,0,3.9,1.6,5.2,2.3c1,0.6,1.8,1.7,2.3,2.7h13.5c-0.1-3-0.4-4-0.8-5H-307.8z"/>
	<rect x="-278" y="1251.9" class="st1" width="13" height="5"/>
	<path class="st1" d="M-255.2,1251.9c0.2,1,0.5,2,0.9,5h14.1c-0.5-3-0.9-4-1.2-5H-255.2z"/>
	<path class="st1" d="M-223,1251.9v1h15.3c-0.2,1-0.5,3-0.9,4h13.6v-5H-223z"/>
	<rect x="-183" y="1251.9" class="st1" width="13" height="5"/>
	<polygon class="st1" points="-158.7,1251.9 -156.1,1256.9 -144,1256.9 -146.5,1251.9 	"/>
	<rect x="-143" y="1251.9" class="st1" width="13" height="5"/>
	<rect x="-118" y="1251.9" class="st1" width="14" height="5"/>
	<path class="st1" d="M-24.4,1253.8c0.6,0.6,1.1,2.1,1.5,3.1H-9c-0.2-3-0.6-4-1.2-5h-17.6C-26.3,1251.9-25.1,1253-24.4,1253.8z"/>
	<rect x="-58" y="1251.9" class="st1" width="13" height="5"/>
	<polygon class="st2" points="-158.5,1258.3 -158.5,1257.4 -159,1257.4 	"/>
	<path class="st2" d="M-47.1,1252.9h-13.4l0,0h17.7C-44,1252.9-45.4,1252.9-47.1,1252.9z"/>
	<polygon class="st2" points="-185,1232.1 -185,1237.9 -182.2,1237.9 	"/>
	<polygon class="st0" points="-164.9,1246.7 -161.5,1252.9 -158.1,1252.9 -158.1,1246.7 	"/>
	<rect x="-293.2" y="1212.9" class="st0" width="12.5" height="7.5"/>
	<polygon class="st0" points="-158.1,1257.9 -158.1,1258.3 -159,1257.9 -171.1,1257.9 -164.3,1269.2 -145.6,1269.2 -145.6,1257.9 	
		"/>
	<polygon class="st0" points="-159.4,1278 -145.6,1278 -145.6,1271.7 -162.8,1271.7 	"/>
	<path class="st2" d="M-223,1271.9h2.2l-0.4-2.1C-221.7,1270.6-222.3,1270.9-223,1271.9z"/>
	<rect x="-415.9" y="1269.2" class="st0" width="48.8" height="2.5"/>
	<path class="st0" d="M-357.1,1269.2c0.6,1.3,1.3,1.3,2.1,2.5h43.1c0.8-1.3,1.4-1.3,2-2.5H-357.1z"/>
	<polygon class="st0" points="-169.3,1269.2 -167.8,1271.7 -150.6,1271.7 -150.6,1269.2 	"/>
	<path class="st2" d="M-239.1,1222.3c-1.6,0-3.1,0.6-4.5,0.6h9.2C-235.9,1222.9-237.5,1222.3-239.1,1222.3z"/>
	<path class="st0" d="M-271.4,1222.9h20.3c1.4,0,2.9-0.6,4.5-0.6c1.7,0,3.2,0.6,4.7,0.6h19.7c-0.6,0-1.3-1.3-2-2.5h-45.1
		c-0.1,0-0.2,0.2-0.3,0.3C-270.2,1221.4-270.8,1222.9-271.4,1222.9z"/>
	<rect x="-165.6" y="1220.4" class="st0" width="12.5" height="2.5"/>
	<polygon class="st2" points="-163,1246.9 -163,1237.9 -175.1,1237.9 -170,1246.9 	"/>
	<rect x="-163.1" y="1237.9" class="st0" width="12.5" height="8.8"/>
	<rect x="-468.4" y="1252.9" class="st0" width="12.5" height="5"/>
	<g>
		<g>
			<path class="st0" d="M-427,1265.8c1.5-2.5,2.6-4.9,3.4-7.9h-14.1c-2.5,5-6.9,9-13.2,9H-463v-9h-13v11h46.5
				C-428.6,1267.9-427.8,1267.1-427,1265.8z"/>
			<path class="st0" d="M-476,1277.9h27.4c6.8,0,12.4-2,16.8-6H-476V1277.9z"/>
			<path class="st0" d="M-438.7,1214.6c-2.7-0.9-6-1.7-10-1.7H-476v8h46.6C-431.9,1217.9-435,1215.8-438.7,1214.6z"/>
			<rect x="-476" y="1246.9" class="st0" width="13" height="6"/>
			<path class="st0" d="M-463,1223.9h12.1c6.1,0,10.2,2,12.3,5.5c1.3,2.2,2.1,4.5,2.6,8.5h13.7c-0.2-1-0.5-3.3-0.8-4.8
				c-0.8-3.6-2.2-6.2-4.3-10.2H-476v15h13V1223.9z"/>
			<path class="st0" d="M-435.6,1246.9c-0.1,2-0.3,5-0.7,6h13.8c0.3-2,0.5-4,0.6-6H-435.6z"/>
			<rect x="-411" y="1212.9" class="st0" width="47" height="8"/>
			<polygon class="st0" points="-398,1266.9 -398,1257.9 -411,1257.9 -411,1268.9 -362,1268.9 -362,1266.9 			"/>
			<rect x="-411" y="1271.9" class="st0" width="49" height="6"/>
			<polygon class="st0" points="-398,1237.9 -398,1223.9 -364,1223.9 -364,1222.9 -411,1222.9 -411,1237.9 			"/>
			<polygon class="st0" points="-398,1248.9 -367,1248.9 -367,1246.9 -411,1246.9 -411,1252.9 -398,1252.9 			"/>
			<path class="st0" d="M-301.9,1257.9h-13.5c0.4,0,0.6,1.3,0.6,2.3c0,3.6-1.9,6-5.8,7.3c-2,0.7-4.7,1-7.9,1c-5.4,0-9.2-1.3-11.5-4
				c-1.2-1.5-2-3.6-2.5-6.6h-12.8c0,4,1.1,8,3.2,11h47.2c2-2,3-6,3-9.9C-301.9,1258.5-301.9,1257.9-301.9,1257.9z"/>
			<path class="st0" d="M-306.3,1246.9h-38.8c2.7,1,6.5,2.4,11.5,3.5l7,1.5c1.4,0.3,2.6,0.9,3.8,0.9h20.1
				C-303.4,1250.9-304.6,1248.9-306.3,1246.9z"/>
			<path class="st0" d="M-316.8,1232.9h12.9c-0.1-4-0.8-7-2.2-10h-18.5c0.9,1,1.7,0.9,2.5,1.3
				C-318.8,1225.9-317.1,1228.9-316.8,1232.9z"/>
			<path class="st0" d="M-311.5,1216.9c-4.9-3.6-10.7-5.4-17.6-5.4c-8.2,0-14.5,1.9-18.7,5.8c-1.2,1.1-2.3,1.6-3.1,3.6h43.3
				C-308.7,1218.9-310,1218.1-311.5,1216.9z"/>
			<path class="st0" d="M-353.3,1237.9h21.4c-3.3-1-5.6-1.5-6.7-2.2c-2.1-1.1-3.1-2.8-3.1-5.1c0-2.5,1.1-4.7,3.2-6.1
				c0.9-0.6,2-0.6,3.2-1.6h-17.1c-1.2,3-1.7,5.4-1.7,8.4C-354.2,1233.7-353.9,1236.9-353.3,1237.9z"/>
			<path class="st0" d="M-348,1273.7c4.9,3.8,11.5,5.7,20,5.7c8.3,0,14.7-1.9,19.3-5.8c0.7-0.6,1.3-0.7,1.8-1.7H-350
				C-349.4,1272.9-348.7,1273.1-348,1273.7z"/>
			<rect x="-293" y="1271.9" class="st0" width="13" height="6"/>
			<rect x="-293" y="1222.9" class="st0" width="13" height="15"/>
			<rect x="-293" y="1257.9" class="st0" width="13" height="11"/>
			<rect x="-293" y="1246.9" class="st0" width="13" height="6"/>
			<path class="st0" d="M-219.6,1218c-5-4.2-11.5-6.2-19.7-6.2c-9.3,0-16.7,2.1-22.4,9.1h45.1
				C-217.5,1220.9-218.5,1218.9-219.6,1218z"/>
			<path class="st0" d="M-224.3,1232.9h13.3c-0.4-4-1.7-6-3.6-10h-19.7c0.9,1,1.8,0.5,2.7,0.8
				C-227.8,1225.5-225.3,1228.9-224.3,1232.9z"/>
			<path class="st0" d="M-256.1,1237.9c0.8-4,2.2-7.1,4.2-9.5c2.3-2.7,5.1-4.5,8.3-5.5h-20.3c-3.1,5-5.1,10-6.1,15H-256.1z"/>
			<path class="st0" d="M-270.6,1246.9c0,2,0.2,4,0.4,6h13.8c-0.3-1-0.5-4-0.5-6H-270.6z"/>
			<rect x="-238" y="1246.9" class="st0" width="28" height="6"/>
			<path class="st0" d="M-241.2,1279.5c5.2,0,9.6-1.1,13.1-3.2c1.6-0.9,3.3-2.3,5.1-4.3h-37.9
				C-255.6,1276.9-249.1,1279.5-241.2,1279.5z"/>
			<polygon class="st0" points="-219.7,1277.9 -210,1277.9 -210,1271.9 -220.7,1271.9 			"/>
			<path class="st0" d="M-223.6,1257.9c-0.9,3-2.4,4.6-4.5,6.5c-2.9,2.6-6.6,3.8-11.1,3.8c-4.6,0-8.7-1.5-12.3-4.7
				c-1.6-1.4-2.8-4.5-3.7-5.5h-14.1c1.2,4,3.2,8,6,11h53.3v-11h-13.6V1257.9z"/>
			<rect x="-158" y="1212.9" class="st0" width="13" height="8"/>
			<rect x="-158" y="1246.9" class="st0" width="13" height="6"/>
			<polygon class="st0" points="-184.1,1212.9 -198,1212.9 -198,1220.9 -179.8,1220.9 			"/>
			<rect x="-198" y="1271.9" class="st0" width="13" height="6"/>
			<rect x="-158" y="1222.9" class="st0" width="13" height="15"/>
			<rect x="-198" y="1257.9" class="st0" width="13" height="11"/>
			<rect x="-198" y="1246.9" class="st0" width="13" height="6"/>
			<polygon class="st0" points="-177.1,1246.9 -173.7,1252.9 -161.5,1252.9 -164.9,1246.9 			"/>
			<polygon class="st0" points="-185,1237.9 -185,1232.1 -182.2,1237.9 -170.1,1237.9 -178.4,1222.9 -198,1222.9 -198,1237.9 			"/>
			<polygon class="st0" points="-119,1266.9 -119,1257.9 -133,1257.9 -133,1268.9 -84,1268.9 -84,1266.9 			"/>
			<polygon class="st0" points="-119,1237.9 -119,1223.9 -85,1223.9 -85,1222.9 -133,1222.9 -133,1237.9 			"/>
			<rect x="-133" y="1212.9" class="st0" width="48" height="8"/>
			<polygon class="st0" points="-133,1252.9 -119,1252.9 -119,1248.9 -88,1248.9 -88,1246.9 -133,1246.9 			"/>
			<rect x="-133" y="1271.9" class="st0" width="49" height="6"/>
			<path class="st0" d="M-73,1237.9h13v-14h14.7c2.8,0,4.8,0.7,6.2,1.5c2.5,1.3,3.7,4.1,3.7,8c0,1.8-0.3,3.6-0.9,4.6H-23
				c0.7-2,1.1-4.1,1.1-6.2c0-2.5-0.4-5-1.2-7c-0.2-0.5-0.5-0.8-0.7-1.8H-73V1237.9z"/>
			<rect x="-73" y="1257.9" class="st0" width="13" height="11"/>
			<path class="st0" d="M-26.4,1219.6c-1.6-2-3.7-3.7-6-4.8c-2.4-1-5.8-1.9-10.2-1.9H-73v8h47.6C-25.7,1220.9-26,1220-26.4,1219.6z"
				/>
			<path class="st0" d="M-36.6,1274.4c0.2,0.9,0.5,2.5,0.9,3.5H-20v-1.8c-1-0.8-2.6-2-2.9-3.6c0-0.2-0.5-0.6-0.5-0.6H-37
				C-36.9,1272.9-36.8,1273.6-36.6,1274.4z"/>
			<path class="st0" d="M-37.3,1263l0.1,5.7c0,0.2,0,0.2,0,0.2h13.5c0-1-0.3-1.4-0.3-2.4v-4.3c0-1.8,0.2-3.3,0-4.3h-13.9
				C-37.5,1258.9-37.3,1260.8-37.3,1263z"/>
			<path class="st0" d="M-73,1252.9h12.5l0,0h13.4c1.7,0,3.1,0,4.3,0h17.6c-0.1,0-0.3-0.6-0.4-0.8c-1.2-2.2-3.3-3.9-6.3-5.1l0.1-0.1
				H-73V1252.9z"/>
			<rect x="-73" y="1271.9" class="st0" width="13" height="6"/>
			<path class="st0" d="M-434.5,1268.9H-481v3h44.1C-436,1270.9-435.2,1270.9-434.5,1268.9z"/>
			<rect x="-298" y="1268.9" class="st0" width="13" height="3"/>
			<path class="st0" d="M-268.3,1268.9c0.4,0,0.7,1.1,1.1,1.5c0.4,0.5,0.9,1.5,1.3,1.5h37.9c0.6,0,1.2-1.3,1.9-2.1l0.4,2.1h10.7v-3
				H-268.3z"/>
			<rect x="-203" y="1268.9" class="st0" width="13" height="3"/>
			<rect x="-138" y="1268.9" class="st0" width="49" height="3"/>
			<rect x="-78" y="1268.9" class="st0" width="13" height="3"/>
			<path class="st0" d="M-42.1,1268.9c0,2,0.1,2,0.2,3h13.5c-0.1,0-0.2-1-0.2-3H-42.1z"/>
			<path class="st0" d="M-435.2,1222.7c-0.5-0.8-1.1-0.8-1.7-1.8H-483v2h48.1C-435,1222.9-435.1,1222.9-435.2,1222.7z"/>
			<rect x="-418" y="1220.9" class="st0" width="46" height="2"/>
			<path class="st0" d="M-342.9,1222.9c1.6,0,3.3-0.7,5.3-0.7c2.1,0,3.9,0.7,5.5,0.7h18.5c-0.5,0-1-1-1.6-2h-43.3
				c-0.6,1-1.1,2-1.5,2H-342.9z"/>
			<rect x="-300" y="1220.9" class="st0" width="12" height="2"/>
			<polygon class="st0" points="-185.9,1222.9 -187.3,1220.9 -205,1220.9 -205,1222.9 			"/>
			<rect x="-140" y="1220.9" class="st0" width="47" height="2"/>
			<path class="st0" d="M-31.3,1222.9c-0.5,0-1-1-1.5-2H-80v2H-31.3z"/>
			<path class="st0" d="M-445.6,1246.9h13.6c0-1,0.1-2,0.1-3c0-1.9-0.2-3-0.4-6H-446c0.3,3,0.5,4.4,0.5,6.9
				C-445.6,1245.5-445.6,1246.9-445.6,1246.9z"/>
			<rect x="-481" y="1237.9" class="st0" width="13" height="9"/>
			<polygon class="st0" points="-372,1237.9 -403.4,1237.9 -403.4,1237.9 -416,1237.9 -416,1246.9 -372,1246.9 			"/>
			<path class="st0" d="M-352.7,1245.4c0.7,0.5,1.6,1.5,2.6,1.5h38.8c-0.4,0-0.8-0.8-1.3-1.1c-2.5-2-6.2-3.5-11.1-4.7l-11.3-2.7
				c-0.7-0.2-1.3-0.5-1.9-0.5h-21.4C-357.3,1241.9-355.4,1243.6-352.7,1245.4z"/>
			<rect x="-298" y="1237.9" class="st0" width="13" height="9"/>
			<path class="st0" d="M-275.6,1246.9h13.8c0,0,0-0.4,0-0.7c0-3.1,0.3-5.3,0.8-8.3h-14c-0.4,3-0.7,5.3-0.7,8.2
				C-275.7,1246.4-275.6,1246.9-275.6,1246.9z"/>
			<rect x="-243" y="1242.9" class="st0" width="28" height="4"/>
			<polygon class="st0" points="-170,1246.9 -175.1,1237.9 -187.2,1237.9 -182.1,1246.9 			"/>
			<rect x="-203" y="1237.9" class="st0" width="13" height="9"/>
			<polygon class="st0" points="-93,1246.9 -93,1237.9 -124.3,1237.9 -124.3,1237.9 -138,1237.9 -138,1246.9 			"/>
			<path class="st0" d="M-44.2,1240.8c-1.4,0.7-3.6,1.1-6.5,1.1H-65v-4h-13v9h41.2c3.5-1,6-3.3,7.5-6.2c0.5-0.9,0.9-1.8,1.2-2.8
				h-13.3C-42,1238.9-42.9,1240.2-44.2,1240.8z"/>
			<path class="st0" d="M-30.4,1257.9c-0.4-1-0.8-2.5-1.5-3.1c-0.8-0.8-1.9-1.9-3.4-1.9H-53v5H-30.4z"/>
			<path class="st0" d="M-428.9,1252.9c-0.3,1-0.7,3.2-1.2,4.5c0,0.1-0.1-0.5-0.1,0.5h14.1c0.4-2,0.7-4,1-5H-428.9z"/>
			<rect x="-403" y="1252.9" class="st0" width="12" height="5"/>
			<path class="st0" d="M-315.3,1252.9c2.2,0,3.9,1.6,5.2,2.3c1,0.6,1.8,1.7,2.3,2.7h13.5c-0.1-2-0.4-4-0.8-5H-315.3z"/>
			<rect x="-285" y="1252.9" class="st0" width="12" height="5"/>
			<path class="st0" d="M-262.7,1252.9c0.2,1,0.5,3,0.9,5h14.1c-0.5-2-0.9-4-1.2-5H-262.7z"/>
			<path class="st0" d="M-230,1252.9v1h14.8c-0.2,2-0.5,3-0.9,4h13.1v-5H-230z"/>
			<rect x="-190" y="1252.9" class="st0" width="12" height="5"/>
			<polygon class="st0" points="-166.2,1252.9 -163.6,1257.9 -151.5,1257.9 -154,1252.9 			"/>
			<rect x="-150" y="1252.9" class="st0" width="12" height="5"/>
			<rect x="-125" y="1252.9" class="st0" width="14" height="5"/>
			<path class="st0" d="M-31.9,1254.8c0.6,0.6,1.1,2.1,1.5,3.1h13.9c-0.2-2-0.6-4-1.2-5h-17.6C-33.8,1252.9-32.6,1254-31.9,1254.8z"
				/>
			<rect x="-65" y="1252.9" class="st0" width="12" height="5"/>
		</g>
	</g>
	<path class="st3" d="M-434.4,1245.9H-462v6h26.9C-434.7,1250.9-434.5,1247.9-434.4,1245.9z"/>
	<path class="st3" d="M-250.2,1262.2c3.6,3.3,7.7,4.7,12.3,4.7c4.5,0,8.2-1,11.1-3.6c2-1.8,3.5-4.4,4.5-6.4h-31.6
		C-253,1257.9-251.8,1260.8-250.2,1262.2z"/>
	<polygon class="st3" points="-157.3,1257 -157.3,1256.1 -157.7,1256.1 	"/>
	<path class="st3" d="M-45.8,1251.9h-13.4l0,0h17.7C-42.7,1251.9-44.1,1251.9-45.8,1251.9z"/>
	<path class="st3" d="M-462,1265.9h12.3c6.3,0,10.7-4,13.2-9H-462V1265.9z"/>
	<polygon class="st3" points="-184,1230.8 -184,1236.9 -181,1236.9 	"/>
	<path class="st3" d="M-437.4,1228.4c-2.1-3.5-6.1-5.5-12.3-5.5H-462v14h27.2C-435.3,1232.9-436.1,1230.6-437.4,1228.4z"/>
	<polygon class="st3" points="-163.7,1245.9 -160.3,1251.9 -157,1251.9 -157,1245.9 	"/>
	<path d="M-425.8,1264.8c1.5-2.5,2.6-5.9,3.4-7.9h-14.1c-2.5,5-6.9,9-13.2,9H-462v-9h-12v11h45.8
		C-427.3,1266.9-426.5,1266.1-425.8,1264.8z"/>
	<path d="M-474,1276.9h26.6c6.8,0,12.4-3,16.8-6H-474V1276.9z"/>
	<path d="M-437.4,1213.1c-2.7-0.9-6-1.2-10-1.2H-474v7h45.8C-430.7,1216.9-433.8,1214.3-437.4,1213.1z"/>
	<rect x="-474" y="1245.9" width="12" height="6"/>
	<path d="M-462,1222.9h12.3c6.1,0,10.2,2,12.3,5.5c1.3,2.2,2.1,4.5,2.6,8.5h13.7c-0.2-1-0.5-3.3-0.8-4.8c-0.8-3.6-2.2-6.2-4.3-10.2
		H-474v15h12V1222.9z"/>
	<path d="M-434.4,1245.9c-0.1,2-0.3,5-0.7,6h13.8c0.3-3,0.5-4,0.6-6H-434.4z"/>
	<rect x="-409" y="1211.9" width="46" height="7"/>
	<polygon points="-397,1265.9 -397,1256.9 -409,1256.9 -409,1267.9 -361,1267.9 -361,1265.9 	"/>
	<rect x="-409" y="1270.9" width="48" height="6"/>
	<polygon points="-397,1236.9 -397,1222.9 -363,1222.9 -363,1221.9 -409,1221.9 -409,1236.9 	"/>
	<polygon points="-397,1247.9 -366,1247.9 -366,1245.9 -409,1245.9 -409,1251.9 -397,1251.9 	"/>
	<path d="M-300.7,1256.9h-13.5c0.4,0,0.6,1.2,0.6,2.2c0,3.6-1.9,5.9-5.8,7.3c-2,0.7-4.7,1-7.9,1c-5.4,0-9.2-1.2-11.5-3.9
		c-1.2-1.5-2-4.5-2.5-6.5H-354c0,4,1.1,7,3.2,11h47.2c2-2,3-6,3-9.9C-300.6,1257.5-300.6,1256.9-300.7,1256.9z"/>
	<path d="M-305.1,1245.9h-38.8c2.7,1,6.5,2.3,11.5,3.4l7,1.6c1.4,0.3,2.6,1,3.8,1h20.1C-302.2,1248.9-303.4,1247.9-305.1,1245.9z"/>
	<path d="M-315.6,1231.9h12.9c-0.1-4-0.8-8-2.2-10h-18.5c0.9,1,1.7,0.9,2.5,1.3C-317.6,1224.9-315.8,1227.9-315.6,1231.9z"/>
	<path d="M-310.3,1215.3c-4.9-3.6-10.7-5.2-17.6-5.2c-8.2,0-14.5,1.7-18.7,5.5c-1.2,1.1-2.3,2.4-3.1,3.4h43.3
		C-307.5,1217.9-308.8,1216.4-310.3,1215.3z"/>
	<path d="M-352,1236.9h21.4c-3.3-1-5.6-1.7-6.7-2.3c-2.1-1.1-3.1-2.9-3.1-5.2c0-2.5,1.1-4.6,3.2-6c0.9-0.6,2-0.5,3.2-1.5h-17.1
		c-1.2,2-1.7,5.4-1.7,8.4C-353,1232.7-352.6,1235.9-352,1236.9z"/>
	<path d="M-346.7,1272.6c4.9,3.8,11.5,5.7,20,5.7c8.3,0,14.7-1.8,19.3-5.7c0.7-0.6,1.3-0.6,1.8-1.6h-43.1
		C-348.1,1271.9-347.4,1272-346.7,1272.6z"/>
	<rect x="-292" y="1270.9" width="13" height="6"/>
	<rect x="-292" y="1211.9" width="13" height="7"/>
	<rect x="-292" y="1221.9" width="13" height="15"/>
	<rect x="-292" y="1256.9" width="13" height="11"/>
	<rect x="-292" y="1245.9" width="13" height="6"/>
	<path d="M-218.3,1216.4c-5-4.2-11.5-6.4-19.7-6.4c-9.3,0-16.7,2.9-22.4,8.9h45.1C-216.3,1218.9-217.2,1217.3-218.3,1216.4z"/>
	<path d="M-223,1231.9h13.2c-0.4-4-1.7-6-3.6-10h-19.7c0.9,1,1.8,0.5,2.7,0.8C-226.5,1224.5-224,1227.9-223,1231.9z"/>
	<path d="M-254.9,1236.9c0.8-4,2.2-7.1,4.2-9.5c2.3-2.7,5.1-4.5,8.3-5.5h-20.3c-3.1,5-5.1,10-6.1,15H-254.9z"/>
	<path d="M-269.4,1245.9c0,2,0.2,3,0.4,6h13.8c-0.3-1-0.5-4-0.5-6H-269.4z"/>
	<rect x="-237" y="1245.9" width="28" height="6"/>
	<path d="M-239.9,1278.3c5.2,0,9.6-1,13.1-3.2c1.6-0.9,3.3-2.2,5.1-4.2h-37.9C-254.3,1275.9-247.8,1278.3-239.9,1278.3z"/>
	<polygon points="-218.5,1276.9 -209,1276.9 -209,1270.9 -219.5,1270.9 	"/>
	<path d="M-222.4,1256.9c-0.9,2-2.4,4.5-4.5,6.4c-2.9,2.6-6.6,3.7-11.1,3.7c-4.6,0-8.7-1.4-12.3-4.6c-1.6-1.4-2.8-4.4-3.7-5.4h-14.1
		c1.2,4,3.2,7,6,11h53v-11h-13.3V1256.9z"/>
	<rect x="-157" y="1211.9" width="13" height="7"/>
	<rect x="-157" y="1245.9" width="13" height="6"/>
	<polygon points="-182.8,1211.9 -197,1211.9 -197,1218.9 -178.6,1218.9 	"/>
	<rect x="-197" y="1270.9" width="13" height="6"/>
	<rect x="-157" y="1221.9" width="13" height="15"/>
	<rect x="-197" y="1256.9" width="13" height="11"/>
	<rect x="-197" y="1245.9" width="13" height="6"/>
	<polygon points="-157,1256.9 -157,1257 -157.7,1256.9 -169.9,1256.9 -163,1267.9 -144,1267.9 -144,1256.9 	"/>
	<polygon points="-158.2,1276.9 -144,1276.9 -144,1270.9 -161.6,1270.9 	"/>
	<polygon points="-175.8,1245.9 -172.4,1251.9 -160.3,1251.9 -163.7,1245.9 	"/>
	<polygon points="-184,1236.9 -184,1230.8 -181,1236.9 -168.8,1236.9 -177.1,1221.9 -197,1221.9 -197,1236.9 	"/>
	<polygon points="-118,1265.9 -118,1256.9 -131,1256.9 -131,1267.9 -83,1267.9 -83,1265.9 	"/>
	<polygon points="-118,1236.9 -118,1222.9 -84,1222.9 -84,1221.9 -131,1221.9 -131,1236.9 	"/>
	<rect x="-131" y="1211.9" width="47" height="7"/>
	<polygon points="-131,1251.9 -118,1251.9 -118,1247.9 -86,1247.9 -86,1245.9 -131,1245.9 	"/>
	<rect x="-131" y="1270.9" width="48" height="6"/>
	<path d="M-71,1236.9h12v-14h14.9c2.8,0,4.8,0.6,6.2,1.3c2.5,1.3,3.7,4.1,3.7,8c0,1.8-0.3,3.6-0.9,4.6h13.3c0.7-3,1.1-4.2,1.1-6.4
		c0-2.5-0.4-4.9-1.2-6.9c-0.2-0.5-0.5-0.7-0.7-1.7H-71V1236.9z"/>
	<rect x="-71" y="1256.9" width="12" height="11"/>
	<path d="M-25.1,1217.9c-1.6-2-3.7-3.4-6-4.4c-2.4-1-5.8-1.6-10.2-1.6H-71v7h46.9C-24.4,1218.9-24.8,1218.4-25.1,1217.9z"/>
	<path d="M-35.4,1273.4c0.2,0.9,0.5,2.5,0.9,3.5H-19v-2c-1-0.8-2.4-1.8-2.8-3.5c0-0.2-0.4-0.5-0.4-0.5h-13.5
		C-35.6,1271.9-35.5,1272.6-35.4,1273.4z"/>
	<path d="M-36,1261.9l0.1,5.7c0,0.2,0,0.3,0,0.3h13.5c0-1-0.6-1.6-0.6-2.7v-4.3c0-1.8,0.4-3,0.2-4h-13.9
		C-36.3,1257.9-36,1259.7-36,1261.9z"/>
	<path d="M-71,1251.9h11.8l0,0h13.4c1.7,0,3.1,0,4.3,0h17.6c-0.1,0-0.3-0.7-0.4-0.9c-1.2-2.2-3.3-3.8-6.3-5h0.1H-71V1251.9z"/>
	<rect x="-71" y="1270.9" width="12" height="6"/>
	<path class="st4" d="M-221.7,1270.9h2.2l-0.4-2.1C-220.5,1269.6-221.1,1269.9-221.7,1270.9z"/>
	<path d="M-433.2,1267.9H-479v3h43.4C-434.8,1268.9-434,1268.9-433.2,1267.9z"/>
	<rect x="-414" y="1267.9" width="48" height="3"/>
	<path d="M-355.8,1267.9c0.6,1,1.3,1,2.1,3h43.1c0.8-2,1.4-2,2-3H-355.8z"/>
	<rect x="-297" y="1267.9" width="13" height="3"/>
	<path d="M-267,1267.9c0.4,0,0.7,1.1,1.1,1.5c0.4,0.5,0.9,1.5,1.3,1.5h37.9c0.6,0,1.2-1.3,1.9-2.1l0.4,2.1h10.4v-3H-267z"/>
	<polygon points="-168.1,1267.9 -166.6,1270.9 -149,1270.9 -149,1267.9 	"/>
	<rect x="-202" y="1267.9" width="13" height="3"/>
	<rect x="-136" y="1267.9" width="48" height="3"/>
	<rect x="-76" y="1267.9" width="12" height="3"/>
	<path d="M-40.9,1267.9c0,1,0.1,1,0.2,3h13.5c-0.1,0-0.2-2-0.2-3H-40.9z"/>
	<path class="st4" d="M-237.9,1221.3c-1.6,0-3.1,0.6-4.5,0.6h9.2C-234.6,1221.9-236.2,1221.3-237.9,1221.3z"/>
	<path d="M-434,1221.2c-0.5-0.8-1.1-0.3-1.7-2.3H-482v3h48.3C-433.8,1221.9-433.9,1221.4-434,1221.2z"/>
	<rect x="-417" y="1218.9" width="46" height="3"/>
	<path d="M-341.6,1221.9c1.6,0,3.3-0.7,5.3-0.7c2.1,0,3.9,0.7,5.5,0.7h18.5c-0.5,0-1-1-1.6-3h-43.3c-0.6,2-1.1,3-1.5,3H-341.6z"/>
	<rect x="-299" y="1218.9" width="12" height="3"/>
	<path d="M-270.2,1221.9h20.3c1.4,0,2.9-0.6,4.5-0.6c1.7,0,3.2,0.6,4.7,0.6h19.7c-0.6,0-1.3-1-2-3h-45c-0.1,0-0.2,0.4-0.3,0.6
		C-269,1220.2-269.6,1221.9-270.2,1221.9z"/>
	<polygon points="-184.6,1221.9 -186.1,1218.9 -204,1218.9 -204,1221.9 	"/>
	<rect x="-164" y="1218.9" width="12" height="3"/>
	<rect x="-139" y="1218.9" width="48" height="3"/>
	<path d="M-30.1,1221.9c-0.5,0-1-1-1.5-3H-79v3H-30.1z"/>
	<polygon points="-162,1245.9 -162,1236.9 -173.8,1236.9 -168.7,1245.9 	"/>
	<path d="M-444.4,1245.9h13.7c0-2,0.1-2,0.1-3c0-1.9-0.2-4-0.4-6h-13.7c0.3,2,0.5,4.4,0.5,6.9
		C-444.3,1244.5-444.4,1245.9-444.4,1245.9z"/>
	<rect x="-479" y="1236.9" width="12" height="9"/>
	<polygon points="-371,1236.9 -402.1,1236.9 -402.1,1236.9 -414,1236.9 -414,1245.9 -371,1245.9 	"/>
	<path d="M-351.4,1244.4c0.7,0.5,1.6,1.5,2.6,1.5h38.8c-0.4,0-0.8-0.9-1.3-1.3c-2.5-2-6.2-3.6-11.1-4.7l-11.3-2.6
		c-0.7-0.2-1.3-0.4-1.9-0.4H-357C-356,1240.9-354.2,1242.6-351.4,1244.4z"/>
	<rect x="-297" y="1236.9" width="13" height="9"/>
	<path d="M-274.4,1245.9h13.8c0,0,0-0.4,0-0.7c0-3.1,0.3-6.3,0.8-8.3h-13.9c-0.4,2-0.7,5.3-0.7,8.2
		C-274.4,1245.4-274.4,1245.9-274.4,1245.9z"/>
	<rect x="-242" y="1241.9" width="28" height="4"/>
	<rect x="-162" y="1236.9" width="13" height="9"/>
	<polygon points="-168.7,1245.9 -173.8,1236.9 -186,1236.9 -180.9,1245.9 	"/>
	<rect x="-202" y="1236.9" width="13" height="9"/>
	<polygon points="-91,1245.9 -91,1236.9 -123.1,1236.9 -123.1,1236.9 -136,1236.9 -136,1245.9 	"/>
	<path d="M-43,1239.8c-1.4,0.7-3.6,1.1-6.5,1.1H-64v-4h-12v9h40.5c3.5-2,6-3.3,7.5-6.2c0.5-0.9,0.9-1.8,1.2-2.8h-13.3
		C-40.7,1237.9-41.7,1239.2-43,1239.8z"/>
	<path d="M-29.1,1256.9c-0.4-1-0.8-2.5-1.5-3.1c-0.8-0.8-1.9-1.9-3.4-1.9h-17v5H-29.1z"/>
	<rect x="-467" y="1251.9" width="13" height="5"/>
	<path d="M-427.6,1251.9c-0.3,1-0.7,3.2-1.2,4.5c0,0.1-0.1-0.5-0.1,0.5h14.1c0.4-3,0.7-4,1-5H-427.6z"/>
	<rect x="-402" y="1251.9" width="13" height="5"/>
	<path d="M-314.1,1251.9c2.2,0,3.9,1.6,5.2,2.3c1,0.6,1.8,1.7,2.3,2.7h13.5c-0.1-3-0.4-4-0.8-5H-314.1z"/>
	<rect x="-284" y="1251.9" width="12" height="5"/>
	<path d="M-261.4,1251.9c0.2,1,0.5,2,0.9,5h14.1c-0.5-3-0.9-4-1.2-5H-261.4z"/>
	<path d="M-229,1251.9v1h15c-0.2,1-0.5,3-0.9,4h12.9v-5H-229z"/>
	<rect x="-189" y="1251.9" width="12" height="5"/>
	<polygon points="-164.9,1251.9 -162.3,1256.9 -150.2,1256.9 -152.8,1251.9 	"/>
	<rect x="-149" y="1251.9" width="13" height="5"/>
	<rect x="-124" y="1251.9" width="14" height="5"/>
	<path d="M-30.6,1253.8c0.6,0.6,1.1,2.1,1.5,3.1h13.9c-0.2-3-0.6-4-1.2-5H-34C-32.5,1251.9-31.4,1253-30.6,1253.8z"/>
	<rect x="-64" y="1251.9" width="13" height="5"/>
</g>
<polygon class="st0" points="-258.9,1129.2 -259.9,1132.3 -257.9,1132.3 "/>
<polygon class="st0" points="-467.4,1157.5 -467.4,1152.3 -471.7,1152.3 "/>
<path class="st0" d="M-199.4,1166.7c2.8,0,5.1-0.6,7-1.9h-13.7C-204.2,1166.1-201.9,1166.7-199.4,1166.7z"/>
<polygon class="st0" points="-266.5,1151.1 -251.5,1151.1 -251.9,1151.1 -266.1,1151.1 "/>
<polygon class="st0" points="-493.7,1136 -493.7,1146.1 -487.2,1146.1 -491.7,1136 "/>
<polygon class="st0" points="-260.9,1136 -263.5,1146.1 -254.4,1146.1 -256.9,1136 "/>
<rect x="-528.8" y="1127.3" class="st0" width="11.3" height="3.8"/>
<polygon class="st0" points="-517.5,1151.1 -518.7,1151.1 -518.7,1146.1 -517.5,1146.1 -517.5,1136 -528.8,1136 -528.8,1159.8 
	-517.5,1159.8 "/>
<rect x="-528.8" y="1164.8" class="st0" width="11.3" height="11.3"/>
<rect x="-528.8" y="1117.3" class="st0" width="11.3" height="6.3"/>
<polygon class="st0" points="-491.8,1117.3 -505,1117.3 -505,1123.5 -488.9,1123.5 "/>
<rect x="-505" y="1164.8" class="st0" width="11.3" height="11.3"/>
<polygon class="st0" points="-469.3,1176.1 -454.9,1176.1 -454.9,1164.8 -475.5,1164.8 "/>
<polygon class="st0" points="-467.4,1151.1 -467.4,1157.5 -471.7,1151.1 -482.8,1151.1 -477.4,1159.8 -454.9,1159.8 -454.9,1151.1 
	"/>
<rect x="-467.4" y="1117.3" class="st0" width="12.5" height="6.3"/>
<rect x="-505" y="1151.1" class="st0" width="11.3" height="8.8"/>
<rect x="-467.4" y="1136" class="st0" width="12.5" height="10"/>
<polygon class="st0" points="-491.7,1136 -487.2,1146.1 -476.1,1146.1 -480.6,1136 "/>
<polygon class="st0" points="-482.4,1131 -486,1127.3 -505,1127.3 -505,1131 "/>
<rect x="-467.4" y="1127.3" class="st0" width="12.5" height="3.8"/>
<rect x="-505" y="1136" class="st0" width="11.3" height="10"/>
<rect x="-434.9" y="1164.8" class="st0" width="15" height="11.3"/>
<rect x="-434.9" y="1136" class="st0" width="15" height="10"/>
<polygon class="st0" points="-434.9,1127.3 -434.9,1131 -419.9,1131 -419.9,1127.3 -403,1127.3 -403,1127.3 -450.7,1127.3 
	-450.7,1127.3 "/>
<rect x="-449.9" y="1117.3" class="st0" width="46.3" height="6.3"/>
<rect x="-434.9" y="1151.1" class="st0" width="15" height="8.8"/>
<polygon class="st0" points="-394.8,1176.1 -349.8,1176.1 -349.8,1164.8 -383.6,1164.8 -383.6,1164.8 -394.8,1164.8 "/>
<rect x="-394.8" y="1151.1" class="st0" width="10" height="8.8"/>
<polygon class="st0" points="-384.8,1131 -384.8,1127.3 -352.5,1127.3 -352.5,1127.3 -394.8,1127.3 -394.8,1131 "/>
<rect x="-394.8" y="1117.3" class="st0" width="45.1" height="6.3"/>
<polygon class="st0" points="-384.8,1141.1 -384.8,1136 -394.8,1136 -394.8,1146.1 -354.8,1146.1 -354.8,1141.1 "/>
<path class="st0" d="M-303.7,1119.4c-2.2-0.9-5.2-2.1-9.3-2.1h-26.8v6.3h41.1C-300.1,1121-301.8,1120.2-303.7,1119.4z"/>
<rect x="-339.8" y="1164.8" class="st0" width="10" height="11.3"/>
<path class="st0" d="M-306.6,1131h12.4c0,0-0.4-2.9-1.1-4.7c0-0.1-0.1,0.9-0.2,0.9h-20.1c2.5,0,4.4-0.9,5.7-0.2
	C-308.1,1128-307,1131-306.6,1131z"/>
<path class="st0" d="M-294.5,1136h-12.1c-0.3,5-1.4,4.4-3.4,5.3c-1.3,0.6-3.3,0.9-5.9,0.9h-13.9v-6.3h-10v10h41.6
	c0.7,0,1.3-2.7,1.8-3.6C-295.4,1140.7-294.8,1136-294.5,1136z"/>
<rect x="-339.8" y="1127.3" class="st0" width="10" height="3.8"/>
<path class="st0" d="M-308.1,1167.3c0,1.7,0.2,3.7,0.5,5.4c0.2,0.8,0.4,3.5,0.8,3.5h14.6v-2.3c-3.8-0.7-2.5-1.8-2.8-3.3
	c-0.2-1-0.9-2.8-0.9-5.5v-0.2h-12.2V1167.3z"/>
<path class="st0" d="M-297.6,1151.5l0.1-0.4h-42.2v8.8h10v-8.8h12.7c3.4,0,5.7,0.5,7,1.8c1.2,1.2,1.8,7,1.9,7h12.1v1.3
	C-296,1157-296.5,1153.5-297.6,1151.5z"/>
<polygon class="st0" points="-244.3,1176.1 -231,1176.1 -234.9,1164.8 -247.8,1164.8 "/>
<polygon class="st0" points="-286.6,1176.1 -273.8,1176.1 -270.2,1164.8 -282.8,1164.8 "/>
<polygon class="st0" points="-256.9,1136 -254.4,1146.1 -242.1,1146.1 -244.8,1136 "/>
<polygon class="st0" points="-251.9,1151.1 -251.5,1151.1 -266.5,1151.1 -266.1,1151.1 -278.3,1151.1 -281.6,1159.8 -236,1159.8 
	-239.3,1151.1 "/>
<polygon class="st0" points="-259.9,1131 -258.9,1128 -257.9,1131 -246,1131 -248.2,1127.3 -269.3,1127.3 -271.6,1131 "/>
<polygon class="st0" points="-251.8,1117.3 -265.7,1117.3 -267.5,1123.5 -250,1123.5 "/>
<polygon class="st0" points="-272.7,1136 -275.5,1146.1 -263.5,1146.1 -260.9,1136 "/>
<path class="st0" d="M-225.1,1136c-0.6,5-0.9,5-1,10h12.6c0.2-5,0.6-5,1.3-10C-212.2,1136-225.1,1136-225.1,1136z"/>
<path class="st0" d="M-199.4,1166.7c-2.5,0-4.8-0.6-6.7-1.9H-222c0.9,1.3,1.9,2.8,3.1,4.2c4.8,5.4,11.3,8,19.7,8
	c6.7,0,12.3-1.9,16.6-5.9c2-1.9,3.7-5.1,5-6.3h-14.8C-194.3,1166.1-196.7,1166.7-199.4,1166.7z"/>
<path class="st0" d="M-210.8,1131c0.3,0,0.7,0.1,1-0.5c1.5-2.2,3.4-3.3,5.6-3.3h-17c-1.2,1.3-2.2,3.8-3,3.8H-210.8z"/>
<path class="st0" d="M-189.7,1129c0.7,0.9,1.4,2,1.9,2h12.9c-0.5,0-1.3-2.5-2.6-3.8h-16.7C-192.4,1127.3-190.9,1127.6-189.7,1129z"
	/>
<path class="st0" d="M-225.8,1151.1c0.4,6.3,1.1,8.8,2.3,8.8h13.9c-1.8,0-3-2.5-3.6-8.8H-225.8z"/>
<path class="st0" d="M-199.9,1117.3c-6.8,0-12.4,0-17,6.2h35.3C-186,1117.3-192.1,1117.3-199.9,1117.3z"/>
<path class="st0" d="M-186.8,1157.3c-0.7,2.5-1.5,2.5-2.4,2.5h13c0.7,0,1.3,0,1.6-2.5H-186.8z"/>
<rect x="-152.1" y="1164.8" class="st0" width="13.8" height="11.3"/>
<rect x="-168.3" y="1117.3" class="st0" width="46.3" height="6.3"/>
<polygon class="st0" points="-152.1,1127.3 -152.1,1131 -138.3,1131 -138.3,1127.3 -122.2,1127.3 -122.2,1127.3 -169.2,1127.3 
	-169.2,1127.3 "/>
<rect x="-152.1" y="1151.1" class="st0" width="13.8" height="8.8"/>
<rect x="-152.1" y="1136" class="st0" width="13.8" height="10"/>
<rect x="-117" y="1164.8" class="st0" width="13.8" height="11.3"/>
<rect x="-117" y="1136" class="st0" width="13.8" height="10"/>
<rect x="-117" y="1151.1" class="st0" width="13.8" height="8.8"/>
<rect x="-117" y="1127.3" class="st0" width="13.8" height="3.8"/>
<rect x="-117" y="1117.3" class="st0" width="13.8" height="6.3"/>
<rect x="-532.5" y="1123.5" class="st0" width="13.8" height="3.8"/>
<polygon class="st0" points="-489.4,1127.3 -492.3,1123.5 -507.5,1123.5 -507.5,1127.3 "/>
<rect x="-472.4" y="1123.5" class="st0" width="12.5" height="3.8"/>
<rect x="-453.7" y="1123.5" class="st0" width="47.6" height="3.8"/>
<rect x="-401.1" y="1123.5" class="st0" width="45.1" height="3.8"/>
<path class="st0" d="M-332.5,1127.3h13.5h20.1c-0.7,0-1.6-2.5-2.8-3.9c-0.1-0.2-0.3,0.2-0.5,0.2h-40.1v3.8L-332.5,1127.3
	L-332.5,1127.3z"/>
<polygon class="st0" points="-251.6,1127.3 -253.5,1123.5 -271,1123.5 -272.8,1127.3 "/>
<path class="st0" d="M-224.6,1127.3h17c1.4,0,3-0.8,4.7-0.8c2,0,3.7,0.8,5.3,0.8h16.7c-0.3,0-0.6-0.4-1-0.9c-0.9-1.3-1.9-2.8-3-2.8
	h-35.3c-0.4,0-0.7,0-1.1,0.4C-222.6,1125.1-223.7,1127.3-224.6,1127.3z"/>
<rect x="-173.3" y="1123.5" class="st0" width="47.6" height="3.8"/>
<rect x="-119.5" y="1123.5" class="st0" width="10" height="3.8"/>
<rect x="-517.5" y="1146.1" class="st0" width="6.3" height="5"/>
<polygon class="st0" points="-490,1146.1 -485.5,1151.1 -474.5,1151.1 -478.9,1146.1 "/>
<rect x="-462.4" y="1146.1" class="st0" width="8.8" height="5"/>
<rect x="-500" y="1146.1" class="st0" width="11.3" height="5"/>
<rect x="-427.4" y="1146.1" class="st0" width="13.8" height="5"/>
<polygon class="st0" points="-349.8,1147.3 -349.8,1146.1 -392.3,1146.1 -392.3,1151.1 -378.6,1151.1 -378.6,1147.3 "/>
<path class="st0" d="M-299.1,1147.8c2.1-0.7,3.8-1.8,5.1-1.8h-43.3v5h43.9C-294.5,1151.1-296.4,1148.9-299.1,1147.8z"/>
<polygon class="st0" points="-271.3,1146.1 -274.1,1151.1 -261.9,1151.1 -259.4,1146.1 "/>
<polygon class="st0" points="-250.2,1146.1 -247.7,1151.1 -235.2,1151.1 -237.9,1146.1 "/>
<path class="st0" d="M-209.4,1146.1H-222c0,0-0.1,0.2-0.1,0.9c0,1.9,0.1,4.1,0.3,4.1h12.6c-0.2,0-0.3-2-0.3-3.9
	C-209.4,1146.3-209.4,1146.1-209.4,1146.1z"/>
<rect x="-148.3" y="1146.1" class="st0" width="11.3" height="5"/>
<rect x="-113.3" y="1146.1" class="st0" width="15" height="5"/>
<rect x="-523.7" y="1159.8" class="st0" width="11.3" height="5"/>
<rect x="-502.5" y="1159.8" class="st0" width="11.3" height="5"/>
<polygon class="st0" points="-474.6,1159.8 -472.8,1164.8 -453.7,1164.8 -453.7,1159.8 "/>
<rect x="-429.9" y="1159.8" class="st0" width="10" height="5"/>
<rect x="-392.3" y="1159.8" class="st0" width="12.5" height="5"/>
<path class="st0" d="M-305.4,1159.8c0,0,0,1.1,0,1.3v3.7h13.1v-5H-305.4z"/>
<rect x="-339.8" y="1159.8" class="st0" width="13.8" height="5"/>
<polygon class="st0" points="-279.5,1159.8 -280.7,1164.8 -268.2,1164.8 -267.7,1162.3 -246.1,1162.3 -245.7,1164.8 -232.8,1164.8 
	-233.9,1159.8 "/>
<path class="st0" d="M-187.1,1159.8c-0.2,0-0.4,1.5-0.6,1.7c-0.7,1-1.6,3.3-2.6,3.3h14.8c0.6-2.5,1-2.5,1.5-5H-187.1z"/>
<path class="st0" d="M-206.8,1160.9l-0.1-1h-13.9c0.5,2.5,1,2.5,1.5,5h15.8C-204.6,1164.8-205.8,1162.1-206.8,1160.9z"/>
<rect x="-149.6" y="1159.8" class="st0" width="11.3" height="5"/>
<rect x="-114.5" y="1159.8" class="st0" width="15" height="5"/>
<polygon class="st0" points="-256.9,1136 -257.9,1133.5 -259.9,1133.5 -260.9,1136 "/>
<rect x="-536.3" y="1131" class="st0" width="12.5" height="5"/>
<polygon class="st0" points="-502.5,1133.7 -500,1136 -488.9,1136 -490.7,1131 -512.5,1131 -512.5,1136 -502.5,1136 "/>
<rect x="-473.7" y="1131" class="st0" width="11.3" height="5"/>
<rect x="-442.4" y="1131" class="st0" width="15" height="5"/>
<rect x="-403.6" y="1131" class="st0" width="11.3" height="5"/>
<rect x="-348.5" y="1131" class="st0" width="11.3" height="5"/>
<path class="st0" d="M-314.9,1136h12.1c0.2-1.3,0.3-2.9,0.3-3.9c0-0.1,0-1.1,0-1.1h-12.4c0.1,0,0.1,2.1,0.1,2.8
	C-314.8,1134.3-314.8,1134.8-314.9,1136z"/>
<polygon class="st0" points="-253.1,1136 -254.3,1131 -266.2,1131 -265.2,1136 "/>
<polygon class="st0" points="-269.2,1136 -268.2,1131 -279.9,1131 -281,1136 "/>
<path class="st0" d="M-182.8,1136c-0.1-1.3-0.2-5-0.4-5h-12.9c0.4,0,0.7,3.8,1.1,5H-182.8z"/>
<path class="st0" d="M-220.5,1136c0.4-1.3,0.8-5,1.3-5h-13.3c-0.3,0-0.6,3.8-0.9,5H-220.5z"/>
<rect x="-162.1" y="1131" class="st0" width="13.8" height="5"/>
<rect x="-122" y="1131" class="st0" width="8.8" height="5"/>
<polygon class="st0" points="-252.6,1130.5 -253.7,1133.5 -251.7,1133.5 "/>
<polygon class="st0" points="-250.6,1136 -251.7,1133.5 -253.7,1133.5 -254.7,1136 "/>
<polygon class="st1" points="-465,1161.4 -465,1153.9 -468,1153.9 "/>
<path class="st1" d="M-195.7,1170.8c2.8,0,5.1-1.9,7-1.9h-13.7C-200.5,1168.9-198.2,1170.8-195.7,1170.8z"/>
<polygon class="st1" points="-262.8,1154.9 -247.7,1154.9 -248.1,1153.9 -262.4,1153.9 "/>
<polygon class="st1" points="-490,1138.9 -490,1148.9 -483.5,1148.9 -488,1138.9 "/>
<polygon class="st1" points="-257.2,1138.9 -259.8,1148.9 -250.6,1148.9 -253.1,1138.9 "/>
<rect x="-525" y="1130.9" class="st1" width="12" height="3"/>
<polygon class="st1" points="-513,1153.9 -515,1153.9 -515,1148.9 -513,1148.9 -513,1138.9 -525,1138.9 -525,1164.9 -513,1164.9 "/>
<rect x="-525" y="1168.9" class="st1" width="12" height="10"/>
<rect x="-525" y="1119.9" class="st1" width="12" height="6"/>
<polygon class="st1" points="-488.1,1119.9 -500,1119.9 -500,1125.9 -485.2,1125.9 "/>
<rect x="-500" y="1168.9" class="st1" width="10" height="10"/>
<polygon class="st1" points="-465.6,1178.9 -452,1178.9 -452,1168.9 -471.8,1168.9 "/>
<polygon class="st1" points="-465,1153.9 -465,1161.4 -468,1153.9 -479,1153.9 -473.6,1164.9 -452,1164.9 -452,1153.9 "/>
<rect x="-465" y="1119.9" class="st1" width="13" height="6"/>
<rect x="-500" y="1153.9" class="st1" width="10" height="11"/>
<rect x="-465" y="1138.9" class="st1" width="13" height="10"/>
<polygon class="st1" points="-488,1138.9 -483.5,1148.9 -472.4,1148.9 -476.9,1138.9 "/>
<polygon class="st1" points="-478.7,1133.9 -482.3,1130.9 -500,1130.9 -500,1133.9 "/>
<rect x="-465" y="1130.9" class="st1" width="13" height="3"/>
<rect x="-500" y="1138.9" class="st1" width="10" height="10"/>
<rect x="-427" y="1168.9" class="st1" width="11" height="10"/>
<rect x="-427" y="1138.9" class="st1" width="11" height="10"/>
<polygon class="st1" points="-427,1130.9 -427,1133.9 -416,1133.9 -416,1130.9 -399.3,1130.9 -399.3,1130.9 -447,1130.9 
	-447,1130.9 "/>
<rect x="-446" y="1119.9" class="st1" width="46" height="6"/>
<rect x="-427" y="1153.9" class="st1" width="11" height="11"/>
<polygon class="st1" points="-392,1178.9 -347,1178.9 -347,1168.9 -379.9,1168.9 -379.9,1168.9 -392,1168.9 "/>
<rect x="-392" y="1153.9" class="st1" width="15" height="11"/>
<polygon class="st1" points="-377,1133.9 -377,1130.9 -348.8,1130.9 -348.8,1130.9 -392,1130.9 -392,1133.9 "/>
<rect x="-392" y="1119.9" class="st1" width="45" height="6"/>
<polygon class="st1" points="-377,1143.9 -377,1138.9 -392,1138.9 -392,1148.9 -351,1148.9 -351,1143.9 "/>
<path class="st1" d="M-300,1121.9c-2.2-0.9-5.2-2-9.3-2H-338v6h43C-296.4,1125.9-298.1,1122.7-300,1121.9z"/>
<rect x="-338" y="1168.9" class="st1" width="11" height="10"/>
<path class="st1" d="M-302.9,1133.9h12.4c0,0-0.4-2.5-1.1-4.3c0-0.1-0.1,1.3-0.2,1.3h-20.1c2.5,0,4.4-1.3,5.7-0.6
	C-304.3,1131.3-303.3,1133.9-302.9,1133.9z"/>
<path class="st1" d="M-290.8,1138.9h-12.1c-0.3,5-1.4,6.2-3.4,7.2c-1.3,0.6-3.3,2.8-5.9,2.8H-327v-10h-11v10h43.6
	c0.7,0,1.3-2.7,1.8-3.6C-291.7,1143.5-291.1,1143.9-290.8,1138.9z"/>
<rect x="-338" y="1130.9" class="st1" width="11" height="3"/>
<path class="st1" d="M-304.4,1171.3c0,1.7,0.2,3.1,0.5,4.8c0.2,0.8,0.4,2.9,0.8,2.9h14.1v-1.2c0-0.7-2.6-1.8-3-3.3
	c-0.2-1-1-2.8-1-5.5l0,0h-11.4V1171.3z"/>
<path class="st1" d="M-294.3,1154.9l0.4-1H-338v11h11v-10h13.6c3.4,0,5.7,1.1,7,2.4c1.2,1.2,1.8,5.6,1.9,7.6h11.5v0.1
	C-293,1160.9-293.1,1156.9-294.3,1154.9z"/>
<polygon class="st1" points="-240.6,1178.9 -227.3,1178.9 -231.1,1168.9 -244.1,1168.9 "/>
<polygon class="st1" points="-282.9,1178.9 -270.1,1178.9 -266.5,1168.9 -279,1168.9 "/>
<polygon class="st1" points="-253.1,1138.9 -250.6,1148.9 -238.4,1148.9 -241.1,1138.9 "/>
<polygon class="st1" points="-248.1,1153.9 -247.7,1154.9 -262.8,1154.9 -262.4,1153.9 -274.5,1153.9 -277.9,1164.9 -232.3,1164.9 
	-235.6,1153.9 "/>
<polygon class="st1" points="-256.2,1133.9 -255.1,1130.8 -254.2,1133.9 -242.2,1133.9 -244.5,1130.9 -265.6,1130.9 -267.8,1133.9 
	"/>
<polygon class="st1" points="-248.1,1119.9 -262,1119.9 -263.8,1125.9 -246.3,1125.9 "/>
<polygon class="st1" points="-269,1138.9 -271.8,1148.9 -259.8,1148.9 -257.2,1138.9 "/>
<path class="st1" d="M-221.3,1138.9c-0.6,5-0.9,6-1,10h12.6c0.2-4,0.6-5,1.3-10H-221.3z"/>
<path class="st1" d="M-195.7,1170.8c-2.5,0-4.8-1.9-6.7-1.9h-15.8c0.9,0,1.9,2.7,3.1,4.1c4.8,5.4,11.3,8,19.7,8
	c6.7,0,12.3-1.8,16.6-5.8c2-1.9,3.7-6.2,5-6.2h-14.8C-190.6,1168.9-192.9,1170.8-195.7,1170.8z"/>
<path class="st1" d="M-207.1,1133.9c0.3,0,0.7,0.5,1-0.1c1.5-2.2,3.4-2.9,5.6-2.9h-17c-1.2,3-2.2,3-3,3H-207.1z"/>
<path class="st1" d="M-186,1132.2c0.7,0.9,1.4,1.7,1.9,1.7h12.9c-0.5,0-1.3,0-2.6-3h-16.7C-188.7,1130.9-187.2,1130.9-186,1132.2z"
	/>
<path class="st1" d="M-222.1,1153.9c0.4,6,1.1,9,2.3,11h13.8c-1.8-2-3-2-3.6-11H-222.1z"/>
<path class="st1" d="M-196.2,1119.7c-6.8,0-12.4,0.2-17,6.2h35.3C-182.3,1119.9-188.4,1119.7-196.2,1119.7z"/>
<path class="st1" d="M-183.1,1159.9c-0.7,3-1.5,3-2.4,5h13c0.7-2,1.3-2,1.6-5H-183.1z"/>
<rect x="-150" y="1168.9" class="st1" width="15" height="10"/>
<rect x="-166" y="1119.9" class="st1" width="47" height="6"/>
<polygon class="st1" points="-150,1130.9 -150,1133.9 -135,1133.9 -135,1130.9 -118.5,1130.9 -118.5,1130.9 -165.5,1130.9 
	-165.5,1130.9 "/>
<rect x="-150" y="1153.9" class="st1" width="15" height="11"/>
<rect x="-150" y="1138.9" class="st1" width="15" height="10"/>
<rect x="-112" y="1168.9" class="st1" width="12" height="10"/>
<rect x="-112" y="1138.9" class="st1" width="12" height="10"/>
<rect x="-112" y="1153.9" class="st1" width="12" height="11"/>
<rect x="-112" y="1130.9" class="st1" width="12" height="3"/>
<rect x="-112" y="1119.9" class="st1" width="12" height="6"/>
<rect x="-526" y="1125.9" class="st1" width="11" height="5"/>
<polygon class="st1" points="-485.7,1130.9 -488.6,1125.9 -505,1125.9 -505,1130.9 "/>
<rect x="-470" y="1125.9" class="st1" width="14" height="5"/>
<rect x="-452" y="1125.9" class="st1" width="49" height="5"/>
<rect x="-395" y="1125.9" class="st1" width="43" height="5"/>
<path class="st1" d="M-328.8,1130.9h13.5h20.1c-0.7-1-1.6-3.1-2.8-4.5c-0.1-0.2-0.3-0.5-0.5-0.5H-342v5H-328.8z"/>
<polygon class="st1" points="-247.9,1130.9 -249.7,1125.9 -267.2,1125.9 -269.1,1130.9 "/>
<path class="st1" d="M-220.9,1130.9h17c1.4-1,3-0.8,4.7-0.8c2,0,3.7-0.2,5.3,0.8h16.7c-0.3-1-0.6-1-1-1.5c-0.9-1.3-1.9-3.5-3-3.5
	h-35.3c-0.4,0-0.7,0.6-1.1,1C-218.9,1128.1-220,1129.9-220.9,1130.9z"/>
<rect x="-166" y="1125.9" class="st1" width="44" height="5"/>
<rect x="-117" y="1125.9" class="st1" width="15" height="5"/>
<rect x="-513" y="1148.9" class="st1" width="6" height="5"/>
<polygon class="st1" points="-486.3,1148.9 -481.8,1153.9 -470.8,1153.9 -475.2,1148.9 "/>
<rect x="-457" y="1148.9" class="st1" width="11" height="5"/>
<rect x="-496" y="1148.9" class="st1" width="10" height="5"/>
<rect x="-426" y="1148.9" class="st1" width="15" height="5"/>
<polygon class="st1" points="-344,1153.9 -344,1148.9 -387,1148.9 -387,1153.9 -375.5,1153.9 -375.5,1153.9 "/>
<path class="st1" d="M-295.4,1150.7c2.1-0.7,3.8-0.8,5.1-1.8H-333v5h43.3C-290.8,1153.9-292.7,1151.8-295.4,1150.7z"/>
<polygon class="st1" points="-267.6,1148.9 -270.4,1153.9 -258.2,1153.9 -255.6,1148.9 "/>
<polygon class="st1" points="-246.5,1148.9 -244,1153.9 -231.4,1153.9 -234.2,1148.9 "/>
<path class="st1" d="M-205.6,1148.9h-12.6c0,0-0.1,0.2-0.1,0.9c0,1.9,0.1,4.1,0.3,4.1h12.6c-0.2,0-0.3-2-0.3-3.9
	C-205.7,1149.2-205.7,1148.9-205.6,1148.9z"/>
<rect x="-145" y="1148.9" class="st1" width="15" height="5"/>
<rect x="-105" y="1148.9" class="st1" width="10" height="5"/>
<rect x="-521" y="1164.9" class="st1" width="11" height="4"/>
<rect x="-496" y="1164.9" class="st1" width="10" height="4"/>
<polygon class="st1" points="-470.9,1164.9 -469,1168.9 -452,1168.9 -452,1164.9 "/>
<rect x="-427" y="1164.9" class="st1" width="15" height="4"/>
<rect x="-388" y="1164.9" class="st1" width="12" height="4"/>
<path class="st1" d="M-301.7,1164.9c0,0,0,0.6,0,0.8v3.2h12.7v-4H-301.7z"/>
<rect x="-333" y="1164.9" class="st1" width="10" height="4"/>
<polygon class="st1" points="-275.8,1164.9 -277,1168.9 -264.4,1168.9 -264,1167.9 -242.4,1167.9 -242,1168.9 -229.1,1168.9 
	-230.2,1164.9 "/>
<path class="st1" d="M-183.4,1164.9c-0.2,0-0.4,1-0.6,1.2c-0.7,1-1.6,2.8-2.6,2.8h14.8c0.6-1,1-1,1.5-4H-183.4z"/>
<path class="st1" d="M-203.1,1165.4l-0.1-0.5H-217c0.5,3,1,3,1.5,4h15.8C-200.9,1168.9-202.1,1166.7-203.1,1165.4z"/>
<rect x="-147" y="1164.9" class="st1" width="14" height="4"/>
<rect x="-112" y="1164.9" class="st1" width="14" height="4"/>
<rect x="-531" y="1133.9" class="st1" width="11" height="5"/>
<polygon class="st1" points="-496,1137.5 -496.3,1138.9 -485.2,1138.9 -487,1133.9 -510,1133.9 -510,1138.9 -496,1138.9 "/>
<rect x="-475" y="1133.9" class="st1" width="13" height="5"/>
<rect x="-437" y="1133.9" class="st1" width="11" height="5"/>
<rect x="-400" y="1133.9" class="st1" width="13" height="5"/>
<rect x="-344" y="1133.9" class="st1" width="11" height="5"/>
<path class="st1" d="M-311.2,1138.9h12.1c0.2,0,0.3-2.9,0.3-3.9c0-0.1,0-1.1,0-1.1h-12.4c0.1,4,0.1,2.1,0.1,2.8
	C-311.1,1137.2-311.1,1138.9-311.2,1138.9z"/>
<polygon class="st1" points="-249.4,1138.9 -250.5,1133.9 -262.5,1133.9 -261.4,1138.9 "/>
<polygon class="st1" points="-265.5,1138.9 -264.5,1133.9 -276.1,1133.9 -277.3,1138.9 "/>
<path class="st1" d="M-179,1138.9c-0.1,0-0.2-1-0.4-5h-12.9c0.4,4,0.7,5,1.1,5H-179z"/>
<path class="st1" d="M-216.7,1138.9c0.4,0,0.8-1,1.3-5h-13.3c-0.3,4-0.6,5-0.9,5H-216.7z"/>
<rect x="-154" y="1133.9" class="st1" width="9" height="5"/>
<rect x="-119" y="1133.9" class="st1" width="14" height="5"/>
<path class="st3" d="M-315,1153.9h-11v9h19.9c-0.1-3-0.7-5.9-1.9-7.1C-309.3,1154.5-311.6,1153.9-315,1153.9z"/>
<polygon class="st3" points="-256.8,1131.8 -257.8,1134.9 -255.8,1134.9 "/>
<polygon class="st3" points="-467,1158.7 -467,1153.9 -469.6,1153.9 "/>
<path class="st3" d="M-197.4,1166.8c2.8,0,5.1,1.1,7-1.9h-13.7C-202.1,1167.9-199.9,1166.8-197.4,1166.8z"/>
<polygon class="st3" points="-264.4,1153.9 -249.4,1153.9 -249.8,1153.9 -264,1153.9 "/>
<polygon class="st3" points="-491,1137.9 -491,1144.9 -485.2,1144.9 -489.6,1137.9 "/>
<polygon class="st3" points="-258.9,1137.9 -261.4,1144.9 -252.3,1144.9 -254.8,1137.9 "/>
<rect x="-523" y="1129.9" width="11" height="4"/>
<polygon points="-512,1153.9 -517,1153.9 -517,1144.9 -512,1144.9 -512,1137.9 -523,1137.9 -523,1162.9 -512,1162.9 "/>
<rect x="-523" y="1164.9" width="11" height="14"/>
<rect x="-523" y="1118.9" width="11" height="5"/>
<polygon points="-489.7,1118.9 -502,1118.9 -502,1123.9 -486.8,1123.9 "/>
<rect x="-502" y="1164.9" width="11" height="14"/>
<polygon points="-467.3,1178.9 -453,1178.9 -453,1164.9 -473.5,1164.9 "/>
<polygon points="-467,1153.9 -467,1158.7 -469.6,1153.9 -480.7,1153.9 -475.3,1162.9 -453,1162.9 -453,1153.9 "/>
<rect x="-467" y="1118.9" width="14" height="5"/>
<rect x="-502" y="1153.9" width="11" height="9"/>
<rect x="-467" y="1137.9" width="14" height="7"/>
<polygon points="-489.6,1137.9 -485.2,1144.9 -474.1,1144.9 -478.5,1137.9 "/>
<polygon points="-480.3,1133.9 -483.9,1129.9 -502,1129.9 -502,1133.9 "/>
<rect x="-467" y="1129.9" width="14" height="4"/>
<rect x="-502" y="1137.9" width="11" height="7"/>
<rect x="-430" y="1164.9" width="10" height="14"/>
<rect x="-430" y="1137.9" width="10" height="7"/>
<polygon points="-430,1129.9 -430,1133.9 -420,1133.9 -420,1129.9 -400.9,1129.9 -400.9,1129.9 -448.6,1129.9 -448.6,1129.9 "/>
<rect x="-450" y="1118.9" width="49" height="5"/>
<rect x="-430" y="1153.9" width="10" height="9"/>
<polygon points="-392,1178.9 -348,1178.9 -348,1164.9 -381.6,1164.9 -381.6,1164.9 -392,1164.9 "/>
<rect x="-392" y="1153.9" width="12" height="9"/>
<polygon points="-380,1133.9 -380,1129.9 -350.4,1129.9 -350.4,1129.9 -392,1129.9 -392,1133.9 "/>
<rect x="-392" y="1118.9" width="43" height="5"/>
<polygon points="-380,1143.9 -380,1137.9 -392,1137.9 -392,1144.9 -349,1144.9 -349,1143.9 "/>
<path d="M-301.7,1120.4c-2.2-0.9-5.2-1.5-9.3-1.5h-28v5h42.4C-298,1119.9-299.7,1121.2-301.7,1120.4z"/>
<rect x="-339" y="1164.9" width="13" height="14"/>
<path d="M-304.6,1133.9h12.4c0-3-0.4-3-1.1-4.8c0-0.1-0.1,0.8-0.2,0.8h-20.1c2.5,0,4.4-0.8,5.7-0.1
	C-306,1130.8-304.9,1130.9-304.6,1133.9z"/>
<path d="M-292.4,1137.9h-12.1c-0.3,1-1.4,4.2-3.4,5.2c-1.3,0.6-3.3,0.8-5.9,0.8H-326v-6h-13v7h42.9c0.7,0,1.3-1.2,1.8-2.1
	C-293.3,1141-292.7,1138.9-292.4,1137.9z"/>
<rect x="-339" y="1129.9" width="13" height="4"/>
<path d="M-306,1167.9c0,1.7,0.2,4.8,0.5,6.5c0.2,0.8,0.4,1.6,0.8,4.6h13.7v-3.9c-1-0.7-1.1-1.8-1.5-3.3c-0.2-1,0.5-2.8,0.5-5.5v-1.4
	h-14.1L-306,1167.9z"/>
<path d="M-294.6,1153.5l-0.9,0.4H-339v9h13v-9h11c3.4,0,5.7,0.6,7,1.9c1.2,1.2,1.8,4.1,1.9,7.1h14.1v-0.7
	C-292,1158.1-293.4,1155.5-294.6,1153.5z"/>
<polygon points="-242.3,1178.9 -229,1178.9 -232.8,1164.9 -245.7,1164.9 "/>
<polygon points="-284.6,1178.9 -271.7,1178.9 -268.2,1164.9 -280.7,1164.9 "/>
<polygon points="-254.8,1137.9 -252.3,1144.9 -240,1144.9 -242.8,1137.9 "/>
<polygon points="-249.8,1153.9 -249.4,1153.9 -264.4,1153.9 -264,1153.9 -276.2,1153.9 -279.5,1162.9 -233.9,1162.9 -237.2,1153.9 
	"/>
<polygon points="-257.8,1133.9 -256.8,1130.8 -255.8,1133.9 -243.9,1133.9 -246.1,1129.9 -267.2,1129.9 -269.5,1133.9 "/>
<polygon points="-249.7,1118.9 -263.6,1118.9 -265.4,1123.9 -247.9,1123.9 "/>
<polygon points="-270.6,1137.9 -273.4,1144.9 -261.4,1144.9 -258.9,1137.9 "/>
<path d="M-223,1137.9c-0.6,1-0.9,6-1,7h12.6c0.2-1,0.6-6,1.3-7H-223z"/>
<path d="M-197.4,1166.8c-2.5,0-4.8,1.1-6.7-1.9h-15.8c0.9,3,1.9,3.4,3.1,4.7c4.8,5.4,11.3,8.3,19.7,8.3c6.7,0,12.3-2.3,16.6-6.3
	c2-1.9,3.7-2.7,5-6.7h-14.8C-192.2,1167.9-194.6,1166.8-197.4,1166.8z"/>
<path d="M-208.8,1133.9c0.3,0,0.7,0,1-0.6c1.5-2.2,3.4-3.4,5.6-3.4h-17c-1.2,0-2.2,1-3,4H-208.8z"/>
<path d="M-187.7,1131.7c0.7,0.9,1.4,2.2,1.9,2.2h12.9c-0.5-3-1.3-4-2.6-4h-16.7C-190.3,1129.9-188.8,1130.4-187.7,1131.7z"/>
<path d="M-223.7,1153.9c0.4,1,1.1,9,2.3,9h13.9c-1.8,0-3-8-3.6-9H-223.7z"/>
<path d="M-197.8,1117.7c-6.8,0-12.4,2.2-17,6.2h35.3C-183.9,1119.9-190,1117.7-197.8,1117.7z"/>
<path d="M-184.7,1154.9c-0.7,5-1.5,8-2.4,8h13c0.7,0,1.3-3,1.6-8H-184.7z"/>
<rect x="-149" y="1164.9" width="11" height="14"/>
<rect x="-167" y="1118.9" width="48" height="5"/>
<polygon points="-149,1129.9 -149,1133.9 -138,1133.9 -138,1129.9 -120.1,1129.9 -120.1,1129.9 -167.2,1129.9 -167.2,1129.9 "/>
<rect x="-149" y="1153.9" width="11" height="9"/>
<rect x="-149" y="1137.9" width="11" height="7"/>
<rect x="-114" y="1164.9" width="15" height="14"/>
<rect x="-114" y="1137.9" width="15" height="7"/>
<rect x="-114" y="1153.9" width="15" height="9"/>
<rect x="-114" y="1129.9" width="15" height="4"/>
<rect x="-114" y="1118.9" width="15" height="5"/>
<rect x="-528" y="1123.9" width="11" height="6"/>
<polygon points="-487.4,1129.9 -490.3,1123.9 -505,1123.9 -505,1129.9 "/>
<rect x="-470" y="1123.9" width="15" height="6"/>
<rect x="-453" y="1123.9" width="50" height="6"/>
<rect x="-397" y="1123.9" width="43" height="6"/>
<path d="M-330.5,1129.9h13.5h20.1c-0.7-4-1.6-3.6-2.8-5c-0.1-0.2-0.3-1-0.5-1H-342v6H-330.5z"/>
<polygon points="-249.6,1129.9 -251.4,1123.9 -268.9,1123.9 -270.7,1129.9 "/>
<path d="M-222.6,1129.9h17c1.4,0,3-0.8,4.7-0.8c2,0,3.7,0.8,5.3,0.8h16.7c-0.3,0-0.6-1.5-1-2c-0.9-1.3-1.9-4-3-4h-35.3
	c-0.4,0-0.7,1.1-1.1,1.5C-220.6,1126.6-221.6,1125.9-222.6,1129.9z"/>
<rect x="-173" y="1123.9" width="51" height="6"/>
<rect x="-117" y="1123.9" width="14" height="6"/>
<rect x="-512" y="1144.9" width="1" height="9"/>
<polygon points="-487.9,1144.9 -483.5,1153.9 -472.4,1153.9 -476.8,1144.9 "/>
<rect x="-462" y="1144.9" width="12" height="9"/>
<rect x="-497" y="1144.9" width="10" height="9"/>
<rect x="-425" y="1144.9" width="12" height="9"/>
<polygon points="-348,1149.9 -348,1144.9 -390,1144.9 -390,1153.9 -375,1153.9 -375,1149.9 "/>
<path d="M-297.1,1148.7c2.1-0.7,3.8,0.2,5.1-3.8h-44v9h44.7C-292.5,1149.9-294.4,1149.8-297.1,1148.7z"/>
<polygon points="-269.3,1144.9 -272,1153.9 -259.8,1153.9 -257.3,1144.9 "/>
<polygon points="-248.1,1144.9 -245.6,1153.9 -233.1,1153.9 -235.8,1144.9 "/>
<path d="M-207.3,1144.9h-12.6c0,4-0.1,2.2-0.1,2.9c0,1.9,0.1,2.1,0.3,6.1h12.7c-0.2-4-0.3-4-0.3-5.9
	C-207.3,1147.2-207.3,1148.9-207.3,1144.9z"/>
<rect x="-148" y="1144.9" width="15" height="9"/>
<rect x="-109" y="1144.9" width="11" height="9"/>
<rect x="-523" y="1162.9" width="12" height="2"/>
<rect x="-500" y="1162.9" width="12" height="2"/>
<polygon points="-472.5,1162.9 -470.7,1164.9 -453,1164.9 -453,1162.9 "/>
<rect x="-427" y="1162.9" width="14" height="2"/>
<rect x="-392" y="1162.9" width="14" height="2"/>
<path d="M-303.4,1162.9c0,0,0-0.4,0-0.2v2.2h12.4v-2H-303.4z"/>
<rect x="-336" y="1162.9" width="12" height="2"/>
<polygon points="-277.5,1162.9 -278.6,1164.9 -266.1,1164.9 -265.7,1164.9 -244.1,1164.9 -243.7,1164.9 -230.7,1164.9 
	-231.8,1162.9 "/>
<path d="M-185.1,1162.9c-0.2,0-0.4,0-0.6,0.2c-0.7,1-1.6,1.8-2.6,1.8h14.8c0.6,0,1-2,1.5-2H-185.1z"/>
<path d="M-204.7,1162.4l-0.1,0.5h-13.9c0.5,0,1,2,1.5,2h15.8C-202.6,1164.9-203.7,1163.7-204.7,1162.4z"/>
<rect x="-148" y="1162.9" width="11" height="2"/>
<rect x="-113" y="1162.9" width="15" height="2"/>
<polygon class="st5" points="-254.8,1137.9 -255.8,1133.9 -257.8,1133.9 -258.9,1137.9 "/>
<rect x="-532" y="1133.9" width="10" height="4"/>
<polygon points="-497,1134.8 -497.9,1137.9 -486.8,1137.9 -488.6,1133.9 -511,1133.9 -511,1137.9 -497,1137.9 "/>
<rect x="-473" y="1133.9" width="11" height="4"/>
<polygon class="st0" points="17.6,1157.5 17.6,1152.3 13.3,1152.3 "/>
<polygon class="st0" points="-8.7,1136 -8.7,1146.1 -2.2,1146.1 -6.7,1136 "/>
<polygon class="st0" points="-6.8,1117.3 -20,1117.3 -20,1123.5 -3.9,1123.5 "/>
<rect x="-20" y="1164.8" class="st0" width="11.3" height="11.3"/>
<polygon class="st0" points="15.7,1176.1 30.1,1176.1 30.1,1164.8 9.5,1164.8 "/>
<polygon class="st0" points="17.6,1151.1 17.6,1157.5 13.3,1151.1 2.2,1151.1 7.6,1159.8 30.1,1159.8 30.1,1151.1 "/>
<rect x="17.6" y="1117.3" class="st0" width="12.5" height="6.3"/>
<rect x="-20" y="1151.1" class="st0" width="11.3" height="8.8"/>
<rect x="17.6" y="1136" class="st0" width="12.5" height="10"/>
<polygon class="st0" points="-6.7,1136 -2.2,1146.1 8.9,1146.1 4.4,1136 "/>
<polygon class="st0" points="2.6,1131 -1,1127.3 -20,1127.3 -20,1131 "/>
<rect x="17.6" y="1127.3" class="st0" width="12.5" height="3.8"/>
<rect x="-20" y="1136" class="st0" width="11.3" height="10"/>
<polygon class="st0" points="-4.4,1127.3 -7.3,1123.5 -22.5,1123.5 -22.5,1127.3 "/>
<rect x="12.6" y="1123.5" class="st0" width="12.5" height="3.8"/>
<polygon class="st0" points="-5,1146.1 -0.5,1151.1 10.5,1151.1 6.1,1146.1 "/>
<rect x="22.6" y="1146.1" class="st0" width="8.8" height="5"/>
<rect x="-15" y="1146.1" class="st0" width="11.3" height="5"/>
<rect x="-17.5" y="1159.8" class="st0" width="11.3" height="5"/>
<polygon class="st0" points="10.4,1159.8 12.2,1164.8 31.3,1164.8 31.3,1159.8 "/>
<polygon class="st0" points="-17.5,1133.7 -15,1136 -3.9,1136 -5.7,1131 -27.5,1131 -27.5,1136 -17.5,1136 "/>
<rect x="11.3" y="1131" class="st0" width="11.3" height="5"/>
<polygon class="st1" points="20,1161.4 20,1153.9 17,1153.9 "/>
<polygon class="st1" points="-5,1138.9 -5,1148.9 1.5,1148.9 -3,1138.9 "/>
<polygon class="st1" points="-3.1,1119.9 -15,1119.9 -15,1125.9 -0.2,1125.9 "/>
<rect x="-15" y="1168.9" class="st1" width="10" height="10"/>
<polygon class="st1" points="19.4,1178.9 33,1178.9 33,1168.9 13.2,1168.9 "/>
<polygon class="st1" points="20,1153.9 20,1161.4 17,1153.9 6,1153.9 11.4,1164.9 33,1164.9 33,1153.9 "/>
<rect x="20" y="1119.9" class="st1" width="13" height="6"/>
<rect x="-15" y="1153.9" class="st1" width="10" height="11"/>
<rect x="20" y="1138.9" class="st1" width="13" height="10"/>
<polygon class="st1" points="-3,1138.9 1.5,1148.9 12.6,1148.9 8.1,1138.9 "/>
<polygon class="st1" points="6.3,1133.9 2.7,1130.9 -15,1130.9 -15,1133.9 "/>
<rect x="20" y="1130.9" class="st1" width="13" height="3"/>
<rect x="-15" y="1138.9" class="st1" width="10" height="10"/>
<polygon class="st1" points="-0.7,1130.9 -3.6,1125.9 -20,1125.9 -20,1130.9 "/>
<rect x="15" y="1125.9" class="st1" width="14" height="5"/>
<polygon class="st1" points="-1.3,1148.9 3.2,1153.9 14.2,1153.9 9.8,1148.9 "/>
<rect x="28" y="1148.9" class="st1" width="11" height="5"/>
<rect x="-11" y="1148.9" class="st1" width="10" height="5"/>
<rect x="-11" y="1164.9" class="st1" width="10" height="4"/>
<polygon class="st1" points="14.1,1164.9 16,1168.9 33,1168.9 33,1164.9 "/>
<polygon class="st1" points="-11,1137.5 -11.3,1138.9 -0.2,1138.9 -2,1133.9 -25,1133.9 -25,1138.9 -11,1138.9 "/>
<rect x="10" y="1133.9" class="st1" width="13" height="5"/>
<polygon class="st3" points="18,1158.7 18,1153.9 15.4,1153.9 "/>
<polygon class="st3" points="-6,1137.9 -6,1144.9 -0.2,1144.9 -4.6,1137.9 "/>
<polygon points="-4.7,1118.9 -17,1118.9 -17,1123.9 -1.8,1123.9 "/>
<rect x="-17" y="1164.9" width="11" height="14"/>
<polygon points="17.7,1178.9 32,1178.9 32,1164.9 11.5,1164.9 "/>
<polygon points="18,1153.9 18,1158.7 15.4,1153.9 4.3,1153.9 9.7,1162.9 32,1162.9 32,1153.9 "/>
<rect x="18" y="1118.9" width="14" height="5"/>
<rect x="-17" y="1153.9" width="11" height="9"/>
<rect x="18" y="1137.9" width="14" height="7"/>
<polygon points="-4.6,1137.9 -0.2,1144.9 10.9,1144.9 6.5,1137.9 "/>
<polygon points="4.7,1133.9 1.1,1129.9 -17,1129.9 -17,1133.9 "/>
<rect x="18" y="1129.9" width="14" height="4"/>
<rect x="-17" y="1137.9" width="11" height="7"/>
<polygon points="-2.4,1129.9 -5.3,1123.9 -20,1123.9 -20,1129.9 "/>
<rect x="15" y="1123.9" width="15" height="6"/>
<polygon points="-2.9,1144.9 1.5,1153.9 12.6,1153.9 8.2,1144.9 "/>
<rect x="23" y="1144.9" width="12" height="9"/>
<rect x="-12" y="1144.9" width="10" height="9"/>
<rect x="-15" y="1162.9" width="12" height="2"/>
<polygon points="12.5,1162.9 14.3,1164.9 32,1164.9 32,1162.9 "/>
<polygon points="-12,1134.8 -12.9,1137.9 -1.8,1137.9 -3.6,1133.9 -26,1133.9 -26,1137.9 -12,1137.9 "/>
<rect x="12" y="1133.9" width="11" height="4"/>
<rect x="-438" y="1133.9" width="13" height="4"/>
<rect x="-401" y="1133.9" width="11" height="4"/>
<rect x="-344" y="1133.9" width="8" height="4"/>
<path d="M-312.8,1137.9h12.1c0.2-4,0.3-2.4,0.3-3.4c0-0.1,0-0.6,0-0.6h-12.4c0.1,0,0.1,1.6,0.1,2.3
	C-312.7,1136.7-312.8,1133.9-312.8,1137.9z"/>
<polygon points="-251.1,1137.9 -252.2,1133.9 -264.1,1133.9 -263.1,1137.9 "/>
<polygon points="-267.2,1137.9 -266.1,1133.9 -277.8,1133.9 -278.9,1137.9 "/>
<path d="M-180.7,1137.9c-0.1-4-0.2-4-0.4-4H-194c0.4,0,0.7,0,1.1,4H-180.7z"/>
<path d="M-218.4,1137.9c0.4-4,0.8-4,1.3-4h-13.3c-0.3,0-0.6,0-0.9,4H-218.4z"/>
<rect x="-158" y="1133.9" width="10" height="4"/>
<rect x="-122" y="1133.9" width="13" height="4"/>
<path d="M-70.6,1148.5h-12c0,0.7,0,1.3,0,1.9h12C-70.5,1149.7-70.6,1149.1-70.6,1148.5z"/>
<path d="M-69.1,1138.6h-12.4c-0.4,1.7-0.7,3.5-0.8,5.4h12C-70.1,1142-69.7,1140.3-69.1,1138.6z"/>
<path d="M-66.3,1133.5c2.8-3.5,6.6-5.3,11.4-5.3h-22c-1.4,1.9-2.5,4-3.4,6.4h13.2C-66.9,1134.2-66.6,1133.8-66.3,1133.5z"/>
<path d="M-69.3,1163.5c-1-1.2-1.8-2.6-2.4-4.2h-12.5c0.7,2.5,1.6,4.8,2.7,6.9h15C-67.5,1165.4-68.4,1164.5-69.3,1163.5z"/>
<path d="M-47.7,1163.5c-0.8,1.1-1.8,1.9-2.8,2.7h15c1.2-2.1,2.1-4.4,2.7-6.9h-12.6C-46,1160.8-46.8,1162.2-47.7,1163.5z"/>
<path d="M-39.6,1144h12.1c-0.2-1.9-0.4-3.7-0.8-5.4h-12.5C-40.2,1140.3-39.8,1142-39.6,1144z"/>
<path d="M-49.6,1128.2c4.8,0,8.5,1.8,11.3,5.3c0.3,0.4,0.5,0.7,0.8,1.1h13.3c-0.9-2.4-2-4.5-3.4-6.4H-49.6z"/>
<path d="M-39.4,1150.4h12c0-0.6,0-1.3,0-1.9h-12C-39.3,1149.1-39.4,1149.7-39.4,1150.4z"/>
<path d="M-70.8,1172.2c4.3,4.5,10.6,6.7,18.9,6.7c8.2,0,14.5-2.2,18.9-6.7c0.5-0.5,1.1-1.1,1.6-1.6h-40.8
	C-71.8,1171.1-71.3,1171.7-70.8,1172.2z"/>
<path d="M-54.5,1118c-7.9,0-13.9,2.1-18.3,6.2h36.5C-40.6,1120.1-46.6,1118-54.5,1118z"/>
<path d="M-32.9,1128.2c-0.9-1.3-2-2.4-3.1-3.5c-0.2-0.2-0.4-0.4-0.6-0.6h-36.5c-0.2,0.2-0.4,0.4-0.6,0.6c-1.2,1.1-2.2,2.2-3.1,3.5
	h22H-32.9z"/>
<path d="M-36.6,1138.6h12.5c-0.3-1.4-0.7-2.8-1.2-4h-13.3C-37.7,1135.8-37.1,1137.1-36.6,1138.6z"/>
<path d="M-72.4,1134.6h-13.2c-0.5,1.3-0.9,2.6-1.2,4h12.4C-73.9,1137.1-73.2,1135.8-72.4,1134.6z"/>
<path d="M-70.5,1150.4h-12c0.1,3.2,0.5,6.2,1.3,8.9h12.5C-69.7,1156.8-70.3,1153.8-70.5,1150.4z"/>
<path d="M-41.2,1159.3h12.6c0.7-2.7,1.1-5.7,1.2-8.9h-12C-39.6,1153.8-40.1,1156.8-41.2,1159.3z"/>
<path d="M-56.3,1168.7c-3.3,0-6.2-0.9-8.6-2.6h-15c0.9,1.6,2,3.1,3.2,4.4h40.8c1.2-1.4,2.3-2.8,3.1-4.4h-15
	C-50.1,1167.8-53,1168.7-56.3,1168.7z"/>
<path d="M-37.3,1148.5h12c0-1.5-0.1-3-0.2-4.4h-12.1C-37.4,1145.4-37.3,1146.9-37.3,1148.5z"/>
<path d="M-76.2,1144h-12c-0.1,1.4-0.2,2.9-0.2,4.4h12C-76.5,1146.9-76.4,1145.4-76.2,1144z"/>
</svg>
