<?xml version="1.0" encoding="utf-8"?>
<!-- Generator: Adobe Illustrator 19.1.0, SVG Export Plug-In . SVG Version: 6.00 Build 0)  -->
<svg version="1.1" id="Calque_1" xmlns="http://www.w3.org/2000/svg" xmlns:xlink="http://www.w3.org/1999/xlink" x="0px" y="0px"
	 viewBox="-186 172.6 586 217.4" style="enable-background:new -186 172.6 586 217.4;" xml:space="preserve">
<style type="text/css">
	.st0{fill:#3736BC;}
	.st1{fill:#A400E8;}
	.st2{fill:#06FFD9;}
	.st3{fill:none;stroke:#231F20;stroke-width:5;stroke-miterlimit:10;}
	.st4{fill:none;stroke:#2C06E6;stroke-width:2;stroke-miterlimit:10;}
	.st5{fill:none;stroke:#06FFD9;stroke-width:2;stroke-miterlimit:10;}
	.st6{fill:none;stroke:#FA00E8;stroke-width:2;stroke-miterlimit:10;}
</style>
<path class="st0" d="M290.3,329.7c1-1.1,2.1-1.4,3.5-0.9C292.8,330,291.5,329.6,290.3,329.7z"/>
<g>
	<path class="st1" d="M74.6,354H55.9v7.5H73v6.1H55.9v9.1h19.5v6.3H48.7v-35.3h25.9V354z"/>
	<path class="st1" d="M78.6,366.1H92v6.5H78.6V366.1z"/>
	<path class="st1" d="M100.9,351.5c2.8-2.9,6.5-4.4,10.8-4.4c5.9,0,10.2,1.9,12.9,5.8c1.5,2.2,2.3,4.4,2.4,6.6h-7.4
		c-0.5-1.7-1.1-3-1.8-3.8c-1.3-1.5-3.3-2.3-5.8-2.3c-2.6,0-4.7,1.1-6.2,3.2c-1.5,2.2-2.3,5.2-2.3,9.2s0.8,6.9,2.4,8.9s3.6,3,6.1,3
		s4.5-0.8,5.8-2.5c0.7-0.9,1.3-2.3,1.8-4.1h7.3c-0.6,3.8-2.2,7-4.8,9.4c-2.6,2.4-5.9,3.6-10,3.6c-5,0-9-1.6-11.8-4.9
		c-2.9-3.3-4.3-7.8-4.3-13.4C96,359.5,97.6,354.8,100.9,351.5z"/>
	<path class="st1" d="M160,379.9c-2.7,2.7-6.5,4.1-11.6,4.1c-5,0-8.9-1.4-11.6-4.1c-3.6-3.4-5.4-8.2-5.4-14.5
		c0-6.5,1.8-11.3,5.4-14.5c2.7-2.7,6.5-4.1,11.6-4.1c5,0,8.9,1.4,11.6,4.1c3.6,3.2,5.3,8.1,5.3,14.5
		C165.4,371.7,163.6,376.5,160,379.9z M155.4,374.5c1.7-2.2,2.6-5.2,2.6-9.2s-0.9-7-2.6-9.2c-1.7-2.2-4-3.2-7-3.2s-5.2,1.1-7,3.2
		c-1.7,2.2-2.6,5.2-2.6,9.2s0.9,7,2.6,9.2c1.7,2.2,4.1,3.2,7,3.2S153.7,376.7,155.4,374.5z"/>
	<path class="st1" d="M194.4,347.8H205V383h-6.9v-23.9c0-0.7,0-1.6,0-2.9c0-1.2,0-2.2,0-2.9l-6.7,29.6h-7.2l-6.6-29.6
		c0,0.7,0,1.6,0,2.9c0,1.2,0,2.2,0,2.9V383h-6.9v-35.3h10.7l6.4,27.7L194.4,347.8z"/>
	<path class="st1" d="M235.2,347.8h10.6V383h-6.9v-23.9c0-0.7,0-1.6,0-2.9c0-1.2,0-2.2,0-2.9l-6.7,29.6H225l-6.6-29.6
		c0,0.7,0,1.6,0,2.9c0,1.2,0,2.2,0,2.9V383h-6.9v-35.3h10.9l6.4,27.7L235.2,347.8z"/>
	<path class="st1" d="M278.7,354H260v7.5h17.1v6.1H260v9.1h19.5v6.3h-26.7v-35.3h25.9V354z"/>
	<path class="st1" d="M307.9,348.7c1.3,0.6,2.4,1.4,3.3,2.5c0.7,0.9,1.3,1.9,1.8,3c0.4,1.1,0.7,2.3,0.7,3.7c0,1.7-0.4,3.3-1.3,4.9
		c-0.8,1.6-2.2,2.8-4.2,3.4c1.6,0.7,2.8,1.6,3.5,2.8c0.7,1.2,1,3,1,5.5v2.4c0,1.6,0.1,2.7,0.2,3.3c0.2,0.9,0.6,1.6,1.4,2v0.9h-8.1
		c-0.2-0.8-0.4-1.4-0.5-1.9c-0.2-1-0.3-2-0.3-3v-3.3c0-2.2-0.4-3.7-1.2-4.5c-0.7-0.7-2.1-1.1-4.2-1.1h-7.2V383h-7.2v-35.3h16.9
		C304.8,347.8,306.6,348.1,307.9,348.7z M292.7,353.9v9.5h7.9c1.6,0,2.8-0.2,3.5-0.6c1.4-0.7,2.1-2,2.1-4c0-2.1-0.7-3.6-2-4.3
		c-0.8-0.4-1.9-0.6-3.4-0.6H292.7z"/>
	<path class="st1" d="M324.1,351.5c2.8-2.9,6.5-4.4,10.8-4.4c5.9,0,10.2,1.9,12.9,5.8c1.5,2.2,2.3,4.4,2.4,6.6h-7.4
		c-0.5-1.7-1.1-3-1.8-3.8c-1.3-1.5-3.3-2.3-5.8-2.3c-2.6,0-4.7,1.1-6.2,3.2c-1.5,2.2-2.3,5.2-2.3,9.2s0.8,6.9,2.4,8.9s3.6,3,6.1,3
		s4.5-0.8,5.8-2.5c0.7-0.9,1.3-2.3,1.8-4.1h7.3c-0.6,3.8-2.2,7-4.8,9.4s-5.9,3.6-10,3.6c-5,0-9-1.6-11.8-4.9
		c-2.9-3.3-4.3-7.8-4.3-13.4C319.2,359.5,320.8,354.8,324.1,351.5z"/>
	<path class="st1" d="M382.2,354h-18.7v7.5h17.1v6.1h-17.1v9.1H383v6.3h-26.7v-35.3h25.9L382.2,354L382.2,354z"/>
</g>
<g>
	<path class="st2" d="M77,355H58.4v7.5h17.1v6.1H58.4v9.1h19.5v6.3H51.2v-35.3h25.9L77,355L77,355z"/>
	<path class="st2" d="M81,367.1h13.4v6.5H81V367.1z"/>
	<path class="st2" d="M103.3,352.5c2.8-2.9,6.5-4.4,10.8-4.4c5.9,0,10.2,1.9,12.9,5.8c1.5,2.2,2.3,4.4,2.4,6.6H122
		c-0.5-1.7-1.1-3-1.8-3.8c-1.3-1.5-3.3-2.3-5.8-2.3c-2.6,0-4.7,1.1-6.2,3.2c-1.5,2.2-2.3,5.2-2.3,9.2s0.8,6.9,2.4,8.9s3.6,3,6.1,3
		s4.5-0.8,5.8-2.5c0.7-0.9,1.3-2.3,1.8-4.1h7.3c-0.6,3.8-2.2,7-4.8,9.4c-2.6,2.4-5.9,3.6-10,3.6c-5,0-9-1.6-11.8-4.9
		c-2.9-3.3-4.3-7.8-4.3-13.4C98.4,360.5,100.1,355.8,103.3,352.5z"/>
	<path class="st2" d="M162.5,380.9c-2.7,2.7-6.5,4.1-11.6,4.1c-5,0-8.9-1.4-11.6-4.1c-3.6-3.4-5.4-8.2-5.4-14.5
		c0-6.5,1.8-11.3,5.4-14.5c2.7-2.7,6.5-4.1,11.6-4.1c5,0,8.9,1.4,11.6,4.1c3.6,3.2,5.3,8.1,5.3,14.5
		C167.8,372.7,166.1,377.5,162.5,380.9z M157.9,375.5c1.7-2.2,2.6-5.2,2.6-9.2s-0.9-7-2.6-9.2c-1.7-2.2-4-3.2-7-3.2s-5.2,1.1-7,3.2
		c-1.7,2.2-2.6,5.2-2.6,9.2s0.9,7,2.6,9.2c1.7,2.2,4.1,3.2,7,3.2S156.2,377.7,157.9,375.5z"/>
	<path class="st2" d="M196.9,348.8h10.6V384h-6.9v-23.9c0-0.7,0-1.6,0-2.9c0-1.2,0-2.2,0-2.9l-6.7,29.6h-7.2l-6.6-29.6
		c0,0.7,0,1.6,0,2.9c0,1.2,0,2.2,0,2.9V384h-6.9v-35.3h10.7l6.4,27.7L196.9,348.8z"/>
	<path class="st2" d="M237.7,348.8h10.6V384h-6.9v-23.9c0-0.7,0-1.6,0-2.9c0-1.2,0-2.2,0-2.9l-6.7,29.6h-7.2l-6.6-29.6
		c0,0.7,0,1.6,0,2.9c0,1.2,0,2.2,0,2.9V384H214v-35.3h10.7l6.4,27.7L237.7,348.8z"/>
	<path class="st2" d="M281.2,355h-18.7v7.5h17.1v6.1h-17.1v9.1H282v6.3h-26.7v-35.3h25.9V355z"/>
	<path class="st2" d="M310.4,349.7c1.3,0.6,2.4,1.4,3.3,2.5c0.7,0.9,1.3,1.9,1.8,3c0.4,1.1,0.7,2.3,0.7,3.7c0,1.7-0.4,3.3-1.3,4.9
		c-0.8,1.6-2.2,2.8-4.2,3.4c1.6,0.7,2.8,1.6,3.5,2.8c0.7,1.2,1,3,1,5.5v2.4c0,1.6,0.1,2.7,0.2,3.3c0.2,0.9,0.6,1.6,1.4,2v0.9h-8.1
		c-0.2-0.8-0.4-1.4-0.5-1.9c-0.2-1-0.3-2-0.3-3v-3.3c0-2.2-0.4-3.7-1.2-4.5c-0.7-0.7-2.1-1.1-4.2-1.1h-7.2V384h-7.2v-35.3H305
		C307.2,348.8,309.1,349.1,310.4,349.7z M295.2,354.9v9.5h7.9c1.6,0,2.8-0.2,3.5-0.6c1.4-0.7,2.1-2,2.1-4c0-2.1-0.7-3.6-2-4.3
		c-0.8-0.4-1.9-0.6-3.4-0.6H295.2z"/>
	<path class="st2" d="M326.5,352.5c2.8-2.9,6.5-4.4,10.8-4.4c5.9,0,10.2,1.9,12.9,5.8c1.5,2.2,2.3,4.4,2.4,6.6h-7.4
		c-0.5-1.7-1.1-3-1.8-3.8c-1.3-1.5-3.3-2.3-5.8-2.3c-2.6,0-4.7,1.1-6.2,3.2c-1.5,2.2-2.3,5.2-2.3,9.2s0.8,6.9,2.4,8.9s3.6,3,6.1,3
		s4.5-0.8,5.8-2.5c0.7-0.9,1.3-2.3,1.8-4.1h7.3c-0.6,3.8-2.2,7-4.8,9.4s-5.9,3.6-10,3.6c-5,0-9-1.6-11.8-4.9
		c-2.9-3.3-4.3-7.8-4.3-13.4C321.6,360.5,323.3,355.8,326.5,352.5z"/>
	<path class="st2" d="M384.6,355h-18.7v7.5H383v6.1h-17.1v9.1h19.5v6.3h-26.7v-35.3h25.9L384.6,355L384.6,355z"/>
</g>
<polyline id="Triangle_2_" class="st3" points="191.7,249.6 397.4,175.8 397.1,386.9 -171.8,386.9 10.9,316.5 "/>
<path class="st0" d="M286.7,329.7c1-1.1,2.1-1.4,3.5-0.9C289.2,330,287.9,329.6,286.7,329.7z"/>
<path class="st4" d="M18.4,246.7v-26h8.1v28.1c0,2.1,0.5,3.7,1.6,4.8s2.5,1.7,4.4,1.7c1.8,0,3.3-0.5,4.4-1.7
	c1.1-1.2,1.6-2.8,1.6-4.8v-28h8.1v26c0,5.6-1.1,9.7-3.4,12.2c-2.2,2.6-5.8,3.8-10.8,3.8s-8.5-1.3-10.8-3.8
	C19.5,256.4,18.4,252.4,18.4,246.7z"/>
<path class="st4" d="M71.8,242.5c0.8,0.2,1.6,0.5,2.1,1.2c0.5,0.6,1.4,1.7,2.2,3.5l7.5,14.9h-9l-5-10.5c-0.2-0.3-0.4-0.7-0.5-1.2
	c-1.5-3.1-3.2-4.7-5.1-4.7h-2.6v16.4h-8.1v-41.3h11.8c5.3,0,9.1,0.9,11.4,2.8s3.5,4.9,3.5,9.1c0,2.8-0.7,5.1-2.1,6.8
	C76.4,241.2,74.4,242.2,71.8,242.5z M61.3,227.6v11.2h3.8c2.2,0,3.8-0.5,4.8-1.3c1-0.9,1.5-2.3,1.5-4.3c0-2-0.5-3.5-1.5-4.3
	c-0.9-0.8-2.6-1.3-4.8-1.3L61.3,227.6L61.3,227.6z"/>
<path class="st4" d="M87.1,220.7h13.3c4.6,0,8,0.9,10.3,2.6c2.3,1.7,3.5,4.4,3.5,7.8c0,2.6-0.6,4.8-2,6.2c-1.4,1.5-3.4,2.4-6,2.6
	c3.1,0.3,5.5,1.4,7.1,3.2c1.6,1.8,2.4,4.3,2.4,7.6c0,4-1.2,6.9-3.6,8.7c-2.4,1.8-6.3,2.6-11.7,2.6H87.1
	C87.1,262,87.1,220.7,87.1,220.7z M94.9,227.2v9.6h5.4c2.1,0,3.6-0.4,4.4-1.1c0.9-0.7,1.3-1.9,1.3-3.7c0-1.7-0.5-2.9-1.4-3.7
	c-0.9-0.7-2.4-1.2-4.4-1.2H94.9z M94.9,243.3v12.2h5.4c2.6,0,4.4-0.5,5.5-1.4c1-0.9,1.6-2.5,1.6-4.7c0-2.2-0.5-3.8-1.6-4.8
	c-1.1-1-2.9-1.5-5.4-1.5L94.9,243.3L94.9,243.3z"/>
<path class="st4" d="M129.7,220.7h10l11.1,41.3h-8.1l-2.6-10.2h-11l-2.5,10.2h-8.1L129.7,220.7z M134.7,228.2l-3.8,16.9h7.7
	L134.7,228.2z"/>
<path class="st4" d="M155,220.7h8.8l11.5,30v-30h7.2V262h-8.7l-11.5-30v30h-7.2L155,220.7L155,220.7z"/>
<path class="st4" d="M20.2,284v-7.2h24.6v7.2h-8.2v26.9h8.2v7.2H20.2v-7.2h8.2V284H20.2z"/>
<path class="st4" d="M52.8,276.8h8.8l11.5,30v-30h7.2v41.3h-8.7l-11.5-30v30h-7.2L52.8,276.8L52.8,276.8z"/>
<path class="st4" d="M113.5,316.9c-1.3,0.6-2.6,1.2-4,1.5c-1.5,0.4-2.9,0.5-4.5,0.5c-5.6,0-9.8-1.8-12.8-5.5
	c-2.9-3.7-4.4-9-4.4-15.9s1.5-12.2,4.4-15.9c2.9-3.7,7.2-5.5,12.8-5.5c1.6,0,3.1,0.2,4.5,0.5c1.5,0.4,2.7,0.8,4,1.5v9
	c-1.4-1.3-2.7-2.2-4.1-2.8c-1.3-0.6-2.6-0.9-4.1-0.9c-3,0-5.2,1.2-6.8,3.6s-2.3,5.8-2.3,10.5c0,4.7,0.7,8.1,2.3,10.5
	c1.6,2.4,3.7,3.6,6.8,3.6c1.4,0,2.7-0.3,4.1-0.9c1.3-0.6,2.6-1.6,4.1-2.8V316.9z"/>
<path class="st4" d="M130.1,307.9h9.2v10.1h-9.2V307.9z"/>
<path class="st5" d="M18.2,244.9v-26h8.1V247c0,2.1,0.5,3.7,1.6,4.8s2.5,1.7,4.4,1.7c1.9,0,3.3-0.5,4.4-1.7c1.1-1.2,1.6-2.8,1.6-4.8
	v-28h8.1v26c0,5.6-1.1,9.7-3.4,12.2c-2.2,2.6-5.8,3.8-10.8,3.8c-4.9,0-8.5-1.3-10.8-3.8C19.4,254.6,18.2,250.6,18.2,244.9z"/>
<path class="st5" d="M71.7,240.7c0.8,0.2,1.6,0.5,2.1,1.2c0.5,0.6,1.4,1.7,2.2,3.5l7.5,14.9h-9l-5-10.5c-0.2-0.3-0.4-0.7-0.5-1.2
	c-1.5-3.1-3.2-4.7-5.1-4.7h-2.6v16.4h-8.1V219h11.8c5.3,0,9.1,0.9,11.4,2.8s3.5,4.9,3.5,9.1c0,2.8-0.7,5.1-2.1,6.8
	S74.3,240.3,71.7,240.7z M61.2,225.7V237h3.8c2.2,0,3.8-0.5,4.8-1.3c1-0.8,1.5-2.3,1.5-4.3s-0.5-3.5-1.5-4.3
	c-0.9-0.8-2.6-1.3-4.8-1.3L61.2,225.7L61.2,225.7z"/>
<path class="st5" d="M87,218.9h13.3c4.6,0,8,0.9,10.3,2.6s3.5,4.4,3.5,7.8c0,2.6-0.6,4.8-2,6.2c-1.4,1.5-3.4,2.4-6,2.6
	c3.1,0.3,5.5,1.4,7.1,3.2s2.4,4.3,2.4,7.6c0,4-1.2,6.9-3.6,8.7c-2.4,1.8-6.3,2.6-11.7,2.6H87C87,260.2,87,218.9,87,218.9z
	 M94.8,225.4v9.6h5.4c2.1,0,3.6-0.4,4.4-1.1c0.9-0.7,1.3-1.9,1.3-3.7c0-1.7-0.5-2.9-1.4-3.7s-2.4-1.2-4.4-1.2H94.8z M94.8,241.4
	v12.2h5.4c2.6,0,4.4-0.5,5.5-1.4c1-0.9,1.6-2.5,1.6-4.7c0-2.2-0.5-3.8-1.6-4.8c-1.1-1-2.9-1.5-5.4-1.5L94.8,241.4L94.8,241.4z"/>
<path class="st5" d="M129.6,218.9h10l11.1,41.3h-8.1l-2.6-10.2h-11l-2.5,10.2h-8.1L129.6,218.9z M134.6,226.4l-3.8,16.9h7.7
	L134.6,226.4z"/>
<path class="st5" d="M155,218.9h8.8l11.5,30v-30h7.2v41.3h-8.7l-11.5-30v30H155L155,218.9L155,218.9z"/>
<path class="st5" d="M20,282.2V275h24.6v7.2h-8.2V309h8.2v7.2H20V309h8.2v-26.9H20z"/>
<path class="st5" d="M52.7,275h8.8l11.5,30v-30h7.2v41.3h-8.7l-11.5-30v30h-7.2L52.7,275L52.7,275z"/>
<path class="st5" d="M113.4,315.1c-1.3,0.6-2.6,1.2-4,1.5c-1.5,0.4-2.9,0.5-4.5,0.5c-5.6,0-9.8-1.8-12.8-5.5
	c-2.9-3.7-4.4-9-4.4-15.9s1.5-12.2,4.4-15.9c2.9-3.7,7.2-5.5,12.8-5.5c1.6,0,3.1,0.2,4.5,0.5c1.5,0.4,2.7,0.8,4,1.5v9
	c-1.4-1.3-2.7-2.2-4.1-2.8c-1.3-0.6-2.6-0.9-4.1-0.9c-3,0-5.2,1.2-6.8,3.6c-1.6,2.4-2.3,5.8-2.3,10.5c0,4.7,0.7,8.1,2.3,10.5
	c1.6,2.4,3.7,3.6,6.8,3.6c1.4,0,2.7-0.3,4.1-0.9c1.3-0.6,2.6-1.6,4.1-2.8V315.1z"/>
<path class="st5" d="M130,306.1h9.2v10.1H130V306.1z"/>
<path class="st6" d="M20.9,245.6v-26h8.1v28c0,2.1,0.5,3.7,1.6,4.8c1,1.2,2.5,1.7,4.4,1.7c1.8,0,3.3-0.5,4.4-1.7
	c1-1.2,1.6-2.8,1.6-4.8v-28h8.1v26c0,5.6-1.1,9.7-3.4,12.2c-2.2,2.6-5.8,3.8-10.8,3.8s-8.5-1.3-10.8-3.8
	C22,255.2,20.9,251.1,20.9,245.6z"/>
<path class="st6" d="M74.4,241.3c0.8,0.2,1.6,0.5,2.1,1.2c0.6,0.6,1.4,1.7,2.2,3.5l7.5,14.9h-9l-5-10.5c-0.2-0.3-0.4-0.7-0.5-1.2
	c-1.5-3.1-3.2-4.7-5.1-4.7H64v16.4h-8.2v-41.3h11.8c5.3,0,9.1,0.9,11.4,2.8s3.5,4.9,3.5,9.1c0,2.8-0.7,5.1-2.1,6.8
	C78.9,240,76.9,241,74.4,241.3z M63.9,226.4v11.2h3.8c2.2,0,3.8-0.5,4.8-1.3c1-0.9,1.5-2.3,1.5-4.3c0-2-0.5-3.5-1.5-4.3
	c-0.9-0.8-2.6-1.3-4.8-1.3L63.9,226.4L63.9,226.4z"/>
<path class="st6" d="M89.6,219.4H103c4.6,0,8,0.9,10.3,2.6c2.3,1.7,3.5,4.4,3.5,7.8c0,2.6-0.6,4.8-2,6.2s-3.4,2.4-6,2.6
	c3.1,0.3,5.5,1.4,7.1,3.2c1.6,1.8,2.4,4.3,2.4,7.6c0,4-1.2,6.9-3.6,8.7c-2.4,1.8-6.3,2.6-11.7,2.6H89.6L89.6,219.4L89.6,219.4z
	 M97.5,225.9v9.6h5.4c2.1,0,3.6-0.4,4.4-1.1c0.9-0.7,1.3-1.9,1.3-3.7c0-1.7-0.5-2.9-1.4-3.7s-2.4-1.2-4.4-1.2H97.5z M97.5,242v12.2
	h5.4c2.6,0,4.4-0.5,5.5-1.4c1-0.9,1.6-2.5,1.6-4.7c0-2.2-0.5-3.8-1.6-4.8c-1.1-1-2.9-1.5-5.4-1.5L97.5,242L97.5,242z"/>
<path class="st6" d="M132.3,219.5h10l11.1,41.3h-8.1l-2.6-10.2h-11l-2.5,10.2h-8.1L132.3,219.5z M137.2,226.9l-3.8,16.9h7.7
	L137.2,226.9z"/>
<path class="st6" d="M157.6,219.5h8.8l11.5,30v-30h7.2v41.3h-8.8l-11.5-30v30h-7.2V219.5z"/>
<path class="st6" d="M22.8,282.7v-7.2h24.6v7.2h-8.2v26.9h8.2v7.2H22.8v-7.2H31v-26.9H22.8z"/>
<path class="st6" d="M55.4,275.5h8.8l11.5,30v-30h7.2v41.3h-8.7l-11.5-30v30h-7.2L55.4,275.5L55.4,275.5z"/>
<path class="st6" d="M116,315.6c-1.3,0.6-2.6,1.2-4,1.5c-1.5,0.4-2.9,0.5-4.5,0.5c-5.6,0-9.8-1.8-12.8-5.5c-2.9-3.7-4.4-9-4.4-15.9
	c0-6.9,1.5-12.2,4.4-15.9c2.9-3.7,7.2-5.5,12.8-5.5c1.6,0,3.1,0.2,4.5,0.5c1.5,0.4,2.7,0.8,4,1.5v9c-1.4-1.3-2.7-2.2-4.1-2.8
	c-1.3-0.6-2.6-0.9-4.1-0.9c-3,0-5.2,1.2-6.8,3.6c-1.6,2.4-2.3,5.8-2.3,10.5s0.7,8.1,2.3,10.5s3.7,3.6,6.8,3.6c1.4,0,2.7-0.3,4.1-0.9
	c1.3-0.6,2.6-1.6,4.1-2.8V315.6z"/>
<path class="st6" d="M132.7,306.7h9.2v10.1h-9.2V306.7z"/>
<g>
	<path d="M76,356H57.3v7.5h17.1v6.1H57.3v9.1h19.5v6.3H50.1v-35.3H76V356z"/>
	<path d="M80,368.1h13.4v6.5H80V368.1z"/>
	<path d="M102.3,353.4c2.8-2.9,6.5-4.4,10.8-4.4c5.9,0,10.2,1.9,12.9,5.8c1.5,2.2,2.3,4.4,2.4,6.6H121c-0.5-1.7-1.1-3-1.8-3.8
		c-1.3-1.5-3.3-2.3-5.8-2.3c-2.6,0-4.7,1.1-6.2,3.2c-1.5,2.2-2.3,5.2-2.3,9.2s0.8,6.9,2.4,8.9s3.6,3,6.1,3s4.5-0.8,5.8-2.5
		c0.7-0.9,1.3-2.3,1.8-4.1h7.3c-0.6,3.8-2.2,7-4.8,9.4c-2.6,2.4-5.9,3.6-10,3.6c-5,0-9-1.6-11.8-4.9c-2.9-3.3-4.3-7.8-4.3-13.4
		C97.4,361.5,99,356.8,102.3,353.4z"/>
	<path d="M161.5,381.9c-2.7,2.7-6.5,4.1-11.6,4.1c-5,0-8.9-1.4-11.6-4.1c-3.6-3.4-5.4-8.2-5.4-14.5c0-6.5,1.8-11.3,5.4-14.5
		c2.7-2.7,6.5-4.1,11.6-4.1c5,0,8.9,1.4,11.6,4.1c3.6,3.2,5.3,8.1,5.3,14.5C166.8,373.7,165,378.5,161.5,381.9z M156.9,376.5
		c1.7-2.2,2.6-5.2,2.6-9.2s-0.9-7-2.6-9.2c-1.7-2.2-4-3.2-7-3.2s-5.2,1.1-7,3.2c-1.7,2.2-2.6,5.2-2.6,9.2s0.9,7,2.6,9.2
		c1.7,2.2,4.1,3.2,7,3.2S155.1,378.7,156.9,376.5z"/>
	<path d="M195.8,349.8h10.6V385h-6.9v-23.9c0-0.7,0-1.6,0-2.9c0-1.2,0-2.2,0-2.9l-6.7,29.6h-7.2l-6.6-29.6c0,0.7,0,1.6,0,2.9
		c0,1.2,0,2.2,0,2.9V385h-6.9v-35.3h10.7l6.4,27.7L195.8,349.8z"/>
	<path d="M236.6,349.8h10.6V385h-6.8v-23.9c0-0.7,0-1.6,0-2.9c0-1.2,0-2.2,0-2.9l-6.7,29.6h-7.2l-6.6-29.6c0,0.7,0,1.6,0,2.9
		c0,1.2,0,2.2,0,2.9V385H213v-35.3h10.7l6.4,27.7L236.6,349.8z"/>
	<path d="M280.1,356h-18.7v7.5h17.1v6.1h-17.1v9.1h19.5v6.3h-26.7v-35.3h25.9V356z"/>
	<path d="M309.3,350.7c1.3,0.6,2.4,1.4,3.3,2.5c0.7,0.9,1.3,1.9,1.8,3c0.4,1.1,0.7,2.3,0.7,3.7c0,1.7-0.4,3.3-1.3,4.9
		c-0.8,1.6-2.2,2.8-4.2,3.4c1.6,0.7,2.8,1.6,3.5,2.8c0.7,1.2,1,3,1,5.5v2.4c0,1.6,0.1,2.7,0.2,3.3c0.2,0.9,0.6,1.6,1.4,2v0.9h-8.1
		c-0.2-0.8-0.4-1.4-0.5-1.9c-0.2-1-0.3-2-0.3-3v-3.3c0-2.2-0.4-3.7-1.2-4.5c-0.7-0.7-2.1-1.1-4.2-1.1h-7.2V385H287v-35.3h16.9
		C306.2,349.8,308,350.1,309.3,350.7z M294.1,355.9v9.5h7.9c1.6,0,2.8-0.2,3.5-0.6c1.4-0.7,2.1-2,2.1-4c0-2.1-0.7-3.6-2-4.3
		c-0.8-0.4-1.9-0.6-3.4-0.6H294.1z"/>
	<path d="M325.5,353.4c2.8-2.9,6.5-4.4,10.8-4.4c5.9,0,10.2,1.9,12.9,5.8c1.5,2.2,2.3,4.4,2.4,6.6h-7.4c-0.5-1.7-1.1-3-1.8-3.8
		c-1.3-1.5-3.3-2.3-5.8-2.3c-2.6,0-4.7,1.1-6.2,3.2c-1.5,2.2-2.3,5.2-2.3,9.2s0.8,6.9,2.4,8.9s3.6,3,6.1,3s4.5-0.8,5.8-2.5
		c0.7-0.9,1.3-2.3,1.8-4.1h7.3c-0.6,3.8-2.2,7-4.8,9.4s-5.9,3.6-10,3.6c-5,0-9-1.6-11.8-4.9c-2.9-3.3-4.3-7.8-4.3-13.4
		C320.6,361.5,322.2,356.8,325.5,353.4z"/>
	<path d="M383.6,356h-18.7v7.5H382v6.1h-17.1v9.1h19.5v6.3h-26.7v-35.3h25.9L383.6,356L383.6,356z"/>
</g>
</svg>
